<svg xmlns="http://www.w3.org/2000/svg" xmlns:xlink="http://www.w3.org/1999/xlink" contentStyleType="text/css" data-diagram-type="CLASS" height="754px" preserveAspectRatio="none" style="width:1648px;height:754px;background:#FFFFFF;" version="1.1" viewBox="0 0 1648 754" width="1648px" zoomAndPan="magnify"><defs/><g><!--class Appointment--><g id="elem_Appointment"><rect codeLine="1" fill="#F1F1F1" height="181.4754" id="Appointment" rx="2.5" ry="2.5" style="stroke:#181818;stroke-width:0.5;" width="691.8518" x="490.82" y="7"/><ellipse cx="789.1731" cy="23" fill="#ADD1B2" rx="11" ry="11" style="stroke:#181818;stroke-width:1;"/><path d="M788.6418,29.9219 Q786.8918,29.9219 785.7512,29.1875 Q784.6262,28.4375 784.0637,27.0938 Q783.5168,25.7344 783.5168,23.9375 Q783.5168,21.9063 784.1731,20.4531 Q784.8293,19 786.1106,18.2188 Q787.3918,17.4375 789.2668,17.4375 Q790.1574,17.4375 790.8293,17.625 Q791.5012,17.7969 792.1887,18.1406 L791.3762,20.1563 Q790.7512,19.8438 790.2043,19.7188 Q789.6731,19.5938 789.1887,19.5938 Q788.0168,19.5938 787.3137,20.125 Q786.6106,20.6563 786.3137,21.6094 Q786.0168,22.5625 786.0168,23.8281 Q786.0168,25.8438 786.7356,26.8125 Q787.4543,27.7656 789.0481,27.7656 Q789.6418,27.7656 790.2668,27.6094 Q790.8918,27.4531 791.7199,27.0781 L791.7199,29.2969 Q790.9856,29.6094 790.1887,29.7656 Q789.4074,29.9219 788.6418,29.9219 Z " fill="#000000"/><text fill="#000000" font-family="sans-serif" font-size="14" lengthAdjust="spacing" textLength="86.6457" x="809.6731" y="28.432">Appointment</text><line style="stroke:#181818;stroke-width:0.5;" x1="491.82" x2="1181.6718" y1="39" y2="39"/><rect fill="transparent" height="6" style="stroke:#C82930;stroke-width:1;" width="6" x="498.82" y="51.034"/><text fill="#000000" font-family="sans-serif" font-size="14" lengthAdjust="spacing" textLength="51.2958" x="510.82" y="57.9659">UUID id</text><rect fill="transparent" height="6" style="stroke:#C82930;stroke-width:1;" width="6" x="498.82" y="70.1019"/><text fill="#000000" font-family="sans-serif" font-size="14" lengthAdjust="spacing" textLength="163.8694" x="510.82" y="77.0339">LocalDateTime startTime</text><rect fill="transparent" height="6" style="stroke:#C82930;stroke-width:1;" width="6" x="498.82" y="89.1698"/><text fill="#000000" font-family="sans-serif" font-size="14" lengthAdjust="spacing" textLength="158.5774" x="510.82" y="96.1018">LocalDateTime endTime</text><rect fill="transparent" height="6" style="stroke:#C82930;stroke-width:1;" width="6" x="498.82" y="108.2377"/><text fill="#000000" font-family="sans-serif" font-size="14" lengthAdjust="spacing" textLength="104.4676" x="510.82" y="115.1697">List participants</text><rect fill="transparent" height="6" style="stroke:#C82930;stroke-width:1;" width="6" x="498.82" y="127.3056"/><text fill="#000000" font-family="sans-serif" font-size="14" lengthAdjust="spacing" textLength="116.7596" x="510.82" y="134.2376">String description</text><line style="stroke:#181818;stroke-width:0.5;" x1="491.82" x2="1181.6718" y1="142.3396" y2="142.3396"/><ellipse cx="501.82" cy="157.3735" fill="#84BE84" rx="3" ry="3" style="stroke:#038048;stroke-width:1;"/><text fill="#000000" font-family="sans-serif" font-size="14" lengthAdjust="spacing" textLength="467.2762" x="510.82" y="161.3055">getId(), getStartTime(), getEndTime(), getParticipants(), getDescription()</text><ellipse cx="501.82" cy="176.4415" fill="#84BE84" rx="3" ry="3" style="stroke:#038048;stroke-width:1;"/><text fill="#000000" font-family="sans-serif" font-size="14" lengthAdjust="spacing" textLength="665.8518" x="510.82" y="180.3734">setStartTime(LocalDateTime), setEndTime(LocalDateTime), setParticipants(List), setDescription(String)</text></g><!--class AppointmentParticipant--><g id="elem_AppointmentParticipant"><rect codeLine="12" fill="#F1F1F1" height="181.4754" id="AppointmentParticipant" rx="2.5" ry="2.5" style="stroke:#181818;stroke-width:0.5;" width="823.4932" x="7" y="277.01"/><ellipse cx="335.5369" cy="293.01" fill="#ADD1B2" rx="11" ry="11" style="stroke:#181818;stroke-width:1;"/><path d="M335.0056,299.9319 Q333.2556,299.9319 332.115,299.1975 Q330.99,298.4475 330.4275,297.1037 Q329.8806,295.7444 329.8806,293.9475 Q329.8806,291.9162 330.5369,290.4631 Q331.1931,289.01 332.4744,288.2287 Q333.7556,287.4475 335.6306,287.4475 Q336.5212,287.4475 337.1931,287.635 Q337.865,287.8069 338.5525,288.1506 L337.74,290.1662 Q337.115,289.8537 336.5681,289.7287 Q336.0369,289.6037 335.5525,289.6037 Q334.3806,289.6037 333.6775,290.135 Q332.9744,290.6662 332.6775,291.6194 Q332.3806,292.5725 332.3806,293.8381 Q332.3806,295.8537 333.0994,296.8225 Q333.8181,297.7756 335.4119,297.7756 Q336.0056,297.7756 336.6306,297.6194 Q337.2556,297.4631 338.0837,297.0881 L338.0837,299.3069 Q337.3494,299.6194 336.5525,299.7756 Q335.7712,299.9319 335.0056,299.9319 Z " fill="#000000"/><text fill="#000000" font-family="sans-serif" font-size="14" lengthAdjust="spacing" textLength="157.9194" x="356.0369" y="298.442">AppointmentParticipant</text><line style="stroke:#181818;stroke-width:0.5;" x1="8" x2="829.4932" y1="309.01" y2="309.01"/><rect fill="transparent" height="6" style="stroke:#C82930;stroke-width:1;" width="6" x="15" y="321.044"/><text fill="#000000" font-family="sans-serif" font-size="14" lengthAdjust="spacing" textLength="51.2958" x="27" y="327.9759">UUID id</text><rect fill="transparent" height="6" style="stroke:#C82930;stroke-width:1;" width="6" x="15" y="340.1119"/><text fill="#000000" font-family="sans-serif" font-size="14" lengthAdjust="spacing" textLength="175.8393" x="27" y="347.0439">Appointment appointment</text><rect fill="transparent" height="6" style="stroke:#C82930;stroke-width:1;" width="6" x="15" y="359.1798"/><text fill="#000000" font-family="sans-serif" font-size="14" lengthAdjust="spacing" textLength="63.2938" x="27" y="366.1118">User user</text><rect fill="transparent" height="6" style="stroke:#C82930;stroke-width:1;" width="6" x="15" y="378.2477"/><text fill="#000000" font-family="sans-serif" font-size="14" lengthAdjust="spacing" textLength="130.5075" x="27" y="385.1797">Customer customer</text><rect fill="transparent" height="6" style="stroke:#C82930;stroke-width:1;" width="6" x="15" y="397.3156"/><text fill="#000000" font-family="sans-serif" font-size="14" lengthAdjust="spacing" textLength="216.0472" x="27" y="404.2476">AppointmentParticipentRole role</text><line style="stroke:#181818;stroke-width:0.5;" x1="8" x2="829.4932" y1="412.3496" y2="412.3496"/><ellipse cx="18" cy="427.3835" fill="#84BE84" rx="3" ry="3" style="stroke:#038048;stroke-width:1;"/><text fill="#000000" font-family="sans-serif" font-size="14" lengthAdjust="spacing" textLength="403.1704" x="27" y="431.3155">getId(), getAppointment(), getUser(), getCustomer(), getRole()</text><ellipse cx="18" cy="446.4515" fill="#84BE84" rx="3" ry="3" style="stroke:#038048;stroke-width:1;"/><text fill="#000000" font-family="sans-serif" font-size="14" lengthAdjust="spacing" textLength="797.4932" x="27" y="450.3834">setId(UUID), setAppointment(Appointment), setUser(User), setCustomer(Customer), setRole(AppointmentParticipentRole)</text></g><!--class AppointmentParticipentRole--><g id="elem_AppointmentParticipentRole"><rect codeLine="23" fill="#F1F1F1" height="86.1358" id="AppointmentParticipentRole" rx="2.5" ry="2.5" style="stroke:#181818;stroke-width:0.5;" width="218.6473" x="54.42" y="604.22"/><ellipse cx="69.42" cy="620.22" fill="#EB937F" rx="11" ry="11" style="stroke:#181818;stroke-width:1;"/><path d="M65.7794,626.72 L65.7794,614.5794 L73.4356,614.5794 L73.4356,616.7044 L68.1544,616.7044 L68.1544,619.3606 L73.17,619.3606 L73.17,621.4856 L68.1544,621.4856 L68.1544,624.595 L73.4356,624.595 L73.4356,626.72 L65.7794,626.72 Z " fill="#000000"/><text fill="#000000" font-family="sans-serif" font-size="14" lengthAdjust="spacing" textLength="186.6473" x="83.42" y="625.652">AppointmentParticipentRole</text><line style="stroke:#181818;stroke-width:0.5;" x1="55.42" x2="272.0673" y1="636.22" y2="636.22"/><text fill="#000000" font-family="sans-serif" font-size="14" lengthAdjust="spacing" textLength="78.6657" x="60.42" y="655.1859">ORGANIZER</text><text fill="#000000" font-family="sans-serif" font-size="14" lengthAdjust="spacing" textLength="88.0877" x="60.42" y="674.2539">PARTICIPANT</text><line style="stroke:#181818;stroke-width:0.5;" x1="55.42" x2="272.0673" y1="682.3558" y2="682.3558"/></g><!--class AppointmentDTO--><g id="elem_AppointmentDTO"><rect codeLine="28" fill="#F1F1F1" height="200.5433" id="AppointmentDTO" rx="2.5" ry="2.5" style="stroke:#181818;stroke-width:0.5;" width="776.0894" x="865.7" y="267.47"/><ellipse cx="1191.7029" cy="283.47" fill="#ADD1B2" rx="11" ry="11" style="stroke:#181818;stroke-width:1;"/><path d="M1191.1716,290.3919 Q1189.4216,290.3919 1188.281,289.6575 Q1187.156,288.9075 1186.5935,287.5637 Q1186.0466,286.2044 1186.0466,284.4075 Q1186.0466,282.3762 1186.7029,280.9231 Q1187.3591,279.47 1188.6404,278.6887 Q1189.9216,277.9075 1191.7966,277.9075 Q1192.6873,277.9075 1193.3591,278.095 Q1194.031,278.2669 1194.7185,278.6106 L1193.906,280.6262 Q1193.281,280.3137 1192.7341,280.1887 Q1192.2029,280.0637 1191.7185,280.0637 Q1190.5466,280.0637 1189.8435,280.595 Q1189.1404,281.1262 1188.8435,282.0794 Q1188.5466,283.0325 1188.5466,284.2981 Q1188.5466,286.3137 1189.2654,287.2825 Q1189.9841,288.2356 1191.5779,288.2356 Q1192.1716,288.2356 1192.7966,288.0794 Q1193.4216,287.9231 1194.2498,287.5481 L1194.2498,289.7669 Q1193.5154,290.0794 1192.7185,290.2356 Q1191.9373,290.3919 1191.1716,290.3919 Z " fill="#000000"/><text fill="#000000" font-family="sans-serif" font-size="14" lengthAdjust="spacing" textLength="115.5836" x="1212.2029" y="288.902">AppointmentDTO</text><line style="stroke:#181818;stroke-width:0.5;" x1="866.7" x2="1640.7894" y1="299.47" y2="299.47"/><rect fill="transparent" height="6" style="stroke:#C82930;stroke-width:1;" width="6" x="873.7" y="311.504"/><text fill="#000000" font-family="sans-serif" font-size="14" lengthAdjust="spacing" textLength="51.2958" x="885.7" y="318.4359">UUID id</text><rect fill="transparent" height="6" style="stroke:#C82930;stroke-width:1;" width="6" x="873.7" y="330.5719"/><text fill="#000000" font-family="sans-serif" font-size="14" lengthAdjust="spacing" textLength="163.8694" x="885.7" y="337.5039">LocalDateTime startTime</text><rect fill="transparent" height="6" style="stroke:#C82930;stroke-width:1;" width="6" x="873.7" y="349.6398"/><text fill="#000000" font-family="sans-serif" font-size="14" lengthAdjust="spacing" textLength="158.5774" x="885.7" y="356.5718">LocalDateTime endTime</text><rect fill="transparent" height="6" style="stroke:#C82930;stroke-width:1;" width="6" x="873.7" y="368.7077"/><text fill="#000000" font-family="sans-serif" font-size="14" lengthAdjust="spacing" textLength="116.7596" x="885.7" y="375.6397">String description</text><rect fill="transparent" height="6" style="stroke:#C82930;stroke-width:1;" width="6" x="873.7" y="387.7756"/><text fill="#000000" font-family="sans-serif" font-size="14" lengthAdjust="spacing" textLength="104.4676" x="885.7" y="394.7076">List participants</text><line style="stroke:#181818;stroke-width:0.5;" x1="866.7" x2="1640.7894" y1="402.8096" y2="402.8096"/><ellipse cx="876.7" cy="417.8435" fill="#84BE84" rx="3" ry="3" style="stroke:#038048;stroke-width:1;"/><text fill="#000000" font-family="sans-serif" font-size="14" lengthAdjust="spacing" textLength="445.8843" x="885.7" y="421.7755">AppointmentDTO(UUID, LocalDateTime, LocalDateTime, String, List)</text><ellipse cx="876.7" cy="436.9115" fill="#84BE84" rx="3" ry="3" style="stroke:#038048;stroke-width:1;"/><text fill="#000000" font-family="sans-serif" font-size="14" lengthAdjust="spacing" textLength="467.2762" x="885.7" y="440.8434">getId(), getStartTime(), getEndTime(), getDescription(), getParticipants()</text><ellipse cx="876.7" cy="455.9794" fill="#84BE84" rx="3" ry="3" style="stroke:#038048;stroke-width:1;"/><text fill="#000000" font-family="sans-serif" font-size="14" lengthAdjust="spacing" textLength="750.0894" x="885.7" y="459.9114">setId(UUID), setStartTime(LocalDateTime), setEndTime(LocalDateTime), setDescription(String), setParticipants(List)</text></g><!--class AppointmentParticipantDTO--><g id="elem_AppointmentParticipantDTO"><rect codeLine="40" fill="#F1F1F1" height="200.5433" id="AppointmentParticipantDTO" rx="2.5" ry="2.5" style="stroke:#181818;stroke-width:0.5;" width="731.5415" x="307.98" y="547.02"/><ellipse cx="576.0721" cy="563.02" fill="#ADD1B2" rx="11" ry="11" style="stroke:#181818;stroke-width:1;"/><path d="M575.5409,569.9419 Q573.7909,569.9419 572.6502,569.2075 Q571.5252,568.4575 570.9627,567.1138 Q570.4159,565.7544 570.4159,563.9575 Q570.4159,561.9263 571.0721,560.4731 Q571.7284,559.02 573.0096,558.2388 Q574.2909,557.4575 576.1659,557.4575 Q577.0565,557.4575 577.7284,557.645 Q578.4002,557.8169 579.0877,558.1606 L578.2752,560.1763 Q577.6502,559.8638 577.1034,559.7388 Q576.5721,559.6138 576.0877,559.6138 Q574.9159,559.6138 574.2127,560.145 Q573.5096,560.6763 573.2127,561.6294 Q572.9159,562.5825 572.9159,563.8481 Q572.9159,565.8638 573.6346,566.8325 Q574.3534,567.7856 575.9471,567.7856 Q576.5409,567.7856 577.1659,567.6294 Q577.7909,567.4731 578.619,567.0981 L578.619,569.3169 Q577.8846,569.6294 577.0877,569.7856 Q576.3065,569.9419 575.5409,569.9419 Z " fill="#000000"/><text fill="#000000" font-family="sans-serif" font-size="14" lengthAdjust="spacing" textLength="186.8573" x="596.5721" y="568.452">AppointmentParticipantDTO</text><line style="stroke:#181818;stroke-width:0.5;" x1="308.98" x2="1038.5215" y1="579.02" y2="579.02"/><rect fill="transparent" height="6" style="stroke:#C82930;stroke-width:1;" width="6" x="315.98" y="591.054"/><text fill="#000000" font-family="sans-serif" font-size="14" lengthAdjust="spacing" textLength="51.2958" x="327.98" y="597.9859">UUID id</text><rect fill="transparent" height="6" style="stroke:#C82930;stroke-width:1;" width="6" x="315.98" y="610.1219"/><text fill="#000000" font-family="sans-serif" font-size="14" lengthAdjust="spacing" textLength="80.5277" x="327.98" y="617.0539">String name</text><rect fill="transparent" height="6" style="stroke:#C82930;stroke-width:1;" width="6" x="315.98" y="629.1898"/><text fill="#000000" font-family="sans-serif" font-size="14" lengthAdjust="spacing" textLength="81.4657" x="327.98" y="636.1218">UUID userId</text><rect fill="transparent" height="6" style="stroke:#C82930;stroke-width:1;" width="6" x="315.98" y="648.2577"/><text fill="#000000" font-family="sans-serif" font-size="14" lengthAdjust="spacing" textLength="114.7996" x="327.98" y="655.1897">UUID customerId</text><rect fill="transparent" height="6" style="stroke:#C82930;stroke-width:1;" width="6" x="315.98" y="667.3256"/><text fill="#000000" font-family="sans-serif" font-size="14" lengthAdjust="spacing" textLength="216.0472" x="327.98" y="674.2576">AppointmentParticipentRole role</text><line style="stroke:#181818;stroke-width:0.5;" x1="308.98" x2="1038.5215" y1="682.3596" y2="682.3596"/><ellipse cx="318.98" cy="697.3935" fill="#84BE84" rx="3" ry="3" style="stroke:#038048;stroke-width:1;"/><text fill="#000000" font-family="sans-serif" font-size="14" lengthAdjust="spacing" textLength="557.1699" x="327.98" y="701.3255">AppointmentParticipantDTO(UUID, String, UUID, UUID, AppointmentParticipentRole)</text><ellipse cx="318.98" cy="716.4615" fill="#84BE84" rx="3" ry="3" style="stroke:#038048;stroke-width:1;"/><text fill="#000000" font-family="sans-serif" font-size="14" lengthAdjust="spacing" textLength="382.7166" x="327.98" y="720.3934">getId(), getName(), getUserId(), getCustomerId(), getRole()</text><ellipse cx="318.98" cy="735.5294" fill="#84BE84" rx="3" ry="3" style="stroke:#038048;stroke-width:1;"/><text fill="#000000" font-family="sans-serif" font-size="14" lengthAdjust="spacing" textLength="705.5415" x="327.98" y="739.4614">setId(UUID), setName(String), setUserId(UUID), setCustomerId(UUID), setRole(AppointmentParticipentRole)</text></g><!--link Appointment to AppointmentParticipant--><g id="link_Appointment_AppointmentParticipant"><path codeLine="52" d="M696.1,188.91 C652.01,217.19 603.34,248.39 559.25,276.66 " fill="transparent" id="Appointment-AppointmentParticipant" style="stroke:#181818;stroke-width:1;"/><text fill="#000000" font-family="sans-serif" font-size="13" lengthAdjust="spacing" textLength="92.9241" x="641.28" y="233.367">hat Teilnehmer</text><text fill="#000000" font-family="sans-serif" font-size="13" lengthAdjust="spacing" textLength="7.436" x="678.0805" y="210.4652">1</text><text fill="#000000" font-family="sans-serif" font-size="13" lengthAdjust="spacing" textLength="21.567" x="549.0394" y="265.3391">0..*</text></g><!--link AppointmentParticipant to AppointmentParticipentRole--><g id="link_AppointmentParticipant_AppointmentParticipentRole"><path codeLine="53" d="M335.96,458.86 C291.16,507.61 237.94,565.53 202.64,603.95 " fill="transparent" id="AppointmentParticipant-AppointmentParticipentRole" style="stroke:#181818;stroke-width:1;"/><text fill="#000000" font-family="sans-serif" font-size="13" lengthAdjust="spacing" textLength="82.8231" x="299.89" y="512.917">hat eine Rolle</text><text fill="#000000" font-family="sans-serif" font-size="13" lengthAdjust="spacing" textLength="7.436" x="322.3704" y="480.4106">1</text><text fill="#000000" font-family="sans-serif" font-size="13" lengthAdjust="spacing" textLength="7.436" x="201.5386" y="592.3198">1</text></g><!--link Appointment to AppointmentDTO--><g id="link_Appointment_AppointmentDTO"><path codeLine="54" d="M977.05,188.91 C1016.08,213.99 1058.69,241.38 1098.52,266.98 " fill="transparent" id="Appointment-AppointmentDTO" style="stroke:#181818;stroke-width:1;"/><text fill="#000000" font-family="sans-serif" font-size="13" lengthAdjust="spacing" textLength="134.7061" x="1046.25" y="233.367">wird abgebildet durch</text><text fill="#000000" font-family="sans-serif" font-size="13" lengthAdjust="spacing" textLength="7.436" x="980.5408" y="210.4652">1</text><text fill="#000000" font-family="sans-serif" font-size="13" lengthAdjust="spacing" textLength="21.567" x="1064.8534" y="255.5387">0..*</text></g><!--link AppointmentParticipant to AppointmentParticipantDTO--><g id="link_AppointmentParticipant_AppointmentParticipantDTO"><path codeLine="55" d="M501.54,458.86 C527.28,486.87 555.8,517.92 582.11,546.55 " fill="transparent" id="AppointmentParticipant-AppointmentParticipantDTO" style="stroke:#181818;stroke-width:1;"/><text fill="#000000" font-family="sans-serif" font-size="13" lengthAdjust="spacing" textLength="134.7061" x="554.89" y="512.917">wird abgebildet durch</text><text fill="#000000" font-family="sans-serif" font-size="13" lengthAdjust="spacing" textLength="7.436" x="500.6276" y="480.4106">1</text><text fill="#000000" font-family="sans-serif" font-size="13" lengthAdjust="spacing" textLength="21.567" x="553.3116" y="535.1102">0..*</text></g><!--SRC=[hLGzRy8m4DtpAqwPI0keh6o8e2fI1GZ2qit45bWAJXGRTQZwt-kl40VY05KpM7TdvztTEpzdEU8SPcLPK2PEX0du3a1-8zZjaXWejjv7aQ4yHeAaz4I02rG9PNNk4eRTFSe5bF8ypMY9cE0slXKLPGV0X6SLBGKjMA1tNk50H887qL0PspgJzHS6stfh1zQ6uWPl45b0xkAqQfN_y0QqOwkLGRLYmcuMqqWK_0H1Tiscyxk7M9TwrDZrMKugECl5-lCp5yL9nZ9htABKAQMvAN82bLowc7L-iH6Lp9fr7kig89TD2QAwC5ouG8vjDZMcMenxmQqD4zRu_XuqjuITJtrz6dfNc_VPClbSRBItdctIP9wiPykqSpnnklht-zvnhtr2i8Is2zBC3jifRboJPAWnewTbqz98Xv0yW_whXZh4uj7MFGtvvsLPP-Wo1xslf9DWDr8B9y7FISTRa9rNFH7ZcRNlHj_ER8ak0zhfig-qU0dqgb6Zk2nRhEQ4WzS47r6W-rI5an168mZVnkENqFVYJU681AI4vemSrMFbELU3JSA-QHWqGXa1wSl9F5IFkZ9J-A8L1hG_a3tDCH60prLsl5TENsyziBy0]--></g></svg>