<svg xmlns="http://www.w3.org/2000/svg" xmlns:xlink="http://www.w3.org/1999/xlink" contentStyleType="text/css" data-diagram-type="CLASS" height="532px" preserveAspectRatio="none" style="width:1229px;height:532px;background:#FFFFFF;" version="1.1" viewBox="0 0 1229 532" width="1229px" zoomAndPan="magnify"><defs/><g><!--class Customer--><g id="elem_Customer"><rect codeLine="1" fill="#F1F1F1" height="276.815" id="Customer" rx="2.5" ry="2.5" style="stroke:#181818;stroke-width:0.5;" width="1215.3656" x="7" y="7"/><ellipse cx="578.1839" cy="23" fill="#ADD1B2" rx="11" ry="11" style="stroke:#181818;stroke-width:1;"/><path d="M577.6527,29.9219 Q575.9027,29.9219 574.762,29.1875 Q573.637,28.4375 573.0745,27.0938 Q572.5277,25.7344 572.5277,23.9375 Q572.5277,21.9063 573.1839,20.4531 Q573.8402,19 575.1214,18.2188 Q576.4027,17.4375 578.2777,17.4375 Q579.1683,17.4375 579.8402,17.625 Q580.512,17.7969 581.1995,18.1406 L580.387,20.1563 Q579.762,19.8438 579.2152,19.7188 Q578.6839,19.5938 578.1995,19.5938 Q577.0277,19.5938 576.3245,20.125 Q575.6214,20.6563 575.3245,21.6094 Q575.0277,22.5625 575.0277,23.8281 Q575.0277,25.8438 575.7464,26.8125 Q576.4652,27.7656 578.0589,27.7656 Q578.6527,27.7656 579.2777,27.6094 Q579.9027,27.4531 580.7308,27.0781 L580.7308,29.2969 Q579.9964,29.6094 579.1995,29.7656 Q578.4183,29.9219 577.6527,29.9219 Z " fill="#000000"/><text fill="#000000" font-family="sans-serif" font-size="14" lengthAdjust="spacing" textLength="64.4978" x="598.6839" y="28.432">Customer</text><line style="stroke:#181818;stroke-width:0.5;" x1="8" x2="1221.3656" y1="39" y2="39"/><rect fill="transparent" height="6" style="stroke:#C82930;stroke-width:1;" width="6" x="15" y="51.034"/><text fill="#000000" font-family="sans-serif" font-size="14" lengthAdjust="spacing" textLength="51.2958" x="27" y="57.9659">UUID id</text><rect fill="transparent" height="6" style="stroke:#C82930;stroke-width:1;" width="6" x="15" y="70.1019"/><text fill="#000000" font-family="sans-serif" font-size="14" lengthAdjust="spacing" textLength="152.2494" x="27" y="77.0339">User assignedManager</text><rect fill="transparent" height="6" style="stroke:#C82930;stroke-width:1;" width="6" x="15" y="89.1698"/><text fill="#000000" font-family="sans-serif" font-size="14" lengthAdjust="spacing" textLength="80.5277" x="27" y="96.1018">String name</text><rect fill="transparent" height="6" style="stroke:#C82930;stroke-width:1;" width="6" x="15" y="108.2377"/><text fill="#000000" font-family="sans-serif" font-size="14" lengthAdjust="spacing" textLength="101.6676" x="27" y="115.1697">String surname</text><rect fill="transparent" height="6" style="stroke:#C82930;stroke-width:1;" width="6" x="15" y="127.3056"/><text fill="#000000" font-family="sans-serif" font-size="14" lengthAdjust="spacing" textLength="79.0997" x="27" y="134.2376">String email</text><rect fill="transparent" height="6" style="stroke:#C82930;stroke-width:1;" width="6" x="15" y="146.3735"/><text fill="#000000" font-family="sans-serif" font-size="14" lengthAdjust="spacing" textLength="139.9855" x="27" y="153.3055">String phoneNumber</text><rect fill="transparent" height="6" style="stroke:#C82930;stroke-width:1;" width="6" x="15" y="165.4415"/><text fill="#000000" font-family="sans-serif" font-size="14" lengthAdjust="spacing" textLength="95.1997" x="27" y="172.3734">String address</text><rect fill="transparent" height="6" style="stroke:#C82930;stroke-width:1;" width="6" x="15" y="184.5094"/><text fill="#000000" font-family="sans-serif" font-size="14" lengthAdjust="spacing" textLength="103.5716" x="27" y="191.4414">String company</text><rect fill="transparent" height="6" style="stroke:#C82930;stroke-width:1;" width="6" x="15" y="203.5773"/><text fill="#000000" font-family="sans-serif" font-size="14" lengthAdjust="spacing" textLength="184.8273" x="27" y="210.5093">ContactStatus contactStatus</text><rect fill="transparent" height="6" style="stroke:#C82930;stroke-width:1;" width="6" x="15" y="222.6452"/><text fill="#000000" font-family="sans-serif" font-size="14" lengthAdjust="spacing" textLength="63.1258" x="27" y="229.5772">List notes</text><line style="stroke:#181818;stroke-width:0.5;" x1="8" x2="1221.3656" y1="237.6792" y2="237.6792"/><ellipse cx="18" cy="252.7131" fill="#84BE84" rx="3" ry="3" style="stroke:#038048;stroke-width:1;"/><text fill="#000000" font-family="sans-serif" font-size="14" lengthAdjust="spacing" textLength="820.3271" x="27" y="256.6451">getId(), getName(), getSurname(), getEmail(), getPhoneNumber(), getAddress(), getCompany(), getContactStatus(), getNotes()</text><ellipse cx="18" cy="271.781" fill="#84BE84" rx="3" ry="3" style="stroke:#038048;stroke-width:1;"/><text fill="#000000" font-family="sans-serif" font-size="14" lengthAdjust="spacing" textLength="1189.3656" x="27" y="275.713">setId(UUID), setName(String), setSurname(String), setEmail(String), setPhoneNumber(String), setAddress(String), setCompany(String), setContactStatus(ContactStatus), setNotes(List)</text></g><!--class ContactStatus--><g id="elem_ContactStatus"><rect codeLine="17" fill="#F1F1F1" height="124.2717" id="ContactStatus" rx="2.5" ry="2.5" style="stroke:#181818;stroke-width:0.5;" width="138.5175" x="198.42" y="381.88"/><ellipse cx="220.1069" cy="397.88" fill="#EB937F" rx="11" ry="11" style="stroke:#181818;stroke-width:1;"/><path d="M216.4663,404.38 L216.4663,392.2394 L224.1226,392.2394 L224.1226,394.3644 L218.8413,394.3644 L218.8413,397.0206 L223.8569,397.0206 L223.8569,399.1456 L218.8413,399.1456 L218.8413,402.255 L224.1226,402.255 L224.1226,404.38 L216.4663,404.38 Z " fill="#000000"/><text fill="#000000" font-family="sans-serif" font-size="14" lengthAdjust="spacing" textLength="91.6577" x="235.5929" y="403.312">ContactStatus</text><line style="stroke:#181818;stroke-width:0.5;" x1="199.42" x2="335.9375" y1="413.88" y2="413.88"/><text fill="#000000" font-family="sans-serif" font-size="14" lengthAdjust="spacing" textLength="67.1577" x="204.42" y="432.8459">Contacted</text><text fill="#000000" font-family="sans-serif" font-size="14" lengthAdjust="spacing" textLength="91.3217" x="204.42" y="451.9139">NotContacted</text><text fill="#000000" font-family="sans-serif" font-size="14" lengthAdjust="spacing" textLength="126.5175" x="204.42" y="470.9818">WaitingForCallback</text><text fill="#000000" font-family="sans-serif" font-size="14" lengthAdjust="spacing" textLength="68.2917" x="204.42" y="490.0497">Interested</text><line style="stroke:#181818;stroke-width:0.5;" x1="199.42" x2="335.9375" y1="498.1517" y2="498.1517"/></g><!--class CustomerNotes--><g id="elem_CustomerNotes"><rect codeLine="24" fill="#F1F1F1" height="162.4075" id="CustomerNotes" rx="2.5" ry="2.5" style="stroke:#181818;stroke-width:0.5;" width="485.8144" x="371.78" y="362.81"/><ellipse cx="558.8054" cy="378.81" fill="#ADD1B2" rx="11" ry="11" style="stroke:#181818;stroke-width:1;"/><path d="M558.2741,385.7319 Q556.5241,385.7319 555.3835,384.9975 Q554.2585,384.2475 553.696,382.9038 Q553.1491,381.5444 553.1491,379.7475 Q553.1491,377.7163 553.8054,376.2631 Q554.4616,374.81 555.7429,374.0288 Q557.0241,373.2475 558.8991,373.2475 Q559.7898,373.2475 560.4616,373.435 Q561.1335,373.6069 561.821,373.9506 L561.0085,375.9663 Q560.3835,375.6538 559.8366,375.5288 Q559.3054,375.4038 558.821,375.4038 Q557.6491,375.4038 556.946,375.935 Q556.2429,376.4663 555.946,377.4194 Q555.6491,378.3725 555.6491,379.6381 Q555.6491,381.6538 556.3679,382.6225 Q557.0866,383.5756 558.6804,383.5756 Q559.2741,383.5756 559.8991,383.4194 Q560.5241,383.2631 561.3523,382.8881 L561.3523,385.1069 Q560.6179,385.4194 559.821,385.5756 Q559.0398,385.7319 558.2741,385.7319 Z " fill="#000000"/><text fill="#000000" font-family="sans-serif" font-size="14" lengthAdjust="spacing" textLength="103.2636" x="579.3054" y="384.242">CustomerNotes</text><line style="stroke:#181818;stroke-width:0.5;" x1="372.78" x2="856.5944" y1="394.81" y2="394.81"/><rect fill="transparent" height="6" style="stroke:#C82930;stroke-width:1;" width="6" x="379.78" y="406.844"/><text fill="#000000" font-family="sans-serif" font-size="14" lengthAdjust="spacing" textLength="51.2958" x="391.78" y="413.7759">UUID id</text><rect fill="transparent" height="6" style="stroke:#C82930;stroke-width:1;" width="6" x="379.78" y="425.9119"/><text fill="#000000" font-family="sans-serif" font-size="14" lengthAdjust="spacing" textLength="78.7217" x="391.78" y="432.8439">User author</text><rect fill="transparent" height="6" style="stroke:#C82930;stroke-width:1;" width="6" x="379.78" y="444.9798"/><text fill="#000000" font-family="sans-serif" font-size="14" lengthAdjust="spacing" textLength="130.5075" x="391.78" y="451.9118">Customer customer</text><rect fill="transparent" height="6" style="stroke:#C82930;stroke-width:1;" width="6" x="379.78" y="464.0477"/><text fill="#000000" font-family="sans-serif" font-size="14" lengthAdjust="spacing" textLength="73.1077" x="391.78" y="470.9797">String note</text><line style="stroke:#181818;stroke-width:0.5;" x1="372.78" x2="856.5944" y1="479.0817" y2="479.0817"/><ellipse cx="382.78" cy="494.1156" fill="#84BE84" rx="3" ry="3" style="stroke:#038048;stroke-width:1;"/><text fill="#000000" font-family="sans-serif" font-size="14" lengthAdjust="spacing" textLength="297.4849" x="391.78" y="498.0476">getId(), getAuthor(), getCustomer(), getNote()</text><ellipse cx="382.78" cy="513.1835" fill="#84BE84" rx="3" ry="3" style="stroke:#038048;stroke-width:1;"/><text fill="#000000" font-family="sans-serif" font-size="14" lengthAdjust="spacing" textLength="459.8144" x="391.78" y="517.1155">setId(UUID), setAuthor(User), setCustomer(Customer), setNote(String)</text></g><!--class User--><g id="elem_User"><rect fill="#F1F1F1" height="48" id="User" rx="2.5" ry="2.5" style="stroke:#181818;stroke-width:0.5;" width="62.6179" x="892.37" y="420.02"/><ellipse cx="907.37" cy="436.02" fill="#ADD1B2" rx="11" ry="11" style="stroke:#181818;stroke-width:1;"/><path d="M906.8388,442.9419 Q905.0888,442.9419 903.9481,442.2075 Q902.8231,441.4575 902.2606,440.1138 Q901.7138,438.7544 901.7138,436.9575 Q901.7138,434.9263 902.37,433.4731 Q903.0263,432.02 904.3075,431.2388 Q905.5888,430.4575 907.4638,430.4575 Q908.3544,430.4575 909.0263,430.645 Q909.6981,430.8169 910.3856,431.1606 L909.5731,433.1763 Q908.9481,432.8638 908.4013,432.7388 Q907.87,432.6138 907.3856,432.6138 Q906.2138,432.6138 905.5106,433.145 Q904.8075,433.6763 904.5106,434.6294 Q904.2138,435.5825 904.2138,436.8481 Q904.2138,438.8638 904.9325,439.8325 Q905.6513,440.7856 907.245,440.7856 Q907.8388,440.7856 908.4638,440.6294 Q909.0888,440.4731 909.9169,440.0981 L909.9169,442.3169 Q909.1825,442.6294 908.3856,442.7856 Q907.6044,442.9419 906.8388,442.9419 Z " fill="#000000"/><text fill="#000000" font-family="sans-serif" font-size="14" lengthAdjust="spacing" textLength="30.6179" x="921.37" y="441.452">User</text><line style="stroke:#181818;stroke-width:0.5;" x1="893.37" x2="953.9879" y1="452.02" y2="452.02"/><line style="stroke:#181818;stroke-width:0.5;" x1="893.37" x2="953.9879" y1="460.02" y2="460.02"/></g><!--link Customer to CustomerNotes--><g id="link_Customer_CustomerNotes"><path codeLine="34" d="M614.68,284.29 C614.68,311.07 614.68,338.3 614.68,362.47 " fill="transparent" id="Customer-CustomerNotes" style="stroke:#181818;stroke-width:1;"/><text fill="#000000" font-family="sans-serif" font-size="13" lengthAdjust="spacing" textLength="70.6681" x="615.68" y="328.707">hat Notizen</text><text fill="#000000" font-family="sans-serif" font-size="13" lengthAdjust="spacing" textLength="7.436" x="607.5106" y="305.8046">1</text><text fill="#000000" font-family="sans-serif" font-size="13" lengthAdjust="spacing" textLength="21.567" x="592.7375" y="351.0986">0..*</text></g><!--link Customer to ContactStatus--><g id="link_Customer_ContactStatus"><path codeLine="35" d="M446.49,284.28 C415.72,310.11 384.06,337.08 354.68,362.81 C347.73,368.9 340.53,375.33 333.39,381.79 " fill="transparent" id="Customer-ContactStatus" style="stroke:#181818;stroke-width:1;"/><text fill="#000000" font-family="sans-serif" font-size="13" lengthAdjust="spacing" textLength="145.6001" x="411.82" y="328.707">hat einen Kontaktstatus</text><text fill="#000000" font-family="sans-serif" font-size="13" lengthAdjust="spacing" textLength="7.436" x="430.6483" y="305.7941">1</text><text fill="#000000" font-family="sans-serif" font-size="13" lengthAdjust="spacing" textLength="7.436" x="333.9986" y="370.1103">1</text></g><!--link Customer to User--><g id="link_Customer_User"><path codeLine="36" d="M795.99,284.02 C823.8,308.79 851.07,335.48 874.68,362.81 C889.72,380.22 903.06,402.78 912.01,419.54 " fill="transparent" id="Customer-User" style="stroke:#181818;stroke-width:1;"/><text fill="#000000" font-family="sans-serif" font-size="13" lengthAdjust="spacing" textLength="115.9731" x="844.52" y="328.707">hat einen Manager</text><text fill="#000000" font-family="sans-serif" font-size="13" lengthAdjust="spacing" textLength="7.436" x="798.1694" y="305.5207">1</text><text fill="#000000" font-family="sans-serif" font-size="13" lengthAdjust="spacing" textLength="21.84" x="885.4368" y="408.0763">0..1</text></g><!--SRC=[VPDDJyCm38Rl_HLHJnkm2QxSfWBI14n8rSGvQwqkMfjCZNi0n7yd7qwNT6Exp7uTnqzijsgvrgmODAeEUlQJCVDRiErs_SH47JnjGkQSQ2JKxrpo1deAbTWBsJ39EqWLFVJd8dHSjAbqt2i9cw7RJQ_aTTs3rgbOgUx8vHU9XPB8AooHuw1DBFBen9lGoAH2q9bJRba3kAvdypjhR0mWcQN79U_PSfBzSG8aPUN9o2iyqkX54A6ChJ-R4u1s0BR19ge9mZ_F2m4brZnGhCHOiHxWOYqWfbeCcdZ4vQXj0-VPRvQ17Bf9m_soa0P-MKnMAdnoWQReY-eBthOxNXsSl9O8XjEUCfTNoHQwobTNSS2z2kioxcv5ncGppMMNPhzoTuIfKMeqi7_dHOaMX3ePaeDnwb_ek7tZo9a_v6onOFdzSdcJJnxzoFOSRHF5DyZp5FENZi2V1o51ibSREQ3s-t-fdB5S_-8i-fp_0000]--></g></svg>