<svg xmlns="http://www.w3.org/2000/svg" xmlns:xlink="http://www.w3.org/1999/xlink" contentStyleType="text/css" data-diagram-type="CLASS" height="532px" preserveAspectRatio="none" style="width:694px;height:532px;background:#FFFFFF;" version="1.1" viewBox="0 0 694 532" width="694px" zoomAndPan="magnify"><defs/><g><!--class Log--><g id="elem_Log"><rect codeLine="1" fill="#F1F1F1" height="219.6113" id="Log" rx="2.5" ry="2.5" style="stroke:#181818;stroke-width:0.5;" width="680.1754" x="7" y="7"/><ellipse cx="330.6298" cy="23" fill="#ADD1B2" rx="11" ry="11" style="stroke:#181818;stroke-width:1;"/><path d="M330.0985,29.9219 Q328.3485,29.9219 327.2079,29.1875 Q326.0829,28.4375 325.5204,27.0938 Q324.9735,25.7344 324.9735,23.9375 Q324.9735,21.9063 325.6298,20.4531 Q326.286,19 327.5673,18.2188 Q328.8485,17.4375 330.7235,17.4375 Q331.6141,17.4375 332.286,17.625 Q332.9579,17.7969 333.6454,18.1406 L332.8329,20.1563 Q332.2079,19.8438 331.661,19.7188 Q331.1298,19.5938 330.6454,19.5938 Q329.4735,19.5938 328.7704,20.125 Q328.0673,20.6563 327.7704,21.6094 Q327.4735,22.5625 327.4735,23.8281 Q327.4735,25.8438 328.1923,26.8125 Q328.911,27.7656 330.5048,27.7656 Q331.0985,27.7656 331.7235,27.6094 Q332.3485,27.4531 333.1766,27.0781 L333.1766,29.2969 Q332.4423,29.6094 331.6454,29.7656 Q330.8641,29.9219 330.0985,29.9219 Z " fill="#000000"/><text fill="#000000" font-family="sans-serif" font-size="14" lengthAdjust="spacing" textLength="24.4159" x="351.1298" y="28.432">Log</text><line style="stroke:#181818;stroke-width:0.5;" x1="8" x2="686.1754" y1="39" y2="39"/><rect fill="transparent" height="6" style="stroke:#C82930;stroke-width:1;" width="6" x="15" y="51.034"/><text fill="#000000" font-family="sans-serif" font-size="14" lengthAdjust="spacing" textLength="51.2958" x="27" y="57.9659">UUID id</text><rect fill="transparent" height="6" style="stroke:#C82930;stroke-width:1;" width="6" x="15" y="70.1019"/><text fill="#000000" font-family="sans-serif" font-size="14" lengthAdjust="spacing" textLength="101.7936" x="27" y="77.0339">String message</text><rect fill="transparent" height="6" style="stroke:#C82930;stroke-width:1;" width="6" x="15" y="89.1698"/><text fill="#000000" font-family="sans-serif" font-size="14" lengthAdjust="spacing" textLength="88.1857" x="27" y="96.1018">LogType type</text><rect fill="transparent" height="6" style="stroke:#C82930;stroke-width:1;" width="6" x="15" y="108.2377"/><text fill="#000000" font-family="sans-serif" font-size="14" lengthAdjust="spacing" textLength="172.0033" x="27" y="115.1697">LocalDateTime timestamp</text><rect fill="transparent" height="6" style="stroke:#C82930;stroke-width:1;" width="6" x="15" y="127.3056"/><text fill="#000000" font-family="sans-serif" font-size="14" lengthAdjust="spacing" textLength="81.4657" x="27" y="134.2376">UUID userId</text><line style="stroke:#181818;stroke-width:0.5;" x1="8" x2="686.1754" y1="142.3396" y2="142.3396"/><ellipse cx="18" cy="157.3735" fill="#84BE84" rx="3" ry="3" style="stroke:#038048;stroke-width:1;"/><text fill="#000000" font-family="sans-serif" font-size="14" lengthAdjust="spacing" textLength="32.8159" x="27" y="161.3055">Log()</text><ellipse cx="18" cy="176.4415" fill="#84BE84" rx="3" ry="3" style="stroke:#038048;stroke-width:1;"/><text fill="#000000" font-family="sans-serif" font-size="14" lengthAdjust="spacing" textLength="283.0649" x="27" y="180.3734">Log(String, LogType, LocalDateTime, UUID)</text><ellipse cx="18" cy="195.5094" fill="#84BE84" rx="3" ry="3" style="stroke:#038048;stroke-width:1;"/><text fill="#000000" font-family="sans-serif" font-size="14" lengthAdjust="spacing" textLength="398.2845" x="27" y="199.4414">getId(), setMessage(), getType(), getTimestamp(), getUserId()</text><ellipse cx="18" cy="214.5773" fill="#84BE84" rx="3" ry="3" style="stroke:#038048;stroke-width:1;"/><text fill="#000000" font-family="sans-serif" font-size="14" lengthAdjust="spacing" textLength="654.1754" x="27" y="218.5093">setId(UUID), setMessage(String), setType(LogType), setTimestamp(LocalDateTime), setUserId(UUID)</text></g><!--class LogType--><g id="elem_LogType"><rect codeLine="14" fill="#F1F1F1" height="219.6113" id="LogType" rx="2.5" ry="2.5" style="stroke:#181818;stroke-width:0.5;" width="180.7693" x="256.7" y="305.61"/><ellipse cx="314.9118" cy="321.61" fill="#EB937F" rx="11" ry="11" style="stroke:#181818;stroke-width:1;"/><path d="M311.2712,328.11 L311.2712,315.9694 L318.9274,315.9694 L318.9274,318.0944 L313.6462,318.0944 L313.6462,320.7506 L318.6618,320.7506 L318.6618,322.8756 L313.6462,322.8756 L313.6462,325.985 L318.9274,325.985 L318.9274,328.11 L311.2712,328.11 Z " fill="#000000"/><text fill="#000000" font-family="sans-serif" font-size="14" lengthAdjust="spacing" textLength="55.8458" x="335.4118" y="327.042">LogType</text><line style="stroke:#181818;stroke-width:0.5;" x1="257.7" x2="436.4693" y1="337.61" y2="337.61"/><text fill="#000000" font-family="sans-serif" font-size="14" lengthAdjust="spacing" textLength="122.0235" x="262.7" y="356.5759">REGISTERED_USER</text><text fill="#000000" font-family="sans-serif" font-size="14" lengthAdjust="spacing" textLength="140.9654" x="262.7" y="375.6439">CREATED_CUSTOMER</text><text fill="#000000" font-family="sans-serif" font-size="14" lengthAdjust="spacing" textLength="144.5494" x="262.7" y="394.7118">UPDATED_CUSTOMER</text><text fill="#000000" font-family="sans-serif" font-size="14" lengthAdjust="spacing" textLength="139.8034" x="262.7" y="413.7797">DELETED_CUSTOMER</text><text fill="#000000" font-family="sans-serif" font-size="14" lengthAdjust="spacing" textLength="161.9513" x="262.7" y="432.8476">CREATED_TRANSACTION</text><text fill="#000000" font-family="sans-serif" font-size="14" lengthAdjust="spacing" textLength="165.5353" x="262.7" y="451.9155">UPDATED_TRANSACTION</text><text fill="#000000" font-family="sans-serif" font-size="14" lengthAdjust="spacing" textLength="165.1853" x="262.7" y="470.9834">CREATED_APPOINTMENT</text><text fill="#000000" font-family="sans-serif" font-size="14" lengthAdjust="spacing" textLength="168.7693" x="262.7" y="490.0514">UPDATED_APPOINTMENT</text><text fill="#000000" font-family="sans-serif" font-size="14" lengthAdjust="spacing" textLength="164.0233" x="262.7" y="509.1193">DELETED_APPOINTMENT</text><line style="stroke:#181818;stroke-width:0.5;" x1="257.7" x2="436.4693" y1="517.2213" y2="517.2213"/></g><!--link Log to LogType--><g id="link_Log_LogType"><path codeLine="27" d="M347.09,226.99 C347.09,252.59 347.09,279.87 347.09,305.46 " fill="transparent" id="Log-LogType" style="stroke:#181818;stroke-width:1;"/><text fill="#000000" font-family="sans-serif" font-size="13" lengthAdjust="spacing" textLength="82.7191" x="348.09" y="271.507">hat einen Typ</text><text fill="#000000" font-family="sans-serif" font-size="13" lengthAdjust="spacing" textLength="7.436" x="339.8799" y="248.5128">1</text><text fill="#000000" font-family="sans-serif" font-size="13" lengthAdjust="spacing" textLength="7.436" x="339.8494" y="293.6839">1</text></g><!--SRC=[PP9BYyCW58Nt-HMNhbecMSoskn1b49e7FjQ3D986caofTb66-UzZV8JOPc6ydzTpZkBvAhM6qyy0lndOhm0X28An3nKpzt4UO59Qoq45QDlvywR0s655Ptb5qYW-JdR13jh8wRRLV6Xr9ttcqCUYiJzivjueZzfvgfWxYTW_A4Fw_I47hKpjaosLnSlME8qPGYsS_UgfdOPJJNHy3i-SMWWKo2gQnFEBmS4d_SioDJ-czQxyzLByHHZ75ADlmJ1rhAAuv1PKWl6s3b1qw1qYVC9lC6xdj6nOMN7IDed2Au_zPTUrfE4rRdZI_ygZwPRRmsNBczbzxg0et2-UymWNQK2Divh1Wdy0]--></g></svg>