<svg xmlns="http://www.w3.org/2000/svg" xmlns:xlink="http://www.w3.org/1999/xlink" contentStyleType="text/css" data-diagram-type="CLASS" height="849px" preserveAspectRatio="none" style="width:1382px;height:849px;background:#FFFFFF;" version="1.1" viewBox="0 0 1382 849" width="1382px" zoomAndPan="magnify"><defs/><g><!--class Transaction--><g id="elem_Transaction"><rect codeLine="1" fill="#F1F1F1" height="238.6792" id="Transaction" rx="2.5" ry="2.5" style="stroke:#181818;stroke-width:0.5;" width="1049.4526" x="326.23" y="286.54"/><ellipse cx="808.1365" cy="302.54" fill="#ADD1B2" rx="11" ry="11" style="stroke:#181818;stroke-width:1;"/><path d="M807.6052,309.4619 Q805.8552,309.4619 804.7146,308.7275 Q803.5896,307.9775 803.0271,306.6337 Q802.4802,305.2744 802.4802,303.4775 Q802.4802,301.4462 803.1365,299.9931 Q803.7927,298.54 805.074,297.7587 Q806.3552,296.9775 808.2302,296.9775 Q809.1208,296.9775 809.7927,297.165 Q810.4646,297.3369 811.1521,297.6806 L810.3396,299.6962 Q809.7146,299.3837 809.1677,299.2587 Q808.6365,299.1337 808.1521,299.1337 Q806.9802,299.1337 806.2771,299.665 Q805.574,300.1962 805.2771,301.1494 Q804.9802,302.1025 804.9802,303.3681 Q804.9802,305.3837 805.699,306.3525 Q806.4177,307.3056 808.0115,307.3056 Q808.6052,307.3056 809.2302,307.1494 Q809.8552,306.9931 810.6833,306.6181 L810.6833,308.8369 Q809.949,309.1494 809.1521,309.3056 Q808.3708,309.4619 807.6052,309.4619 Z " fill="#000000"/><text fill="#000000" font-family="sans-serif" font-size="14" lengthAdjust="spacing" textLength="77.1397" x="828.6365" y="307.972">Transaction</text><line style="stroke:#181818;stroke-width:0.5;" x1="327.23" x2="1374.6826" y1="318.54" y2="318.54"/><rect fill="transparent" height="6" style="stroke:#C82930;stroke-width:1;" width="6" x="334.23" y="330.574"/><text fill="#000000" font-family="sans-serif" font-size="14" lengthAdjust="spacing" textLength="51.2958" x="346.23" y="337.5059">UUID id</text><rect fill="transparent" height="6" style="stroke:#C82930;stroke-width:1;" width="6" x="334.23" y="349.6419"/><text fill="#000000" font-family="sans-serif" font-size="14" lengthAdjust="spacing" textLength="130.5075" x="346.23" y="356.5739">Customer customer</text><rect fill="transparent" height="6" style="stroke:#C82930;stroke-width:1;" width="6" x="334.23" y="368.7098"/><text fill="#000000" font-family="sans-serif" font-size="14" lengthAdjust="spacing" textLength="63.2938" x="346.23" y="375.6418">User user</text><rect fill="transparent" height="6" style="stroke:#C82930;stroke-width:1;" width="6" x="334.23" y="387.7777"/><text fill="#000000" font-family="sans-serif" font-size="14" lengthAdjust="spacing" textLength="101.2616" x="346.23" y="394.7097">double amount</text><rect fill="transparent" height="6" style="stroke:#C82930;stroke-width:1;" width="6" x="334.23" y="406.8456"/><text fill="#000000" font-family="sans-serif" font-size="14" lengthAdjust="spacing" textLength="172.0033" x="346.23" y="413.7776">LocalDateTime timestamp</text><rect fill="transparent" height="6" style="stroke:#C82930;stroke-width:1;" width="6" x="334.23" y="425.9135"/><text fill="#000000" font-family="sans-serif" font-size="14" lengthAdjust="spacing" textLength="161.8114" x="346.23" y="432.8455">TransactionStatus status</text><rect fill="transparent" height="6" style="stroke:#C82930;stroke-width:1;" width="6" x="334.23" y="444.9815"/><text fill="#000000" font-family="sans-serif" font-size="14" lengthAdjust="spacing" textLength="116.7596" x="346.23" y="451.9134">String description</text><line style="stroke:#181818;stroke-width:0.5;" x1="327.23" x2="1374.6826" y1="460.0154" y2="460.0154"/><ellipse cx="337.23" cy="475.0494" fill="#84BE84" rx="3" ry="3" style="stroke:#038048;stroke-width:1;"/><text fill="#000000" font-family="sans-serif" font-size="14" lengthAdjust="spacing" textLength="85.5397" x="346.23" y="478.9814">Transaction()</text><ellipse cx="337.23" cy="494.1173" fill="#84BE84" rx="3" ry="3" style="stroke:#038048;stroke-width:1;"/><text fill="#000000" font-family="sans-serif" font-size="14" lengthAdjust="spacing" textLength="605.4418" x="346.23" y="498.0493">getId(), getCustomer(), getUser(), getAmount(), getTimestamp(), getStatus(), getDescription()</text><ellipse cx="337.23" cy="513.1852" fill="#84BE84" rx="3" ry="3" style="stroke:#038048;stroke-width:1;"/><text fill="#000000" font-family="sans-serif" font-size="14" lengthAdjust="spacing" textLength="1023.4526" x="346.23" y="517.1172">setId(UUID), setCustomer(Customer), setUser(User), setAmount(double), setTimestamp(LocalDateTime), setStatus(TransactionStatus), setDescription(String)</text></g><!--class TransactionDTO--><g id="elem_TransactionDTO"><rect codeLine="15" fill="#F1F1F1" height="238.6792" id="TransactionDTO" rx="2.5" ry="2.5" style="stroke:#181818;stroke-width:0.5;" width="1051.9166" x="7" y="604.22"/><ellipse cx="475.6695" cy="620.22" fill="#ADD1B2" rx="11" ry="11" style="stroke:#181818;stroke-width:1;"/><path d="M475.1383,627.1419 Q473.3883,627.1419 472.2476,626.4075 Q471.1226,625.6575 470.5601,624.3137 Q470.0133,622.9544 470.0133,621.1575 Q470.0133,619.1262 470.6695,617.6731 Q471.3258,616.22 472.607,615.4387 Q473.8883,614.6575 475.7633,614.6575 Q476.6539,614.6575 477.3258,614.845 Q477.9976,615.0169 478.6851,615.3606 L477.8726,617.3762 Q477.2476,617.0637 476.7008,616.9387 Q476.1695,616.8137 475.6851,616.8137 Q474.5133,616.8137 473.8101,617.345 Q473.107,617.8762 472.8101,618.8294 Q472.5133,619.7825 472.5133,621.0481 Q472.5133,623.0637 473.232,624.0325 Q473.9508,624.9856 475.5445,624.9856 Q476.1383,624.9856 476.7633,624.8294 Q477.3883,624.6731 478.2164,624.2981 L478.2164,626.5169 Q477.482,626.8294 476.6851,626.9856 Q475.9039,627.1419 475.1383,627.1419 Z " fill="#000000"/><text fill="#000000" font-family="sans-serif" font-size="14" lengthAdjust="spacing" textLength="106.0776" x="496.1695" y="625.652">TransactionDTO</text><line style="stroke:#181818;stroke-width:0.5;" x1="8" x2="1057.9166" y1="636.22" y2="636.22"/><rect fill="transparent" height="6" style="stroke:#C82930;stroke-width:1;" width="6" x="15" y="648.254"/><text fill="#000000" font-family="sans-serif" font-size="14" lengthAdjust="spacing" textLength="51.2958" x="27" y="655.1859">UUID id</text><rect fill="transparent" height="6" style="stroke:#C82930;stroke-width:1;" width="6" x="15" y="667.3219"/><text fill="#000000" font-family="sans-serif" font-size="14" lengthAdjust="spacing" textLength="114.7996" x="27" y="674.2539">UUID customerId</text><rect fill="transparent" height="6" style="stroke:#C82930;stroke-width:1;" width="6" x="15" y="686.3898"/><text fill="#000000" font-family="sans-serif" font-size="14" lengthAdjust="spacing" textLength="81.4657" x="27" y="693.3218">UUID userId</text><rect fill="transparent" height="6" style="stroke:#C82930;stroke-width:1;" width="6" x="15" y="705.4577"/><text fill="#000000" font-family="sans-serif" font-size="14" lengthAdjust="spacing" textLength="101.2616" x="27" y="712.3897">double amount</text><rect fill="transparent" height="6" style="stroke:#C82930;stroke-width:1;" width="6" x="15" y="724.5256"/><text fill="#000000" font-family="sans-serif" font-size="14" lengthAdjust="spacing" textLength="172.0033" x="27" y="731.4576">LocalDateTime timestamp</text><rect fill="transparent" height="6" style="stroke:#C82930;stroke-width:1;" width="6" x="15" y="743.5935"/><text fill="#000000" font-family="sans-serif" font-size="14" lengthAdjust="spacing" textLength="161.8114" x="27" y="750.5255">TransactionStatus status</text><rect fill="transparent" height="6" style="stroke:#C82930;stroke-width:1;" width="6" x="15" y="762.6615"/><text fill="#000000" font-family="sans-serif" font-size="14" lengthAdjust="spacing" textLength="116.7596" x="27" y="769.5934">String description</text><line style="stroke:#181818;stroke-width:0.5;" x1="8" x2="1057.9166" y1="777.6954" y2="777.6954"/><ellipse cx="18" cy="792.7294" fill="#84BE84" rx="3" ry="3" style="stroke:#038048;stroke-width:1;"/><text fill="#000000" font-family="sans-serif" font-size="14" lengthAdjust="spacing" textLength="191.6173" x="27" y="796.6614">TransactionDTO(Transaction)</text><ellipse cx="18" cy="811.7973" fill="#84BE84" rx="3" ry="3" style="stroke:#038048;stroke-width:1;"/><text fill="#000000" font-family="sans-serif" font-size="14" lengthAdjust="spacing" textLength="632.1537" x="27" y="815.7293">getId(), getCustomerId(), getUserId(), getAmount(), getTimestamp(), getStatus(), getDescription()</text><ellipse cx="18" cy="830.8652" fill="#84BE84" rx="3" ry="3" style="stroke:#038048;stroke-width:1;"/><text fill="#000000" font-family="sans-serif" font-size="14" lengthAdjust="spacing" textLength="1025.9166" x="27" y="834.7972">setId(UUID), setCustomerId(UUID), setUserId(UUID), setAmount(double), setTimestamp(LocalDateTime), setStatus(TransactionStatus), setDescription(String)</text></g><!--class TransactionReport--><g id="elem_TransactionReport"><rect codeLine="29" fill="#F1F1F1" height="200.5433" id="TransactionReport" rx="2.5" ry="2.5" style="stroke:#181818;stroke-width:0.5;" width="505.4564" x="598.23" y="7"/><ellipse cx="785.8784" cy="23" fill="#ADD1B2" rx="11" ry="11" style="stroke:#181818;stroke-width:1;"/><path d="M785.3472,29.9219 Q783.5972,29.9219 782.4565,29.1875 Q781.3315,28.4375 780.769,27.0938 Q780.2222,25.7344 780.2222,23.9375 Q780.2222,21.9063 780.8784,20.4531 Q781.5347,19 782.8159,18.2188 Q784.0972,17.4375 785.9722,17.4375 Q786.8628,17.4375 787.5347,17.625 Q788.2065,17.7969 788.894,18.1406 L788.0815,20.1563 Q787.4565,19.8438 786.9097,19.7188 Q786.3784,19.5938 785.894,19.5938 Q784.7222,19.5938 784.019,20.125 Q783.3159,20.6563 783.019,21.6094 Q782.7222,22.5625 782.7222,23.8281 Q782.7222,25.8438 783.4409,26.8125 Q784.1597,27.7656 785.7534,27.7656 Q786.3472,27.7656 786.9722,27.6094 Q787.5972,27.4531 788.4253,27.0781 L788.4253,29.2969 Q787.6909,29.6094 786.894,29.7656 Q786.1128,29.9219 785.3472,29.9219 Z " fill="#000000"/><text fill="#000000" font-family="sans-serif" font-size="14" lengthAdjust="spacing" textLength="121.6595" x="806.3784" y="28.432">TransactionReport</text><line style="stroke:#181818;stroke-width:0.5;" x1="599.23" x2="1102.6864" y1="39" y2="39"/><rect fill="transparent" height="6" style="stroke:#C82930;stroke-width:1;" width="6" x="606.23" y="51.034"/><text fill="#000000" font-family="sans-serif" font-size="14" lengthAdjust="spacing" textLength="134.8475" x="618.23" y="57.9659">int totalTransactions</text><rect fill="transparent" height="6" style="stroke:#C82930;stroke-width:1;" width="6" x="606.23" y="70.1019"/><text fill="#000000" font-family="sans-serif" font-size="14" lengthAdjust="spacing" textLength="136.3455" x="618.23" y="77.0339">double totalRevenue</text><rect fill="transparent" height="6" style="stroke:#C82930;stroke-width:1;" width="6" x="606.23" y="89.1698"/><text fill="#000000" font-family="sans-serif" font-size="14" lengthAdjust="spacing" textLength="232.4971" x="618.23" y="96.1018">double averageTransactionAmount</text><rect fill="transparent" height="6" style="stroke:#C82930;stroke-width:1;" width="6" x="606.23" y="108.2377"/><text fill="#000000" font-family="sans-serif" font-size="14" lengthAdjust="spacing" textLength="171.1634" x="618.23" y="115.1697">Map transactionsByStatus</text><line style="stroke:#181818;stroke-width:0.5;" x1="599.23" x2="1102.6864" y1="123.2717" y2="123.2717"/><ellipse cx="609.23" cy="138.3056" fill="#84BE84" rx="3" ry="3" style="stroke:#038048;stroke-width:1;"/><text fill="#000000" font-family="sans-serif" font-size="14" lengthAdjust="spacing" textLength="315.9648" x="618.23" y="142.2376">getTotalTransactions(), setTotalTransactions(int)</text><ellipse cx="609.23" cy="157.3735" fill="#84BE84" rx="3" ry="3" style="stroke:#038048;stroke-width:1;"/><text fill="#000000" font-family="sans-serif" font-size="14" lengthAdjust="spacing" textLength="290.4289" x="618.23" y="161.3055">getTotalRevenue(), setTotalRevenue(double)</text><ellipse cx="609.23" cy="176.4415" fill="#84BE84" rx="3" ry="3" style="stroke:#038048;stroke-width:1;"/><text fill="#000000" font-family="sans-serif" font-size="14" lengthAdjust="spacing" textLength="479.4564" x="618.23" y="180.3734">getAverageTransactionAmount(), setAverageTransactionAmount(double)</text><ellipse cx="609.23" cy="195.5094" fill="#84BE84" rx="3" ry="3" style="stroke:#038048;stroke-width:1;"/><text fill="#000000" font-family="sans-serif" font-size="14" lengthAdjust="spacing" textLength="376.7526" x="618.23" y="199.4414">getTransactionsByStatus(), setTransactionsByStatus(Map)</text></g><!--class TransactionStatus--><g id="elem_TransactionStatus"><rect codeLine="41" fill="#F1F1F1" height="105.2038" id="TransactionStatus" rx="2.5" ry="2.5" style="stroke:#181818;stroke-width:0.5;" width="150.1456" x="1093.89" y="670.96"/><ellipse cx="1108.89" cy="686.96" fill="#EB937F" rx="11" ry="11" style="stroke:#181818;stroke-width:1;"/><path d="M1105.2494,693.46 L1105.2494,681.3194 L1112.9056,681.3194 L1112.9056,683.4444 L1107.6244,683.4444 L1107.6244,686.1006 L1112.64,686.1006 L1112.64,688.2256 L1107.6244,688.2256 L1107.6244,691.335 L1112.9056,691.335 L1112.9056,693.46 L1105.2494,693.46 Z " fill="#000000"/><text fill="#000000" font-family="sans-serif" font-size="14" lengthAdjust="spacing" textLength="118.1456" x="1122.89" y="692.392">TransactionStatus</text><line style="stroke:#181818;stroke-width:0.5;" x1="1094.89" x2="1243.0356" y1="702.96" y2="702.96"/><text fill="#000000" font-family="sans-serif" font-size="14" lengthAdjust="spacing" textLength="72.0857" x="1099.89" y="721.9259">Completed</text><text fill="#000000" font-family="sans-serif" font-size="14" lengthAdjust="spacing" textLength="54.5018" x="1099.89" y="740.9939">Pending</text><text fill="#000000" font-family="sans-serif" font-size="14" lengthAdjust="spacing" textLength="38.8499" x="1099.89" y="760.0618">Failed</text><line style="stroke:#181818;stroke-width:0.5;" x1="1094.89" x2="1243.0356" y1="768.1638" y2="768.1638"/></g><!--link Transaction to TransactionDTO--><g id="link_Transaction_TransactionDTO"><path codeLine="47" d="M731.64,525.33 C705.74,551.04 678.33,578.25 652.41,603.98 " fill="transparent" id="Transaction-TransactionDTO" style="stroke:#181818;stroke-width:1;"/><text fill="#000000" font-family="sans-serif" font-size="13" lengthAdjust="spacing" textLength="134.7061" x="702.49" y="570.117">wird abgebildet durch</text><text fill="#000000" font-family="sans-serif" font-size="13" lengthAdjust="spacing" textLength="7.436" x="717.1692" y="547.0455">1</text><text fill="#000000" font-family="sans-serif" font-size="13" lengthAdjust="spacing" textLength="21.567" x="638.7492" y="592.2954">0..*</text></g><!--link Transaction to TransactionStatus--><g id="link_Transaction_TransactionStatus"><path codeLine="48" d="M994.48,525.68 C1022.38,550.72 1050.76,577.63 1075.96,604.22 C1095.46,624.8 1115.13,649.19 1131.33,670.47 " fill="transparent" id="Transaction-TransactionStatus" style="stroke:#181818;stroke-width:1;"/><text fill="#000000" font-family="sans-serif" font-size="13" lengthAdjust="spacing" textLength="98.9431" x="1042.51" y="570.117">hat einen Status</text><text fill="#000000" font-family="sans-serif" font-size="13" lengthAdjust="spacing" textLength="7.436" x="995.5877" y="547.0148">1</text><text fill="#000000" font-family="sans-serif" font-size="13" lengthAdjust="spacing" textLength="7.436" x="1118.8321" y="659.138">1</text></g><!--link TransactionReport to Transaction--><g id="link_TransactionReport_Transaction"><path codeLine="49" d="M850.96,207.86 C850.96,233.02 850.96,260.29 850.96,286.28 " fill="transparent" id="TransactionReport-Transaction" style="stroke:#181818;stroke-width:1;"/><text fill="#000000" font-family="sans-serif" font-size="13" lengthAdjust="spacing" textLength="155.8051" x="851.96" y="252.437">aggregiert Transaktionen</text><text fill="#000000" font-family="sans-serif" font-size="13" lengthAdjust="spacing" textLength="7.436" x="843.7294" y="229.4521">1</text><text fill="#000000" font-family="sans-serif" font-size="13" lengthAdjust="spacing" textLength="21.567" x="829.2738" y="274.594">0..*</text></g><!--SRC=[nLJ1JeD04Btp5HDEhLgZLs_LngI9HbFf1snXWXjX8Rj3ZJ7-kylk05jAlPdsG6VUczbvp0FIGXW3YHRAY9HafU0x0ljRm7QxNe7CE7je35KbQaWvwAgCnHhJvrdLx0e4KLQD8iQUgbGKAq6Oo1A1xCMGA6jcWzbl9AWnODmVqs-afSeXGvDgMRTLaMCkmyRPdB4SQPtDvbTjq4dcj5NAuTAfuoJfz73kHN2o6iRsCuoRqQx7rfXWJXTusCrhBpxbcNu_7Xec7sp8aopZQ3kU3NNv3SsZdoXAnswkafSJXhgiCtDzWBPsziXv3BMwmrl_ozuUs9eW-H-B3q2UDm3diNY3TQMfTrag0gf85469EVJIqHlSesfmvF8UjSWnQ5s6lZ-B6YWuzlxB2uu6UvBnw1aluWYtGkUZFjOKjdGGBtLeM9wGoiqdwQE3aeaRwXHCKNO9pWWhgvnurhqF3rLP5qZetw9NL9drpyMFGXOMjWU47ztuDeR50kARw-kBUFm2ty6dr1c8NOuxMMH8a3KwVPyyu3QUq7G7xu80fK85xDZn0tHIWcqNUQunbsZBFF7H4gX-0G00]--></g></svg>