<svg xmlns="http://www.w3.org/2000/svg" xmlns:xlink="http://www.w3.org/1999/xlink" contentStyleType="text/css" data-diagram-type="SEQUENCE" height="650px" preserveAspectRatio="none" style="width:753px;height:650px;background:#FFFFFF;" version="1.1" viewBox="0 0 753 650" width="753px" zoomAndPan="magnify"><defs/><g><rect fill="transparent" height="385.4541" style="stroke:#000000;stroke-width:1.5;" width="736.1199" x="10" y="164.4799"/><g><title>User</title><rect fill="transparent" height="482.8661" width="8" x="34.3089" y="84.0679"/><line style="stroke:#181818;stroke-width:0.5;stroke-dasharray:5.0,5.0;" x1="38" x2="38" y1="84.0679" y2="566.934"/></g><g><title>AppointmentController</title><rect fill="transparent" height="482.8661" width="8" x="226.9321" y="84.0679"/><line style="stroke:#181818;stroke-width:0.5;stroke-dasharray:5.0,5.0;" x1="230.5204" x2="230.5204" y1="84.0679" y2="566.934"/></g><g><title>AppointmentService</title><rect fill="transparent" height="482.8661" width="8" x="457.6843" y="84.0679"/><line style="stroke:#181818;stroke-width:0.5;stroke-dasharray:5.0,5.0;" x1="461.0096" x2="461.0096" y1="84.0679" y2="566.934"/></g><g><title>LogService</title><rect fill="transparent" height="482.8661" width="8" x="583.9189" y="84.0679"/><line style="stroke:#181818;stroke-width:0.5;stroke-dasharray:5.0,5.0;" x1="587.3591" x2="587.3591" y1="84.0679" y2="566.934"/></g><g><title>Database</title><rect fill="transparent" height="482.8661" width="8" x="694.096" y="84.0679"/><line style="stroke:#181818;stroke-width:0.5;stroke-dasharray:5.0,5.0;" x1="698.0721" x2="698.0721" y1="84.0679" y2="566.934"/></g><text fill="#000000" font-family="sans-serif" font-size="14" lengthAdjust="spacing" textLength="30.6179" x="20" y="79.9659">User</text><ellipse cx="38.3089" cy="13.5" fill="#E2E2F0" rx="8" ry="8" style="stroke:#181818;stroke-width:0.5;"/><path d="M38.3089,21.5 L38.3089,48.5 M25.3089,29.5 L51.3089,29.5 M38.3089,48.5 L25.3089,63.5 M38.3089,48.5 L51.3089,63.5 " fill="transparent" style="stroke:#181818;stroke-width:0.5;"/><text fill="#000000" font-family="sans-serif" font-size="14" lengthAdjust="spacing" textLength="30.6179" x="20" y="580.9">User</text><ellipse cx="38.3089" cy="593.502" fill="#E2E2F0" rx="8" ry="8" style="stroke:#181818;stroke-width:0.5;"/><path d="M38.3089,601.502 L38.3089,628.502 M25.3089,609.502 L51.3089,609.502 M38.3089,628.502 L25.3089,643.502 M38.3089,628.502 L51.3089,643.502 " fill="transparent" style="stroke:#181818;stroke-width:0.5;"/><rect fill="#E2E2F0" height="33.0679" rx="2.5" ry="2.5" style="stroke:#181818;stroke-width:0.5;" width="166.8234" x="147.5204" y="50"/><text fill="#000000" font-family="sans-serif" font-size="14" lengthAdjust="spacing" textLength="152.8234" x="154.5204" y="71.9659">AppointmentController</text><rect fill="#E2E2F0" height="33.0679" rx="2.5" ry="2.5" style="stroke:#181818;stroke-width:0.5;" width="166.8234" x="147.5204" y="565.934"/><text fill="#000000" font-family="sans-serif" font-size="14" lengthAdjust="spacing" textLength="152.8234" x="154.5204" y="587.9">AppointmentController</text><rect fill="#E2E2F0" height="33.0679" rx="2.5" ry="2.5" style="stroke:#181818;stroke-width:0.5;" width="147.3495" x="388.0096" y="50"/><text fill="#000000" font-family="sans-serif" font-size="14" lengthAdjust="spacing" textLength="133.3495" x="395.0096" y="71.9659">AppointmentService</text><rect fill="#E2E2F0" height="33.0679" rx="2.5" ry="2.5" style="stroke:#181818;stroke-width:0.5;" width="147.3495" x="388.0096" y="565.934"/><text fill="#000000" font-family="sans-serif" font-size="14" lengthAdjust="spacing" textLength="133.3495" x="395.0096" y="587.9">AppointmentService</text><rect fill="#E2E2F0" height="33.0679" rx="2.5" ry="2.5" style="stroke:#181818;stroke-width:0.5;" width="85.1197" x="545.3591" y="50"/><text fill="#000000" font-family="sans-serif" font-size="14" lengthAdjust="spacing" textLength="71.1197" x="552.3591" y="71.9659">LogService</text><rect fill="#E2E2F0" height="33.0679" rx="2.5" ry="2.5" style="stroke:#181818;stroke-width:0.5;" width="85.1197" x="545.3591" y="565.934"/><text fill="#000000" font-family="sans-serif" font-size="14" lengthAdjust="spacing" textLength="71.1197" x="552.3591" y="587.9">LogService</text><rect fill="#E2E2F0" height="33.0679" rx="2.5" ry="2.5" style="stroke:#181818;stroke-width:0.5;" width="76.0478" x="660.0721" y="50"/><text fill="#000000" font-family="sans-serif" font-size="14" lengthAdjust="spacing" textLength="62.0478" x="667.0721" y="71.9659">Database</text><rect fill="#E2E2F0" height="33.0679" rx="2.5" ry="2.5" style="stroke:#181818;stroke-width:0.5;" width="76.0478" x="660.0721" y="565.934"/><text fill="#000000" font-family="sans-serif" font-size="14" lengthAdjust="spacing" textLength="62.0478" x="667.0721" y="587.9">Database</text><polygon fill="#181818" points="218.9321,113.7739,228.9321,117.7739,218.9321,121.7739,222.9321,117.7739" style="stroke:#181818;stroke-width:1;"/><line style="stroke:#181818;stroke-width:1;" x1="38.3089" x2="224.9321" y1="117.7739" y2="117.7739"/><text fill="#000000" font-family="sans-serif" font-size="13" lengthAdjust="spacing" textLength="32.383" x="45.3089" y="111.9649">POST</text><text fill="#000000" font-family="sans-serif" font-size="13" lengthAdjust="spacing" textLength="3.38" x="77.692" y="111.9649">&#160;</text><text fill="#000000" font-family="sans-serif" font-size="13" lengthAdjust="spacing" textLength="132.8601" x="81.072" y="111.9649">/api/v1/appointments</text><polygon fill="#181818" points="449.6843,145.4799,459.6843,149.4799,449.6843,153.4799,453.6843,149.4799" style="stroke:#181818;stroke-width:1;"/><line style="stroke:#181818;stroke-width:1;" x1="230.9321" x2="455.6843" y1="149.4799" y2="149.4799"/><text fill="#000000" font-family="sans-serif" font-size="13" lengthAdjust="spacing" textLength="53.183" x="237.9321" y="143.6709">Validiere</text><text fill="#000000" font-family="sans-serif" font-size="13" lengthAdjust="spacing" textLength="3.38" x="291.1151" y="143.6709">&#160;</text><text fill="#000000" font-family="sans-serif" font-size="13" lengthAdjust="spacing" textLength="84.5001" x="294.4951" y="143.6709">Termin-Daten</text><path d="M10,164.4799 L72.303,164.4799 L72.303,174.186 L62.303,184.186 L10,184.186 L10,164.4799 " fill="#EEEEEE" style="stroke:#000000;stroke-width:1.5;"/><rect fill="transparent" height="385.4541" style="stroke:#000000;stroke-width:1.5;" width="736.1199" x="10" y="164.4799"/><text fill="#000000" font-family="sans-serif" font-size="13" font-weight="bold" lengthAdjust="spacing" textLength="17.303" x="25" y="179.377">alt</text><text fill="#000000" font-family="sans-serif" font-size="11" font-weight="bold" lengthAdjust="spacing" textLength="115.3782" x="87.303" y="178.2389">[Ung&#252;ltige Eingaben]</text><polygon fill="#181818" points="241.9321,203.892,231.9321,207.892,241.9321,211.892,237.9321,207.892" style="stroke:#181818;stroke-width:1;"/><line style="stroke:#181818;stroke-width:1;stroke-dasharray:2.0,2.0;" x1="235.9321" x2="460.6843" y1="207.892" y2="207.892"/><text fill="#000000" font-family="sans-serif" font-size="13" lengthAdjust="spacing" textLength="93.0671" x="247.9321" y="202.083">Fehlermeldung</text><text fill="#000000" font-family="sans-serif" font-size="13" lengthAdjust="spacing" textLength="3.38" x="340.9992" y="202.083">&#160;</text><text fill="#000000" font-family="sans-serif" font-size="13" lengthAdjust="spacing" textLength="26.208" x="344.3792" y="202.083">(400</text><text fill="#000000" font-family="sans-serif" font-size="13" lengthAdjust="spacing" textLength="3.38" x="370.5872" y="202.083">&#160;</text><text fill="#000000" font-family="sans-serif" font-size="13" lengthAdjust="spacing" textLength="23.738" x="373.9672" y="202.083">Bad</text><text fill="#000000" font-family="sans-serif" font-size="13" lengthAdjust="spacing" textLength="3.38" x="397.7052" y="202.083">&#160;</text><text fill="#000000" font-family="sans-serif" font-size="13" lengthAdjust="spacing" textLength="53.5991" x="401.0853" y="202.083">Request)</text><polygon fill="#181818" points="49.3089,235.598,39.3089,239.598,49.3089,243.598,45.3089,239.598" style="stroke:#181818;stroke-width:1;"/><line style="stroke:#181818;stroke-width:1;stroke-dasharray:2.0,2.0;" x1="43.3089" x2="229.9321" y1="239.598" y2="239.598"/><text fill="#000000" font-family="sans-serif" font-size="13" lengthAdjust="spacing" textLength="49.179" x="55.3089" y="233.789">Antwort</text><text fill="#000000" font-family="sans-serif" font-size="13" lengthAdjust="spacing" textLength="3.38" x="104.488" y="233.789">&#160;</text><text fill="#000000" font-family="sans-serif" font-size="13" lengthAdjust="spacing" textLength="26.208" x="107.868" y="233.789">(400</text><text fill="#000000" font-family="sans-serif" font-size="13" lengthAdjust="spacing" textLength="3.38" x="134.076" y="233.789">&#160;</text><text fill="#000000" font-family="sans-serif" font-size="13" lengthAdjust="spacing" textLength="23.738" x="137.456" y="233.789">Bad</text><text fill="#000000" font-family="sans-serif" font-size="13" lengthAdjust="spacing" textLength="3.38" x="161.194" y="233.789">&#160;</text><text fill="#000000" font-family="sans-serif" font-size="13" lengthAdjust="spacing" textLength="53.5991" x="164.5741" y="233.789">Request)</text><line style="stroke:#000000;stroke-width:1;stroke-dasharray:2.0,2.0;" x1="10" x2="746.1199" y1="248.598" y2="248.598"/><text fill="#000000" font-family="sans-serif" font-size="11" font-weight="bold" lengthAdjust="spacing" textLength="100.9243" x="15" y="260.3569">[G&#252;ltige Eingaben]</text><polygon fill="#181818" points="449.6843,284.2859,459.6843,288.2859,449.6843,292.2859,453.6843,288.2859" style="stroke:#181818;stroke-width:1;"/><line style="stroke:#181818;stroke-width:1;" x1="230.9321" x2="455.6843" y1="288.2859" y2="288.2859"/><text fill="#000000" font-family="sans-serif" font-size="13" lengthAdjust="spacing" textLength="44.889" x="237.9321" y="282.4769">Erstelle</text><text fill="#000000" font-family="sans-serif" font-size="13" lengthAdjust="spacing" textLength="3.38" x="282.8211" y="282.4769">&#160;</text><text fill="#000000" font-family="sans-serif" font-size="13" lengthAdjust="spacing" textLength="43.472" x="286.2011" y="282.4769">Termin</text><polygon fill="#181818" points="686.096,315.9919,696.096,319.9919,686.096,323.9919,690.096,319.9919" style="stroke:#181818;stroke-width:1;"/><line style="stroke:#181818;stroke-width:1;" x1="461.6843" x2="692.096" y1="319.9919" y2="319.9919"/><text fill="#000000" font-family="sans-serif" font-size="13" lengthAdjust="spacing" textLength="60.125" x="468.6843" y="314.1829">Speichere</text><text fill="#000000" font-family="sans-serif" font-size="13" lengthAdjust="spacing" textLength="3.38" x="528.8094" y="314.1829">&#160;</text><text fill="#000000" font-family="sans-serif" font-size="13" lengthAdjust="spacing" textLength="43.472" x="532.1894" y="314.1829">Termin</text><polygon fill="#181818" points="472.6843,347.6979,462.6843,351.6979,472.6843,355.6979,468.6843,351.6979" style="stroke:#181818;stroke-width:1;"/><line style="stroke:#181818;stroke-width:1;stroke-dasharray:2.0,2.0;" x1="466.6843" x2="697.096" y1="351.6979" y2="351.6979"/><text fill="#000000" font-family="sans-serif" font-size="13" lengthAdjust="spacing" textLength="74.1001" x="478.6843" y="345.8889">Best&#228;tigung</text><polygon fill="#181818" points="241.9321,379.404,231.9321,383.404,241.9321,387.404,237.9321,383.404" style="stroke:#181818;stroke-width:1;"/><line style="stroke:#181818;stroke-width:1;stroke-dasharray:2.0,2.0;" x1="235.9321" x2="460.6843" y1="383.404" y2="383.404"/><text fill="#000000" font-family="sans-serif" font-size="13" lengthAdjust="spacing" textLength="36.283" x="247.9321" y="377.595">Erfolg</text><text fill="#000000" font-family="sans-serif" font-size="13" lengthAdjust="spacing" textLength="3.38" x="284.2151" y="377.595">&#160;</text><text fill="#000000" font-family="sans-serif" font-size="13" lengthAdjust="spacing" textLength="26.208" x="287.5951" y="377.595">(201</text><text fill="#000000" font-family="sans-serif" font-size="13" lengthAdjust="spacing" textLength="3.38" x="313.8032" y="377.595">&#160;</text><text fill="#000000" font-family="sans-serif" font-size="13" lengthAdjust="spacing" textLength="52.13" x="317.1832" y="377.595">Created)</text><polygon fill="#181818" points="575.9189,411.11,585.9189,415.11,575.9189,419.11,579.9189,415.11" style="stroke:#181818;stroke-width:1;"/><line style="stroke:#181818;stroke-width:1;" x1="230.9321" x2="581.9189" y1="415.11" y2="415.11"/><text fill="#000000" font-family="sans-serif" font-size="13" lengthAdjust="spacing" textLength="78.5591" x="237.9321" y="409.301">Protokolliere</text><text fill="#000000" font-family="sans-serif" font-size="13" lengthAdjust="spacing" textLength="3.38" x="316.4911" y="409.301">&#160;</text><text fill="#000000" font-family="sans-serif" font-size="13" lengthAdjust="spacing" textLength="39.195" x="319.8712" y="409.301">Aktion</text><polygon fill="#181818" points="686.096,442.816,696.096,446.816,686.096,450.816,690.096,446.816" style="stroke:#181818;stroke-width:1;"/><line style="stroke:#181818;stroke-width:1;" x1="587.9189" x2="692.096" y1="446.816" y2="446.816"/><text fill="#000000" font-family="sans-serif" font-size="13" lengthAdjust="spacing" textLength="60.125" x="594.9189" y="441.007">Speichere</text><text fill="#000000" font-family="sans-serif" font-size="13" lengthAdjust="spacing" textLength="3.38" x="655.044" y="441.007">&#160;</text><text fill="#000000" font-family="sans-serif" font-size="13" lengthAdjust="spacing" textLength="22.672" x="658.424" y="441.007">Log</text><polygon fill="#181818" points="598.9189,474.522,588.9189,478.522,598.9189,482.522,594.9189,478.522" style="stroke:#181818;stroke-width:1;"/><line style="stroke:#181818;stroke-width:1;stroke-dasharray:2.0,2.0;" x1="592.9189" x2="697.096" y1="478.522" y2="478.522"/><text fill="#000000" font-family="sans-serif" font-size="13" lengthAdjust="spacing" textLength="74.1001" x="604.9189" y="472.713">Best&#228;tigung</text><polygon fill="#181818" points="241.9321,506.228,231.9321,510.228,241.9321,514.228,237.9321,510.228" style="stroke:#181818;stroke-width:1;"/><line style="stroke:#181818;stroke-width:1;stroke-dasharray:2.0,2.0;" x1="235.9321" x2="586.9189" y1="510.228" y2="510.228"/><text fill="#000000" font-family="sans-serif" font-size="13" lengthAdjust="spacing" textLength="36.283" x="247.9321" y="504.419">Erfolg</text><polygon fill="#181818" points="49.3089,537.934,39.3089,541.934,49.3089,545.934,45.3089,541.934" style="stroke:#181818;stroke-width:1;"/><line style="stroke:#181818;stroke-width:1;stroke-dasharray:2.0,2.0;" x1="43.3089" x2="229.9321" y1="541.934" y2="541.934"/><text fill="#000000" font-family="sans-serif" font-size="13" lengthAdjust="spacing" textLength="49.179" x="55.3089" y="536.125">Antwort</text><text fill="#000000" font-family="sans-serif" font-size="13" lengthAdjust="spacing" textLength="3.38" x="104.488" y="536.125">&#160;</text><text fill="#000000" font-family="sans-serif" font-size="13" lengthAdjust="spacing" textLength="26.208" x="107.868" y="536.125">(201</text><text fill="#000000" font-family="sans-serif" font-size="13" lengthAdjust="spacing" textLength="3.38" x="134.076" y="536.125">&#160;</text><text fill="#000000" font-family="sans-serif" font-size="13" lengthAdjust="spacing" textLength="52.13" x="137.456" y="536.125">Created)</text><!--SRC=[dLBBKi904BpdA-Oe1ugWddAW2X2zQ6aPy3uaGzXYinjt1x3y7Z_36p_cW1XUYPJkPQjsUdgwUzRFb2dGOGxn55ExL2Q32MfFWIyhERuzaFUOKQpU2Qx2C0WmOUjWvCa50cALg08DGxSeh3ASa-6-DUoirlM8cDn29NHGlhTPrVCDCevHL0NhaT3iL4-AuEan7a8B2zLQjEKgCJweR3XYsewEu0MrIXKvWY6vN9cc220Je6OOcMprgLbb10D92yVo3d9EQQ1Ph_EMfdBdfDEv97vn7ORGmnIUwNLEdXl7ZFkAXNGTGWHTmqlhkAARP85mTqxc-HW6pZC9O9j2hSzEkQ08ue9KCjr5jsdwAHz7KaxgYUxLXyYLEFuHvy1Dh9OSByCsz1t9ijB6xtPt7qq-ZRDiPrBQRBmxOsM_PUz0THu5SMfmd_l4s3xdEKD_-mO7vicaNm00]--></g></svg>