<svg xmlns="http://www.w3.org/2000/svg" xmlns:xlink="http://www.w3.org/1999/xlink" contentStyleType="text/css" data-diagram-type="SEQUENCE" height="829px" preserveAspectRatio="none" style="width:1061px;height:829px;background:#FFFFFF;" version="1.1" viewBox="0 0 1061 829" width="1061px" zoomAndPan="magnify"><defs/><g><rect fill="transparent" height="533.0023" style="stroke:#000000;stroke-width:1.5;" width="1044.6597" x="10" y="196.186"/><rect fill="transparent" height="370.4722" style="stroke:#000000;stroke-width:1.5;" width="1024.6597" x="20" y="351.716"/><g><title>User</title><rect fill="transparent" height="662.1203" width="8" x="44.3089" y="84.0679"/><line style="stroke:#181818;stroke-width:0.5;stroke-dasharray:5.0,5.0;" x1="48" x2="48" y1="84.0679" y2="746.1882"/></g><g><title>TransactionController</title><rect fill="transparent" height="662.1203" width="8" x="231.4201" y="84.0679"/><line style="stroke:#181818;stroke-width:0.5;stroke-dasharray:5.0,5.0;" x1="234.7613" x2="234.7613" y1="84.0679" y2="746.1882"/></g><g><title>TransactionService</title><rect fill="transparent" height="662.1203" width="8" x="418.2842" y="84.0679"/><line style="stroke:#181818;stroke-width:0.5;stroke-dasharray:5.0,5.0;" x1="421.3625" x2="421.3625" y1="84.0679" y2="746.1882"/></g><g><title>UserService</title><rect fill="transparent" height="662.1203" width="8" x="649.0365" y="84.0679"/><line style="stroke:#181818;stroke-width:0.5;stroke-dasharray:5.0,5.0;" x1="652.3756" x2="652.3756" y1="84.0679" y2="746.1882"/></g><g><title>CustomerService</title><rect fill="transparent" height="662.1203" width="8" x="767.2981" y="84.0679"/><line style="stroke:#181818;stroke-width:0.5;stroke-dasharray:5.0,5.0;" x1="770.6973" x2="770.6973" y1="84.0679" y2="746.1882"/></g><g><title>LogService</title><rect fill="transparent" height="662.1203" width="8" x="882.4587" y="84.0679"/><line style="stroke:#181818;stroke-width:0.5;stroke-dasharray:5.0,5.0;" x1="885.8989" x2="885.8989" y1="84.0679" y2="746.1882"/></g><g><title>Database</title><rect fill="transparent" height="662.1203" width="8" x="992.6358" y="84.0679"/><line style="stroke:#181818;stroke-width:0.5;stroke-dasharray:5.0,5.0;" x1="996.6119" x2="996.6119" y1="84.0679" y2="746.1882"/></g><text fill="#000000" font-family="sans-serif" font-size="14" lengthAdjust="spacing" textLength="30.6179" x="30" y="79.9659">User</text><ellipse cx="48.3089" cy="13.5" fill="#E2E2F0" rx="8" ry="8" style="stroke:#181818;stroke-width:0.5;"/><path d="M48.3089,21.5 L48.3089,48.5 M35.3089,29.5 L61.3089,29.5 M48.3089,48.5 L35.3089,63.5 M48.3089,48.5 L61.3089,63.5 " fill="transparent" style="stroke:#181818;stroke-width:0.5;"/><text fill="#000000" font-family="sans-serif" font-size="14" lengthAdjust="spacing" textLength="30.6179" x="30" y="760.1542">User</text><ellipse cx="48.3089" cy="772.7562" fill="#E2E2F0" rx="8" ry="8" style="stroke:#181818;stroke-width:0.5;"/><path d="M48.3089,780.7562 L48.3089,807.7562 M35.3089,788.7562 L61.3089,788.7562 M48.3089,807.7562 L35.3089,822.7562 M48.3089,807.7562 L61.3089,822.7562 " fill="transparent" style="stroke:#181818;stroke-width:0.5;"/><rect fill="#E2E2F0" height="33.0679" rx="2.5" ry="2.5" style="stroke:#181818;stroke-width:0.5;" width="157.3175" x="156.7613" y="50"/><text fill="#000000" font-family="sans-serif" font-size="14" lengthAdjust="spacing" textLength="143.3175" x="163.7613" y="71.9659">TransactionController</text><rect fill="#E2E2F0" height="33.0679" rx="2.5" ry="2.5" style="stroke:#181818;stroke-width:0.5;" width="157.3175" x="156.7613" y="745.1882"/><text fill="#000000" font-family="sans-serif" font-size="14" lengthAdjust="spacing" textLength="143.3175" x="163.7613" y="767.1542">TransactionController</text><rect fill="#E2E2F0" height="33.0679" rx="2.5" ry="2.5" style="stroke:#181818;stroke-width:0.5;" width="137.8435" x="353.3625" y="50"/><text fill="#000000" font-family="sans-serif" font-size="14" lengthAdjust="spacing" textLength="123.8435" x="360.3625" y="71.9659">TransactionService</text><rect fill="#E2E2F0" height="33.0679" rx="2.5" ry="2.5" style="stroke:#181818;stroke-width:0.5;" width="137.8435" x="353.3625" y="745.1882"/><text fill="#000000" font-family="sans-serif" font-size="14" lengthAdjust="spacing" textLength="123.8435" x="360.3625" y="767.1542">TransactionService</text><rect fill="#E2E2F0" height="33.0679" rx="2.5" ry="2.5" style="stroke:#181818;stroke-width:0.5;" width="91.3217" x="607.3756" y="50"/><text fill="#000000" font-family="sans-serif" font-size="14" lengthAdjust="spacing" textLength="77.3217" x="614.3756" y="71.9659">UserService</text><rect fill="#E2E2F0" height="33.0679" rx="2.5" ry="2.5" style="stroke:#181818;stroke-width:0.5;" width="91.3217" x="607.3756" y="745.1882"/><text fill="#000000" font-family="sans-serif" font-size="14" lengthAdjust="spacing" textLength="77.3217" x="614.3756" y="767.1542">UserService</text><rect fill="#E2E2F0" height="33.0679" rx="2.5" ry="2.5" style="stroke:#181818;stroke-width:0.5;" width="125.2016" x="708.6973" y="50"/><text fill="#000000" font-family="sans-serif" font-size="14" lengthAdjust="spacing" textLength="111.2016" x="715.6973" y="71.9659">CustomerService</text><rect fill="#E2E2F0" height="33.0679" rx="2.5" ry="2.5" style="stroke:#181818;stroke-width:0.5;" width="125.2016" x="708.6973" y="745.1882"/><text fill="#000000" font-family="sans-serif" font-size="14" lengthAdjust="spacing" textLength="111.2016" x="715.6973" y="767.1542">CustomerService</text><rect fill="#E2E2F0" height="33.0679" rx="2.5" ry="2.5" style="stroke:#181818;stroke-width:0.5;" width="85.1197" x="843.8989" y="50"/><text fill="#000000" font-family="sans-serif" font-size="14" lengthAdjust="spacing" textLength="71.1197" x="850.8989" y="71.9659">LogService</text><rect fill="#E2E2F0" height="33.0679" rx="2.5" ry="2.5" style="stroke:#181818;stroke-width:0.5;" width="85.1197" x="843.8989" y="745.1882"/><text fill="#000000" font-family="sans-serif" font-size="14" lengthAdjust="spacing" textLength="71.1197" x="850.8989" y="767.1542">LogService</text><rect fill="#E2E2F0" height="33.0679" rx="2.5" ry="2.5" style="stroke:#181818;stroke-width:0.5;" width="76.0478" x="958.6119" y="50"/><text fill="#000000" font-family="sans-serif" font-size="14" lengthAdjust="spacing" textLength="62.0478" x="965.6119" y="71.9659">Database</text><rect fill="#E2E2F0" height="33.0679" rx="2.5" ry="2.5" style="stroke:#181818;stroke-width:0.5;" width="76.0478" x="958.6119" y="745.1882"/><text fill="#000000" font-family="sans-serif" font-size="14" lengthAdjust="spacing" textLength="62.0478" x="965.6119" y="767.1542">Database</text><polygon fill="#181818" points="223.4201,113.7739,233.4201,117.7739,223.4201,121.7739,227.4201,117.7739" style="stroke:#181818;stroke-width:1;"/><line style="stroke:#181818;stroke-width:1;" x1="48.3089" x2="229.4201" y1="117.7739" y2="117.7739"/><text fill="#000000" font-family="sans-serif" font-size="13" lengthAdjust="spacing" textLength="32.383" x="55.3089" y="111.9649">POST</text><text fill="#000000" font-family="sans-serif" font-size="13" lengthAdjust="spacing" textLength="3.38" x="87.692" y="111.9649">&#160;</text><text fill="#000000" font-family="sans-serif" font-size="13" lengthAdjust="spacing" textLength="127.3481" x="91.072" y="111.9649">/api/v1/transactions/</text><polygon fill="#181818" points="410.2842,145.4799,420.2842,149.4799,410.2842,153.4799,414.2842,149.4799" style="stroke:#181818;stroke-width:1;"/><line style="stroke:#181818;stroke-width:1;" x1="235.4201" x2="416.2842" y1="149.4799" y2="149.4799"/><text fill="#000000" font-family="sans-serif" font-size="13" lengthAdjust="spacing" textLength="44.889" x="242.4201" y="143.6709">Erstelle</text><text fill="#000000" font-family="sans-serif" font-size="13" lengthAdjust="spacing" textLength="3.38" x="287.3091" y="143.6709">&#160;</text><text fill="#000000" font-family="sans-serif" font-size="13" lengthAdjust="spacing" textLength="72.3321" x="290.6891" y="143.6709">Transaktion</text><polygon fill="#181818" points="641.0365,177.186,651.0365,181.186,641.0365,185.186,645.0365,181.186" style="stroke:#181818;stroke-width:1;"/><line style="stroke:#181818;stroke-width:1;" x1="422.2842" x2="647.0365" y1="181.186" y2="181.186"/><text fill="#000000" font-family="sans-serif" font-size="13" lengthAdjust="spacing" textLength="20.852" x="429.2842" y="175.377">Hol</text><text fill="#000000" font-family="sans-serif" font-size="13" lengthAdjust="spacing" textLength="3.38" x="450.1363" y="175.377">&#160;</text><text fill="#000000" font-family="sans-serif" font-size="13" lengthAdjust="spacing" textLength="55.354" x="453.5163" y="175.377">Benutzer</text><text fill="#000000" font-family="sans-serif" font-size="13" lengthAdjust="spacing" textLength="3.38" x="508.8703" y="175.377">&#160;</text><text fill="#000000" font-family="sans-serif" font-size="13" lengthAdjust="spacing" textLength="29.601" x="512.2503" y="175.377">nach</text><text fill="#000000" font-family="sans-serif" font-size="13" lengthAdjust="spacing" textLength="3.38" x="541.8513" y="175.377">&#160;</text><text fill="#000000" font-family="sans-serif" font-size="13" lengthAdjust="spacing" textLength="13.897" x="545.2314" y="175.377">ID</text><path d="M10,196.186 L72.303,196.186 L72.303,205.892 L62.303,215.892 L10,215.892 L10,196.186 " fill="#EEEEEE" style="stroke:#000000;stroke-width:1.5;"/><rect fill="transparent" height="533.0023" style="stroke:#000000;stroke-width:1.5;" width="1044.6597" x="10" y="196.186"/><text fill="#000000" font-family="sans-serif" font-size="13" font-weight="bold" lengthAdjust="spacing" textLength="17.303" x="25" y="211.083">alt</text><text fill="#000000" font-family="sans-serif" font-size="11" font-weight="bold" lengthAdjust="spacing" textLength="143.648" x="87.303" y="209.9449">[Benutzer nicht gefunden]</text><polygon fill="#181818" points="433.2842,235.598,423.2842,239.598,433.2842,243.598,429.2842,239.598" style="stroke:#181818;stroke-width:1;"/><line style="stroke:#181818;stroke-width:1;stroke-dasharray:2.0,2.0;" x1="427.2842" x2="652.0365" y1="239.598" y2="239.598"/><text fill="#000000" font-family="sans-serif" font-size="13" lengthAdjust="spacing" textLength="93.0671" x="439.2842" y="233.789">Fehlermeldung</text><text fill="#000000" font-family="sans-serif" font-size="13" lengthAdjust="spacing" textLength="3.38" x="532.3513" y="233.789">&#160;</text><text fill="#000000" font-family="sans-serif" font-size="13" lengthAdjust="spacing" textLength="26.208" x="535.7313" y="233.789">(400</text><text fill="#000000" font-family="sans-serif" font-size="13" lengthAdjust="spacing" textLength="3.38" x="561.9394" y="233.789">&#160;</text><text fill="#000000" font-family="sans-serif" font-size="13" lengthAdjust="spacing" textLength="23.738" x="565.3194" y="233.789">Bad</text><text fill="#000000" font-family="sans-serif" font-size="13" lengthAdjust="spacing" textLength="3.38" x="589.0574" y="233.789">&#160;</text><text fill="#000000" font-family="sans-serif" font-size="13" lengthAdjust="spacing" textLength="53.5991" x="592.4374" y="233.789">Request)</text><polygon fill="#181818" points="246.4201,267.304,236.4201,271.304,246.4201,275.304,242.4201,271.304" style="stroke:#181818;stroke-width:1;"/><line style="stroke:#181818;stroke-width:1;stroke-dasharray:2.0,2.0;" x1="240.4201" x2="421.2842" y1="271.304" y2="271.304"/><text fill="#000000" font-family="sans-serif" font-size="13" lengthAdjust="spacing" textLength="49.179" x="252.4201" y="265.495">Antwort</text><text fill="#000000" font-family="sans-serif" font-size="13" lengthAdjust="spacing" textLength="3.38" x="301.5991" y="265.495">&#160;</text><text fill="#000000" font-family="sans-serif" font-size="13" lengthAdjust="spacing" textLength="26.208" x="304.9791" y="265.495">(400</text><text fill="#000000" font-family="sans-serif" font-size="13" lengthAdjust="spacing" textLength="3.38" x="331.1871" y="265.495">&#160;</text><text fill="#000000" font-family="sans-serif" font-size="13" lengthAdjust="spacing" textLength="23.738" x="334.5672" y="265.495">Bad</text><text fill="#000000" font-family="sans-serif" font-size="13" lengthAdjust="spacing" textLength="3.38" x="358.3052" y="265.495">&#160;</text><text fill="#000000" font-family="sans-serif" font-size="13" lengthAdjust="spacing" textLength="53.5991" x="361.6852" y="265.495">Request)</text><polygon fill="#181818" points="59.3089,299.01,49.3089,303.01,59.3089,307.01,55.3089,303.01" style="stroke:#181818;stroke-width:1;"/><line style="stroke:#181818;stroke-width:1;stroke-dasharray:2.0,2.0;" x1="53.3089" x2="234.4201" y1="303.01" y2="303.01"/><text fill="#000000" font-family="sans-serif" font-size="13" lengthAdjust="spacing" textLength="49.179" x="65.3089" y="297.201">Antwort</text><text fill="#000000" font-family="sans-serif" font-size="13" lengthAdjust="spacing" textLength="3.38" x="114.488" y="297.201">&#160;</text><text fill="#000000" font-family="sans-serif" font-size="13" lengthAdjust="spacing" textLength="26.208" x="117.868" y="297.201">(400</text><text fill="#000000" font-family="sans-serif" font-size="13" lengthAdjust="spacing" textLength="3.38" x="144.076" y="297.201">&#160;</text><text fill="#000000" font-family="sans-serif" font-size="13" lengthAdjust="spacing" textLength="23.738" x="147.456" y="297.201">Bad</text><text fill="#000000" font-family="sans-serif" font-size="13" lengthAdjust="spacing" textLength="3.38" x="171.194" y="297.201">&#160;</text><text fill="#000000" font-family="sans-serif" font-size="13" lengthAdjust="spacing" textLength="53.5991" x="174.5741" y="297.201">Request)</text><line style="stroke:#000000;stroke-width:1;stroke-dasharray:2.0,2.0;" x1="10" x2="1054.6597" y1="312.01" y2="312.01"/><polygon fill="#181818" points="759.2981,332.716,769.2981,336.716,759.2981,340.716,763.2981,336.716" style="stroke:#181818;stroke-width:1;"/><line style="stroke:#181818;stroke-width:1;" x1="422.2842" x2="765.2981" y1="336.716" y2="336.716"/><text fill="#000000" font-family="sans-serif" font-size="13" lengthAdjust="spacing" textLength="20.852" x="429.2842" y="330.907">Hol</text><text fill="#000000" font-family="sans-serif" font-size="13" lengthAdjust="spacing" textLength="3.38" x="450.1363" y="330.907">&#160;</text><text fill="#000000" font-family="sans-serif" font-size="13" lengthAdjust="spacing" textLength="39.442" x="453.5163" y="330.907">Kunde</text><text fill="#000000" font-family="sans-serif" font-size="13" lengthAdjust="spacing" textLength="3.38" x="492.9583" y="330.907">&#160;</text><text fill="#000000" font-family="sans-serif" font-size="13" lengthAdjust="spacing" textLength="29.601" x="496.3383" y="330.907">nach</text><text fill="#000000" font-family="sans-serif" font-size="13" lengthAdjust="spacing" textLength="3.38" x="525.9393" y="330.907">&#160;</text><text fill="#000000" font-family="sans-serif" font-size="13" lengthAdjust="spacing" textLength="13.897" x="529.3194" y="330.907">ID</text><path d="M20,351.716 L82.303,351.716 L82.303,361.4221 L72.303,371.4221 L20,371.4221 L20,351.716 " fill="#EEEEEE" style="stroke:#000000;stroke-width:1.5;"/><rect fill="transparent" height="370.4722" style="stroke:#000000;stroke-width:1.5;" width="1024.6597" x="20" y="351.716"/><text fill="#000000" font-family="sans-serif" font-size="13" font-weight="bold" lengthAdjust="spacing" textLength="17.303" x="35" y="366.6131">alt</text><text fill="#000000" font-family="sans-serif" font-size="11" font-weight="bold" lengthAdjust="spacing" textLength="128.9081" x="97.303" y="365.475">[Kunde nicht gefunden]</text><polygon fill="#181818" points="433.2842,391.1281,423.2842,395.1281,433.2842,399.1281,429.2842,395.1281" style="stroke:#181818;stroke-width:1;"/><line style="stroke:#181818;stroke-width:1;stroke-dasharray:2.0,2.0;" x1="427.2842" x2="770.2981" y1="395.1281" y2="395.1281"/><text fill="#000000" font-family="sans-serif" font-size="13" lengthAdjust="spacing" textLength="93.0671" x="439.2842" y="389.3191">Fehlermeldung</text><text fill="#000000" font-family="sans-serif" font-size="13" lengthAdjust="spacing" textLength="3.38" x="532.3513" y="389.3191">&#160;</text><text fill="#000000" font-family="sans-serif" font-size="13" lengthAdjust="spacing" textLength="26.208" x="535.7313" y="389.3191">(400</text><text fill="#000000" font-family="sans-serif" font-size="13" lengthAdjust="spacing" textLength="3.38" x="561.9394" y="389.3191">&#160;</text><text fill="#000000" font-family="sans-serif" font-size="13" lengthAdjust="spacing" textLength="23.738" x="565.3194" y="389.3191">Bad</text><text fill="#000000" font-family="sans-serif" font-size="13" lengthAdjust="spacing" textLength="3.38" x="589.0574" y="389.3191">&#160;</text><text fill="#000000" font-family="sans-serif" font-size="13" lengthAdjust="spacing" textLength="53.5991" x="592.4374" y="389.3191">Request)</text><polygon fill="#181818" points="246.4201,422.8341,236.4201,426.8341,246.4201,430.8341,242.4201,426.8341" style="stroke:#181818;stroke-width:1;"/><line style="stroke:#181818;stroke-width:1;stroke-dasharray:2.0,2.0;" x1="240.4201" x2="421.2842" y1="426.8341" y2="426.8341"/><text fill="#000000" font-family="sans-serif" font-size="13" lengthAdjust="spacing" textLength="49.179" x="252.4201" y="421.0251">Antwort</text><text fill="#000000" font-family="sans-serif" font-size="13" lengthAdjust="spacing" textLength="3.38" x="301.5991" y="421.0251">&#160;</text><text fill="#000000" font-family="sans-serif" font-size="13" lengthAdjust="spacing" textLength="26.208" x="304.9791" y="421.0251">(400</text><text fill="#000000" font-family="sans-serif" font-size="13" lengthAdjust="spacing" textLength="3.38" x="331.1871" y="421.0251">&#160;</text><text fill="#000000" font-family="sans-serif" font-size="13" lengthAdjust="spacing" textLength="23.738" x="334.5672" y="421.0251">Bad</text><text fill="#000000" font-family="sans-serif" font-size="13" lengthAdjust="spacing" textLength="3.38" x="358.3052" y="421.0251">&#160;</text><text fill="#000000" font-family="sans-serif" font-size="13" lengthAdjust="spacing" textLength="53.5991" x="361.6852" y="421.0251">Request)</text><polygon fill="#181818" points="59.3089,454.5401,49.3089,458.5401,59.3089,462.5401,55.3089,458.5401" style="stroke:#181818;stroke-width:1;"/><line style="stroke:#181818;stroke-width:1;stroke-dasharray:2.0,2.0;" x1="53.3089" x2="234.4201" y1="458.5401" y2="458.5401"/><text fill="#000000" font-family="sans-serif" font-size="13" lengthAdjust="spacing" textLength="49.179" x="65.3089" y="452.7311">Antwort</text><text fill="#000000" font-family="sans-serif" font-size="13" lengthAdjust="spacing" textLength="3.38" x="114.488" y="452.7311">&#160;</text><text fill="#000000" font-family="sans-serif" font-size="13" lengthAdjust="spacing" textLength="26.208" x="117.868" y="452.7311">(400</text><text fill="#000000" font-family="sans-serif" font-size="13" lengthAdjust="spacing" textLength="3.38" x="144.076" y="452.7311">&#160;</text><text fill="#000000" font-family="sans-serif" font-size="13" lengthAdjust="spacing" textLength="23.738" x="147.456" y="452.7311">Bad</text><text fill="#000000" font-family="sans-serif" font-size="13" lengthAdjust="spacing" textLength="3.38" x="171.194" y="452.7311">&#160;</text><text fill="#000000" font-family="sans-serif" font-size="13" lengthAdjust="spacing" textLength="53.5991" x="174.5741" y="452.7311">Request)</text><line style="stroke:#000000;stroke-width:1;stroke-dasharray:2.0,2.0;" x1="20" x2="1044.6597" y1="467.5401" y2="467.5401"/><polygon fill="#181818" points="984.6358,488.2461,994.6358,492.2461,984.6358,496.2461,988.6358,492.2461" style="stroke:#181818;stroke-width:1;"/><line style="stroke:#181818;stroke-width:1;" x1="422.2842" x2="990.6358" y1="492.2461" y2="492.2461"/><text fill="#000000" font-family="sans-serif" font-size="13" lengthAdjust="spacing" textLength="60.125" x="429.2842" y="486.4371">Speichere</text><text fill="#000000" font-family="sans-serif" font-size="13" lengthAdjust="spacing" textLength="3.38" x="489.4093" y="486.4371">&#160;</text><text fill="#000000" font-family="sans-serif" font-size="13" lengthAdjust="spacing" textLength="72.3321" x="492.7893" y="486.4371">Transaktion</text><polygon fill="#181818" points="433.2842,519.9521,423.2842,523.9521,433.2842,527.9521,429.2842,523.9521" style="stroke:#181818;stroke-width:1;"/><line style="stroke:#181818;stroke-width:1;stroke-dasharray:2.0,2.0;" x1="427.2842" x2="995.6358" y1="523.9521" y2="523.9521"/><text fill="#000000" font-family="sans-serif" font-size="13" lengthAdjust="spacing" textLength="74.1001" x="439.2842" y="518.1431">Best&#228;tigung</text><polygon fill="#181818" points="246.4201,551.6582,236.4201,555.6582,246.4201,559.6582,242.4201,555.6582" style="stroke:#181818;stroke-width:1;"/><line style="stroke:#181818;stroke-width:1;stroke-dasharray:2.0,2.0;" x1="240.4201" x2="421.2842" y1="555.6582" y2="555.6582"/><text fill="#000000" font-family="sans-serif" font-size="13" lengthAdjust="spacing" textLength="36.283" x="252.4201" y="549.8492">Erfolg</text><text fill="#000000" font-family="sans-serif" font-size="13" lengthAdjust="spacing" textLength="3.38" x="288.7031" y="549.8492">&#160;</text><text fill="#000000" font-family="sans-serif" font-size="13" lengthAdjust="spacing" textLength="26.208" x="292.0831" y="549.8492">(201</text><text fill="#000000" font-family="sans-serif" font-size="13" lengthAdjust="spacing" textLength="3.38" x="318.2911" y="549.8492">&#160;</text><text fill="#000000" font-family="sans-serif" font-size="13" lengthAdjust="spacing" textLength="52.13" x="321.6711" y="549.8492">Created)</text><polygon fill="#181818" points="874.4587,583.3642,884.4587,587.3642,874.4587,591.3642,878.4587,587.3642" style="stroke:#181818;stroke-width:1;"/><line style="stroke:#181818;stroke-width:1;" x1="235.4201" x2="880.4587" y1="587.3642" y2="587.3642"/><text fill="#000000" font-family="sans-serif" font-size="13" lengthAdjust="spacing" textLength="78.5591" x="242.4201" y="581.5552">Protokolliere</text><text fill="#000000" font-family="sans-serif" font-size="13" lengthAdjust="spacing" textLength="3.38" x="320.9791" y="581.5552">&#160;</text><text fill="#000000" font-family="sans-serif" font-size="13" lengthAdjust="spacing" textLength="39.195" x="324.3591" y="581.5552">Aktion</text><polygon fill="#181818" points="984.6358,615.0702,994.6358,619.0702,984.6358,623.0702,988.6358,619.0702" style="stroke:#181818;stroke-width:1;"/><line style="stroke:#181818;stroke-width:1;" x1="886.4587" x2="990.6358" y1="619.0702" y2="619.0702"/><text fill="#000000" font-family="sans-serif" font-size="13" lengthAdjust="spacing" textLength="60.125" x="893.4587" y="613.2612">Speichere</text><text fill="#000000" font-family="sans-serif" font-size="13" lengthAdjust="spacing" textLength="3.38" x="953.5838" y="613.2612">&#160;</text><text fill="#000000" font-family="sans-serif" font-size="13" lengthAdjust="spacing" textLength="22.672" x="956.9638" y="613.2612">Log</text><polygon fill="#181818" points="897.4587,646.7762,887.4587,650.7762,897.4587,654.7762,893.4587,650.7762" style="stroke:#181818;stroke-width:1;"/><line style="stroke:#181818;stroke-width:1;stroke-dasharray:2.0,2.0;" x1="891.4587" x2="995.6358" y1="650.7762" y2="650.7762"/><text fill="#000000" font-family="sans-serif" font-size="13" lengthAdjust="spacing" textLength="74.1001" x="903.4587" y="644.9672">Best&#228;tigung</text><polygon fill="#181818" points="246.4201,678.4822,236.4201,682.4822,246.4201,686.4822,242.4201,682.4822" style="stroke:#181818;stroke-width:1;"/><line style="stroke:#181818;stroke-width:1;stroke-dasharray:2.0,2.0;" x1="240.4201" x2="885.4587" y1="682.4822" y2="682.4822"/><text fill="#000000" font-family="sans-serif" font-size="13" lengthAdjust="spacing" textLength="36.283" x="252.4201" y="676.6732">Erfolg</text><polygon fill="#181818" points="59.3089,710.1882,49.3089,714.1882,59.3089,718.1882,55.3089,714.1882" style="stroke:#181818;stroke-width:1;"/><line style="stroke:#181818;stroke-width:1;stroke-dasharray:2.0,2.0;" x1="53.3089" x2="234.4201" y1="714.1882" y2="714.1882"/><text fill="#000000" font-family="sans-serif" font-size="13" lengthAdjust="spacing" textLength="49.179" x="65.3089" y="708.3792">Antwort</text><text fill="#000000" font-family="sans-serif" font-size="13" lengthAdjust="spacing" textLength="3.38" x="114.488" y="708.3792">&#160;</text><text fill="#000000" font-family="sans-serif" font-size="13" lengthAdjust="spacing" textLength="26.208" x="117.868" y="708.3792">(201</text><text fill="#000000" font-family="sans-serif" font-size="13" lengthAdjust="spacing" textLength="3.38" x="144.076" y="708.3792">&#160;</text><text fill="#000000" font-family="sans-serif" font-size="13" lengthAdjust="spacing" textLength="52.13" x="147.456" y="708.3792">Created)</text><!--SRC=[hPDDJiCm48NtFiKiOL4r1LPTLEeV0W42aNA08PccLXCxs9CMzJpSX8jXGzgcRKB5ZwLiF6-UvtsExLog70rc4Cumrakf4fXYQadOJIN3rpko5XCAvOhWF0Y4m8YrWITBHZWHoqZcg1Wc1fLrDQdLK2isEasR5I6PXOnef-mTw_Q7XMMTrTTkTLAtFKB6PtH9X3U5Lgz-kYuyt8SJQ6CksujEcxSQsnQr7NjMvTbT61lBv0HbSUwBub3esoinkt2bKnYGAdZbl1L6CxWU2KoviYcZ6KD2qqB5f0IuLN60LiD0bpHpusQKneMxrfEB8801nl18BmLPFltqgPkl6LLVyL8RFkvLfLNc_QwR_1_ND4vl__Q_aDru61jUljapAtSFWVcrv_CdSFyDxsy0VVS6OZF8zPleGfYJOqHczszTTwzrZOG6xjJtDvQ90_HB76CprQcZUnPqO6W8cUAZ97gLn-uUhj6ivwuaVOx-ReIji2cuKzG7hfvH6xJgVIpWpo_t00YfMBZl0m00]--></g></svg>