<svg xmlns="http://www.w3.org/2000/svg" xmlns:xlink="http://www.w3.org/1999/xlink" contentStyleType="text/css" data-diagram-type="SEQUENCE" height="747px" preserveAspectRatio="none" style="width:760px;height:747px;background:#FFFFFF;" version="1.1" viewBox="0 0 760 747" width="760px" zoomAndPan="magnify"><defs/><g><rect fill="transparent" height="469.5902" style="stroke:#000000;stroke-width:1.5;" width="743.8109" x="10" y="177.4799"/><rect fill="transparent" height="338.7662" style="stroke:#000000;stroke-width:1.5;" width="723.8109" x="20" y="301.304"/><g><title>User</title><rect fill="transparent" height="580.0023" width="8" x="44.3089" y="84.0679"/><line style="stroke:#181818;stroke-width:0.5;stroke-dasharray:5.0,5.0;" x1="48" x2="48" y1="84.0679" y2="664.0702"/></g><g><title>CustomerController</title><rect fill="transparent" height="580.0023" width="8" x="279.9751" y="84.0679"/><line style="stroke:#181818;stroke-width:0.5;stroke-dasharray:5.0,5.0;" x1="283.6374" x2="283.6374" y1="84.0679" y2="664.0702"/></g><g><title>CustomerService</title><rect fill="transparent" height="580.0023" width="8" x="466.4492" y="84.0679"/><line style="stroke:#181818;stroke-width:0.5;stroke-dasharray:5.0,5.0;" x1="469.8485" x2="469.8485" y1="84.0679" y2="664.0702"/></g><g><title>LogService</title><rect fill="transparent" height="580.0023" width="8" x="581.6099" y="84.0679"/><line style="stroke:#181818;stroke-width:0.5;stroke-dasharray:5.0,5.0;" x1="585.05" x2="585.05" y1="84.0679" y2="664.0702"/></g><g><title>Database</title><rect fill="transparent" height="580.0023" width="8" x="691.787" y="84.0679"/><line style="stroke:#181818;stroke-width:0.5;stroke-dasharray:5.0,5.0;" x1="695.7631" x2="695.7631" y1="84.0679" y2="664.0702"/></g><text fill="#000000" font-family="sans-serif" font-size="14" lengthAdjust="spacing" textLength="30.6179" x="30" y="79.9659">User</text><ellipse cx="48.3089" cy="13.5" fill="#E2E2F0" rx="8" ry="8" style="stroke:#181818;stroke-width:0.5;"/><path d="M48.3089,21.5 L48.3089,48.5 M35.3089,29.5 L61.3089,29.5 M48.3089,48.5 L35.3089,63.5 M48.3089,48.5 L61.3089,63.5 " fill="transparent" style="stroke:#181818;stroke-width:0.5;"/><text fill="#000000" font-family="sans-serif" font-size="14" lengthAdjust="spacing" textLength="30.6179" x="30" y="678.0361">User</text><ellipse cx="48.3089" cy="690.6381" fill="#E2E2F0" rx="8" ry="8" style="stroke:#181818;stroke-width:0.5;"/><path d="M48.3089,698.6381 L48.3089,725.6381 M35.3089,706.6381 L61.3089,706.6381 M48.3089,725.6381 L35.3089,740.6381 M48.3089,725.6381 L61.3089,740.6381 " fill="transparent" style="stroke:#181818;stroke-width:0.5;"/><rect fill="#E2E2F0" height="33.0679" rx="2.5" ry="2.5" style="stroke:#181818;stroke-width:0.5;" width="144.6755" x="211.6374" y="50"/><text fill="#000000" font-family="sans-serif" font-size="14" lengthAdjust="spacing" textLength="130.6755" x="218.6374" y="71.9659">CustomerController</text><rect fill="#E2E2F0" height="33.0679" rx="2.5" ry="2.5" style="stroke:#181818;stroke-width:0.5;" width="144.6755" x="211.6374" y="663.0702"/><text fill="#000000" font-family="sans-serif" font-size="14" lengthAdjust="spacing" textLength="130.6755" x="218.6374" y="685.0361">CustomerController</text><rect fill="#E2E2F0" height="33.0679" rx="2.5" ry="2.5" style="stroke:#181818;stroke-width:0.5;" width="125.2016" x="407.8485" y="50"/><text fill="#000000" font-family="sans-serif" font-size="14" lengthAdjust="spacing" textLength="111.2016" x="414.8485" y="71.9659">CustomerService</text><rect fill="#E2E2F0" height="33.0679" rx="2.5" ry="2.5" style="stroke:#181818;stroke-width:0.5;" width="125.2016" x="407.8485" y="663.0702"/><text fill="#000000" font-family="sans-serif" font-size="14" lengthAdjust="spacing" textLength="111.2016" x="414.8485" y="685.0361">CustomerService</text><rect fill="#E2E2F0" height="33.0679" rx="2.5" ry="2.5" style="stroke:#181818;stroke-width:0.5;" width="85.1197" x="543.05" y="50"/><text fill="#000000" font-family="sans-serif" font-size="14" lengthAdjust="spacing" textLength="71.1197" x="550.05" y="71.9659">LogService</text><rect fill="#E2E2F0" height="33.0679" rx="2.5" ry="2.5" style="stroke:#181818;stroke-width:0.5;" width="85.1197" x="543.05" y="663.0702"/><text fill="#000000" font-family="sans-serif" font-size="14" lengthAdjust="spacing" textLength="71.1197" x="550.05" y="685.0361">LogService</text><rect fill="#E2E2F0" height="33.0679" rx="2.5" ry="2.5" style="stroke:#181818;stroke-width:0.5;" width="76.0478" x="657.7631" y="50"/><text fill="#000000" font-family="sans-serif" font-size="14" lengthAdjust="spacing" textLength="62.0478" x="664.7631" y="71.9659">Database</text><rect fill="#E2E2F0" height="33.0679" rx="2.5" ry="2.5" style="stroke:#181818;stroke-width:0.5;" width="76.0478" x="657.7631" y="663.0702"/><text fill="#000000" font-family="sans-serif" font-size="14" lengthAdjust="spacing" textLength="62.0478" x="664.7631" y="685.0361">Database</text><polygon fill="#181818" points="271.9751,113.7739,281.9751,117.7739,271.9751,121.7739,275.9751,117.7739" style="stroke:#181818;stroke-width:1;"/><line style="stroke:#181818;stroke-width:1;" x1="48.3089" x2="277.9751" y1="117.7739" y2="117.7739"/><text fill="#000000" font-family="sans-serif" font-size="13" lengthAdjust="spacing" textLength="32.383" x="55.3089" y="111.9649">POST</text><text fill="#000000" font-family="sans-serif" font-size="13" lengthAdjust="spacing" textLength="3.38" x="87.692" y="111.9649">&#160;</text><text fill="#000000" font-family="sans-serif" font-size="13" lengthAdjust="spacing" textLength="116.1681" x="91.072" y="111.9649">/api/v1/customers/</text><line style="stroke:#181818;stroke-width:1;" x1="283.9751" x2="325.9751" y1="149.4799" y2="149.4799"/><line style="stroke:#181818;stroke-width:1;" x1="325.9751" x2="325.9751" y1="149.4799" y2="162.4799"/><line style="stroke:#181818;stroke-width:1;" x1="284.9751" x2="325.9751" y1="162.4799" y2="162.4799"/><polygon fill="#181818" points="294.9751,158.4799,284.9751,162.4799,294.9751,166.4799,290.9751,162.4799" style="stroke:#181818;stroke-width:1;"/><text fill="#000000" font-family="sans-serif" font-size="13" lengthAdjust="spacing" textLength="53.183" x="290.9751" y="143.6709">Validiere</text><text fill="#000000" font-family="sans-serif" font-size="13" lengthAdjust="spacing" textLength="3.38" x="344.1582" y="143.6709">&#160;</text><text fill="#000000" font-family="sans-serif" font-size="13" lengthAdjust="spacing" textLength="84.5781" x="347.5382" y="143.6709">Eingabedaten</text><path d="M10,177.4799 L72.303,177.4799 L72.303,187.186 L62.303,197.186 L10,197.186 L10,177.4799 " fill="#EEEEEE" style="stroke:#000000;stroke-width:1.5;"/><rect fill="transparent" height="469.5902" style="stroke:#000000;stroke-width:1.5;" width="743.8109" x="10" y="177.4799"/><text fill="#000000" font-family="sans-serif" font-size="13" font-weight="bold" lengthAdjust="spacing" textLength="17.303" x="25" y="192.377">alt</text><text fill="#000000" font-family="sans-serif" font-size="11" font-weight="bold" lengthAdjust="spacing" textLength="115.3782" x="87.303" y="191.2389">[Ung&#252;ltige Eingaben]</text><polygon fill="#181818" points="59.3089,216.892,49.3089,220.892,59.3089,224.892,55.3089,220.892" style="stroke:#181818;stroke-width:1;"/><line style="stroke:#181818;stroke-width:1;stroke-dasharray:2.0,2.0;" x1="53.3089" x2="282.9751" y1="220.892" y2="220.892"/><text fill="#000000" font-family="sans-serif" font-size="13" lengthAdjust="spacing" textLength="49.179" x="65.3089" y="215.083">Antwort</text><text fill="#000000" font-family="sans-serif" font-size="13" lengthAdjust="spacing" textLength="3.38" x="114.488" y="215.083">&#160;</text><text fill="#000000" font-family="sans-serif" font-size="13" lengthAdjust="spacing" textLength="26.208" x="117.868" y="215.083">(400</text><text fill="#000000" font-family="sans-serif" font-size="13" lengthAdjust="spacing" textLength="3.38" x="144.076" y="215.083">&#160;</text><text fill="#000000" font-family="sans-serif" font-size="13" lengthAdjust="spacing" textLength="23.738" x="147.456" y="215.083">Bad</text><text fill="#000000" font-family="sans-serif" font-size="13" lengthAdjust="spacing" textLength="3.38" x="171.194" y="215.083">&#160;</text><text fill="#000000" font-family="sans-serif" font-size="13" lengthAdjust="spacing" textLength="53.5991" x="174.5741" y="215.083">Request)</text><line style="stroke:#000000;stroke-width:1;stroke-dasharray:2.0,2.0;" x1="10" x2="753.8109" y1="229.892" y2="229.892"/><polygon fill="#181818" points="458.4492,250.598,468.4492,254.598,458.4492,258.598,462.4492,254.598" style="stroke:#181818;stroke-width:1;"/><line style="stroke:#181818;stroke-width:1;" x1="283.9751" x2="464.4492" y1="254.598" y2="254.598"/><text fill="#000000" font-family="sans-serif" font-size="13" lengthAdjust="spacing" textLength="44.889" x="290.9751" y="248.789">Erstelle</text><text fill="#000000" font-family="sans-serif" font-size="13" lengthAdjust="spacing" textLength="3.38" x="335.8642" y="248.789">&#160;</text><text fill="#000000" font-family="sans-serif" font-size="13" lengthAdjust="spacing" textLength="38.766" x="339.2442" y="248.789">neuen</text><text fill="#000000" font-family="sans-serif" font-size="13" lengthAdjust="spacing" textLength="3.38" x="378.0102" y="248.789">&#160;</text><text fill="#000000" font-family="sans-serif" font-size="13" lengthAdjust="spacing" textLength="47.4761" x="381.3902" y="248.789">Kunden</text><polygon fill="#181818" points="683.787,282.304,693.787,286.304,683.787,290.304,687.787,286.304" style="stroke:#181818;stroke-width:1;"/><line style="stroke:#181818;stroke-width:1;" x1="470.4492" x2="689.787" y1="286.304" y2="286.304"/><text fill="#000000" font-family="sans-serif" font-size="13" lengthAdjust="spacing" textLength="60.125" x="477.4492" y="280.495">Speichere</text><text fill="#000000" font-family="sans-serif" font-size="13" lengthAdjust="spacing" textLength="3.38" x="537.5743" y="280.495">&#160;</text><text fill="#000000" font-family="sans-serif" font-size="13" lengthAdjust="spacing" textLength="38.766" x="540.9543" y="280.495">neuen</text><text fill="#000000" font-family="sans-serif" font-size="13" lengthAdjust="spacing" textLength="3.38" x="579.7203" y="280.495">&#160;</text><text fill="#000000" font-family="sans-serif" font-size="13" lengthAdjust="spacing" textLength="47.4761" x="583.1003" y="280.495">Kunden</text><path d="M20,301.304 L82.303,301.304 L82.303,311.01 L72.303,321.01 L20,321.01 L20,301.304 " fill="#EEEEEE" style="stroke:#000000;stroke-width:1.5;"/><rect fill="transparent" height="338.7662" style="stroke:#000000;stroke-width:1.5;" width="723.8109" x="20" y="301.304"/><text fill="#000000" font-family="sans-serif" font-size="13" font-weight="bold" lengthAdjust="spacing" textLength="17.303" x="35" y="316.201">alt</text><text fill="#000000" font-family="sans-serif" font-size="11" font-weight="bold" lengthAdjust="spacing" textLength="100.6603" x="97.303" y="315.0629">[Datenbankfehler]</text><polygon fill="#181818" points="481.4492,340.716,471.4492,344.716,481.4492,348.716,477.4492,344.716" style="stroke:#181818;stroke-width:1;"/><line style="stroke:#181818;stroke-width:1;stroke-dasharray:2.0,2.0;" x1="475.4492" x2="694.787" y1="344.716" y2="344.716"/><text fill="#000000" font-family="sans-serif" font-size="13" lengthAdjust="spacing" textLength="38.168" x="487.4492" y="338.907">Fehler</text><polygon fill="#181818" points="294.9751,372.4221,284.9751,376.4221,294.9751,380.4221,290.9751,376.4221" style="stroke:#181818;stroke-width:1;"/><line style="stroke:#181818;stroke-width:1;stroke-dasharray:2.0,2.0;" x1="288.9751" x2="469.4492" y1="376.4221" y2="376.4221"/><text fill="#000000" font-family="sans-serif" font-size="13" lengthAdjust="spacing" textLength="50.57" x="300.9751" y="370.6131">Interner</text><text fill="#000000" font-family="sans-serif" font-size="13" lengthAdjust="spacing" textLength="3.38" x="351.5452" y="370.6131">&#160;</text><text fill="#000000" font-family="sans-serif" font-size="13" lengthAdjust="spacing" textLength="75.036" x="354.9252" y="370.6131">Serverfehler</text><text fill="#000000" font-family="sans-serif" font-size="13" lengthAdjust="spacing" textLength="3.38" x="429.9612" y="370.6131">&#160;</text><text fill="#000000" font-family="sans-serif" font-size="13" lengthAdjust="spacing" textLength="30.108" x="433.3412" y="370.6131">(500)</text><polygon fill="#181818" points="59.3089,404.1281,49.3089,408.1281,59.3089,412.1281,55.3089,408.1281" style="stroke:#181818;stroke-width:1;"/><line style="stroke:#181818;stroke-width:1;stroke-dasharray:2.0,2.0;" x1="53.3089" x2="282.9751" y1="408.1281" y2="408.1281"/><text fill="#000000" font-family="sans-serif" font-size="13" lengthAdjust="spacing" textLength="49.179" x="65.3089" y="402.3191">Antwort</text><text fill="#000000" font-family="sans-serif" font-size="13" lengthAdjust="spacing" textLength="3.38" x="114.488" y="402.3191">&#160;</text><text fill="#000000" font-family="sans-serif" font-size="13" lengthAdjust="spacing" textLength="26.208" x="117.868" y="402.3191">(500</text><text fill="#000000" font-family="sans-serif" font-size="13" lengthAdjust="spacing" textLength="3.38" x="144.076" y="402.3191">&#160;</text><text fill="#000000" font-family="sans-serif" font-size="13" lengthAdjust="spacing" textLength="48.516" x="147.456" y="402.3191">Internal</text><text fill="#000000" font-family="sans-serif" font-size="13" lengthAdjust="spacing" textLength="3.38" x="195.9721" y="402.3191">&#160;</text><text fill="#000000" font-family="sans-serif" font-size="13" lengthAdjust="spacing" textLength="39.143" x="199.3521" y="402.3191">Server</text><text fill="#000000" font-family="sans-serif" font-size="13" lengthAdjust="spacing" textLength="3.38" x="238.4951" y="402.3191">&#160;</text><text fill="#000000" font-family="sans-serif" font-size="13" lengthAdjust="spacing" textLength="35.1" x="241.8751" y="402.3191">Error)</text><line style="stroke:#000000;stroke-width:1;stroke-dasharray:2.0,2.0;" x1="20" x2="743.8109" y1="417.1281" y2="417.1281"/><polygon fill="#181818" points="481.4492,437.8341,471.4492,441.8341,481.4492,445.8341,477.4492,441.8341" style="stroke:#181818;stroke-width:1;"/><line style="stroke:#181818;stroke-width:1;stroke-dasharray:2.0,2.0;" x1="475.4492" x2="694.787" y1="441.8341" y2="441.8341"/><text fill="#000000" font-family="sans-serif" font-size="13" lengthAdjust="spacing" textLength="74.1001" x="487.4492" y="436.0251">Best&#228;tigung</text><polygon fill="#181818" points="294.9751,469.5401,284.9751,473.5401,294.9751,477.5401,290.9751,473.5401" style="stroke:#181818;stroke-width:1;"/><line style="stroke:#181818;stroke-width:1;stroke-dasharray:2.0,2.0;" x1="288.9751" x2="469.4492" y1="473.5401" y2="473.5401"/><text fill="#000000" font-family="sans-serif" font-size="13" lengthAdjust="spacing" textLength="36.283" x="300.9751" y="467.7311">Erfolg</text><polygon fill="#181818" points="573.6099,501.2461,583.6099,505.2461,573.6099,509.2461,577.6099,505.2461" style="stroke:#181818;stroke-width:1;"/><line style="stroke:#181818;stroke-width:1;" x1="283.9751" x2="579.6099" y1="505.2461" y2="505.2461"/><text fill="#000000" font-family="sans-serif" font-size="13" lengthAdjust="spacing" textLength="78.5591" x="290.9751" y="499.4371">Protokolliere</text><text fill="#000000" font-family="sans-serif" font-size="13" lengthAdjust="spacing" textLength="3.38" x="369.5342" y="499.4371">&#160;</text><text fill="#000000" font-family="sans-serif" font-size="13" lengthAdjust="spacing" textLength="39.195" x="372.9142" y="499.4371">Aktion</text><polygon fill="#181818" points="683.787,532.9521,693.787,536.9521,683.787,540.9521,687.787,536.9521" style="stroke:#181818;stroke-width:1;"/><line style="stroke:#181818;stroke-width:1;" x1="585.6099" x2="689.787" y1="536.9521" y2="536.9521"/><text fill="#000000" font-family="sans-serif" font-size="13" lengthAdjust="spacing" textLength="60.125" x="592.6099" y="531.1431">Speichere</text><text fill="#000000" font-family="sans-serif" font-size="13" lengthAdjust="spacing" textLength="3.38" x="652.7349" y="531.1431">&#160;</text><text fill="#000000" font-family="sans-serif" font-size="13" lengthAdjust="spacing" textLength="22.672" x="656.1149" y="531.1431">Log</text><polygon fill="#181818" points="596.6099,564.6582,586.6099,568.6582,596.6099,572.6582,592.6099,568.6582" style="stroke:#181818;stroke-width:1;"/><line style="stroke:#181818;stroke-width:1;stroke-dasharray:2.0,2.0;" x1="590.6099" x2="694.787" y1="568.6582" y2="568.6582"/><text fill="#000000" font-family="sans-serif" font-size="13" lengthAdjust="spacing" textLength="74.1001" x="602.6099" y="562.8492">Best&#228;tigung</text><polygon fill="#181818" points="294.9751,596.3642,284.9751,600.3642,294.9751,604.3642,290.9751,600.3642" style="stroke:#181818;stroke-width:1;"/><line style="stroke:#181818;stroke-width:1;stroke-dasharray:2.0,2.0;" x1="288.9751" x2="584.6099" y1="600.3642" y2="600.3642"/><text fill="#000000" font-family="sans-serif" font-size="13" lengthAdjust="spacing" textLength="36.283" x="300.9751" y="594.5552">Erfolg</text><polygon fill="#181818" points="59.3089,628.0702,49.3089,632.0702,59.3089,636.0702,55.3089,632.0702" style="stroke:#181818;stroke-width:1;"/><line style="stroke:#181818;stroke-width:1;stroke-dasharray:2.0,2.0;" x1="53.3089" x2="282.9751" y1="632.0702" y2="632.0702"/><text fill="#000000" font-family="sans-serif" font-size="13" lengthAdjust="spacing" textLength="49.179" x="65.3089" y="626.2612">Antwort</text><text fill="#000000" font-family="sans-serif" font-size="13" lengthAdjust="spacing" textLength="3.38" x="114.488" y="626.2612">&#160;</text><text fill="#000000" font-family="sans-serif" font-size="13" lengthAdjust="spacing" textLength="26.208" x="117.868" y="626.2612">(201</text><text fill="#000000" font-family="sans-serif" font-size="13" lengthAdjust="spacing" textLength="3.38" x="144.076" y="626.2612">&#160;</text><text fill="#000000" font-family="sans-serif" font-size="13" lengthAdjust="spacing" textLength="52.13" x="147.456" y="626.2612">Created)</text><!--SRC=[dLBBJiD03BplL_X83rLJ7fSUAj5I90G8H82xcxZfggctx6u0yJry1hV-65u8eIL94QoKIsOyzepj5ffNQ749yHnJywGvWndcZfIha2K-Nv9pc56iNmWEeWYKmiGR2tUEh1AMrubU8NiO5ywR9TcnOMzDdhV0CTb7dT0MTc6ofjydw76AZgHdw0RTOKEJ0LnVnRVGmvNkFVPxIKbmFLNdjYdSOwvJJPPW8YdWb5Bqn0fp3tUShTzohxCAOmNociH5FSmvW6FsJyPws3kKm4QOmWqz5EHyHr78jwr- -3Ea0KoiyoGeC1N4S5vm-cE0aXggl_8QGBmYdSo3eLfTC7KIx4sH5pEQXpr1-Qh0kqspd6wJQmEqX7l6dYoBlq0a-zaIzewYg5FJsfscb9Hgc9Tg4f0rzbEeolPtAoDPnlfLjbfmzcT34pipURPpzk76ISk1MkFDGg2F4pjUU6suAlycjgrG6CssDdiqEjhK_h-P-YBsepwCBSaLfMNqd2hvtW40]--></g></svg>