<svg xmlns="http://www.w3.org/2000/svg" xmlns:xlink="http://www.w3.org/1999/xlink" contentStyleType="text/css" data-diagram-type="SEQUENCE" height="635px" preserveAspectRatio="none" style="width:740px;height:635px;background:#FFFFFF;" version="1.1" viewBox="0 0 740 635" width="740px" zoomAndPan="magnify"><defs/><g><rect fill="transparent" height="338.7662" style="stroke:#000000;stroke-width:1.5;" width="723.8109" x="10" y="196.186"/><g><title>User</title><rect fill="transparent" height="467.8842" width="8" x="34.3089" y="84.0679"/><line style="stroke:#181818;stroke-width:0.5;stroke-dasharray:5.0,5.0;" x1="38" x2="38" y1="84.0679" y2="551.9521"/></g><g><title>CustomerController</title><rect fill="transparent" height="467.8842" width="8" x="269.9751" y="84.0679"/><line style="stroke:#181818;stroke-width:0.5;stroke-dasharray:5.0,5.0;" x1="273.6374" x2="273.6374" y1="84.0679" y2="551.9521"/></g><g><title>CustomerService</title><rect fill="transparent" height="467.8842" width="8" x="456.4492" y="84.0679"/><line style="stroke:#181818;stroke-width:0.5;stroke-dasharray:5.0,5.0;" x1="459.8485" x2="459.8485" y1="84.0679" y2="551.9521"/></g><g><title>LogService</title><rect fill="transparent" height="467.8842" width="8" x="571.6099" y="84.0679"/><line style="stroke:#181818;stroke-width:0.5;stroke-dasharray:5.0,5.0;" x1="575.05" x2="575.05" y1="84.0679" y2="551.9521"/></g><g><title>Database</title><rect fill="transparent" height="467.8842" width="8" x="681.787" y="84.0679"/><line style="stroke:#181818;stroke-width:0.5;stroke-dasharray:5.0,5.0;" x1="685.7631" x2="685.7631" y1="84.0679" y2="551.9521"/></g><text fill="#000000" font-family="sans-serif" font-size="14" lengthAdjust="spacing" textLength="30.6179" x="20" y="79.9659">User</text><ellipse cx="38.3089" cy="13.5" fill="#E2E2F0" rx="8" ry="8" style="stroke:#181818;stroke-width:0.5;"/><path d="M38.3089,21.5 L38.3089,48.5 M25.3089,29.5 L51.3089,29.5 M38.3089,48.5 L25.3089,63.5 M38.3089,48.5 L51.3089,63.5 " fill="transparent" style="stroke:#181818;stroke-width:0.5;"/><text fill="#000000" font-family="sans-serif" font-size="14" lengthAdjust="spacing" textLength="30.6179" x="20" y="565.9181">User</text><ellipse cx="38.3089" cy="578.5201" fill="#E2E2F0" rx="8" ry="8" style="stroke:#181818;stroke-width:0.5;"/><path d="M38.3089,586.5201 L38.3089,613.5201 M25.3089,594.5201 L51.3089,594.5201 M38.3089,613.5201 L25.3089,628.5201 M38.3089,613.5201 L51.3089,628.5201 " fill="transparent" style="stroke:#181818;stroke-width:0.5;"/><rect fill="#E2E2F0" height="33.0679" rx="2.5" ry="2.5" style="stroke:#181818;stroke-width:0.5;" width="144.6755" x="201.6374" y="50"/><text fill="#000000" font-family="sans-serif" font-size="14" lengthAdjust="spacing" textLength="130.6755" x="208.6374" y="71.9659">CustomerController</text><rect fill="#E2E2F0" height="33.0679" rx="2.5" ry="2.5" style="stroke:#181818;stroke-width:0.5;" width="144.6755" x="201.6374" y="550.9521"/><text fill="#000000" font-family="sans-serif" font-size="14" lengthAdjust="spacing" textLength="130.6755" x="208.6374" y="572.9181">CustomerController</text><rect fill="#E2E2F0" height="33.0679" rx="2.5" ry="2.5" style="stroke:#181818;stroke-width:0.5;" width="125.2016" x="397.8485" y="50"/><text fill="#000000" font-family="sans-serif" font-size="14" lengthAdjust="spacing" textLength="111.2016" x="404.8485" y="71.9659">CustomerService</text><rect fill="#E2E2F0" height="33.0679" rx="2.5" ry="2.5" style="stroke:#181818;stroke-width:0.5;" width="125.2016" x="397.8485" y="550.9521"/><text fill="#000000" font-family="sans-serif" font-size="14" lengthAdjust="spacing" textLength="111.2016" x="404.8485" y="572.9181">CustomerService</text><rect fill="#E2E2F0" height="33.0679" rx="2.5" ry="2.5" style="stroke:#181818;stroke-width:0.5;" width="85.1197" x="533.05" y="50"/><text fill="#000000" font-family="sans-serif" font-size="14" lengthAdjust="spacing" textLength="71.1197" x="540.05" y="71.9659">LogService</text><rect fill="#E2E2F0" height="33.0679" rx="2.5" ry="2.5" style="stroke:#181818;stroke-width:0.5;" width="85.1197" x="533.05" y="550.9521"/><text fill="#000000" font-family="sans-serif" font-size="14" lengthAdjust="spacing" textLength="71.1197" x="540.05" y="572.9181">LogService</text><rect fill="#E2E2F0" height="33.0679" rx="2.5" ry="2.5" style="stroke:#181818;stroke-width:0.5;" width="76.0478" x="647.7631" y="50"/><text fill="#000000" font-family="sans-serif" font-size="14" lengthAdjust="spacing" textLength="62.0478" x="654.7631" y="71.9659">Database</text><rect fill="#E2E2F0" height="33.0679" rx="2.5" ry="2.5" style="stroke:#181818;stroke-width:0.5;" width="76.0478" x="647.7631" y="550.9521"/><text fill="#000000" font-family="sans-serif" font-size="14" lengthAdjust="spacing" textLength="62.0478" x="654.7631" y="572.9181">Database</text><polygon fill="#181818" points="261.9751,113.7739,271.9751,117.7739,261.9751,121.7739,265.9751,117.7739" style="stroke:#181818;stroke-width:1;"/><line style="stroke:#181818;stroke-width:1;" x1="38.3089" x2="267.9751" y1="117.7739" y2="117.7739"/><text fill="#000000" font-family="sans-serif" font-size="13" lengthAdjust="spacing" textLength="45.2141" x="45.3089" y="111.9649">DELETE</text><text fill="#000000" font-family="sans-serif" font-size="13" lengthAdjust="spacing" textLength="3.38" x="90.523" y="111.9649">&#160;</text><text fill="#000000" font-family="sans-serif" font-size="13" lengthAdjust="spacing" textLength="137.3971" x="93.903" y="111.9649">/api/v1/customers/{id}</text><polygon fill="#181818" points="448.4492,145.4799,458.4492,149.4799,448.4492,153.4799,452.4492,149.4799" style="stroke:#181818;stroke-width:1;"/><line style="stroke:#181818;stroke-width:1;" x1="273.9751" x2="454.4492" y1="149.4799" y2="149.4799"/><text fill="#000000" font-family="sans-serif" font-size="13" lengthAdjust="spacing" textLength="42.51" x="280.9751" y="143.6709">L&#246;sche</text><text fill="#000000" font-family="sans-serif" font-size="13" lengthAdjust="spacing" textLength="3.38" x="323.4852" y="143.6709">&#160;</text><text fill="#000000" font-family="sans-serif" font-size="13" lengthAdjust="spacing" textLength="47.4761" x="326.8652" y="143.6709">Kunden</text><text fill="#000000" font-family="sans-serif" font-size="13" lengthAdjust="spacing" textLength="3.38" x="374.3412" y="143.6709">&#160;</text><text fill="#000000" font-family="sans-serif" font-size="13" lengthAdjust="spacing" textLength="20.202" x="377.7212" y="143.6709">mit</text><text fill="#000000" font-family="sans-serif" font-size="13" lengthAdjust="spacing" textLength="3.38" x="397.9233" y="143.6709">&#160;</text><text fill="#000000" font-family="sans-serif" font-size="13" lengthAdjust="spacing" textLength="13.897" x="401.3033" y="143.6709">ID</text><text fill="#000000" font-family="sans-serif" font-size="13" lengthAdjust="spacing" textLength="3.38" x="415.2003" y="143.6709">&#160;</text><text fill="#000000" font-family="sans-serif" font-size="13" lengthAdjust="spacing" textLength="21.229" x="418.5803" y="143.6709">{id}</text><polygon fill="#181818" points="673.787,177.186,683.787,181.186,673.787,185.186,677.787,181.186" style="stroke:#181818;stroke-width:1;"/><line style="stroke:#181818;stroke-width:1;" x1="460.4492" x2="679.787" y1="181.186" y2="181.186"/><text fill="#000000" font-family="sans-serif" font-size="13" lengthAdjust="spacing" textLength="42.51" x="467.4492" y="175.377">L&#246;sche</text><text fill="#000000" font-family="sans-serif" font-size="13" lengthAdjust="spacing" textLength="3.38" x="509.9593" y="175.377">&#160;</text><text fill="#000000" font-family="sans-serif" font-size="13" lengthAdjust="spacing" textLength="47.4761" x="513.3393" y="175.377">Kunden</text><text fill="#000000" font-family="sans-serif" font-size="13" lengthAdjust="spacing" textLength="3.38" x="560.8154" y="175.377">&#160;</text><text fill="#000000" font-family="sans-serif" font-size="13" lengthAdjust="spacing" textLength="20.202" x="564.1954" y="175.377">mit</text><text fill="#000000" font-family="sans-serif" font-size="13" lengthAdjust="spacing" textLength="3.38" x="584.3974" y="175.377">&#160;</text><text fill="#000000" font-family="sans-serif" font-size="13" lengthAdjust="spacing" textLength="13.897" x="587.7774" y="175.377">ID</text><text fill="#000000" font-family="sans-serif" font-size="13" lengthAdjust="spacing" textLength="3.38" x="601.6744" y="175.377">&#160;</text><text fill="#000000" font-family="sans-serif" font-size="13" lengthAdjust="spacing" textLength="21.229" x="605.0544" y="175.377">{id}</text><path d="M10,196.186 L72.303,196.186 L72.303,205.892 L62.303,215.892 L10,215.892 L10,196.186 " fill="#EEEEEE" style="stroke:#000000;stroke-width:1.5;"/><rect fill="transparent" height="338.7662" style="stroke:#000000;stroke-width:1.5;" width="723.8109" x="10" y="196.186"/><text fill="#000000" font-family="sans-serif" font-size="13" font-weight="bold" lengthAdjust="spacing" textLength="17.303" x="25" y="211.083">alt</text><text fill="#000000" font-family="sans-serif" font-size="11" font-weight="bold" lengthAdjust="spacing" textLength="100.6603" x="87.303" y="209.9449">[Datenbankfehler]</text><polygon fill="#181818" points="471.4492,235.598,461.4492,239.598,471.4492,243.598,467.4492,239.598" style="stroke:#181818;stroke-width:1;"/><line style="stroke:#181818;stroke-width:1;stroke-dasharray:2.0,2.0;" x1="465.4492" x2="684.787" y1="239.598" y2="239.598"/><text fill="#000000" font-family="sans-serif" font-size="13" lengthAdjust="spacing" textLength="38.168" x="477.4492" y="233.789">Fehler</text><polygon fill="#181818" points="284.9751,267.304,274.9751,271.304,284.9751,275.304,280.9751,271.304" style="stroke:#181818;stroke-width:1;"/><line style="stroke:#181818;stroke-width:1;stroke-dasharray:2.0,2.0;" x1="278.9751" x2="459.4492" y1="271.304" y2="271.304"/><text fill="#000000" font-family="sans-serif" font-size="13" lengthAdjust="spacing" textLength="50.57" x="290.9751" y="265.495">Interner</text><text fill="#000000" font-family="sans-serif" font-size="13" lengthAdjust="spacing" textLength="3.38" x="341.5452" y="265.495">&#160;</text><text fill="#000000" font-family="sans-serif" font-size="13" lengthAdjust="spacing" textLength="75.036" x="344.9252" y="265.495">Serverfehler</text><text fill="#000000" font-family="sans-serif" font-size="13" lengthAdjust="spacing" textLength="3.38" x="419.9612" y="265.495">&#160;</text><text fill="#000000" font-family="sans-serif" font-size="13" lengthAdjust="spacing" textLength="30.108" x="423.3412" y="265.495">(500)</text><polygon fill="#181818" points="49.3089,299.01,39.3089,303.01,49.3089,307.01,45.3089,303.01" style="stroke:#181818;stroke-width:1;"/><line style="stroke:#181818;stroke-width:1;stroke-dasharray:2.0,2.0;" x1="43.3089" x2="272.9751" y1="303.01" y2="303.01"/><text fill="#000000" font-family="sans-serif" font-size="13" lengthAdjust="spacing" textLength="49.179" x="55.3089" y="297.201">Antwort</text><text fill="#000000" font-family="sans-serif" font-size="13" lengthAdjust="spacing" textLength="3.38" x="104.488" y="297.201">&#160;</text><text fill="#000000" font-family="sans-serif" font-size="13" lengthAdjust="spacing" textLength="26.208" x="107.868" y="297.201">(500</text><text fill="#000000" font-family="sans-serif" font-size="13" lengthAdjust="spacing" textLength="3.38" x="134.076" y="297.201">&#160;</text><text fill="#000000" font-family="sans-serif" font-size="13" lengthAdjust="spacing" textLength="48.516" x="137.456" y="297.201">Internal</text><text fill="#000000" font-family="sans-serif" font-size="13" lengthAdjust="spacing" textLength="3.38" x="185.9721" y="297.201">&#160;</text><text fill="#000000" font-family="sans-serif" font-size="13" lengthAdjust="spacing" textLength="39.143" x="189.3521" y="297.201">Server</text><text fill="#000000" font-family="sans-serif" font-size="13" lengthAdjust="spacing" textLength="3.38" x="228.4951" y="297.201">&#160;</text><text fill="#000000" font-family="sans-serif" font-size="13" lengthAdjust="spacing" textLength="35.1" x="231.8751" y="297.201">Error)</text><line style="stroke:#000000;stroke-width:1;stroke-dasharray:2.0,2.0;" x1="10" x2="733.8109" y1="312.01" y2="312.01"/><polygon fill="#181818" points="471.4492,332.716,461.4492,336.716,471.4492,340.716,467.4492,336.716" style="stroke:#181818;stroke-width:1;"/><line style="stroke:#181818;stroke-width:1;stroke-dasharray:2.0,2.0;" x1="465.4492" x2="684.787" y1="336.716" y2="336.716"/><text fill="#000000" font-family="sans-serif" font-size="13" lengthAdjust="spacing" textLength="74.1001" x="477.4492" y="330.907">Best&#228;tigung</text><polygon fill="#181818" points="284.9751,364.4221,274.9751,368.4221,284.9751,372.4221,280.9751,368.4221" style="stroke:#181818;stroke-width:1;"/><line style="stroke:#181818;stroke-width:1;stroke-dasharray:2.0,2.0;" x1="278.9751" x2="459.4492" y1="368.4221" y2="368.4221"/><text fill="#000000" font-family="sans-serif" font-size="13" lengthAdjust="spacing" textLength="36.283" x="290.9751" y="362.6131">Erfolg</text><polygon fill="#181818" points="563.6099,396.1281,573.6099,400.1281,563.6099,404.1281,567.6099,400.1281" style="stroke:#181818;stroke-width:1;"/><line style="stroke:#181818;stroke-width:1;" x1="273.9751" x2="569.6099" y1="400.1281" y2="400.1281"/><text fill="#000000" font-family="sans-serif" font-size="13" lengthAdjust="spacing" textLength="78.5591" x="280.9751" y="394.3191">Protokolliere</text><text fill="#000000" font-family="sans-serif" font-size="13" lengthAdjust="spacing" textLength="3.38" x="359.5342" y="394.3191">&#160;</text><text fill="#000000" font-family="sans-serif" font-size="13" lengthAdjust="spacing" textLength="39.195" x="362.9142" y="394.3191">Aktion</text><polygon fill="#181818" points="673.787,427.8341,683.787,431.8341,673.787,435.8341,677.787,431.8341" style="stroke:#181818;stroke-width:1;"/><line style="stroke:#181818;stroke-width:1;" x1="575.6099" x2="679.787" y1="431.8341" y2="431.8341"/><text fill="#000000" font-family="sans-serif" font-size="13" lengthAdjust="spacing" textLength="60.125" x="582.6099" y="426.0251">Speichere</text><text fill="#000000" font-family="sans-serif" font-size="13" lengthAdjust="spacing" textLength="3.38" x="642.7349" y="426.0251">&#160;</text><text fill="#000000" font-family="sans-serif" font-size="13" lengthAdjust="spacing" textLength="22.672" x="646.1149" y="426.0251">Log</text><polygon fill="#181818" points="586.6099,459.5401,576.6099,463.5401,586.6099,467.5401,582.6099,463.5401" style="stroke:#181818;stroke-width:1;"/><line style="stroke:#181818;stroke-width:1;stroke-dasharray:2.0,2.0;" x1="580.6099" x2="684.787" y1="463.5401" y2="463.5401"/><text fill="#000000" font-family="sans-serif" font-size="13" lengthAdjust="spacing" textLength="74.1001" x="592.6099" y="457.7311">Best&#228;tigung</text><polygon fill="#181818" points="284.9751,491.2461,274.9751,495.2461,284.9751,499.2461,280.9751,495.2461" style="stroke:#181818;stroke-width:1;"/><line style="stroke:#181818;stroke-width:1;stroke-dasharray:2.0,2.0;" x1="278.9751" x2="574.6099" y1="495.2461" y2="495.2461"/><text fill="#000000" font-family="sans-serif" font-size="13" lengthAdjust="spacing" textLength="36.283" x="290.9751" y="489.4371">Erfolg</text><polygon fill="#181818" points="49.3089,522.9521,39.3089,526.9521,49.3089,530.9521,45.3089,526.9521" style="stroke:#181818;stroke-width:1;"/><line style="stroke:#181818;stroke-width:1;stroke-dasharray:2.0,2.0;" x1="43.3089" x2="272.9751" y1="526.9521" y2="526.9521"/><text fill="#000000" font-family="sans-serif" font-size="13" lengthAdjust="spacing" textLength="49.179" x="55.3089" y="521.1431">Antwort</text><text fill="#000000" font-family="sans-serif" font-size="13" lengthAdjust="spacing" textLength="3.38" x="104.488" y="521.1431">&#160;</text><text fill="#000000" font-family="sans-serif" font-size="13" lengthAdjust="spacing" textLength="26.208" x="107.868" y="521.1431">(200</text><text fill="#000000" font-family="sans-serif" font-size="13" lengthAdjust="spacing" textLength="3.38" x="134.076" y="521.1431">&#160;</text><text fill="#000000" font-family="sans-serif" font-size="13" lengthAdjust="spacing" textLength="22.1" x="137.456" y="521.1431">OK)</text><!--SRC=[dLBDJi904BxtAUOe1rBKUEc11A4c18mcrGSOsw5iskusimCOZM_ZC_W2l9XRhD2ceD4zxdpp_UtQJEaI6Gk8bfYOZT8fB32tvDdzfC3dMx8MKuhK2y7bO02UXx4OXaTBx3cKg5YLg0N6Aokc81uRBMpo_CGu8bwhc5gpkKcFNKzGy0ajESrA3Vh38o81JC9v-122ZwNor-T-N4Ei_wgIDw-xqUIfPGEORpzil2IOhNH26WebC9r0Yw76LklVpdxSmtmNWVGJwcn1oweHS6SVgt_CoCq1s14-KS1K2x5smIeWyPSKd5qD1hqMJxC2HrLr6i18oyQmxE0r4-Or4uJCXdiULR_YT-lNP6NxBYfTwVHF0K9Uc3mzwNNO-201tBCHaxcH8YOOPQACtgqUGEqdYafIxeaSs26wCPhSdGHDpl-PxnPzuOg-cxbMTV89]--></g></svg>