<svg xmlns="http://www.w3.org/2000/svg" xmlns:xlink="http://www.w3.org/1999/xlink" contentStyleType="text/css" data-diagram-type="SEQUENCE" height="717px" preserveAspectRatio="none" style="width:799px;height:717px;background:#FFFFFF;" version="1.1" viewBox="0 0 799 717" width="799px" zoomAndPan="magnify"><defs/><g><rect fill="transparent" height="452.8661" style="stroke:#000000;stroke-width:1.5;" width="782.6919" x="10" y="164.4799"/><rect fill="transparent" height="338.7662" style="stroke:#000000;stroke-width:1.5;" width="762.6919" x="20" y="271.5799"/><g><title>User</title><rect fill="transparent" height="550.2782" width="8" x="44.3089" y="84.0679"/><line style="stroke:#181818;stroke-width:0.5;stroke-dasharray:5.0,5.0;" x1="48" x2="48" y1="84.0679" y2="634.3461"/></g><g><title>AppointmentController</title><rect fill="transparent" height="550.2782" width="8" x="275.8281" y="84.0679"/><line style="stroke:#181818;stroke-width:0.5;stroke-dasharray:5.0,5.0;" x1="279.4164" x2="279.4164" y1="84.0679" y2="634.3461"/></g><g><title>AppointmentService</title><rect fill="transparent" height="550.2782" width="8" x="494.2563" y="84.0679"/><line style="stroke:#181818;stroke-width:0.5;stroke-dasharray:5.0,5.0;" x1="497.5816" x2="497.5816" y1="84.0679" y2="634.3461"/></g><g><title>LogService</title><rect fill="transparent" height="550.2782" width="8" x="620.491" y="84.0679"/><line style="stroke:#181818;stroke-width:0.5;stroke-dasharray:5.0,5.0;" x1="623.9311" x2="623.9311" y1="84.0679" y2="634.3461"/></g><g><title>Database</title><rect fill="transparent" height="550.2782" width="8" x="730.668" y="84.0679"/><line style="stroke:#181818;stroke-width:0.5;stroke-dasharray:5.0,5.0;" x1="734.6441" x2="734.6441" y1="84.0679" y2="634.3461"/></g><text fill="#000000" font-family="sans-serif" font-size="14" lengthAdjust="spacing" textLength="30.6179" x="30" y="79.9659">User</text><ellipse cx="48.3089" cy="13.5" fill="#E2E2F0" rx="8" ry="8" style="stroke:#181818;stroke-width:0.5;"/><path d="M48.3089,21.5 L48.3089,48.5 M35.3089,29.5 L61.3089,29.5 M48.3089,48.5 L35.3089,63.5 M48.3089,48.5 L61.3089,63.5 " fill="transparent" style="stroke:#181818;stroke-width:0.5;"/><text fill="#000000" font-family="sans-serif" font-size="14" lengthAdjust="spacing" textLength="30.6179" x="30" y="648.312">User</text><ellipse cx="48.3089" cy="660.914" fill="#E2E2F0" rx="8" ry="8" style="stroke:#181818;stroke-width:0.5;"/><path d="M48.3089,668.914 L48.3089,695.914 M35.3089,676.914 L61.3089,676.914 M48.3089,695.914 L35.3089,710.914 M48.3089,695.914 L61.3089,710.914 " fill="transparent" style="stroke:#181818;stroke-width:0.5;"/><rect fill="#E2E2F0" height="33.0679" rx="2.5" ry="2.5" style="stroke:#181818;stroke-width:0.5;" width="166.8234" x="196.4164" y="50"/><text fill="#000000" font-family="sans-serif" font-size="14" lengthAdjust="spacing" textLength="152.8234" x="203.4164" y="71.9659">AppointmentController</text><rect fill="#E2E2F0" height="33.0679" rx="2.5" ry="2.5" style="stroke:#181818;stroke-width:0.5;" width="166.8234" x="196.4164" y="633.3461"/><text fill="#000000" font-family="sans-serif" font-size="14" lengthAdjust="spacing" textLength="152.8234" x="203.4164" y="655.312">AppointmentController</text><rect fill="#E2E2F0" height="33.0679" rx="2.5" ry="2.5" style="stroke:#181818;stroke-width:0.5;" width="147.3495" x="424.5816" y="50"/><text fill="#000000" font-family="sans-serif" font-size="14" lengthAdjust="spacing" textLength="133.3495" x="431.5816" y="71.9659">AppointmentService</text><rect fill="#E2E2F0" height="33.0679" rx="2.5" ry="2.5" style="stroke:#181818;stroke-width:0.5;" width="147.3495" x="424.5816" y="633.3461"/><text fill="#000000" font-family="sans-serif" font-size="14" lengthAdjust="spacing" textLength="133.3495" x="431.5816" y="655.312">AppointmentService</text><rect fill="#E2E2F0" height="33.0679" rx="2.5" ry="2.5" style="stroke:#181818;stroke-width:0.5;" width="85.1197" x="581.9311" y="50"/><text fill="#000000" font-family="sans-serif" font-size="14" lengthAdjust="spacing" textLength="71.1197" x="588.9311" y="71.9659">LogService</text><rect fill="#E2E2F0" height="33.0679" rx="2.5" ry="2.5" style="stroke:#181818;stroke-width:0.5;" width="85.1197" x="581.9311" y="633.3461"/><text fill="#000000" font-family="sans-serif" font-size="14" lengthAdjust="spacing" textLength="71.1197" x="588.9311" y="655.312">LogService</text><rect fill="#E2E2F0" height="33.0679" rx="2.5" ry="2.5" style="stroke:#181818;stroke-width:0.5;" width="76.0478" x="696.6441" y="50"/><text fill="#000000" font-family="sans-serif" font-size="14" lengthAdjust="spacing" textLength="62.0478" x="703.6441" y="71.9659">Database</text><rect fill="#E2E2F0" height="33.0679" rx="2.5" ry="2.5" style="stroke:#181818;stroke-width:0.5;" width="76.0478" x="696.6441" y="633.3461"/><text fill="#000000" font-family="sans-serif" font-size="14" lengthAdjust="spacing" textLength="62.0478" x="703.6441" y="655.312">Database</text><polygon fill="#181818" points="267.8281,113.7739,277.8281,117.7739,267.8281,121.7739,271.8281,117.7739" style="stroke:#181818;stroke-width:1;"/><line style="stroke:#181818;stroke-width:1;" x1="48.3089" x2="273.8281" y1="117.7739" y2="117.7739"/><text fill="#000000" font-family="sans-serif" font-size="13" lengthAdjust="spacing" textLength="45.2141" x="55.3089" y="111.9649">DELETE</text><text fill="#000000" font-family="sans-serif" font-size="13" lengthAdjust="spacing" textLength="3.38" x="100.523" y="111.9649">&#160;</text><text fill="#000000" font-family="sans-serif" font-size="13" lengthAdjust="spacing" textLength="158.9251" x="103.903" y="111.9649">/api/v1/appointments/{id}</text><polygon fill="#181818" points="486.2563,145.4799,496.2563,149.4799,486.2563,153.4799,490.2563,149.4799" style="stroke:#181818;stroke-width:1;"/><line style="stroke:#181818;stroke-width:1;" x1="279.8281" x2="492.2563" y1="149.4799" y2="149.4799"/><text fill="#000000" font-family="sans-serif" font-size="13" lengthAdjust="spacing" textLength="63.401" x="286.8281" y="143.6709">&#220;berpr&#252;fe</text><text fill="#000000" font-family="sans-serif" font-size="13" lengthAdjust="spacing" textLength="3.38" x="350.2292" y="143.6709">&#160;</text><text fill="#000000" font-family="sans-serif" font-size="13" lengthAdjust="spacing" textLength="98.2281" x="353.6092" y="143.6709">Berechtigungen</text><path d="M10,164.4799 L72.303,164.4799 L72.303,174.186 L62.303,184.186 L10,184.186 L10,164.4799 " fill="#EEEEEE" style="stroke:#000000;stroke-width:1.5;"/><rect fill="transparent" height="452.8661" style="stroke:#000000;stroke-width:1.5;" width="782.6919" x="10" y="164.4799"/><text fill="#000000" font-family="sans-serif" font-size="13" font-weight="bold" lengthAdjust="spacing" textLength="17.303" x="25" y="179.377">alt</text><text fill="#000000" font-family="sans-serif" font-size="11" font-weight="bold" lengthAdjust="spacing" textLength="115.4772" x="87.303" y="178.2389">[Keine Berechtigung]</text><polygon fill="#181818" points="59.3089,203.892,49.3089,207.892,59.3089,211.892,55.3089,207.892" style="stroke:#181818;stroke-width:1;"/><line style="stroke:#181818;stroke-width:1;stroke-dasharray:2.0,2.0;" x1="53.3089" x2="278.8281" y1="207.892" y2="207.892"/><text fill="#000000" font-family="sans-serif" font-size="13" lengthAdjust="spacing" textLength="49.179" x="65.3089" y="202.083">Antwort</text><text fill="#000000" font-family="sans-serif" font-size="13" lengthAdjust="spacing" textLength="3.38" x="114.488" y="202.083">&#160;</text><text fill="#000000" font-family="sans-serif" font-size="13" lengthAdjust="spacing" textLength="26.208" x="117.868" y="202.083">(403</text><text fill="#000000" font-family="sans-serif" font-size="13" lengthAdjust="spacing" textLength="3.38" x="144.076" y="202.083">&#160;</text><text fill="#000000" font-family="sans-serif" font-size="13" lengthAdjust="spacing" textLength="66.5861" x="147.456" y="202.083">Forbidden)</text><line style="stroke:#000000;stroke-width:1;stroke-dasharray:2.0,2.0;" x1="10" x2="792.6919" y1="216.892" y2="216.892"/><text fill="#000000" font-family="sans-serif" font-size="11" font-weight="bold" lengthAdjust="spacing" textLength="144.231" x="15" y="228.6509">[Berechtigung vorhanden]</text><polygon fill="#181818" points="486.2563,252.5799,496.2563,256.5799,486.2563,260.5799,490.2563,256.5799" style="stroke:#181818;stroke-width:1;"/><line style="stroke:#181818;stroke-width:1;" x1="279.8281" x2="492.2563" y1="256.5799" y2="256.5799"/><text fill="#000000" font-family="sans-serif" font-size="13" lengthAdjust="spacing" textLength="42.51" x="286.8281" y="250.7709">L&#246;sche</text><text fill="#000000" font-family="sans-serif" font-size="13" lengthAdjust="spacing" textLength="3.38" x="329.3382" y="250.7709">&#160;</text><text fill="#000000" font-family="sans-serif" font-size="13" lengthAdjust="spacing" textLength="43.472" x="332.7182" y="250.7709">Termin</text><path d="M20,271.5799 L82.303,271.5799 L82.303,281.2859 L72.303,291.2859 L20,291.2859 L20,271.5799 " fill="#EEEEEE" style="stroke:#000000;stroke-width:1.5;"/><rect fill="transparent" height="338.7662" style="stroke:#000000;stroke-width:1.5;" width="762.6919" x="20" y="271.5799"/><text fill="#000000" font-family="sans-serif" font-size="13" font-weight="bold" lengthAdjust="spacing" textLength="17.303" x="35" y="286.4769">alt</text><text fill="#000000" font-family="sans-serif" font-size="11" font-weight="bold" lengthAdjust="spacing" textLength="132.7801" x="97.303" y="285.3388">[Termin nicht gefunden]</text><polygon fill="#181818" points="290.8281,310.9919,280.8281,314.9919,290.8281,318.9919,286.8281,314.9919" style="stroke:#181818;stroke-width:1;"/><line style="stroke:#181818;stroke-width:1;stroke-dasharray:2.0,2.0;" x1="284.8281" x2="497.2563" y1="314.9919" y2="314.9919"/><text fill="#000000" font-family="sans-serif" font-size="13" lengthAdjust="spacing" textLength="93.0671" x="296.8281" y="309.1829">Fehlermeldung</text><text fill="#000000" font-family="sans-serif" font-size="13" lengthAdjust="spacing" textLength="3.38" x="389.8952" y="309.1829">&#160;</text><text fill="#000000" font-family="sans-serif" font-size="13" lengthAdjust="spacing" textLength="26.208" x="393.2752" y="309.1829">(404</text><text fill="#000000" font-family="sans-serif" font-size="13" lengthAdjust="spacing" textLength="3.38" x="419.4833" y="309.1829">&#160;</text><text fill="#000000" font-family="sans-serif" font-size="13" lengthAdjust="spacing" textLength="22.438" x="422.8633" y="309.1829">Not</text><text fill="#000000" font-family="sans-serif" font-size="13" lengthAdjust="spacing" textLength="3.38" x="445.3013" y="309.1829">&#160;</text><text fill="#000000" font-family="sans-serif" font-size="13" lengthAdjust="spacing" textLength="42.5751" x="448.6813" y="309.1829">Found)</text><polygon fill="#181818" points="59.3089,342.6979,49.3089,346.6979,59.3089,350.6979,55.3089,346.6979" style="stroke:#181818;stroke-width:1;"/><line style="stroke:#181818;stroke-width:1;stroke-dasharray:2.0,2.0;" x1="53.3089" x2="278.8281" y1="346.6979" y2="346.6979"/><text fill="#000000" font-family="sans-serif" font-size="13" lengthAdjust="spacing" textLength="49.179" x="65.3089" y="340.8889">Antwort</text><text fill="#000000" font-family="sans-serif" font-size="13" lengthAdjust="spacing" textLength="3.38" x="114.488" y="340.8889">&#160;</text><text fill="#000000" font-family="sans-serif" font-size="13" lengthAdjust="spacing" textLength="26.208" x="117.868" y="340.8889">(404</text><text fill="#000000" font-family="sans-serif" font-size="13" lengthAdjust="spacing" textLength="3.38" x="144.076" y="340.8889">&#160;</text><text fill="#000000" font-family="sans-serif" font-size="13" lengthAdjust="spacing" textLength="22.438" x="147.456" y="340.8889">Not</text><text fill="#000000" font-family="sans-serif" font-size="13" lengthAdjust="spacing" textLength="3.38" x="169.894" y="340.8889">&#160;</text><text fill="#000000" font-family="sans-serif" font-size="13" lengthAdjust="spacing" textLength="42.5751" x="173.274" y="340.8889">Found)</text><line style="stroke:#000000;stroke-width:1;stroke-dasharray:2.0,2.0;" x1="20" x2="782.6919" y1="355.6979" y2="355.6979"/><polygon fill="#181818" points="722.668,376.404,732.668,380.404,722.668,384.404,726.668,380.404" style="stroke:#181818;stroke-width:1;"/><line style="stroke:#181818;stroke-width:1;" x1="498.2563" x2="728.668" y1="380.404" y2="380.404"/><text fill="#000000" font-family="sans-serif" font-size="13" lengthAdjust="spacing" textLength="42.51" x="505.2563" y="374.595">L&#246;sche</text><text fill="#000000" font-family="sans-serif" font-size="13" lengthAdjust="spacing" textLength="3.38" x="547.7664" y="374.595">&#160;</text><text fill="#000000" font-family="sans-serif" font-size="13" lengthAdjust="spacing" textLength="43.472" x="551.1464" y="374.595">Termin</text><polygon fill="#181818" points="509.2563,408.11,499.2563,412.11,509.2563,416.11,505.2563,412.11" style="stroke:#181818;stroke-width:1;"/><line style="stroke:#181818;stroke-width:1;stroke-dasharray:2.0,2.0;" x1="503.2563" x2="733.668" y1="412.11" y2="412.11"/><text fill="#000000" font-family="sans-serif" font-size="13" lengthAdjust="spacing" textLength="74.1001" x="515.2563" y="406.301">Best&#228;tigung</text><polygon fill="#181818" points="290.8281,439.816,280.8281,443.816,290.8281,447.816,286.8281,443.816" style="stroke:#181818;stroke-width:1;"/><line style="stroke:#181818;stroke-width:1;stroke-dasharray:2.0,2.0;" x1="284.8281" x2="497.2563" y1="443.816" y2="443.816"/><text fill="#000000" font-family="sans-serif" font-size="13" lengthAdjust="spacing" textLength="36.283" x="296.8281" y="438.007">Erfolg</text><text fill="#000000" font-family="sans-serif" font-size="13" lengthAdjust="spacing" textLength="3.38" x="333.1112" y="438.007">&#160;</text><text fill="#000000" font-family="sans-serif" font-size="13" lengthAdjust="spacing" textLength="26.208" x="336.4912" y="438.007">(200</text><text fill="#000000" font-family="sans-serif" font-size="13" lengthAdjust="spacing" textLength="3.38" x="362.6992" y="438.007">&#160;</text><text fill="#000000" font-family="sans-serif" font-size="13" lengthAdjust="spacing" textLength="22.1" x="366.0792" y="438.007">OK)</text><polygon fill="#181818" points="612.491,471.522,622.491,475.522,612.491,479.522,616.491,475.522" style="stroke:#181818;stroke-width:1;"/><line style="stroke:#181818;stroke-width:1;" x1="279.8281" x2="618.491" y1="475.522" y2="475.522"/><text fill="#000000" font-family="sans-serif" font-size="13" lengthAdjust="spacing" textLength="78.5591" x="286.8281" y="469.713">Protokolliere</text><text fill="#000000" font-family="sans-serif" font-size="13" lengthAdjust="spacing" textLength="3.38" x="365.3872" y="469.713">&#160;</text><text fill="#000000" font-family="sans-serif" font-size="13" lengthAdjust="spacing" textLength="39.195" x="368.7672" y="469.713">Aktion</text><polygon fill="#181818" points="722.668,503.228,732.668,507.228,722.668,511.228,726.668,507.228" style="stroke:#181818;stroke-width:1;"/><line style="stroke:#181818;stroke-width:1;" x1="624.491" x2="728.668" y1="507.228" y2="507.228"/><text fill="#000000" font-family="sans-serif" font-size="13" lengthAdjust="spacing" textLength="60.125" x="631.491" y="501.419">Speichere</text><text fill="#000000" font-family="sans-serif" font-size="13" lengthAdjust="spacing" textLength="3.38" x="691.616" y="501.419">&#160;</text><text fill="#000000" font-family="sans-serif" font-size="13" lengthAdjust="spacing" textLength="22.672" x="694.996" y="501.419">Log</text><polygon fill="#181818" points="635.491,534.934,625.491,538.934,635.491,542.934,631.491,538.934" style="stroke:#181818;stroke-width:1;"/><line style="stroke:#181818;stroke-width:1;stroke-dasharray:2.0,2.0;" x1="629.491" x2="733.668" y1="538.934" y2="538.934"/><text fill="#000000" font-family="sans-serif" font-size="13" lengthAdjust="spacing" textLength="74.1001" x="641.491" y="533.125">Best&#228;tigung</text><polygon fill="#181818" points="290.8281,566.6401,280.8281,570.6401,290.8281,574.6401,286.8281,570.6401" style="stroke:#181818;stroke-width:1;"/><line style="stroke:#181818;stroke-width:1;stroke-dasharray:2.0,2.0;" x1="284.8281" x2="623.491" y1="570.6401" y2="570.6401"/><text fill="#000000" font-family="sans-serif" font-size="13" lengthAdjust="spacing" textLength="36.283" x="296.8281" y="564.831">Erfolg</text><polygon fill="#181818" points="59.3089,598.3461,49.3089,602.3461,59.3089,606.3461,55.3089,602.3461" style="stroke:#181818;stroke-width:1;"/><line style="stroke:#181818;stroke-width:1;stroke-dasharray:2.0,2.0;" x1="53.3089" x2="278.8281" y1="602.3461" y2="602.3461"/><text fill="#000000" font-family="sans-serif" font-size="13" lengthAdjust="spacing" textLength="49.179" x="65.3089" y="596.5371">Antwort</text><text fill="#000000" font-family="sans-serif" font-size="13" lengthAdjust="spacing" textLength="3.38" x="114.488" y="596.5371">&#160;</text><text fill="#000000" font-family="sans-serif" font-size="13" lengthAdjust="spacing" textLength="26.208" x="117.868" y="596.5371">(200</text><text fill="#000000" font-family="sans-serif" font-size="13" lengthAdjust="spacing" textLength="3.38" x="144.076" y="596.5371">&#160;</text><text fill="#000000" font-family="sans-serif" font-size="13" lengthAdjust="spacing" textLength="22.1" x="147.456" y="596.5371">OK)</text><!--SRC=[bLBDRe904BxlKyon7XffzSJ1H2jUj3y9zW5M660Zx9BTLPisVPCU-mmzzSQBTQWMmQB6JGY1cVd-PirIo9nhde6Vy51jX8mXugb1PgfAnb_kqHWUeozU4NgEmnWFhDBmR50pQh8Y43cN5ePvheIq6KfxfwJLAasFT_YeroB0HdccuhRVOsxvWfCgLbB2zQ2ToOMnD_Fc7dHvBhhh6tfLNQRx9i9trZft0BXJu4BniK2Tw-8xGXYXnY2n8bx962NZgOKf2jaiCA1pX88uIl4k3ANTA6tXgk_qOABqGeGXoWv3Yhs11ckb4owfU0gtNVgi-391WZ17dOdjV2bv-mbI40V46Aqgz0E67T2lx2DPJp2XTuPfM6ebDtruK9OS4MYd3VDS6l_coqHEYXjKDwFLSNd-6WwTL4cDqDZYixQ_ovFmTAHIYk3MSU1nUjRxe7RDNNZIogebbGIj7ePBAzHU_RwnQTRFaLPO3b17kzSwHwl7ElOvRvUlivu5of3HymC0]--></g></svg>