<svg xmlns="http://www.w3.org/2000/svg" xmlns:xlink="http://www.w3.org/1999/xlink" contentStyleType="text/css" data-diagram-type="SEQUENCE" height="441px" preserveAspectRatio="none" style="width:563px;height:441px;background:#FFFFFF;" version="1.1" viewBox="0 0 563 441" width="563px" zoomAndPan="magnify"><defs/><g><rect fill="transparent" height="144.806" style="stroke:#000000;stroke-width:1.5;" width="445.0334" x="10" y="196.186"/><g><title>User</title><rect fill="transparent" height="273.924" width="8" x="34.3089" y="84.0679"/><line style="stroke:#181818;stroke-width:0.5;stroke-dasharray:5.0,5.0;" x1="38" x2="38" y1="84.0679" y2="357.9919"/></g><g><title>UserController</title><rect fill="transparent" height="273.924" width="8" x="307.4282" y="84.0679"/><line style="stroke:#181818;stroke-width:0.5;stroke-dasharray:5.0,5.0;" x1="311.0304" x2="311.0304" y1="84.0679" y2="357.9919"/></g><g><title>Database</title><rect fill="transparent" height="273.924" width="8" x="515.6124" y="84.0679"/><line style="stroke:#181818;stroke-width:0.5;stroke-dasharray:5.0,5.0;" x1="519.5885" x2="519.5885" y1="84.0679" y2="357.9919"/></g><text fill="#000000" font-family="sans-serif" font-size="14" lengthAdjust="spacing" textLength="30.6179" x="20" y="79.9659">User</text><ellipse cx="38.3089" cy="13.5" fill="#E2E2F0" rx="8" ry="8" style="stroke:#181818;stroke-width:0.5;"/><path d="M38.3089,21.5 L38.3089,48.5 M25.3089,29.5 L51.3089,29.5 M38.3089,48.5 L25.3089,63.5 M38.3089,48.5 L51.3089,63.5 " fill="transparent" style="stroke:#181818;stroke-width:0.5;"/><text fill="#000000" font-family="sans-serif" font-size="14" lengthAdjust="spacing" textLength="30.6179" x="20" y="371.9579">User</text><ellipse cx="38.3089" cy="384.5598" fill="#E2E2F0" rx="8" ry="8" style="stroke:#181818;stroke-width:0.5;"/><path d="M38.3089,392.5598 L38.3089,419.5598 M25.3089,400.5598 L51.3089,400.5598 M38.3089,419.5598 L25.3089,434.5598 M38.3089,419.5598 L51.3089,434.5598 " fill="transparent" style="stroke:#181818;stroke-width:0.5;"/><rect fill="#E2E2F0" height="33.0679" rx="2.5" ry="2.5" style="stroke:#181818;stroke-width:0.5;" width="110.7956" x="256.0304" y="50"/><text fill="#000000" font-family="sans-serif" font-size="14" lengthAdjust="spacing" textLength="96.7956" x="263.0304" y="71.9659">UserController</text><rect fill="#E2E2F0" height="33.0679" rx="2.5" ry="2.5" style="stroke:#181818;stroke-width:0.5;" width="110.7956" x="256.0304" y="356.9919"/><text fill="#000000" font-family="sans-serif" font-size="14" lengthAdjust="spacing" textLength="96.7956" x="263.0304" y="378.9579">UserController</text><rect fill="#E2E2F0" height="33.0679" rx="2.5" ry="2.5" style="stroke:#181818;stroke-width:0.5;" width="76.0478" x="481.5885" y="50"/><text fill="#000000" font-family="sans-serif" font-size="14" lengthAdjust="spacing" textLength="62.0478" x="488.5885" y="71.9659">Database</text><rect fill="#E2E2F0" height="33.0679" rx="2.5" ry="2.5" style="stroke:#181818;stroke-width:0.5;" width="76.0478" x="481.5885" y="356.9919"/><text fill="#000000" font-family="sans-serif" font-size="14" lengthAdjust="spacing" textLength="62.0478" x="488.5885" y="378.9579">Database</text><polygon fill="#181818" points="299.4282,113.7739,309.4282,117.7739,299.4282,121.7739,303.4282,117.7739" style="stroke:#181818;stroke-width:1;"/><line style="stroke:#181818;stroke-width:1;" x1="38.3089" x2="305.4282" y1="117.7739" y2="117.7739"/><text fill="#000000" font-family="sans-serif" font-size="13" lengthAdjust="spacing" textLength="23.92" x="45.3089" y="111.9649">GET</text><text fill="#000000" font-family="sans-serif" font-size="13" lengthAdjust="spacing" textLength="3.38" x="69.229" y="111.9649">&#160;</text><text fill="#000000" font-family="sans-serif" font-size="13" lengthAdjust="spacing" textLength="95.7451" x="72.609" y="111.9649">/api/v1/settings</text><polygon fill="#181818" points="507.6124,145.4799,517.6124,149.4799,507.6124,153.4799,511.6124,149.4799" style="stroke:#181818;stroke-width:1;"/><line style="stroke:#181818;stroke-width:1;" x1="311.4282" x2="513.6124" y1="149.4799" y2="149.4799"/><text fill="#000000" font-family="sans-serif" font-size="13" lengthAdjust="spacing" textLength="27.703" x="318.4282" y="143.6709">Lese</text><text fill="#000000" font-family="sans-serif" font-size="13" lengthAdjust="spacing" textLength="3.38" x="346.1312" y="143.6709">&#160;</text><text fill="#000000" font-family="sans-serif" font-size="13" lengthAdjust="spacing" textLength="55.354" x="349.5112" y="143.6709">Benutzer</text><text fill="#000000" font-family="sans-serif" font-size="13" lengthAdjust="spacing" textLength="3.38" x="404.8653" y="143.6709">&#160;</text><text fill="#000000" font-family="sans-serif" font-size="13" lengthAdjust="spacing" textLength="21.554" x="408.2453" y="143.6709">aus</text><text fill="#000000" font-family="sans-serif" font-size="13" lengthAdjust="spacing" textLength="3.38" x="429.7993" y="143.6709">&#160;</text><text fill="#000000" font-family="sans-serif" font-size="13" lengthAdjust="spacing" textLength="20.696" x="433.1793" y="143.6709">der</text><text fill="#000000" font-family="sans-serif" font-size="13" lengthAdjust="spacing" textLength="3.38" x="453.8753" y="143.6709">&#160;</text><text fill="#000000" font-family="sans-serif" font-size="13" lengthAdjust="spacing" textLength="45.3571" x="457.2553" y="143.6709">Sitzung</text><polygon fill="#181818" points="322.4282,177.186,312.4282,181.186,322.4282,185.186,318.4282,181.186" style="stroke:#181818;stroke-width:1;"/><line style="stroke:#181818;stroke-width:1;stroke-dasharray:2.0,2.0;" x1="316.4282" x2="518.6124" y1="181.186" y2="181.186"/><text fill="#000000" font-family="sans-serif" font-size="13" lengthAdjust="spacing" textLength="25.506" x="328.4282" y="175.377">Gibt</text><text fill="#000000" font-family="sans-serif" font-size="13" lengthAdjust="spacing" textLength="3.38" x="353.9342" y="175.377">&#160;</text><text fill="#000000" font-family="sans-serif" font-size="13" lengthAdjust="spacing" textLength="93.5351" x="357.3143" y="175.377">Benutzerobjekt</text><text fill="#000000" font-family="sans-serif" font-size="13" lengthAdjust="spacing" textLength="3.38" x="450.8493" y="175.377">&#160;</text><text fill="#000000" font-family="sans-serif" font-size="13" lengthAdjust="spacing" textLength="40.729" x="454.2293" y="175.377">zur&#252;ck</text><path d="M10,196.186 L72.303,196.186 L72.303,205.892 L62.303,215.892 L10,215.892 L10,196.186 " fill="#EEEEEE" style="stroke:#000000;stroke-width:1.5;"/><rect fill="transparent" height="144.806" style="stroke:#000000;stroke-width:1.5;" width="445.0334" x="10" y="196.186"/><text fill="#000000" font-family="sans-serif" font-size="13" font-weight="bold" lengthAdjust="spacing" textLength="17.303" x="25" y="211.083">alt</text><text fill="#000000" font-family="sans-serif" font-size="11" font-weight="bold" lengthAdjust="spacing" textLength="162.5678" x="87.303" y="209.9449">[Kein Benutzer in der Sitzung]</text><polygon fill="#181818" points="49.3089,235.598,39.3089,239.598,49.3089,243.598,45.3089,239.598" style="stroke:#181818;stroke-width:1;"/><line style="stroke:#181818;stroke-width:1;stroke-dasharray:2.0,2.0;" x1="43.3089" x2="310.4282" y1="239.598" y2="239.598"/><text fill="#000000" font-family="sans-serif" font-size="13" lengthAdjust="spacing" textLength="49.179" x="55.3089" y="233.789">Antwort</text><text fill="#000000" font-family="sans-serif" font-size="13" lengthAdjust="spacing" textLength="3.38" x="104.488" y="233.789">&#160;</text><text fill="#000000" font-family="sans-serif" font-size="13" lengthAdjust="spacing" textLength="26.208" x="107.868" y="233.789">(401</text><text fill="#000000" font-family="sans-serif" font-size="13" lengthAdjust="spacing" textLength="3.38" x="134.076" y="233.789">&#160;</text><text fill="#000000" font-family="sans-serif" font-size="13" lengthAdjust="spacing" textLength="87.5161" x="137.456" y="233.789">Unauthorized)</text><line style="stroke:#000000;stroke-width:1;stroke-dasharray:2.0,2.0;" x1="10" x2="455.0334" y1="248.598" y2="248.598"/><text fill="#000000" font-family="sans-serif" font-size="11" font-weight="bold" lengthAdjust="spacing" textLength="112.7492" x="15" y="260.3569">[Benutzer gefunden]</text><line style="stroke:#181818;stroke-width:1;" x1="311.4282" x2="353.4282" y1="288.2859" y2="288.2859"/><line style="stroke:#181818;stroke-width:1;" x1="353.4282" x2="353.4282" y1="288.2859" y2="301.2859"/><line style="stroke:#181818;stroke-width:1;" x1="312.4282" x2="353.4282" y1="301.2859" y2="301.2859"/><polygon fill="#181818" points="322.4282,297.2859,312.4282,301.2859,322.4282,305.2859,318.4282,301.2859" style="stroke:#181818;stroke-width:1;"/><text fill="#000000" font-family="sans-serif" font-size="13" lengthAdjust="spacing" textLength="44.889" x="318.4282" y="282.4769">Erstelle</text><text fill="#000000" font-family="sans-serif" font-size="13" lengthAdjust="spacing" textLength="3.38" x="363.3173" y="282.4769">&#160;</text><text fill="#000000" font-family="sans-serif" font-size="13" lengthAdjust="spacing" textLength="76.3361" x="366.6973" y="282.4769">SettingsDTO</text><polygon fill="#181818" points="49.3089,328.9919,39.3089,332.9919,49.3089,336.9919,45.3089,332.9919" style="stroke:#181818;stroke-width:1;"/><line style="stroke:#181818;stroke-width:1;stroke-dasharray:2.0,2.0;" x1="43.3089" x2="310.4282" y1="332.9919" y2="332.9919"/><text fill="#000000" font-family="sans-serif" font-size="13" lengthAdjust="spacing" textLength="49.179" x="55.3089" y="327.1829">Antwort</text><text fill="#000000" font-family="sans-serif" font-size="13" lengthAdjust="spacing" textLength="3.38" x="104.488" y="327.1829">&#160;</text><text fill="#000000" font-family="sans-serif" font-size="13" lengthAdjust="spacing" textLength="26.208" x="107.868" y="327.1829">(200</text><text fill="#000000" font-family="sans-serif" font-size="13" lengthAdjust="spacing" textLength="3.38" x="134.076" y="327.1829">&#160;</text><text fill="#000000" font-family="sans-serif" font-size="13" lengthAdjust="spacing" textLength="22.1" x="137.456" y="327.1829">OK)</text><text fill="#000000" font-family="sans-serif" font-size="13" lengthAdjust="spacing" textLength="3.38" x="159.5561" y="327.1829">&#160;</text><text fill="#000000" font-family="sans-serif" font-size="13" lengthAdjust="spacing" textLength="20.202" x="162.9361" y="327.1829">mit</text><text fill="#000000" font-family="sans-serif" font-size="13" lengthAdjust="spacing" textLength="3.38" x="183.1381" y="327.1829">&#160;</text><text fill="#000000" font-family="sans-serif" font-size="13" lengthAdjust="spacing" textLength="117.9101" x="186.5181" y="327.1829">JSON-Einstellungen</text><!--SRC=[ZP31JiCm38RlUGeVsQ5g1vnwG09M8J6WXsuFuBPU5zewLU8or6VZnekHJTlOoWxa4Yl-_Vr_x6hD7Lfi8LjZQJQQArXXuqYvOwV5prTo3YlAz41m4qLAOI76mjAHLLuakj0TikmU7WsBDKqpQirGC4SFLbiH17SZSGnFoG92x7JuCGqTYVWiJfsBjcC7K0mlv0WUY7iPV0jx1wM_Cor3pvKww22uvALpEOwQ_9rgWQ6ttrz5hR0Hc9FcNxIlJydWppZNtYE6UvQDiG9Njz4Kbeozh8trUoidYfhJl1MjUYw9B-B-9awi4_8bPFlLp1RfFvDSHn6aymcqMk0vIz-2HFCEvZ_Z_OdB7m00]--></g></svg>