<svg xmlns="http://www.w3.org/2000/svg" xmlns:xlink="http://www.w3.org/1999/xlink" contentStyleType="text/css" data-diagram-type="SEQUENCE" height="491px" preserveAspectRatio="none" style="width:773px;height:491px;background:#FFFFFF;" version="1.1" viewBox="0 0 773 491" width="773px" zoomAndPan="magnify"><defs/><g><rect fill="transparent" height="226.924" style="stroke:#000000;stroke-width:1.5;" width="756.7204" x="10" y="164.4799"/><g><title>User</title><rect fill="transparent" height="324.336" width="8" x="34.3089" y="84.0679"/><line style="stroke:#181818;stroke-width:0.5;stroke-dasharray:5.0,5.0;" x1="38" x2="38" y1="84.0679" y2="408.404"/></g><g><title>UserController</title><rect fill="transparent" height="324.336" width="8" x="269.9751" y="84.0679"/><line style="stroke:#181818;stroke-width:0.5;stroke-dasharray:5.0,5.0;" x1="273.5773" x2="273.5773" y1="84.0679" y2="408.404"/></g><g><title>UserService</title><rect fill="transparent" height="324.336" width="8" x="549.5294" y="84.0679"/><line style="stroke:#181818;stroke-width:0.5;stroke-dasharray:5.0,5.0;" x1="552.8685" x2="552.8685" y1="84.0679" y2="408.404"/></g><g><title>Database</title><rect fill="transparent" height="324.336" width="8" x="714.6965" y="84.0679"/><line style="stroke:#181818;stroke-width:0.5;stroke-dasharray:5.0,5.0;" x1="718.6726" x2="718.6726" y1="84.0679" y2="408.404"/></g><text fill="#000000" font-family="sans-serif" font-size="14" lengthAdjust="spacing" textLength="30.6179" x="20" y="79.9659">User</text><ellipse cx="38.3089" cy="13.5" fill="#E2E2F0" rx="8" ry="8" style="stroke:#181818;stroke-width:0.5;"/><path d="M38.3089,21.5 L38.3089,48.5 M25.3089,29.5 L51.3089,29.5 M38.3089,48.5 L25.3089,63.5 M38.3089,48.5 L51.3089,63.5 " fill="transparent" style="stroke:#181818;stroke-width:0.5;"/><text fill="#000000" font-family="sans-serif" font-size="14" lengthAdjust="spacing" textLength="30.6179" x="20" y="422.3699">User</text><ellipse cx="38.3089" cy="434.9719" fill="#E2E2F0" rx="8" ry="8" style="stroke:#181818;stroke-width:0.5;"/><path d="M38.3089,442.9719 L38.3089,469.9719 M25.3089,450.9719 L51.3089,450.9719 M38.3089,469.9719 L25.3089,484.9719 M38.3089,469.9719 L51.3089,484.9719 " fill="transparent" style="stroke:#181818;stroke-width:0.5;"/><rect fill="#E2E2F0" height="33.0679" rx="2.5" ry="2.5" style="stroke:#181818;stroke-width:0.5;" width="110.7956" x="218.5773" y="50"/><text fill="#000000" font-family="sans-serif" font-size="14" lengthAdjust="spacing" textLength="96.7956" x="225.5773" y="71.9659">UserController</text><rect fill="#E2E2F0" height="33.0679" rx="2.5" ry="2.5" style="stroke:#181818;stroke-width:0.5;" width="110.7956" x="218.5773" y="407.404"/><text fill="#000000" font-family="sans-serif" font-size="14" lengthAdjust="spacing" textLength="96.7956" x="225.5773" y="429.3699">UserController</text><rect fill="#E2E2F0" height="33.0679" rx="2.5" ry="2.5" style="stroke:#181818;stroke-width:0.5;" width="91.3217" x="507.8685" y="50"/><text fill="#000000" font-family="sans-serif" font-size="14" lengthAdjust="spacing" textLength="77.3217" x="514.8685" y="71.9659">UserService</text><rect fill="#E2E2F0" height="33.0679" rx="2.5" ry="2.5" style="stroke:#181818;stroke-width:0.5;" width="91.3217" x="507.8685" y="407.404"/><text fill="#000000" font-family="sans-serif" font-size="14" lengthAdjust="spacing" textLength="77.3217" x="514.8685" y="429.3699">UserService</text><rect fill="#E2E2F0" height="33.0679" rx="2.5" ry="2.5" style="stroke:#181818;stroke-width:0.5;" width="76.0478" x="680.6726" y="50"/><text fill="#000000" font-family="sans-serif" font-size="14" lengthAdjust="spacing" textLength="62.0478" x="687.6726" y="71.9659">Database</text><rect fill="#E2E2F0" height="33.0679" rx="2.5" ry="2.5" style="stroke:#181818;stroke-width:0.5;" width="76.0478" x="680.6726" y="407.404"/><text fill="#000000" font-family="sans-serif" font-size="14" lengthAdjust="spacing" textLength="62.0478" x="687.6726" y="429.3699">Database</text><polygon fill="#181818" points="261.9751,113.7739,271.9751,117.7739,261.9751,121.7739,265.9751,117.7739" style="stroke:#181818;stroke-width:1;"/><line style="stroke:#181818;stroke-width:1;" x1="38.3089" x2="267.9751" y1="117.7739" y2="117.7739"/><text fill="#000000" font-family="sans-serif" font-size="13" lengthAdjust="spacing" textLength="23.92" x="45.3089" y="111.9649">GET</text><text fill="#000000" font-family="sans-serif" font-size="13" lengthAdjust="spacing" textLength="3.38" x="69.229" y="111.9649">&#160;</text><text fill="#000000" font-family="sans-serif" font-size="13" lengthAdjust="spacing" textLength="113.4121" x="72.609" y="111.9649">/api/v1/employees</text><polygon fill="#181818" points="541.5294,145.4799,551.5294,149.4799,541.5294,153.4799,545.5294,149.4799" style="stroke:#181818;stroke-width:1;"/><line style="stroke:#181818;stroke-width:1;" x1="273.9751" x2="547.5294" y1="149.4799" y2="149.4799"/><text fill="#000000" font-family="sans-serif" font-size="13" lengthAdjust="spacing" textLength="29.432" x="280.9751" y="143.6709">Lade</text><text fill="#000000" font-family="sans-serif" font-size="13" lengthAdjust="spacing" textLength="3.38" x="310.4072" y="143.6709">&#160;</text><text fill="#000000" font-family="sans-serif" font-size="13" lengthAdjust="spacing" textLength="21.333" x="313.7872" y="143.6709">alle</text><text fill="#000000" font-family="sans-serif" font-size="13" lengthAdjust="spacing" textLength="3.38" x="335.1202" y="143.6709">&#160;</text><text fill="#000000" font-family="sans-serif" font-size="13" lengthAdjust="spacing" textLength="68.5751" x="338.5002" y="143.6709">Mitarbeiter</text><path d="M10,164.4799 L72.303,164.4799 L72.303,174.186 L62.303,184.186 L10,184.186 L10,164.4799 " fill="#EEEEEE" style="stroke:#000000;stroke-width:1.5;"/><rect fill="transparent" height="226.924" style="stroke:#000000;stroke-width:1.5;" width="756.7204" x="10" y="164.4799"/><text fill="#000000" font-family="sans-serif" font-size="13" font-weight="bold" lengthAdjust="spacing" textLength="17.303" x="25" y="179.377">alt</text><text fill="#000000" font-family="sans-serif" font-size="11" font-weight="bold" lengthAdjust="spacing" textLength="129.4691" x="87.303" y="178.2389">[Fehler bei der Abfrage]</text><polygon fill="#181818" points="284.9751,203.892,274.9751,207.892,284.9751,211.892,280.9751,207.892" style="stroke:#181818;stroke-width:1;"/><line style="stroke:#181818;stroke-width:1;stroke-dasharray:2.0,2.0;" x1="278.9751" x2="552.5294" y1="207.892" y2="207.892"/><text fill="#000000" font-family="sans-serif" font-size="13" lengthAdjust="spacing" textLength="93.0671" x="290.9751" y="202.083">Fehlermeldung</text><text fill="#000000" font-family="sans-serif" font-size="13" lengthAdjust="spacing" textLength="3.38" x="384.0422" y="202.083">&#160;</text><text fill="#000000" font-family="sans-serif" font-size="13" lengthAdjust="spacing" textLength="26.208" x="387.4222" y="202.083">(500</text><text fill="#000000" font-family="sans-serif" font-size="13" lengthAdjust="spacing" textLength="3.38" x="413.6302" y="202.083">&#160;</text><text fill="#000000" font-family="sans-serif" font-size="13" lengthAdjust="spacing" textLength="48.516" x="417.0103" y="202.083">Internal</text><text fill="#000000" font-family="sans-serif" font-size="13" lengthAdjust="spacing" textLength="3.38" x="465.5263" y="202.083">&#160;</text><text fill="#000000" font-family="sans-serif" font-size="13" lengthAdjust="spacing" textLength="39.143" x="468.9063" y="202.083">Server</text><text fill="#000000" font-family="sans-serif" font-size="13" lengthAdjust="spacing" textLength="3.38" x="508.0493" y="202.083">&#160;</text><text fill="#000000" font-family="sans-serif" font-size="13" lengthAdjust="spacing" textLength="35.1" x="511.4293" y="202.083">Error)</text><polygon fill="#181818" points="49.3089,235.598,39.3089,239.598,49.3089,243.598,45.3089,239.598" style="stroke:#181818;stroke-width:1;"/><line style="stroke:#181818;stroke-width:1;stroke-dasharray:2.0,2.0;" x1="43.3089" x2="272.9751" y1="239.598" y2="239.598"/><text fill="#000000" font-family="sans-serif" font-size="13" lengthAdjust="spacing" textLength="49.179" x="55.3089" y="233.789">Antwort</text><text fill="#000000" font-family="sans-serif" font-size="13" lengthAdjust="spacing" textLength="3.38" x="104.488" y="233.789">&#160;</text><text fill="#000000" font-family="sans-serif" font-size="13" lengthAdjust="spacing" textLength="26.208" x="107.868" y="233.789">(500</text><text fill="#000000" font-family="sans-serif" font-size="13" lengthAdjust="spacing" textLength="3.38" x="134.076" y="233.789">&#160;</text><text fill="#000000" font-family="sans-serif" font-size="13" lengthAdjust="spacing" textLength="48.516" x="137.456" y="233.789">Internal</text><text fill="#000000" font-family="sans-serif" font-size="13" lengthAdjust="spacing" textLength="3.38" x="185.9721" y="233.789">&#160;</text><text fill="#000000" font-family="sans-serif" font-size="13" lengthAdjust="spacing" textLength="39.143" x="189.3521" y="233.789">Server</text><text fill="#000000" font-family="sans-serif" font-size="13" lengthAdjust="spacing" textLength="3.38" x="228.4951" y="233.789">&#160;</text><text fill="#000000" font-family="sans-serif" font-size="13" lengthAdjust="spacing" textLength="35.1" x="231.8751" y="233.789">Error)</text><line style="stroke:#000000;stroke-width:1;stroke-dasharray:2.0,2.0;" x1="10" x2="766.7204" y1="248.598" y2="248.598"/><text fill="#000000" font-family="sans-serif" font-size="11" font-weight="bold" lengthAdjust="spacing" textLength="120.5921" x="15" y="260.3569">[Erfolgreiche Abfrage]</text><polygon fill="#181818" points="706.6965,284.2859,716.6965,288.2859,706.6965,292.2859,710.6965,288.2859" style="stroke:#181818;stroke-width:1;"/><line style="stroke:#181818;stroke-width:1;" x1="553.5294" x2="712.6965" y1="288.2859" y2="288.2859"/><text fill="#000000" font-family="sans-serif" font-size="13" lengthAdjust="spacing" textLength="28.184" x="560.5294" y="282.4769">Hole</text><text fill="#000000" font-family="sans-serif" font-size="13" lengthAdjust="spacing" textLength="3.38" x="588.7134" y="282.4769">&#160;</text><text fill="#000000" font-family="sans-serif" font-size="13" lengthAdjust="spacing" textLength="109.6031" x="592.0934" y="282.4769">Mitarbeiter-Daten</text><polygon fill="#181818" points="564.5294,315.9919,554.5294,319.9919,564.5294,323.9919,560.5294,319.9919" style="stroke:#181818;stroke-width:1;"/><line style="stroke:#181818;stroke-width:1;stroke-dasharray:2.0,2.0;" x1="558.5294" x2="717.6965" y1="319.9919" y2="319.9919"/><text fill="#000000" font-family="sans-serif" font-size="13" lengthAdjust="spacing" textLength="93.5351" x="570.5294" y="314.1829">Mitarbeiterliste</text><polygon fill="#181818" points="284.9751,347.6979,274.9751,351.6979,284.9751,355.6979,280.9751,351.6979" style="stroke:#181818;stroke-width:1;"/><line style="stroke:#181818;stroke-width:1;stroke-dasharray:2.0,2.0;" x1="278.9751" x2="552.5294" y1="351.6979" y2="351.6979"/><text fill="#000000" font-family="sans-serif" font-size="13" lengthAdjust="spacing" textLength="101.1791" x="290.9751" y="345.8889">Mitarbeiter-Liste</text><polygon fill="#181818" points="49.3089,379.404,39.3089,383.404,49.3089,387.404,45.3089,383.404" style="stroke:#181818;stroke-width:1;"/><line style="stroke:#181818;stroke-width:1;stroke-dasharray:2.0,2.0;" x1="43.3089" x2="272.9751" y1="383.404" y2="383.404"/><text fill="#000000" font-family="sans-serif" font-size="13" lengthAdjust="spacing" textLength="49.179" x="55.3089" y="377.595">Antwort</text><text fill="#000000" font-family="sans-serif" font-size="13" lengthAdjust="spacing" textLength="3.38" x="104.488" y="377.595">&#160;</text><text fill="#000000" font-family="sans-serif" font-size="13" lengthAdjust="spacing" textLength="26.208" x="107.868" y="377.595">(200</text><text fill="#000000" font-family="sans-serif" font-size="13" lengthAdjust="spacing" textLength="3.38" x="134.076" y="377.595">&#160;</text><text fill="#000000" font-family="sans-serif" font-size="13" lengthAdjust="spacing" textLength="22.1" x="137.456" y="377.595">OK)</text><!--SRC=[ZL71JiCm3BtdAto4GzKonAM7IHECWTZ4eV01Rkks4MbIEM43lXvtR5MBnaGkYUptdjzp_9ks7JAsa3LOkfssDLHeF2a_T5hys93tM5EclmYkaqGfB89ZUFN4Ia115xf36_Q5MsS3EsDEj3BYhIveKh_3W3dAGDKZ89h_4abXjNo163iTRwzYQZlZFecycgAElCE45DPO4g2qOAC3SauwY24q0UwfwGbIWLBkHLwnH5CWPwG0qGadFzIMJFakUxguIH9ujA9hqK3F4xabi-FBGMtiy22OmiA6dUDmLe3a3-HTELCpwQAXlutEXnscyE2cYIDfaTrpZg31oB2h4Tve7_wtY_6GzOHrFlDCCZy_IK1RVWC0]--></g></svg>