<svg xmlns="http://www.w3.org/2000/svg" xmlns:xlink="http://www.w3.org/1999/xlink" contentStyleType="text/css" data-diagram-type="SEQUENCE" height="377px" preserveAspectRatio="none" style="width:632px;height:377px;background:#FFFFFF;" version="1.1" viewBox="0 0 632 377" width="632px" zoomAndPan="magnify"><defs/><g><g><title>User</title><rect fill="transparent" height="210.2361" width="8" x="19.3089" y="84.0679"/><line style="stroke:#181818;stroke-width:0.5;stroke-dasharray:5.0,5.0;" x1="23" x2="23" y1="84.0679" y2="294.304"/></g><g><title>TransactionController</title><rect fill="transparent" height="210.2361" width="8" x="197.9571" y="84.0679"/><line style="stroke:#181818;stroke-width:0.5;stroke-dasharray:5.0,5.0;" x1="201.2983" x2="201.2983" y1="84.0679" y2="294.304"/></g><g><title>TransactionService</title><rect fill="transparent" height="210.2361" width="8" x="366.3872" y="84.0679"/><line style="stroke:#181818;stroke-width:0.5;stroke-dasharray:5.0,5.0;" x1="369.4654" x2="369.4654" y1="84.0679" y2="294.304"/></g><g><title>Database</title><rect fill="transparent" height="210.2361" width="8" x="584.0874" y="84.0679"/><line style="stroke:#181818;stroke-width:0.5;stroke-dasharray:5.0,5.0;" x1="588.0635" x2="588.0635" y1="84.0679" y2="294.304"/></g><text fill="#000000" font-family="sans-serif" font-size="14" lengthAdjust="spacing" textLength="30.6179" x="5" y="79.9659">User</text><ellipse cx="23.3089" cy="13.5" fill="#E2E2F0" rx="8" ry="8" style="stroke:#181818;stroke-width:0.5;"/><path d="M23.3089,21.5 L23.3089,48.5 M10.3089,29.5 L36.3089,29.5 M23.3089,48.5 L10.3089,63.5 M23.3089,48.5 L36.3089,63.5 " fill="transparent" style="stroke:#181818;stroke-width:0.5;"/><text fill="#000000" font-family="sans-serif" font-size="14" lengthAdjust="spacing" textLength="30.6179" x="5" y="308.27">User</text><ellipse cx="23.3089" cy="320.8719" fill="#E2E2F0" rx="8" ry="8" style="stroke:#181818;stroke-width:0.5;"/><path d="M23.3089,328.8719 L23.3089,355.8719 M10.3089,336.8719 L36.3089,336.8719 M23.3089,355.8719 L10.3089,370.8719 M23.3089,355.8719 L36.3089,370.8719 " fill="transparent" style="stroke:#181818;stroke-width:0.5;"/><rect fill="#E2E2F0" height="33.0679" rx="2.5" ry="2.5" style="stroke:#181818;stroke-width:0.5;" width="157.3175" x="123.2983" y="50"/><text fill="#000000" font-family="sans-serif" font-size="14" lengthAdjust="spacing" textLength="143.3175" x="130.2983" y="71.9659">TransactionController</text><rect fill="#E2E2F0" height="33.0679" rx="2.5" ry="2.5" style="stroke:#181818;stroke-width:0.5;" width="157.3175" x="123.2983" y="293.304"/><text fill="#000000" font-family="sans-serif" font-size="14" lengthAdjust="spacing" textLength="143.3175" x="130.2983" y="315.27">TransactionController</text><rect fill="#E2E2F0" height="33.0679" rx="2.5" ry="2.5" style="stroke:#181818;stroke-width:0.5;" width="137.8435" x="301.4654" y="50"/><text fill="#000000" font-family="sans-serif" font-size="14" lengthAdjust="spacing" textLength="123.8435" x="308.4654" y="71.9659">TransactionService</text><rect fill="#E2E2F0" height="33.0679" rx="2.5" ry="2.5" style="stroke:#181818;stroke-width:0.5;" width="137.8435" x="301.4654" y="293.304"/><text fill="#000000" font-family="sans-serif" font-size="14" lengthAdjust="spacing" textLength="123.8435" x="308.4654" y="315.27">TransactionService</text><rect fill="#E2E2F0" height="33.0679" rx="2.5" ry="2.5" style="stroke:#181818;stroke-width:0.5;" width="76.0478" x="550.0635" y="50"/><text fill="#000000" font-family="sans-serif" font-size="14" lengthAdjust="spacing" textLength="62.0478" x="557.0635" y="71.9659">Database</text><rect fill="#E2E2F0" height="33.0679" rx="2.5" ry="2.5" style="stroke:#181818;stroke-width:0.5;" width="76.0478" x="550.0635" y="293.304"/><text fill="#000000" font-family="sans-serif" font-size="14" lengthAdjust="spacing" textLength="62.0478" x="557.0635" y="315.27">Database</text><polygon fill="#181818" points="189.9571,113.7739,199.9571,117.7739,189.9571,121.7739,193.9571,117.7739" style="stroke:#181818;stroke-width:1;"/><line style="stroke:#181818;stroke-width:1;" x1="23.3089" x2="195.9571" y1="117.7739" y2="117.7739"/><text fill="#000000" font-family="sans-serif" font-size="13" lengthAdjust="spacing" textLength="23.92" x="30.3089" y="111.9649">GET</text><text fill="#000000" font-family="sans-serif" font-size="13" lengthAdjust="spacing" textLength="3.38" x="54.229" y="111.9649">&#160;</text><text fill="#000000" font-family="sans-serif" font-size="13" lengthAdjust="spacing" textLength="127.3481" x="57.609" y="111.9649">/api/v1/transactions/</text><polygon fill="#181818" points="358.3872,145.4799,368.3872,149.4799,358.3872,153.4799,362.3872,149.4799" style="stroke:#181818;stroke-width:1;"/><line style="stroke:#181818;stroke-width:1;" x1="201.9571" x2="364.3872" y1="149.4799" y2="149.4799"/><text fill="#000000" font-family="sans-serif" font-size="13" lengthAdjust="spacing" textLength="20.852" x="208.9571" y="143.6709">Hol</text><text fill="#000000" font-family="sans-serif" font-size="13" lengthAdjust="spacing" textLength="3.38" x="229.8091" y="143.6709">&#160;</text><text fill="#000000" font-family="sans-serif" font-size="13" lengthAdjust="spacing" textLength="87.6981" x="233.1891" y="143.6709">Transaktionen</text><polygon fill="#181818" points="576.0874,177.186,586.0874,181.186,576.0874,185.186,580.0874,181.186" style="stroke:#181818;stroke-width:1;"/><line style="stroke:#181818;stroke-width:1;" x1="370.3872" x2="582.0874" y1="181.186" y2="181.186"/><text fill="#000000" font-family="sans-serif" font-size="13" lengthAdjust="spacing" textLength="36.777" x="377.3872" y="175.377">Suche</text><text fill="#000000" font-family="sans-serif" font-size="13" lengthAdjust="spacing" textLength="3.38" x="414.1642" y="175.377">&#160;</text><text fill="#000000" font-family="sans-serif" font-size="13" lengthAdjust="spacing" textLength="87.6981" x="417.5442" y="175.377">Transaktionen</text><text fill="#000000" font-family="sans-serif" font-size="13" lengthAdjust="spacing" textLength="3.38" x="505.2423" y="175.377">&#160;</text><text fill="#000000" font-family="sans-serif" font-size="13" lengthAdjust="spacing" textLength="20.202" x="508.6223" y="175.377">mit</text><text fill="#000000" font-family="sans-serif" font-size="13" lengthAdjust="spacing" textLength="3.38" x="528.8243" y="175.377">&#160;</text><text fill="#000000" font-family="sans-serif" font-size="13" lengthAdjust="spacing" textLength="38.883" x="532.2043" y="175.377">Filtern</text><polygon fill="#181818" points="381.3872,208.892,371.3872,212.892,381.3872,216.892,377.3872,212.892" style="stroke:#181818;stroke-width:1;"/><line style="stroke:#181818;stroke-width:1;stroke-dasharray:2.0,2.0;" x1="375.3872" x2="587.0874" y1="212.892" y2="212.892"/><text fill="#000000" font-family="sans-serif" font-size="13" lengthAdjust="spacing" textLength="78.4941" x="387.3872" y="207.083">Ergebnisliste</text><polygon fill="#181818" points="212.9571,240.598,202.9571,244.598,212.9571,248.598,208.9571,244.598" style="stroke:#181818;stroke-width:1;"/><line style="stroke:#181818;stroke-width:1;stroke-dasharray:2.0,2.0;" x1="206.9571" x2="369.3872" y1="244.598" y2="244.598"/><text fill="#000000" font-family="sans-serif" font-size="13" lengthAdjust="spacing" textLength="87.6981" x="218.9571" y="238.789">Transaktionen</text><text fill="#000000" font-family="sans-serif" font-size="13" lengthAdjust="spacing" textLength="3.38" x="306.6551" y="238.789">&#160;</text><text fill="#000000" font-family="sans-serif" font-size="13" lengthAdjust="spacing" textLength="16.874" x="310.0351" y="238.789">als</text><text fill="#000000" font-family="sans-serif" font-size="13" lengthAdjust="spacing" textLength="3.38" x="326.9091" y="238.789">&#160;</text><text fill="#000000" font-family="sans-serif" font-size="13" lengthAdjust="spacing" textLength="33.098" x="330.2892" y="238.789">DTOs</text><polygon fill="#181818" points="34.3089,272.304,24.3089,276.304,34.3089,280.304,30.3089,276.304" style="stroke:#181818;stroke-width:1;"/><line style="stroke:#181818;stroke-width:1;stroke-dasharray:2.0,2.0;" x1="28.3089" x2="200.9571" y1="276.304" y2="276.304"/><text fill="#000000" font-family="sans-serif" font-size="13" lengthAdjust="spacing" textLength="49.179" x="40.3089" y="270.495">Antwort</text><text fill="#000000" font-family="sans-serif" font-size="13" lengthAdjust="spacing" textLength="3.38" x="89.488" y="270.495">&#160;</text><text fill="#000000" font-family="sans-serif" font-size="13" lengthAdjust="spacing" textLength="26.208" x="92.868" y="270.495">(200</text><text fill="#000000" font-family="sans-serif" font-size="13" lengthAdjust="spacing" textLength="3.38" x="119.076" y="270.495">&#160;</text><text fill="#000000" font-family="sans-serif" font-size="13" lengthAdjust="spacing" textLength="22.1" x="122.456" y="270.495">OK)</text><!--SRC=[TP71JiD034Jl-nK-qaELK6uv825QMgcgUaZu03UOrEh66wrDY_XwDb8B2YHNpvkPjLTFB1r6RA4yubkui3JmZbx9wO_IukUELB6Xahy87lBSEQmjH7XLYYv1nZLtA0PLHD6aSP3d81Q3zzD4IV7CDGta9HeUCDMxFXlcZ-EH1QnN5MJOSNQ-p-mNqSoD6luaNQiBs0H_dP_wEOdxJ_NUsxiAA3_g8mqzqBB12tkZAEv6mdoYSXKREWYhPpKQhPlUUbYR_WcMrLwdLauv_HKBU1AxX6XmjyXps6zdtm00]--></g></svg>