<svg xmlns="http://www.w3.org/2000/svg" xmlns:xlink="http://www.w3.org/1999/xlink" contentStyleType="text/css" data-diagram-type="SEQUENCE" height="508px" preserveAspectRatio="none" style="width:650px;height:508px;background:#FFFFFF;" version="1.1" viewBox="0 0 650 508" width="650px" zoomAndPan="magnify"><defs/><g><rect fill="transparent" height="211.9421" style="stroke:#000000;stroke-width:1.5;" width="633.7792" x="10" y="196.186"/><g><title>User</title><rect fill="transparent" height="341.0602" width="8" x="34.3089" y="84.0679"/><line style="stroke:#181818;stroke-width:0.5;stroke-dasharray:5.0,5.0;" x1="38" x2="38" y1="84.0679" y2="425.1281"/></g><g><title>TransactionController</title><rect fill="transparent" height="341.0602" width="8" x="234.1861" y="84.0679"/><line style="stroke:#181818;stroke-width:0.5;stroke-dasharray:5.0,5.0;" x1="237.5274" x2="237.5274" y1="84.0679" y2="425.1281"/></g><g><title>TransactionService</title><rect fill="transparent" height="341.0602" width="8" x="405.0082" y="84.0679"/><line style="stroke:#181818;stroke-width:0.5;stroke-dasharray:5.0,5.0;" x1="408.0864" x2="408.0864" y1="84.0679" y2="425.1281"/></g><g><title>Database</title><rect fill="transparent" height="341.0602" width="8" x="591.7554" y="84.0679"/><line style="stroke:#181818;stroke-width:0.5;stroke-dasharray:5.0,5.0;" x1="595.7315" x2="595.7315" y1="84.0679" y2="425.1281"/></g><text fill="#000000" font-family="sans-serif" font-size="14" lengthAdjust="spacing" textLength="30.6179" x="20" y="79.9659">User</text><ellipse cx="38.3089" cy="13.5" fill="#E2E2F0" rx="8" ry="8" style="stroke:#181818;stroke-width:0.5;"/><path d="M38.3089,21.5 L38.3089,48.5 M25.3089,29.5 L51.3089,29.5 M38.3089,48.5 L25.3089,63.5 M38.3089,48.5 L51.3089,63.5 " fill="transparent" style="stroke:#181818;stroke-width:0.5;"/><text fill="#000000" font-family="sans-serif" font-size="14" lengthAdjust="spacing" textLength="30.6179" x="20" y="439.094">User</text><ellipse cx="38.3089" cy="451.696" fill="#E2E2F0" rx="8" ry="8" style="stroke:#181818;stroke-width:0.5;"/><path d="M38.3089,459.696 L38.3089,486.696 M25.3089,467.696 L51.3089,467.696 M38.3089,486.696 L25.3089,501.696 M38.3089,486.696 L51.3089,501.696 " fill="transparent" style="stroke:#181818;stroke-width:0.5;"/><rect fill="#E2E2F0" height="33.0679" rx="2.5" ry="2.5" style="stroke:#181818;stroke-width:0.5;" width="157.3175" x="159.5274" y="50"/><text fill="#000000" font-family="sans-serif" font-size="14" lengthAdjust="spacing" textLength="143.3175" x="166.5274" y="71.9659">TransactionController</text><rect fill="#E2E2F0" height="33.0679" rx="2.5" ry="2.5" style="stroke:#181818;stroke-width:0.5;" width="157.3175" x="159.5274" y="424.1281"/><text fill="#000000" font-family="sans-serif" font-size="14" lengthAdjust="spacing" textLength="143.3175" x="166.5274" y="446.094">TransactionController</text><rect fill="#E2E2F0" height="33.0679" rx="2.5" ry="2.5" style="stroke:#181818;stroke-width:0.5;" width="137.8435" x="340.0864" y="50"/><text fill="#000000" font-family="sans-serif" font-size="14" lengthAdjust="spacing" textLength="123.8435" x="347.0864" y="71.9659">TransactionService</text><rect fill="#E2E2F0" height="33.0679" rx="2.5" ry="2.5" style="stroke:#181818;stroke-width:0.5;" width="137.8435" x="340.0864" y="424.1281"/><text fill="#000000" font-family="sans-serif" font-size="14" lengthAdjust="spacing" textLength="123.8435" x="347.0864" y="446.094">TransactionService</text><rect fill="#E2E2F0" height="33.0679" rx="2.5" ry="2.5" style="stroke:#181818;stroke-width:0.5;" width="76.0478" x="557.7315" y="50"/><text fill="#000000" font-family="sans-serif" font-size="14" lengthAdjust="spacing" textLength="62.0478" x="564.7315" y="71.9659">Database</text><rect fill="#E2E2F0" height="33.0679" rx="2.5" ry="2.5" style="stroke:#181818;stroke-width:0.5;" width="76.0478" x="557.7315" y="424.1281"/><text fill="#000000" font-family="sans-serif" font-size="14" lengthAdjust="spacing" textLength="62.0478" x="564.7315" y="446.094">Database</text><polygon fill="#181818" points="226.1861,113.7739,236.1861,117.7739,226.1861,121.7739,230.1861,117.7739" style="stroke:#181818;stroke-width:1;"/><line style="stroke:#181818;stroke-width:1;" x1="38.3089" x2="232.1861" y1="117.7739" y2="117.7739"/><text fill="#000000" font-family="sans-serif" font-size="13" lengthAdjust="spacing" textLength="23.92" x="45.3089" y="111.9649">GET</text><text fill="#000000" font-family="sans-serif" font-size="13" lengthAdjust="spacing" textLength="3.38" x="69.229" y="111.9649">&#160;</text><text fill="#000000" font-family="sans-serif" font-size="13" lengthAdjust="spacing" textLength="148.5771" x="72.609" y="111.9649">/api/v1/transactions/{id}</text><polygon fill="#181818" points="397.0082,145.4799,407.0082,149.4799,397.0082,153.4799,401.0082,149.4799" style="stroke:#181818;stroke-width:1;"/><line style="stroke:#181818;stroke-width:1;" x1="238.1861" x2="403.0082" y1="149.4799" y2="149.4799"/><text fill="#000000" font-family="sans-serif" font-size="13" lengthAdjust="spacing" textLength="20.852" x="245.1861" y="143.6709">Hol</text><text fill="#000000" font-family="sans-serif" font-size="13" lengthAdjust="spacing" textLength="3.38" x="266.0381" y="143.6709">&#160;</text><text fill="#000000" font-family="sans-serif" font-size="13" lengthAdjust="spacing" textLength="72.3321" x="269.4181" y="143.6709">Transaktion</text><text fill="#000000" font-family="sans-serif" font-size="13" lengthAdjust="spacing" textLength="3.38" x="341.7502" y="143.6709">&#160;</text><text fill="#000000" font-family="sans-serif" font-size="13" lengthAdjust="spacing" textLength="29.601" x="345.1302" y="143.6709">nach</text><text fill="#000000" font-family="sans-serif" font-size="13" lengthAdjust="spacing" textLength="3.38" x="374.7312" y="143.6709">&#160;</text><text fill="#000000" font-family="sans-serif" font-size="13" lengthAdjust="spacing" textLength="13.897" x="378.1112" y="143.6709">ID</text><polygon fill="#181818" points="583.7554,177.186,593.7554,181.186,583.7554,185.186,587.7554,181.186" style="stroke:#181818;stroke-width:1;"/><line style="stroke:#181818;stroke-width:1;" x1="409.0082" x2="589.7554" y1="181.186" y2="181.186"/><text fill="#000000" font-family="sans-serif" font-size="13" lengthAdjust="spacing" textLength="36.777" x="416.0082" y="175.377">Suche</text><text fill="#000000" font-family="sans-serif" font-size="13" lengthAdjust="spacing" textLength="3.38" x="452.7852" y="175.377">&#160;</text><text fill="#000000" font-family="sans-serif" font-size="13" lengthAdjust="spacing" textLength="72.3321" x="456.1653" y="175.377">Transaktion</text><text fill="#000000" font-family="sans-serif" font-size="13" lengthAdjust="spacing" textLength="3.38" x="528.4973" y="175.377">&#160;</text><text fill="#000000" font-family="sans-serif" font-size="13" lengthAdjust="spacing" textLength="29.601" x="531.8773" y="175.377">nach</text><text fill="#000000" font-family="sans-serif" font-size="13" lengthAdjust="spacing" textLength="3.38" x="561.4783" y="175.377">&#160;</text><text fill="#000000" font-family="sans-serif" font-size="13" lengthAdjust="spacing" textLength="13.897" x="564.8584" y="175.377">ID</text><path d="M10,196.186 L72.303,196.186 L72.303,205.892 L62.303,215.892 L10,215.892 L10,196.186 " fill="#EEEEEE" style="stroke:#000000;stroke-width:1.5;"/><rect fill="transparent" height="211.9421" style="stroke:#000000;stroke-width:1.5;" width="633.7792" x="10" y="196.186"/><text fill="#000000" font-family="sans-serif" font-size="13" font-weight="bold" lengthAdjust="spacing" textLength="17.303" x="25" y="211.083">alt</text><text fill="#000000" font-family="sans-serif" font-size="11" font-weight="bold" lengthAdjust="spacing" textLength="159.8069" x="87.303" y="209.9449">[Transaktion nicht gefunden]</text><polygon fill="#181818" points="420.0082,235.598,410.0082,239.598,420.0082,243.598,416.0082,239.598" style="stroke:#181818;stroke-width:1;"/><line style="stroke:#181818;stroke-width:1;stroke-dasharray:2.0,2.0;" x1="414.0082" x2="594.7554" y1="239.598" y2="239.598"/><text fill="#000000" font-family="sans-serif" font-size="13" lengthAdjust="spacing" textLength="24.622" x="426.0082" y="233.789">Null</text><polygon fill="#181818" points="249.1861,267.304,239.1861,271.304,249.1861,275.304,245.1861,271.304" style="stroke:#181818;stroke-width:1;"/><line style="stroke:#181818;stroke-width:1;stroke-dasharray:2.0,2.0;" x1="243.1861" x2="408.0082" y1="271.304" y2="271.304"/><text fill="#000000" font-family="sans-serif" font-size="13" lengthAdjust="spacing" textLength="24.622" x="255.1861" y="265.495">Null</text><polygon fill="#181818" points="49.3089,299.01,39.3089,303.01,49.3089,307.01,45.3089,303.01" style="stroke:#181818;stroke-width:1;"/><line style="stroke:#181818;stroke-width:1;stroke-dasharray:2.0,2.0;" x1="43.3089" x2="237.1861" y1="303.01" y2="303.01"/><text fill="#000000" font-family="sans-serif" font-size="13" lengthAdjust="spacing" textLength="49.179" x="55.3089" y="297.201">Antwort</text><text fill="#000000" font-family="sans-serif" font-size="13" lengthAdjust="spacing" textLength="3.38" x="104.488" y="297.201">&#160;</text><text fill="#000000" font-family="sans-serif" font-size="13" lengthAdjust="spacing" textLength="26.208" x="107.868" y="297.201">(404</text><text fill="#000000" font-family="sans-serif" font-size="13" lengthAdjust="spacing" textLength="3.38" x="134.076" y="297.201">&#160;</text><text fill="#000000" font-family="sans-serif" font-size="13" lengthAdjust="spacing" textLength="22.438" x="137.456" y="297.201">Not</text><text fill="#000000" font-family="sans-serif" font-size="13" lengthAdjust="spacing" textLength="3.38" x="159.894" y="297.201">&#160;</text><text fill="#000000" font-family="sans-serif" font-size="13" lengthAdjust="spacing" textLength="42.5751" x="163.274" y="297.201">Found)</text><line style="stroke:#000000;stroke-width:1;stroke-dasharray:2.0,2.0;" x1="10" x2="643.7792" y1="312.01" y2="312.01"/><polygon fill="#181818" points="420.0082,332.716,410.0082,336.716,420.0082,340.716,416.0082,336.716" style="stroke:#181818;stroke-width:1;"/><line style="stroke:#181818;stroke-width:1;stroke-dasharray:2.0,2.0;" x1="414.0082" x2="594.7554" y1="336.716" y2="336.716"/><text fill="#000000" font-family="sans-serif" font-size="13" lengthAdjust="spacing" textLength="113.9061" x="426.0082" y="330.907">Transaktionsdaten</text><polygon fill="#181818" points="249.1861,364.4221,239.1861,368.4221,249.1861,372.4221,245.1861,368.4221" style="stroke:#181818;stroke-width:1;"/><line style="stroke:#181818;stroke-width:1;stroke-dasharray:2.0,2.0;" x1="243.1861" x2="408.0082" y1="368.4221" y2="368.4221"/><text fill="#000000" font-family="sans-serif" font-size="13" lengthAdjust="spacing" textLength="72.3321" x="255.1861" y="362.6131">Transaktion</text><text fill="#000000" font-family="sans-serif" font-size="13" lengthAdjust="spacing" textLength="3.38" x="327.5181" y="362.6131">&#160;</text><text fill="#000000" font-family="sans-serif" font-size="13" lengthAdjust="spacing" textLength="16.874" x="330.8981" y="362.6131">als</text><text fill="#000000" font-family="sans-serif" font-size="13" lengthAdjust="spacing" textLength="3.38" x="347.7722" y="362.6131">&#160;</text><text fill="#000000" font-family="sans-serif" font-size="13" lengthAdjust="spacing" textLength="26.871" x="351.1522" y="362.6131">DTO</text><polygon fill="#181818" points="49.3089,396.1281,39.3089,400.1281,49.3089,404.1281,45.3089,400.1281" style="stroke:#181818;stroke-width:1;"/><line style="stroke:#181818;stroke-width:1;stroke-dasharray:2.0,2.0;" x1="43.3089" x2="237.1861" y1="400.1281" y2="400.1281"/><text fill="#000000" font-family="sans-serif" font-size="13" lengthAdjust="spacing" textLength="49.179" x="55.3089" y="394.3191">Antwort</text><text fill="#000000" font-family="sans-serif" font-size="13" lengthAdjust="spacing" textLength="3.38" x="104.488" y="394.3191">&#160;</text><text fill="#000000" font-family="sans-serif" font-size="13" lengthAdjust="spacing" textLength="26.208" x="107.868" y="394.3191">(200</text><text fill="#000000" font-family="sans-serif" font-size="13" lengthAdjust="spacing" textLength="3.38" x="134.076" y="394.3191">&#160;</text><text fill="#000000" font-family="sans-serif" font-size="13" lengthAdjust="spacing" textLength="22.1" x="137.456" y="394.3191">OK)</text><!--SRC=[bP9DJiCm48NtFiKiOL4bG5TP8272dn3j8k40WprDhBfsP4zQ1EBkE2Y551A9UZdpvlcRPuUrjWrwt41Het8xRIjOeGaamdTdWwzF509MLEWtWeiq5G8bEm_FWRo88jPIDsWPIeysn9vszjfPziwOQKL1Vgib7RHpP7p1UBtel65sEMwPmTrD2GasEjcU9VmZ2ScxLXzYTEYNMtzz1lVEzFLrLmUBieQ7NFpLTWvxmWoALjOqEec63-jQrWmLhLgho0g8Psy3imcgHMlCbt8COpgNiR5X176oIpQ3AyixvnbEvkaS5exXraMwKq7Tu_-BSB1XKCZzOiVX3bEAtmxoSdaS_NcQml8nOblr2G00]--></g></svg>