<svg xmlns="http://www.w3.org/2000/svg" xmlns:xlink="http://www.w3.org/1999/xlink" contentStyleType="text/css" data-diagram-type="SEQUENCE" height="572px" preserveAspectRatio="none" style="width:632px;height:572px;background:#FFFFFF;" version="1.1" viewBox="0 0 632 572" width="632px" zoomAndPan="magnify"><defs/><g><rect fill="transparent" height="307.3179" style="stroke:#000000;stroke-width:1.5;" width="615.5663" x="10" y="164.4799"/><g><title>User</title><rect fill="transparent" height="404.73" width="8" x="34.3089" y="84.0679"/><line style="stroke:#181818;stroke-width:0.5;stroke-dasharray:5.0,5.0;" x1="38" x2="38" y1="84.0679" y2="488.7979"/></g><g><title>UserController</title><rect fill="transparent" height="404.73" width="8" x="208.8491" y="84.0679"/><line style="stroke:#181818;stroke-width:0.5;stroke-dasharray:5.0,5.0;" x1="212.4513" x2="212.4513" y1="84.0679" y2="488.7979"/></g><g><title>UserService</title><rect fill="transparent" height="404.73" width="8" x="427.2773" y="84.0679"/><line style="stroke:#181818;stroke-width:0.5;stroke-dasharray:5.0,5.0;" x1="430.6165" x2="430.6165" y1="84.0679" y2="488.7979"/></g><g><title>Database</title><rect fill="transparent" height="404.73" width="8" x="573.5424" y="84.0679"/><line style="stroke:#181818;stroke-width:0.5;stroke-dasharray:5.0,5.0;" x1="577.5185" x2="577.5185" y1="84.0679" y2="488.7979"/></g><text fill="#000000" font-family="sans-serif" font-size="14" lengthAdjust="spacing" textLength="30.6179" x="20" y="79.9659">User</text><ellipse cx="38.3089" cy="13.5" fill="#E2E2F0" rx="8" ry="8" style="stroke:#181818;stroke-width:0.5;"/><path d="M38.3089,21.5 L38.3089,48.5 M25.3089,29.5 L51.3089,29.5 M38.3089,48.5 L25.3089,63.5 M38.3089,48.5 L51.3089,63.5 " fill="transparent" style="stroke:#181818;stroke-width:0.5;"/><text fill="#000000" font-family="sans-serif" font-size="14" lengthAdjust="spacing" textLength="30.6179" x="20" y="502.7638">User</text><ellipse cx="38.3089" cy="515.3658" fill="#E2E2F0" rx="8" ry="8" style="stroke:#181818;stroke-width:0.5;"/><path d="M38.3089,523.3658 L38.3089,550.3658 M25.3089,531.3658 L51.3089,531.3658 M38.3089,550.3658 L25.3089,565.3658 M38.3089,550.3658 L51.3089,565.3658 " fill="transparent" style="stroke:#181818;stroke-width:0.5;"/><rect fill="#E2E2F0" height="33.0679" rx="2.5" ry="2.5" style="stroke:#181818;stroke-width:0.5;" width="110.7956" x="157.4513" y="50"/><text fill="#000000" font-family="sans-serif" font-size="14" lengthAdjust="spacing" textLength="96.7956" x="164.4513" y="71.9659">UserController</text><rect fill="#E2E2F0" height="33.0679" rx="2.5" ry="2.5" style="stroke:#181818;stroke-width:0.5;" width="110.7956" x="157.4513" y="487.7979"/><text fill="#000000" font-family="sans-serif" font-size="14" lengthAdjust="spacing" textLength="96.7956" x="164.4513" y="509.7638">UserController</text><rect fill="#E2E2F0" height="33.0679" rx="2.5" ry="2.5" style="stroke:#181818;stroke-width:0.5;" width="91.3217" x="385.6165" y="50"/><text fill="#000000" font-family="sans-serif" font-size="14" lengthAdjust="spacing" textLength="77.3217" x="392.6165" y="71.9659">UserService</text><rect fill="#E2E2F0" height="33.0679" rx="2.5" ry="2.5" style="stroke:#181818;stroke-width:0.5;" width="91.3217" x="385.6165" y="487.7979"/><text fill="#000000" font-family="sans-serif" font-size="14" lengthAdjust="spacing" textLength="77.3217" x="392.6165" y="509.7638">UserService</text><rect fill="#E2E2F0" height="33.0679" rx="2.5" ry="2.5" style="stroke:#181818;stroke-width:0.5;" width="76.0478" x="539.5185" y="50"/><text fill="#000000" font-family="sans-serif" font-size="14" lengthAdjust="spacing" textLength="62.0478" x="546.5185" y="71.9659">Database</text><rect fill="#E2E2F0" height="33.0679" rx="2.5" ry="2.5" style="stroke:#181818;stroke-width:0.5;" width="76.0478" x="539.5185" y="487.7979"/><text fill="#000000" font-family="sans-serif" font-size="14" lengthAdjust="spacing" textLength="62.0478" x="546.5185" y="509.7638">Database</text><polygon fill="#181818" points="200.8491,113.7739,210.8491,117.7739,200.8491,121.7739,204.8491,117.7739" style="stroke:#181818;stroke-width:1;"/><line style="stroke:#181818;stroke-width:1;" x1="38.3089" x2="206.8491" y1="117.7739" y2="117.7739"/><text fill="#000000" font-family="sans-serif" font-size="13" lengthAdjust="spacing" textLength="23.92" x="45.3089" y="111.9649">GET</text><text fill="#000000" font-family="sans-serif" font-size="13" lengthAdjust="spacing" textLength="3.38" x="69.229" y="111.9649">&#160;</text><text fill="#000000" font-family="sans-serif" font-size="13" lengthAdjust="spacing" textLength="106.4441" x="72.609" y="111.9649">/api/v1/users/{id}</text><polygon fill="#181818" points="419.2773,145.4799,429.2773,149.4799,419.2773,153.4799,423.2773,149.4799" style="stroke:#181818;stroke-width:1;"/><line style="stroke:#181818;stroke-width:1;" x1="212.8491" x2="425.2773" y1="149.4799" y2="149.4799"/><text fill="#000000" font-family="sans-serif" font-size="13" lengthAdjust="spacing" textLength="29.432" x="219.8491" y="143.6709">Lade</text><text fill="#000000" font-family="sans-serif" font-size="13" lengthAdjust="spacing" textLength="3.38" x="249.2811" y="143.6709">&#160;</text><text fill="#000000" font-family="sans-serif" font-size="13" lengthAdjust="spacing" textLength="55.354" x="252.6611" y="143.6709">Benutzer</text><text fill="#000000" font-family="sans-serif" font-size="13" lengthAdjust="spacing" textLength="3.38" x="308.0152" y="143.6709">&#160;</text><text fill="#000000" font-family="sans-serif" font-size="13" lengthAdjust="spacing" textLength="20.202" x="311.3952" y="143.6709">mit</text><text fill="#000000" font-family="sans-serif" font-size="13" lengthAdjust="spacing" textLength="3.38" x="331.5972" y="143.6709">&#160;</text><text fill="#000000" font-family="sans-serif" font-size="13" lengthAdjust="spacing" textLength="13.897" x="334.9772" y="143.6709">ID</text><text fill="#000000" font-family="sans-serif" font-size="13" lengthAdjust="spacing" textLength="3.38" x="348.8742" y="143.6709">&#160;</text><text fill="#000000" font-family="sans-serif" font-size="13" lengthAdjust="spacing" textLength="21.229" x="352.2542" y="143.6709">{id}</text><path d="M10,164.4799 L72.303,164.4799 L72.303,174.186 L62.303,184.186 L10,184.186 L10,164.4799 " fill="#EEEEEE" style="stroke:#000000;stroke-width:1.5;"/><rect fill="transparent" height="307.3179" style="stroke:#000000;stroke-width:1.5;" width="615.5663" x="10" y="164.4799"/><text fill="#000000" font-family="sans-serif" font-size="13" font-weight="bold" lengthAdjust="spacing" textLength="17.303" x="25" y="179.377">alt</text><text fill="#000000" font-family="sans-serif" font-size="11" font-weight="bold" lengthAdjust="spacing" textLength="143.648" x="87.303" y="178.2389">[Benutzer nicht gefunden]</text><polygon fill="#181818" points="223.8491,203.892,213.8491,207.892,223.8491,211.892,219.8491,207.892" style="stroke:#181818;stroke-width:1;"/><line style="stroke:#181818;stroke-width:1;stroke-dasharray:2.0,2.0;" x1="217.8491" x2="430.2773" y1="207.892" y2="207.892"/><text fill="#000000" font-family="sans-serif" font-size="13" lengthAdjust="spacing" textLength="93.0671" x="229.8491" y="202.083">Fehlermeldung</text><text fill="#000000" font-family="sans-serif" font-size="13" lengthAdjust="spacing" textLength="3.38" x="322.9162" y="202.083">&#160;</text><text fill="#000000" font-family="sans-serif" font-size="13" lengthAdjust="spacing" textLength="26.208" x="326.2962" y="202.083">(404</text><text fill="#000000" font-family="sans-serif" font-size="13" lengthAdjust="spacing" textLength="3.38" x="352.5042" y="202.083">&#160;</text><text fill="#000000" font-family="sans-serif" font-size="13" lengthAdjust="spacing" textLength="22.438" x="355.8842" y="202.083">Not</text><text fill="#000000" font-family="sans-serif" font-size="13" lengthAdjust="spacing" textLength="3.38" x="378.3223" y="202.083">&#160;</text><text fill="#000000" font-family="sans-serif" font-size="13" lengthAdjust="spacing" textLength="42.5751" x="381.7023" y="202.083">Found)</text><polygon fill="#181818" points="49.3089,235.598,39.3089,239.598,49.3089,243.598,45.3089,239.598" style="stroke:#181818;stroke-width:1;"/><line style="stroke:#181818;stroke-width:1;stroke-dasharray:2.0,2.0;" x1="43.3089" x2="211.8491" y1="239.598" y2="239.598"/><text fill="#000000" font-family="sans-serif" font-size="13" lengthAdjust="spacing" textLength="49.179" x="55.3089" y="233.789">Antwort</text><text fill="#000000" font-family="sans-serif" font-size="13" lengthAdjust="spacing" textLength="3.38" x="104.488" y="233.789">&#160;</text><text fill="#000000" font-family="sans-serif" font-size="13" lengthAdjust="spacing" textLength="26.208" x="107.868" y="233.789">(404</text><text fill="#000000" font-family="sans-serif" font-size="13" lengthAdjust="spacing" textLength="3.38" x="134.076" y="233.789">&#160;</text><text fill="#000000" font-family="sans-serif" font-size="13" lengthAdjust="spacing" textLength="22.438" x="137.456" y="233.789">Not</text><text fill="#000000" font-family="sans-serif" font-size="13" lengthAdjust="spacing" textLength="3.38" x="159.894" y="233.789">&#160;</text><text fill="#000000" font-family="sans-serif" font-size="13" lengthAdjust="spacing" textLength="42.5751" x="163.274" y="233.789">Found)</text><line style="stroke:#000000;stroke-width:1;stroke-dasharray:2.0,2.0;" x1="10" x2="625.5663" y1="248.598" y2="248.598"/><text fill="#000000" font-family="sans-serif" font-size="11" font-weight="bold" lengthAdjust="spacing" textLength="119.9981" x="15" y="260.3569">[Berechtigungsfehler]</text><polygon fill="#181818" points="223.8491,284.2859,213.8491,288.2859,223.8491,292.2859,219.8491,288.2859" style="stroke:#181818;stroke-width:1;"/><line style="stroke:#181818;stroke-width:1;stroke-dasharray:2.0,2.0;" x1="217.8491" x2="430.2773" y1="288.2859" y2="288.2859"/><text fill="#000000" font-family="sans-serif" font-size="13" lengthAdjust="spacing" textLength="93.0671" x="229.8491" y="282.4769">Fehlermeldung</text><text fill="#000000" font-family="sans-serif" font-size="13" lengthAdjust="spacing" textLength="3.38" x="322.9162" y="282.4769">&#160;</text><text fill="#000000" font-family="sans-serif" font-size="13" lengthAdjust="spacing" textLength="26.208" x="326.2962" y="282.4769">(403</text><text fill="#000000" font-family="sans-serif" font-size="13" lengthAdjust="spacing" textLength="3.38" x="352.5042" y="282.4769">&#160;</text><text fill="#000000" font-family="sans-serif" font-size="13" lengthAdjust="spacing" textLength="66.5861" x="355.8842" y="282.4769">Forbidden)</text><polygon fill="#181818" points="49.3089,315.9919,39.3089,319.9919,49.3089,323.9919,45.3089,319.9919" style="stroke:#181818;stroke-width:1;"/><line style="stroke:#181818;stroke-width:1;stroke-dasharray:2.0,2.0;" x1="43.3089" x2="211.8491" y1="319.9919" y2="319.9919"/><text fill="#000000" font-family="sans-serif" font-size="13" lengthAdjust="spacing" textLength="49.179" x="55.3089" y="314.1829">Antwort</text><text fill="#000000" font-family="sans-serif" font-size="13" lengthAdjust="spacing" textLength="3.38" x="104.488" y="314.1829">&#160;</text><text fill="#000000" font-family="sans-serif" font-size="13" lengthAdjust="spacing" textLength="26.208" x="107.868" y="314.1829">(403</text><text fill="#000000" font-family="sans-serif" font-size="13" lengthAdjust="spacing" textLength="3.38" x="134.076" y="314.1829">&#160;</text><text fill="#000000" font-family="sans-serif" font-size="13" lengthAdjust="spacing" textLength="66.5861" x="137.456" y="314.1829">Forbidden)</text><line style="stroke:#000000;stroke-width:1;stroke-dasharray:2.0,2.0;" x1="10" x2="625.5663" y1="328.9919" y2="328.9919"/><text fill="#000000" font-family="sans-serif" font-size="11" font-weight="bold" lengthAdjust="spacing" textLength="120.5921" x="15" y="340.7508">[Erfolgreiche Abfrage]</text><polygon fill="#181818" points="565.5424,364.6798,575.5424,368.6798,565.5424,372.6798,569.5424,368.6798" style="stroke:#181818;stroke-width:1;"/><line style="stroke:#181818;stroke-width:1;" x1="431.2773" x2="571.5424" y1="368.6798" y2="368.6798"/><text fill="#000000" font-family="sans-serif" font-size="13" lengthAdjust="spacing" textLength="28.184" x="438.2773" y="362.8708">Hole</text><text fill="#000000" font-family="sans-serif" font-size="13" lengthAdjust="spacing" textLength="3.38" x="466.4613" y="362.8708">&#160;</text><text fill="#000000" font-family="sans-serif" font-size="13" lengthAdjust="spacing" textLength="90.7011" x="469.8413" y="362.8708">Benutzerdaten</text><polygon fill="#181818" points="442.2773,396.3858,432.2773,400.3858,442.2773,404.3858,438.2773,400.3858" style="stroke:#181818;stroke-width:1;"/><line style="stroke:#181818;stroke-width:1;stroke-dasharray:2.0,2.0;" x1="436.2773" x2="576.5424" y1="400.3858" y2="400.3858"/><text fill="#000000" font-family="sans-serif" font-size="13" lengthAdjust="spacing" textLength="80.3141" x="448.2773" y="394.5768">Benutzerliste</text><polygon fill="#181818" points="223.8491,428.0919,213.8491,432.0919,223.8491,436.0919,219.8491,432.0919" style="stroke:#181818;stroke-width:1;"/><line style="stroke:#181818;stroke-width:1;stroke-dasharray:2.0,2.0;" x1="217.8491" x2="430.2773" y1="432.0919" y2="432.0919"/><text fill="#000000" font-family="sans-serif" font-size="13" lengthAdjust="spacing" textLength="87.9581" x="229.8491" y="426.2829">Benutzer-Liste</text><polygon fill="#181818" points="49.3089,459.7979,39.3089,463.7979,49.3089,467.7979,45.3089,463.7979" style="stroke:#181818;stroke-width:1;"/><line style="stroke:#181818;stroke-width:1;stroke-dasharray:2.0,2.0;" x1="43.3089" x2="211.8491" y1="463.7979" y2="463.7979"/><text fill="#000000" font-family="sans-serif" font-size="13" lengthAdjust="spacing" textLength="49.179" x="55.3089" y="457.9889">Antwort</text><text fill="#000000" font-family="sans-serif" font-size="13" lengthAdjust="spacing" textLength="3.38" x="104.488" y="457.9889">&#160;</text><text fill="#000000" font-family="sans-serif" font-size="13" lengthAdjust="spacing" textLength="26.208" x="107.868" y="457.9889">(200</text><text fill="#000000" font-family="sans-serif" font-size="13" lengthAdjust="spacing" textLength="3.38" x="134.076" y="457.9889">&#160;</text><text fill="#000000" font-family="sans-serif" font-size="13" lengthAdjust="spacing" textLength="22.1" x="137.456" y="457.9889">OK)</text><!--SRC=[dL9DJy904BttLynH3wHLEFL0WW9gH3sWFs3eJil6xIxPdOB1-DyT6rge44FiPPDz7_FcRSExjYlqMC9yYSfjj2qWHnCe2YrIuiSJXO05pVMMe9yaKOGPEmzlWNma9DQPNg7b-kBMMVREc1FGdFnQPzIv7oFZ0cLWzCE0tl2NIGftarU8SQNZzLLS2HRYJws-eYwj4Uv6f313HN13jkAjeALcU1X3BKJ3Uy3gRCbGK5vPHJO2-Gvie7SYpvIMSfPaL2LjNGoI0JmxXgaJYylMuJ3QpYI5aUMDytma8cbSCdcICBeGsv3NG_wNfo-sVg6LB7H-dewepZFnkJE59sc8OBJ8lVm1nu66xGkcSE_CldE5l2kq8RI3sqTgk4O7fhEMRHIzMKVoztRNIG8lZxAMLTy0]--></g></svg>