<svg xmlns="http://www.w3.org/2000/svg" xmlns:xlink="http://www.w3.org/1999/xlink" contentStyleType="text/css" data-diagram-type="SEQUENCE" height="508px" preserveAspectRatio="none" style="width:737px;height:508px;background:#FFFFFF;" version="1.1" viewBox="0 0 737 508" width="737px" zoomAndPan="magnify"><defs/><g><rect fill="transparent" height="211.9421" style="stroke:#000000;stroke-width:1.5;" width="720.5283" x="10" y="196.186"/><g><title>User</title><rect fill="transparent" height="341.0602" width="8" x="34.3089" y="84.0679"/><line style="stroke:#181818;stroke-width:0.5;stroke-dasharray:5.0,5.0;" x1="38" x2="38" y1="84.0679" y2="425.1281"/></g><g><title>CustomerController</title><rect fill="transparent" height="341.0602" width="8" x="269.9751" y="84.0679"/><line style="stroke:#181818;stroke-width:0.5;stroke-dasharray:5.0,5.0;" x1="273.6374" x2="273.6374" y1="84.0679" y2="425.1281"/></g><g><title>CustomerService</title><rect fill="transparent" height="341.0602" width="8" x="456.4492" y="84.0679"/><line style="stroke:#181818;stroke-width:0.5;stroke-dasharray:5.0,5.0;" x1="459.8485" x2="459.8485" y1="84.0679" y2="425.1281"/></g><g><title>Database</title><rect fill="transparent" height="341.0602" width="8" x="678.5044" y="84.0679"/><line style="stroke:#181818;stroke-width:0.5;stroke-dasharray:5.0,5.0;" x1="682.4805" x2="682.4805" y1="84.0679" y2="425.1281"/></g><text fill="#000000" font-family="sans-serif" font-size="14" lengthAdjust="spacing" textLength="30.6179" x="20" y="79.9659">User</text><ellipse cx="38.3089" cy="13.5" fill="#E2E2F0" rx="8" ry="8" style="stroke:#181818;stroke-width:0.5;"/><path d="M38.3089,21.5 L38.3089,48.5 M25.3089,29.5 L51.3089,29.5 M38.3089,48.5 L25.3089,63.5 M38.3089,48.5 L51.3089,63.5 " fill="transparent" style="stroke:#181818;stroke-width:0.5;"/><text fill="#000000" font-family="sans-serif" font-size="14" lengthAdjust="spacing" textLength="30.6179" x="20" y="439.094">User</text><ellipse cx="38.3089" cy="451.696" fill="#E2E2F0" rx="8" ry="8" style="stroke:#181818;stroke-width:0.5;"/><path d="M38.3089,459.696 L38.3089,486.696 M25.3089,467.696 L51.3089,467.696 M38.3089,486.696 L25.3089,501.696 M38.3089,486.696 L51.3089,501.696 " fill="transparent" style="stroke:#181818;stroke-width:0.5;"/><rect fill="#E2E2F0" height="33.0679" rx="2.5" ry="2.5" style="stroke:#181818;stroke-width:0.5;" width="144.6755" x="201.6374" y="50"/><text fill="#000000" font-family="sans-serif" font-size="14" lengthAdjust="spacing" textLength="130.6755" x="208.6374" y="71.9659">CustomerController</text><rect fill="#E2E2F0" height="33.0679" rx="2.5" ry="2.5" style="stroke:#181818;stroke-width:0.5;" width="144.6755" x="201.6374" y="424.1281"/><text fill="#000000" font-family="sans-serif" font-size="14" lengthAdjust="spacing" textLength="130.6755" x="208.6374" y="446.094">CustomerController</text><rect fill="#E2E2F0" height="33.0679" rx="2.5" ry="2.5" style="stroke:#181818;stroke-width:0.5;" width="125.2016" x="397.8485" y="50"/><text fill="#000000" font-family="sans-serif" font-size="14" lengthAdjust="spacing" textLength="111.2016" x="404.8485" y="71.9659">CustomerService</text><rect fill="#E2E2F0" height="33.0679" rx="2.5" ry="2.5" style="stroke:#181818;stroke-width:0.5;" width="125.2016" x="397.8485" y="424.1281"/><text fill="#000000" font-family="sans-serif" font-size="14" lengthAdjust="spacing" textLength="111.2016" x="404.8485" y="446.094">CustomerService</text><rect fill="#E2E2F0" height="33.0679" rx="2.5" ry="2.5" style="stroke:#181818;stroke-width:0.5;" width="76.0478" x="644.4805" y="50"/><text fill="#000000" font-family="sans-serif" font-size="14" lengthAdjust="spacing" textLength="62.0478" x="651.4805" y="71.9659">Database</text><rect fill="#E2E2F0" height="33.0679" rx="2.5" ry="2.5" style="stroke:#181818;stroke-width:0.5;" width="76.0478" x="644.4805" y="424.1281"/><text fill="#000000" font-family="sans-serif" font-size="14" lengthAdjust="spacing" textLength="62.0478" x="651.4805" y="446.094">Database</text><polygon fill="#181818" points="261.9751,113.7739,271.9751,117.7739,261.9751,121.7739,265.9751,117.7739" style="stroke:#181818;stroke-width:1;"/><line style="stroke:#181818;stroke-width:1;" x1="38.3089" x2="267.9751" y1="117.7739" y2="117.7739"/><text fill="#000000" font-family="sans-serif" font-size="13" lengthAdjust="spacing" textLength="23.92" x="45.3089" y="111.9649">GET</text><text fill="#000000" font-family="sans-serif" font-size="13" lengthAdjust="spacing" textLength="3.38" x="69.229" y="111.9649">&#160;</text><text fill="#000000" font-family="sans-serif" font-size="13" lengthAdjust="spacing" textLength="116.1681" x="72.609" y="111.9649">/api/v1/customers/</text><polygon fill="#181818" points="448.4492,145.4799,458.4492,149.4799,448.4492,153.4799,452.4492,149.4799" style="stroke:#181818;stroke-width:1;"/><line style="stroke:#181818;stroke-width:1;" x1="273.9751" x2="454.4492" y1="149.4799" y2="149.4799"/><text fill="#000000" font-family="sans-serif" font-size="13" lengthAdjust="spacing" textLength="28.184" x="280.9751" y="143.6709">Hole</text><text fill="#000000" font-family="sans-serif" font-size="13" lengthAdjust="spacing" textLength="3.38" x="309.1591" y="143.6709">&#160;</text><text fill="#000000" font-family="sans-serif" font-size="13" lengthAdjust="spacing" textLength="21.333" x="312.5392" y="143.6709">alle</text><text fill="#000000" font-family="sans-serif" font-size="13" lengthAdjust="spacing" textLength="3.38" x="333.8722" y="143.6709">&#160;</text><text fill="#000000" font-family="sans-serif" font-size="13" lengthAdjust="spacing" textLength="47.4761" x="337.2522" y="143.6709">Kunden</text><polygon fill="#181818" points="670.5044,177.186,680.5044,181.186,670.5044,185.186,674.5044,181.186" style="stroke:#181818;stroke-width:1;"/><line style="stroke:#181818;stroke-width:1;" x1="460.4492" x2="676.5044" y1="181.186" y2="181.186"/><text fill="#000000" font-family="sans-serif" font-size="13" lengthAdjust="spacing" textLength="27.703" x="467.4492" y="175.377">Lese</text><text fill="#000000" font-family="sans-serif" font-size="13" lengthAdjust="spacing" textLength="3.38" x="495.1523" y="175.377">&#160;</text><text fill="#000000" font-family="sans-serif" font-size="13" lengthAdjust="spacing" textLength="47.4761" x="498.5323" y="175.377">Kunden</text><text fill="#000000" font-family="sans-serif" font-size="13" lengthAdjust="spacing" textLength="3.38" x="546.0083" y="175.377">&#160;</text><text fill="#000000" font-family="sans-serif" font-size="13" lengthAdjust="spacing" textLength="21.554" x="549.3883" y="175.377">aus</text><text fill="#000000" font-family="sans-serif" font-size="13" lengthAdjust="spacing" textLength="3.38" x="570.9424" y="175.377">&#160;</text><text fill="#000000" font-family="sans-serif" font-size="13" lengthAdjust="spacing" textLength="20.696" x="574.3224" y="175.377">der</text><text fill="#000000" font-family="sans-serif" font-size="13" lengthAdjust="spacing" textLength="3.38" x="595.0184" y="175.377">&#160;</text><text fill="#000000" font-family="sans-serif" font-size="13" lengthAdjust="spacing" textLength="67.106" x="598.3984" y="175.377">Datenbank</text><path d="M10,196.186 L72.303,196.186 L72.303,205.892 L62.303,215.892 L10,215.892 L10,196.186 " fill="#EEEEEE" style="stroke:#000000;stroke-width:1.5;"/><rect fill="transparent" height="211.9421" style="stroke:#000000;stroke-width:1.5;" width="720.5283" x="10" y="196.186"/><text fill="#000000" font-family="sans-serif" font-size="13" font-weight="bold" lengthAdjust="spacing" textLength="17.303" x="25" y="211.083">alt</text><text fill="#000000" font-family="sans-serif" font-size="11" font-weight="bold" lengthAdjust="spacing" textLength="100.6603" x="87.303" y="209.9449">[Datenbankfehler]</text><polygon fill="#181818" points="471.4492,235.598,461.4492,239.598,471.4492,243.598,467.4492,239.598" style="stroke:#181818;stroke-width:1;"/><line style="stroke:#181818;stroke-width:1;stroke-dasharray:2.0,2.0;" x1="465.4492" x2="681.5044" y1="239.598" y2="239.598"/><text fill="#000000" font-family="sans-serif" font-size="13" lengthAdjust="spacing" textLength="38.168" x="477.4492" y="233.789">Fehler</text><polygon fill="#181818" points="284.9751,267.304,274.9751,271.304,284.9751,275.304,280.9751,271.304" style="stroke:#181818;stroke-width:1;"/><line style="stroke:#181818;stroke-width:1;stroke-dasharray:2.0,2.0;" x1="278.9751" x2="459.4492" y1="271.304" y2="271.304"/><text fill="#000000" font-family="sans-serif" font-size="13" lengthAdjust="spacing" textLength="50.57" x="290.9751" y="265.495">Interner</text><text fill="#000000" font-family="sans-serif" font-size="13" lengthAdjust="spacing" textLength="3.38" x="341.5452" y="265.495">&#160;</text><text fill="#000000" font-family="sans-serif" font-size="13" lengthAdjust="spacing" textLength="75.036" x="344.9252" y="265.495">Serverfehler</text><text fill="#000000" font-family="sans-serif" font-size="13" lengthAdjust="spacing" textLength="3.38" x="419.9612" y="265.495">&#160;</text><text fill="#000000" font-family="sans-serif" font-size="13" lengthAdjust="spacing" textLength="30.108" x="423.3412" y="265.495">(500)</text><polygon fill="#181818" points="49.3089,299.01,39.3089,303.01,49.3089,307.01,45.3089,303.01" style="stroke:#181818;stroke-width:1;"/><line style="stroke:#181818;stroke-width:1;stroke-dasharray:2.0,2.0;" x1="43.3089" x2="272.9751" y1="303.01" y2="303.01"/><text fill="#000000" font-family="sans-serif" font-size="13" lengthAdjust="spacing" textLength="49.179" x="55.3089" y="297.201">Antwort</text><text fill="#000000" font-family="sans-serif" font-size="13" lengthAdjust="spacing" textLength="3.38" x="104.488" y="297.201">&#160;</text><text fill="#000000" font-family="sans-serif" font-size="13" lengthAdjust="spacing" textLength="26.208" x="107.868" y="297.201">(500</text><text fill="#000000" font-family="sans-serif" font-size="13" lengthAdjust="spacing" textLength="3.38" x="134.076" y="297.201">&#160;</text><text fill="#000000" font-family="sans-serif" font-size="13" lengthAdjust="spacing" textLength="48.516" x="137.456" y="297.201">Internal</text><text fill="#000000" font-family="sans-serif" font-size="13" lengthAdjust="spacing" textLength="3.38" x="185.9721" y="297.201">&#160;</text><text fill="#000000" font-family="sans-serif" font-size="13" lengthAdjust="spacing" textLength="39.143" x="189.3521" y="297.201">Server</text><text fill="#000000" font-family="sans-serif" font-size="13" lengthAdjust="spacing" textLength="3.38" x="228.4951" y="297.201">&#160;</text><text fill="#000000" font-family="sans-serif" font-size="13" lengthAdjust="spacing" textLength="35.1" x="231.8751" y="297.201">Error)</text><line style="stroke:#000000;stroke-width:1;stroke-dasharray:2.0,2.0;" x1="10" x2="730.5283" y1="312.01" y2="312.01"/><polygon fill="#181818" points="471.4492,332.716,461.4492,336.716,471.4492,340.716,467.4492,336.716" style="stroke:#181818;stroke-width:1;"/><line style="stroke:#181818;stroke-width:1;stroke-dasharray:2.0,2.0;" x1="465.4492" x2="681.5044" y1="336.716" y2="336.716"/><text fill="#000000" font-family="sans-serif" font-size="13" lengthAdjust="spacing" textLength="72.4361" x="477.4492" y="330.907">Kundenliste</text><polygon fill="#181818" points="284.9751,364.4221,274.9751,368.4221,284.9751,372.4221,280.9751,368.4221" style="stroke:#181818;stroke-width:1;"/><line style="stroke:#181818;stroke-width:1;stroke-dasharray:2.0,2.0;" x1="278.9751" x2="459.4492" y1="368.4221" y2="368.4221"/><text fill="#000000" font-family="sans-serif" font-size="13" lengthAdjust="spacing" textLength="72.4361" x="290.9751" y="362.6131">Kundenliste</text><polygon fill="#181818" points="49.3089,396.1281,39.3089,400.1281,49.3089,404.1281,45.3089,400.1281" style="stroke:#181818;stroke-width:1;"/><line style="stroke:#181818;stroke-width:1;stroke-dasharray:2.0,2.0;" x1="43.3089" x2="272.9751" y1="400.1281" y2="400.1281"/><text fill="#000000" font-family="sans-serif" font-size="13" lengthAdjust="spacing" textLength="49.179" x="55.3089" y="394.3191">Antwort</text><text fill="#000000" font-family="sans-serif" font-size="13" lengthAdjust="spacing" textLength="3.38" x="104.488" y="394.3191">&#160;</text><text fill="#000000" font-family="sans-serif" font-size="13" lengthAdjust="spacing" textLength="26.208" x="107.868" y="394.3191">(200</text><text fill="#000000" font-family="sans-serif" font-size="13" lengthAdjust="spacing" textLength="3.38" x="134.076" y="394.3191">&#160;</text><text fill="#000000" font-family="sans-serif" font-size="13" lengthAdjust="spacing" textLength="22.1" x="137.456" y="394.3191">OK)</text><!--SRC=[bP7DJiCm48JlVeezqaEL0EAI0n8gvKS5SIWym3RPjbQTTRJhj8Ydnw7f7ssAyCsQyRSpQrrOhb2mXF4S2x-oF8CfEYMZMwN4prTInHcDxHV1TPg2CPW7B_2X92QwWirjXHnWK6lm9Sd0Sn3lN8Sy9bdQd0wqUmmuGQK8Rx3Glpr1o-1n-0u9LZPPNYPvgsjYZgtxW7PU1a_U4M2KOLHpGMn-EPf7co0Pl91kZ82rGX6fKIMU82yCkh2xJMdUb8LujaNwfn8yx8n7ipigFtCWuJYxCPAiHy75JPhs3ZZxtIEgsM86TnnMNiAFlIMXQqam5F7ICzHy-D_HrvjmLWFzAt_Nk_DvhsBUjr4CnyKt]--></g></svg>