<svg xmlns="http://www.w3.org/2000/svg" xmlns:xlink="http://www.w3.org/1999/xlink" contentStyleType="text/css" data-diagram-type="SEQUENCE" height="620px" preserveAspectRatio="none" style="width:776px;height:620px;background:#FFFFFF;" version="1.1" viewBox="0 0 776 620" width="776px" zoomAndPan="magnify"><defs/><g><rect fill="transparent" height="324.0421" style="stroke:#000000;stroke-width:1.5;" width="759.5804" x="10" y="196.186"/><g><title>User</title><rect fill="transparent" height="453.1601" width="8" x="34.3089" y="84.0679"/><line style="stroke:#181818;stroke-width:0.5;stroke-dasharray:5.0,5.0;" x1="38" x2="38" y1="84.0679" y2="537.228"/></g><g><title>CustomerController</title><rect fill="transparent" height="453.1601" width="8" x="269.9751" y="84.0679"/><line style="stroke:#181818;stroke-width:0.5;stroke-dasharray:5.0,5.0;" x1="273.6374" x2="273.6374" y1="84.0679" y2="537.228"/></g><g><title>CustomerService</title><rect fill="transparent" height="453.1601" width="8" x="549.5294" y="84.0679"/><line style="stroke:#181818;stroke-width:0.5;stroke-dasharray:5.0,5.0;" x1="552.9286" x2="552.9286" y1="84.0679" y2="537.228"/></g><g><title>Database</title><rect fill="transparent" height="453.1601" width="8" x="717.5565" y="84.0679"/><line style="stroke:#181818;stroke-width:0.5;stroke-dasharray:5.0,5.0;" x1="721.5326" x2="721.5326" y1="84.0679" y2="537.228"/></g><text fill="#000000" font-family="sans-serif" font-size="14" lengthAdjust="spacing" textLength="30.6179" x="20" y="79.9659">User</text><ellipse cx="38.3089" cy="13.5" fill="#E2E2F0" rx="8" ry="8" style="stroke:#181818;stroke-width:0.5;"/><path d="M38.3089,21.5 L38.3089,48.5 M25.3089,29.5 L51.3089,29.5 M38.3089,48.5 L25.3089,63.5 M38.3089,48.5 L51.3089,63.5 " fill="transparent" style="stroke:#181818;stroke-width:0.5;"/><text fill="#000000" font-family="sans-serif" font-size="14" lengthAdjust="spacing" textLength="30.6179" x="20" y="551.194">User</text><ellipse cx="38.3089" cy="563.7959" fill="#E2E2F0" rx="8" ry="8" style="stroke:#181818;stroke-width:0.5;"/><path d="M38.3089,571.7959 L38.3089,598.7959 M25.3089,579.7959 L51.3089,579.7959 M38.3089,598.7959 L25.3089,613.7959 M38.3089,598.7959 L51.3089,613.7959 " fill="transparent" style="stroke:#181818;stroke-width:0.5;"/><rect fill="#E2E2F0" height="33.0679" rx="2.5" ry="2.5" style="stroke:#181818;stroke-width:0.5;" width="144.6755" x="201.6374" y="50"/><text fill="#000000" font-family="sans-serif" font-size="14" lengthAdjust="spacing" textLength="130.6755" x="208.6374" y="71.9659">CustomerController</text><rect fill="#E2E2F0" height="33.0679" rx="2.5" ry="2.5" style="stroke:#181818;stroke-width:0.5;" width="144.6755" x="201.6374" y="536.228"/><text fill="#000000" font-family="sans-serif" font-size="14" lengthAdjust="spacing" textLength="130.6755" x="208.6374" y="558.194">CustomerController</text><rect fill="#E2E2F0" height="33.0679" rx="2.5" ry="2.5" style="stroke:#181818;stroke-width:0.5;" width="125.2016" x="490.9286" y="50"/><text fill="#000000" font-family="sans-serif" font-size="14" lengthAdjust="spacing" textLength="111.2016" x="497.9286" y="71.9659">CustomerService</text><rect fill="#E2E2F0" height="33.0679" rx="2.5" ry="2.5" style="stroke:#181818;stroke-width:0.5;" width="125.2016" x="490.9286" y="536.228"/><text fill="#000000" font-family="sans-serif" font-size="14" lengthAdjust="spacing" textLength="111.2016" x="497.9286" y="558.194">CustomerService</text><rect fill="#E2E2F0" height="33.0679" rx="2.5" ry="2.5" style="stroke:#181818;stroke-width:0.5;" width="76.0478" x="683.5326" y="50"/><text fill="#000000" font-family="sans-serif" font-size="14" lengthAdjust="spacing" textLength="62.0478" x="690.5326" y="71.9659">Database</text><rect fill="#E2E2F0" height="33.0679" rx="2.5" ry="2.5" style="stroke:#181818;stroke-width:0.5;" width="76.0478" x="683.5326" y="536.228"/><text fill="#000000" font-family="sans-serif" font-size="14" lengthAdjust="spacing" textLength="62.0478" x="690.5326" y="558.194">Database</text><polygon fill="#181818" points="261.9751,113.7739,271.9751,117.7739,261.9751,121.7739,265.9751,117.7739" style="stroke:#181818;stroke-width:1;"/><line style="stroke:#181818;stroke-width:1;" x1="38.3089" x2="267.9751" y1="117.7739" y2="117.7739"/><text fill="#000000" font-family="sans-serif" font-size="13" lengthAdjust="spacing" textLength="23.92" x="45.3089" y="111.9649">GET</text><text fill="#000000" font-family="sans-serif" font-size="13" lengthAdjust="spacing" textLength="3.38" x="69.229" y="111.9649">&#160;</text><text fill="#000000" font-family="sans-serif" font-size="13" lengthAdjust="spacing" textLength="137.3971" x="72.609" y="111.9649">/api/v1/customers/{id}</text><polygon fill="#181818" points="541.5294,145.4799,551.5294,149.4799,541.5294,153.4799,545.5294,149.4799" style="stroke:#181818;stroke-width:1;"/><line style="stroke:#181818;stroke-width:1;" x1="273.9751" x2="547.5294" y1="149.4799" y2="149.4799"/><text fill="#000000" font-family="sans-serif" font-size="13" lengthAdjust="spacing" textLength="28.184" x="280.9751" y="143.6709">Hole</text><text fill="#000000" font-family="sans-serif" font-size="13" lengthAdjust="spacing" textLength="3.38" x="309.1591" y="143.6709">&#160;</text><text fill="#000000" font-family="sans-serif" font-size="13" lengthAdjust="spacing" textLength="47.4761" x="312.5392" y="143.6709">Kunden</text><text fill="#000000" font-family="sans-serif" font-size="13" lengthAdjust="spacing" textLength="3.38" x="360.0152" y="143.6709">&#160;</text><text fill="#000000" font-family="sans-serif" font-size="13" lengthAdjust="spacing" textLength="20.202" x="363.3952" y="143.6709">mit</text><text fill="#000000" font-family="sans-serif" font-size="13" lengthAdjust="spacing" textLength="3.38" x="383.5972" y="143.6709">&#160;</text><text fill="#000000" font-family="sans-serif" font-size="13" lengthAdjust="spacing" textLength="13.897" x="386.9772" y="143.6709">ID</text><text fill="#000000" font-family="sans-serif" font-size="13" lengthAdjust="spacing" textLength="3.38" x="400.8743" y="143.6709">&#160;</text><text fill="#000000" font-family="sans-serif" font-size="13" lengthAdjust="spacing" textLength="21.229" x="404.2543" y="143.6709">{id}</text><polygon fill="#181818" points="709.5565,177.186,719.5565,181.186,709.5565,185.186,713.5565,181.186" style="stroke:#181818;stroke-width:1;"/><line style="stroke:#181818;stroke-width:1;" x1="553.5294" x2="715.5565" y1="181.186" y2="181.186"/><text fill="#000000" font-family="sans-serif" font-size="13" lengthAdjust="spacing" textLength="27.703" x="560.5294" y="175.377">Lese</text><text fill="#000000" font-family="sans-serif" font-size="13" lengthAdjust="spacing" textLength="3.38" x="588.2324" y="175.377">&#160;</text><text fill="#000000" font-family="sans-serif" font-size="13" lengthAdjust="spacing" textLength="47.4761" x="591.6124" y="175.377">Kunden</text><text fill="#000000" font-family="sans-serif" font-size="13" lengthAdjust="spacing" textLength="3.38" x="639.0884" y="175.377">&#160;</text><text fill="#000000" font-family="sans-serif" font-size="13" lengthAdjust="spacing" textLength="20.202" x="642.4684" y="175.377">mit</text><text fill="#000000" font-family="sans-serif" font-size="13" lengthAdjust="spacing" textLength="3.38" x="662.6705" y="175.377">&#160;</text><text fill="#000000" font-family="sans-serif" font-size="13" lengthAdjust="spacing" textLength="13.897" x="666.0505" y="175.377">ID</text><text fill="#000000" font-family="sans-serif" font-size="13" lengthAdjust="spacing" textLength="3.38" x="679.9475" y="175.377">&#160;</text><text fill="#000000" font-family="sans-serif" font-size="13" lengthAdjust="spacing" textLength="21.229" x="683.3275" y="175.377">{id}</text><path d="M10,196.186 L72.303,196.186 L72.303,205.892 L62.303,215.892 L10,215.892 L10,196.186 " fill="#EEEEEE" style="stroke:#000000;stroke-width:1.5;"/><rect fill="transparent" height="324.0421" style="stroke:#000000;stroke-width:1.5;" width="759.5804" x="10" y="196.186"/><text fill="#000000" font-family="sans-serif" font-size="13" font-weight="bold" lengthAdjust="spacing" textLength="17.303" x="25" y="211.083">alt</text><text fill="#000000" font-family="sans-serif" font-size="11" font-weight="bold" lengthAdjust="spacing" textLength="128.9081" x="87.303" y="209.9449">[Kunde nicht gefunden]</text><polygon fill="#181818" points="564.5294,235.598,554.5294,239.598,564.5294,243.598,560.5294,239.598" style="stroke:#181818;stroke-width:1;"/><line style="stroke:#181818;stroke-width:1;stroke-dasharray:2.0,2.0;" x1="558.5294" x2="720.5565" y1="239.598" y2="239.598"/><text fill="#000000" font-family="sans-serif" font-size="13" lengthAdjust="spacing" textLength="22.776" x="570.5294" y="233.789">null</text><polygon fill="#181818" points="284.9751,267.304,274.9751,271.304,284.9751,275.304,280.9751,271.304" style="stroke:#181818;stroke-width:1;"/><line style="stroke:#181818;stroke-width:1;stroke-dasharray:2.0,2.0;" x1="278.9751" x2="552.5294" y1="271.304" y2="271.304"/><text fill="#000000" font-family="sans-serif" font-size="13" lengthAdjust="spacing" textLength="22.776" x="290.9751" y="265.495">null</text><polygon fill="#181818" points="49.3089,299.01,39.3089,303.01,49.3089,307.01,45.3089,303.01" style="stroke:#181818;stroke-width:1;"/><line style="stroke:#181818;stroke-width:1;stroke-dasharray:2.0,2.0;" x1="43.3089" x2="272.9751" y1="303.01" y2="303.01"/><text fill="#000000" font-family="sans-serif" font-size="13" lengthAdjust="spacing" textLength="49.179" x="55.3089" y="297.201">Antwort</text><text fill="#000000" font-family="sans-serif" font-size="13" lengthAdjust="spacing" textLength="3.38" x="104.488" y="297.201">&#160;</text><text fill="#000000" font-family="sans-serif" font-size="13" lengthAdjust="spacing" textLength="26.208" x="107.868" y="297.201">(404</text><text fill="#000000" font-family="sans-serif" font-size="13" lengthAdjust="spacing" textLength="3.38" x="134.076" y="297.201">&#160;</text><text fill="#000000" font-family="sans-serif" font-size="13" lengthAdjust="spacing" textLength="22.438" x="137.456" y="297.201">Not</text><text fill="#000000" font-family="sans-serif" font-size="13" lengthAdjust="spacing" textLength="3.38" x="159.894" y="297.201">&#160;</text><text fill="#000000" font-family="sans-serif" font-size="13" lengthAdjust="spacing" textLength="42.5751" x="163.274" y="297.201">Found)</text><line style="stroke:#000000;stroke-width:1;stroke-dasharray:2.0,2.0;" x1="10" x2="769.5804" y1="312.01" y2="312.01"/><text fill="#000000" font-family="sans-serif" font-size="11" font-weight="bold" lengthAdjust="spacing" textLength="100.6603" x="15" y="323.7689">[Datenbankfehler]</text><polygon fill="#181818" points="564.5294,347.6979,554.5294,351.6979,564.5294,355.6979,560.5294,351.6979" style="stroke:#181818;stroke-width:1;"/><line style="stroke:#181818;stroke-width:1;stroke-dasharray:2.0,2.0;" x1="558.5294" x2="720.5565" y1="351.6979" y2="351.6979"/><text fill="#000000" font-family="sans-serif" font-size="13" lengthAdjust="spacing" textLength="38.168" x="570.5294" y="345.8889">Fehler</text><polygon fill="#181818" points="284.9751,379.404,274.9751,383.404,284.9751,387.404,280.9751,383.404" style="stroke:#181818;stroke-width:1;"/><line style="stroke:#181818;stroke-width:1;stroke-dasharray:2.0,2.0;" x1="278.9751" x2="552.5294" y1="383.404" y2="383.404"/><text fill="#000000" font-family="sans-serif" font-size="13" lengthAdjust="spacing" textLength="93.0671" x="290.9751" y="377.595">Fehlermeldung</text><text fill="#000000" font-family="sans-serif" font-size="13" lengthAdjust="spacing" textLength="3.38" x="384.0422" y="377.595">&#160;</text><text fill="#000000" font-family="sans-serif" font-size="13" lengthAdjust="spacing" textLength="26.208" x="387.4222" y="377.595">(500</text><text fill="#000000" font-family="sans-serif" font-size="13" lengthAdjust="spacing" textLength="3.38" x="413.6302" y="377.595">&#160;</text><text fill="#000000" font-family="sans-serif" font-size="13" lengthAdjust="spacing" textLength="48.516" x="417.0103" y="377.595">Internal</text><text fill="#000000" font-family="sans-serif" font-size="13" lengthAdjust="spacing" textLength="3.38" x="465.5263" y="377.595">&#160;</text><text fill="#000000" font-family="sans-serif" font-size="13" lengthAdjust="spacing" textLength="39.143" x="468.9063" y="377.595">Server</text><text fill="#000000" font-family="sans-serif" font-size="13" lengthAdjust="spacing" textLength="3.38" x="508.0493" y="377.595">&#160;</text><text fill="#000000" font-family="sans-serif" font-size="13" lengthAdjust="spacing" textLength="35.1" x="511.4293" y="377.595">Error)</text><polygon fill="#181818" points="49.3089,411.11,39.3089,415.11,49.3089,419.11,45.3089,415.11" style="stroke:#181818;stroke-width:1;"/><line style="stroke:#181818;stroke-width:1;stroke-dasharray:2.0,2.0;" x1="43.3089" x2="272.9751" y1="415.11" y2="415.11"/><text fill="#000000" font-family="sans-serif" font-size="13" lengthAdjust="spacing" textLength="49.179" x="55.3089" y="409.301">Antwort</text><text fill="#000000" font-family="sans-serif" font-size="13" lengthAdjust="spacing" textLength="3.38" x="104.488" y="409.301">&#160;</text><text fill="#000000" font-family="sans-serif" font-size="13" lengthAdjust="spacing" textLength="26.208" x="107.868" y="409.301">(500</text><text fill="#000000" font-family="sans-serif" font-size="13" lengthAdjust="spacing" textLength="3.38" x="134.076" y="409.301">&#160;</text><text fill="#000000" font-family="sans-serif" font-size="13" lengthAdjust="spacing" textLength="48.516" x="137.456" y="409.301">Internal</text><text fill="#000000" font-family="sans-serif" font-size="13" lengthAdjust="spacing" textLength="3.38" x="185.9721" y="409.301">&#160;</text><text fill="#000000" font-family="sans-serif" font-size="13" lengthAdjust="spacing" textLength="39.143" x="189.3521" y="409.301">Server</text><text fill="#000000" font-family="sans-serif" font-size="13" lengthAdjust="spacing" textLength="3.38" x="228.4951" y="409.301">&#160;</text><text fill="#000000" font-family="sans-serif" font-size="13" lengthAdjust="spacing" textLength="35.1" x="231.8751" y="409.301">Error)</text><line style="stroke:#000000;stroke-width:1;stroke-dasharray:2.0,2.0;" x1="10" x2="769.5804" y1="424.11" y2="424.11"/><polygon fill="#181818" points="564.5294,444.816,554.5294,448.816,564.5294,452.816,560.5294,448.816" style="stroke:#181818;stroke-width:1;"/><line style="stroke:#181818;stroke-width:1;stroke-dasharray:2.0,2.0;" x1="558.5294" x2="720.5565" y1="448.816" y2="448.816"/><text fill="#000000" font-family="sans-serif" font-size="13" lengthAdjust="spacing" textLength="39.442" x="570.5294" y="443.007">Kunde</text><polygon fill="#181818" points="284.9751,476.522,274.9751,480.522,284.9751,484.522,280.9751,480.522" style="stroke:#181818;stroke-width:1;"/><line style="stroke:#181818;stroke-width:1;stroke-dasharray:2.0,2.0;" x1="278.9751" x2="552.5294" y1="480.522" y2="480.522"/><text fill="#000000" font-family="sans-serif" font-size="13" lengthAdjust="spacing" textLength="39.442" x="290.9751" y="474.713">Kunde</text><polygon fill="#181818" points="49.3089,508.228,39.3089,512.228,49.3089,516.228,45.3089,512.228" style="stroke:#181818;stroke-width:1;"/><line style="stroke:#181818;stroke-width:1;stroke-dasharray:2.0,2.0;" x1="43.3089" x2="272.9751" y1="512.228" y2="512.228"/><text fill="#000000" font-family="sans-serif" font-size="13" lengthAdjust="spacing" textLength="49.179" x="55.3089" y="506.419">Antwort</text><text fill="#000000" font-family="sans-serif" font-size="13" lengthAdjust="spacing" textLength="3.38" x="104.488" y="506.419">&#160;</text><text fill="#000000" font-family="sans-serif" font-size="13" lengthAdjust="spacing" textLength="26.208" x="107.868" y="506.419">(200</text><text fill="#000000" font-family="sans-serif" font-size="13" lengthAdjust="spacing" textLength="3.38" x="134.076" y="506.419">&#160;</text><text fill="#000000" font-family="sans-serif" font-size="13" lengthAdjust="spacing" textLength="22.1" x="137.456" y="506.419">OK)</text><!--SRC=[bPBDRi8m48JlVeezmW65jlIIGwMAdnRHdmFj0op90XRE6jaRg5hrtMi3fQ00XHopC-DllFOppNDqMC1mYhbTQfx068qdvRUJ0Z-UoNkSq51_4jmqcw0KPc8Tl7joAgX4PtgEBD0klTY2NDkoE6lCaV6Gt49dj3VheE08FONm60kDkmDfAJnqto31kKuMLqcscVlaI-VVgYhV3TcScSAZDGI3adDYABH0lmDxzeqmUd-PKdWYVz24HjQ_WNKs5PZGU2LI4BvjfSOX3YwDMSag1n-fNZ7i5WsUU6qftBCihHEejPejUB42FHk8weh2LYCHyGXvDgPfNCx_bBq_uRcSQqj19Y_3SwhTXWVJPo77Q21w0sxNEUlg5vGv4HABdL5ajQMBUbGTfncl0-Fh801n_WC0]--></g></svg>