<svg xmlns="http://www.w3.org/2000/svg" xmlns:xlink="http://www.w3.org/1999/xlink" contentStyleType="text/css" data-diagram-type="SEQUENCE" height="555px" preserveAspectRatio="none" style="width:995px;height:555px;background:#FFFFFF;" version="1.1" viewBox="0 0 995 555" width="995px" zoomAndPan="magnify"><defs/><g><rect fill="transparent" height="226.924" style="stroke:#000000;stroke-width:1.5;" width="978.4615" x="10" y="227.892"/><g><title>User</title><rect fill="transparent" height="387.7481" width="8" x="34.3089" y="84.0679"/><line style="stroke:#181818;stroke-width:0.5;stroke-dasharray:5.0,5.0;" x1="38" x2="38" y1="84.0679" y2="471.816"/></g><g><title>UserController</title><rect fill="transparent" height="387.7481" width="8" x="244.8201" y="84.0679"/><line style="stroke:#181818;stroke-width:0.5;stroke-dasharray:5.0,5.0;" x1="248.4223" x2="248.4223" y1="84.0679" y2="471.816"/></g><g><title>UserService</title><rect fill="transparent" height="387.7481" width="8" x="681.1934" y="84.0679"/><line style="stroke:#181818;stroke-width:0.5;stroke-dasharray:5.0,5.0;" x1="684.5326" x2="684.5326" y1="84.0679" y2="471.816"/></g><g><title>Database</title><rect fill="transparent" height="387.7481" width="8" x="936.4376" y="84.0679"/><line style="stroke:#181818;stroke-width:0.5;stroke-dasharray:5.0,5.0;" x1="940.4137" x2="940.4137" y1="84.0679" y2="471.816"/></g><text fill="#000000" font-family="sans-serif" font-size="14" lengthAdjust="spacing" textLength="30.6179" x="20" y="79.9659">User</text><ellipse cx="38.3089" cy="13.5" fill="#E2E2F0" rx="8" ry="8" style="stroke:#181818;stroke-width:0.5;"/><path d="M38.3089,21.5 L38.3089,48.5 M25.3089,29.5 L51.3089,29.5 M38.3089,48.5 L25.3089,63.5 M38.3089,48.5 L51.3089,63.5 " fill="transparent" style="stroke:#181818;stroke-width:0.5;"/><text fill="#000000" font-family="sans-serif" font-size="14" lengthAdjust="spacing" textLength="30.6179" x="20" y="485.7819">User</text><ellipse cx="38.3089" cy="498.3839" fill="#E2E2F0" rx="8" ry="8" style="stroke:#181818;stroke-width:0.5;"/><path d="M38.3089,506.3839 L38.3089,533.3839 M25.3089,514.3839 L51.3089,514.3839 M38.3089,533.3839 L25.3089,548.3839 M38.3089,533.3839 L51.3089,548.3839 " fill="transparent" style="stroke:#181818;stroke-width:0.5;"/><rect fill="#E2E2F0" height="33.0679" rx="2.5" ry="2.5" style="stroke:#181818;stroke-width:0.5;" width="110.7956" x="193.4223" y="50"/><text fill="#000000" font-family="sans-serif" font-size="14" lengthAdjust="spacing" textLength="96.7956" x="200.4223" y="71.9659">UserController</text><rect fill="#E2E2F0" height="33.0679" rx="2.5" ry="2.5" style="stroke:#181818;stroke-width:0.5;" width="110.7956" x="193.4223" y="470.816"/><text fill="#000000" font-family="sans-serif" font-size="14" lengthAdjust="spacing" textLength="96.7956" x="200.4223" y="492.7819">UserController</text><rect fill="#E2E2F0" height="33.0679" rx="2.5" ry="2.5" style="stroke:#181818;stroke-width:0.5;" width="91.3217" x="639.5326" y="50"/><text fill="#000000" font-family="sans-serif" font-size="14" lengthAdjust="spacing" textLength="77.3217" x="646.5326" y="71.9659">UserService</text><rect fill="#E2E2F0" height="33.0679" rx="2.5" ry="2.5" style="stroke:#181818;stroke-width:0.5;" width="91.3217" x="639.5326" y="470.816"/><text fill="#000000" font-family="sans-serif" font-size="14" lengthAdjust="spacing" textLength="77.3217" x="646.5326" y="492.7819">UserService</text><rect fill="#E2E2F0" height="33.0679" rx="2.5" ry="2.5" style="stroke:#181818;stroke-width:0.5;" width="76.0478" x="902.4137" y="50"/><text fill="#000000" font-family="sans-serif" font-size="14" lengthAdjust="spacing" textLength="62.0478" x="909.4137" y="71.9659">Database</text><rect fill="#E2E2F0" height="33.0679" rx="2.5" ry="2.5" style="stroke:#181818;stroke-width:0.5;" width="76.0478" x="902.4137" y="470.816"/><text fill="#000000" font-family="sans-serif" font-size="14" lengthAdjust="spacing" textLength="62.0478" x="909.4137" y="492.7819">Database</text><polygon fill="#181818" points="236.8201,113.7739,246.8201,117.7739,236.8201,121.7739,240.8201,117.7739" style="stroke:#181818;stroke-width:1;"/><line style="stroke:#181818;stroke-width:1;" x1="38.3089" x2="242.8201" y1="117.7739" y2="117.7739"/><text fill="#000000" font-family="sans-serif" font-size="13" lengthAdjust="spacing" textLength="146.4451" x="45.3089" y="111.9649">POST /api/v1/auth/login</text><polygon fill="#181818" points="673.1934,145.4799,683.1934,149.4799,673.1934,153.4799,677.1934,149.4799" style="stroke:#181818;stroke-width:1;"/><line style="stroke:#181818;stroke-width:1;" x1="248.8201" x2="679.1934" y1="149.4799" y2="149.4799"/><text fill="#000000" font-family="sans-serif" font-size="13" lengthAdjust="spacing" textLength="291.6033" x="255.8201" y="143.6709">&#220;berpr&#252;fe Anmeldedaten (E-Mail und Passwort)</text><polygon fill="#181818" points="928.4376,177.186,938.4376,181.186,928.4376,185.186,932.4376,181.186" style="stroke:#181818;stroke-width:1;"/><line style="stroke:#181818;stroke-width:1;" x1="685.1934" x2="934.4376" y1="181.186" y2="181.186"/><text fill="#000000" font-family="sans-serif" font-size="13" lengthAdjust="spacing" textLength="169.0782" x="692.1934" y="175.377">Suche Benutzer nach E-Mail</text><polygon fill="#181818" points="696.1934,208.892,686.1934,212.892,696.1934,216.892,692.1934,212.892" style="stroke:#181818;stroke-width:1;"/><line style="stroke:#181818;stroke-width:1;stroke-dasharray:2.0,2.0;" x1="690.1934" x2="939.4376" y1="212.892" y2="212.892"/><text fill="#000000" font-family="sans-serif" font-size="13" lengthAdjust="spacing" textLength="231.2442" x="702.1934" y="207.083">Gebe Benutzerobjekt oder null zur&#252;ck</text><path d="M10,227.892 L72.303,227.892 L72.303,237.598 L62.303,247.598 L10,247.598 L10,227.892 " fill="#EEEEEE" style="stroke:#000000;stroke-width:1.5;"/><rect fill="transparent" height="226.924" style="stroke:#000000;stroke-width:1.5;" width="978.4615" x="10" y="227.892"/><text fill="#000000" font-family="sans-serif" font-size="13" font-weight="bold" lengthAdjust="spacing" textLength="17.303" x="25" y="242.789">alt</text><text fill="#000000" font-family="sans-serif" font-size="11" font-weight="bold" lengthAdjust="spacing" textLength="193.0266" x="87.303" y="241.6509">[Ung&#252;ltige Anmeldeinformationen]</text><polygon fill="#181818" points="259.8201,267.304,249.8201,271.304,259.8201,275.304,255.8201,271.304" style="stroke:#181818;stroke-width:1;"/><line style="stroke:#181818;stroke-width:1;stroke-dasharray:2.0,2.0;" x1="253.8201" x2="684.1934" y1="271.304" y2="271.304"/><text fill="#000000" font-family="sans-serif" font-size="13" lengthAdjust="spacing" textLength="412.3733" x="265.8201" y="265.495">Fehlermeldung (401 Unauthorized): Ung&#252;ltige E-Mail oder Passwort</text><polygon fill="#181818" points="49.3089,299.01,39.3089,303.01,49.3089,307.01,45.3089,303.01" style="stroke:#181818;stroke-width:1;"/><line style="stroke:#181818;stroke-width:1;stroke-dasharray:2.0,2.0;" x1="43.3089" x2="247.8201" y1="303.01" y2="303.01"/><text fill="#000000" font-family="sans-serif" font-size="13" lengthAdjust="spacing" textLength="169.6632" x="55.3089" y="297.201">Antwort (401 Unauthorized)</text><line style="stroke:#000000;stroke-width:1;stroke-dasharray:2.0,2.0;" x1="10" x2="988.4615" y1="312.01" y2="312.01"/><text fill="#000000" font-family="sans-serif" font-size="11" font-weight="bold" lengthAdjust="spacing" textLength="178.5727" x="15" y="323.7689">[G&#252;ltige Anmeldeinformationen]</text><polygon fill="#181818" points="259.8201,347.6979,249.8201,351.6979,259.8201,355.6979,255.8201,351.6979" style="stroke:#181818;stroke-width:1;"/><line style="stroke:#181818;stroke-width:1;stroke-dasharray:2.0,2.0;" x1="253.8201" x2="684.1934" y1="351.6979" y2="351.6979"/><text fill="#000000" font-family="sans-serif" font-size="13" lengthAdjust="spacing" textLength="299.7803" x="265.8201" y="345.8889">Best&#228;tige erfolgreiche Authentifizierung (200 OK)</text><polygon fill="#181818" points="928.4376,379.404,938.4376,383.404,928.4376,387.404,932.4376,383.404" style="stroke:#181818;stroke-width:1;"/><line style="stroke:#181818;stroke-width:1;" x1="248.8201" x2="934.4376" y1="383.404" y2="383.404"/><text fill="#000000" font-family="sans-serif" font-size="13" lengthAdjust="spacing" textLength="257.0363" x="255.8201" y="377.595">Setze Sitzungsattribute (Session-Attribute)</text><polygon fill="#181818" points="259.8201,411.11,249.8201,415.11,259.8201,419.11,255.8201,415.11" style="stroke:#181818;stroke-width:1;"/><line style="stroke:#181818;stroke-width:1;stroke-dasharray:2.0,2.0;" x1="253.8201" x2="939.4376" y1="415.11" y2="415.11"/><text fill="#000000" font-family="sans-serif" font-size="13" lengthAdjust="spacing" textLength="237.7962" x="265.8201" y="409.301">Best&#228;tige Erfolg der Sitzungserstellung</text><polygon fill="#181818" points="49.3089,442.816,39.3089,446.816,49.3089,450.816,45.3089,446.816" style="stroke:#181818;stroke-width:1;"/><line style="stroke:#181818;stroke-width:1;stroke-dasharray:2.0,2.0;" x1="43.3089" x2="247.8201" y1="446.816" y2="446.816"/><text fill="#000000" font-family="sans-serif" font-size="13" lengthAdjust="spacing" textLength="186.5112" x="55.3089" y="441.007">Antwort (200 OK) mit UserDTO</text><!--SRC=[fPDDRkCm38NtEWMNoI98MipAYmBfz6Sn6AI0smFGDcrpeaY1HBU0ppBB7gExNAoqusJoLw30U2E34j_x-6J79Rir1bn1McFXtzXLKAADP30N7-0bKZ1wG3ZdDJhf2p-za-2jfG1dUoc5LyxfUECE1JECMZNT6PZSdEWayBH8ds6AQvw-NasnaNfgVSNEdFWDdODB0fk_6OLrs7oK17Et8bjGWK8EHlUJtyWM6bV04yRuveECpI6XIksu4aYRl2Qu9TT8gpOEyngs2cOFFparVwJiNu_F_j1Im1TTUsCjj8rYvKk3LfDnrUR32bTxIdQb3oiKzewS0NsEs2uaz42rhbrpevSq-Z6xKjakAH-ufMAS7BeCq_Sqk_7tBeTv3aQ9Sabtw8Am8VqUuF6_1xYbA9ltNeD2wMqLYBlKvsf5JhZabYdqmrtFPh3uDRv8V7HjfD53oj9gMqIHm5aZ1AEKObIooNnNscgTtUKNVFSz7tJfxSGfH25hzVMREGupm8gtVyRTyyAGAymd]--></g></svg>