<svg xmlns="http://www.w3.org/2000/svg" xmlns:xlink="http://www.w3.org/1999/xlink" contentStyleType="text/css" data-diagram-type="SEQUENCE" height="491px" preserveAspectRatio="none" style="width:775px;height:491px;background:#FFFFFF;" version="1.1" viewBox="0 0 775 491" width="775px" zoomAndPan="magnify"><defs/><g><rect fill="transparent" height="226.924" style="stroke:#000000;stroke-width:1.5;" width="758.6444" x="10" y="164.4799"/><g><title>User</title><rect fill="transparent" height="324.336" width="8" x="34.3089" y="84.0679"/><line style="stroke:#181818;stroke-width:0.5;stroke-dasharray:5.0,5.0;" x1="38" x2="38" y1="84.0679" y2="408.404"/></g><g><title>UserController</title><rect fill="transparent" height="324.336" width="8" x="236.7081" y="84.0679"/><line style="stroke:#181818;stroke-width:0.5;stroke-dasharray:5.0,5.0;" x1="240.3103" x2="240.3103" y1="84.0679" y2="408.404"/></g><g><title>UserService</title><rect fill="transparent" height="324.336" width="8" x="467.4603" y="84.0679"/><line style="stroke:#181818;stroke-width:0.5;stroke-dasharray:5.0,5.0;" x1="470.7994" x2="470.7994" y1="84.0679" y2="408.404"/></g><g><title>Database</title><rect fill="transparent" height="324.336" width="8" x="716.6205" y="84.0679"/><line style="stroke:#181818;stroke-width:0.5;stroke-dasharray:5.0,5.0;" x1="720.5966" x2="720.5966" y1="84.0679" y2="408.404"/></g><text fill="#000000" font-family="sans-serif" font-size="14" lengthAdjust="spacing" textLength="30.6179" x="20" y="79.9659">User</text><ellipse cx="38.3089" cy="13.5" fill="#E2E2F0" rx="8" ry="8" style="stroke:#181818;stroke-width:0.5;"/><path d="M38.3089,21.5 L38.3089,48.5 M25.3089,29.5 L51.3089,29.5 M38.3089,48.5 L25.3089,63.5 M38.3089,48.5 L51.3089,63.5 " fill="transparent" style="stroke:#181818;stroke-width:0.5;"/><text fill="#000000" font-family="sans-serif" font-size="14" lengthAdjust="spacing" textLength="30.6179" x="20" y="422.3699">User</text><ellipse cx="38.3089" cy="434.9719" fill="#E2E2F0" rx="8" ry="8" style="stroke:#181818;stroke-width:0.5;"/><path d="M38.3089,442.9719 L38.3089,469.9719 M25.3089,450.9719 L51.3089,450.9719 M38.3089,469.9719 L25.3089,484.9719 M38.3089,469.9719 L51.3089,484.9719 " fill="transparent" style="stroke:#181818;stroke-width:0.5;"/><rect fill="#E2E2F0" height="33.0679" rx="2.5" ry="2.5" style="stroke:#181818;stroke-width:0.5;" width="110.7956" x="185.3103" y="50"/><text fill="#000000" font-family="sans-serif" font-size="14" lengthAdjust="spacing" textLength="96.7956" x="192.3103" y="71.9659">UserController</text><rect fill="#E2E2F0" height="33.0679" rx="2.5" ry="2.5" style="stroke:#181818;stroke-width:0.5;" width="110.7956" x="185.3103" y="407.404"/><text fill="#000000" font-family="sans-serif" font-size="14" lengthAdjust="spacing" textLength="96.7956" x="192.3103" y="429.3699">UserController</text><rect fill="#E2E2F0" height="33.0679" rx="2.5" ry="2.5" style="stroke:#181818;stroke-width:0.5;" width="91.3217" x="425.7994" y="50"/><text fill="#000000" font-family="sans-serif" font-size="14" lengthAdjust="spacing" textLength="77.3217" x="432.7994" y="71.9659">UserService</text><rect fill="#E2E2F0" height="33.0679" rx="2.5" ry="2.5" style="stroke:#181818;stroke-width:0.5;" width="91.3217" x="425.7994" y="407.404"/><text fill="#000000" font-family="sans-serif" font-size="14" lengthAdjust="spacing" textLength="77.3217" x="432.7994" y="429.3699">UserService</text><rect fill="#E2E2F0" height="33.0679" rx="2.5" ry="2.5" style="stroke:#181818;stroke-width:0.5;" width="76.0478" x="682.5966" y="50"/><text fill="#000000" font-family="sans-serif" font-size="14" lengthAdjust="spacing" textLength="62.0478" x="689.5966" y="71.9659">Database</text><rect fill="#E2E2F0" height="33.0679" rx="2.5" ry="2.5" style="stroke:#181818;stroke-width:0.5;" width="76.0478" x="682.5966" y="407.404"/><text fill="#000000" font-family="sans-serif" font-size="14" lengthAdjust="spacing" textLength="62.0478" x="689.5966" y="429.3699">Database</text><polygon fill="#181818" points="228.7081,113.7739,238.7081,117.7739,228.7081,121.7739,232.7081,117.7739" style="stroke:#181818;stroke-width:1;"/><line style="stroke:#181818;stroke-width:1;" x1="38.3089" x2="234.7081" y1="117.7739" y2="117.7739"/><text fill="#000000" font-family="sans-serif" font-size="13" lengthAdjust="spacing" textLength="41.249" x="45.3089" y="111.9649">PATCH</text><text fill="#000000" font-family="sans-serif" font-size="13" lengthAdjust="spacing" textLength="3.38" x="86.558" y="111.9649">&#160;</text><text fill="#000000" font-family="sans-serif" font-size="13" lengthAdjust="spacing" textLength="133.7701" x="89.938" y="111.9649">/api/v1/users/settings</text><polygon fill="#181818" points="459.4603,145.4799,469.4603,149.4799,459.4603,153.4799,463.4603,149.4799" style="stroke:#181818;stroke-width:1;"/><line style="stroke:#181818;stroke-width:1;" x1="240.7081" x2="465.4603" y1="149.4799" y2="149.4799"/><text fill="#000000" font-family="sans-serif" font-size="13" lengthAdjust="spacing" textLength="71.591" x="247.7081" y="143.6709">Aktualisiere</text><text fill="#000000" font-family="sans-serif" font-size="13" lengthAdjust="spacing" textLength="3.38" x="319.2991" y="143.6709">&#160;</text><text fill="#000000" font-family="sans-serif" font-size="13" lengthAdjust="spacing" textLength="83.0051" x="322.6791" y="143.6709">Einstellungen</text><path d="M10,164.4799 L72.303,164.4799 L72.303,174.186 L62.303,184.186 L10,184.186 L10,164.4799 " fill="#EEEEEE" style="stroke:#000000;stroke-width:1.5;"/><rect fill="transparent" height="226.924" style="stroke:#000000;stroke-width:1.5;" width="758.6444" x="10" y="164.4799"/><text fill="#000000" font-family="sans-serif" font-size="13" font-weight="bold" lengthAdjust="spacing" textLength="17.303" x="25" y="179.377">alt</text><text fill="#000000" font-family="sans-serif" font-size="11" font-weight="bold" lengthAdjust="spacing" textLength="115.3782" x="87.303" y="178.2389">[Ung&#252;ltige Eingaben]</text><polygon fill="#181818" points="251.7081,203.892,241.7081,207.892,251.7081,211.892,247.7081,207.892" style="stroke:#181818;stroke-width:1;"/><line style="stroke:#181818;stroke-width:1;stroke-dasharray:2.0,2.0;" x1="245.7081" x2="470.4603" y1="207.892" y2="207.892"/><text fill="#000000" font-family="sans-serif" font-size="13" lengthAdjust="spacing" textLength="93.0671" x="257.7081" y="202.083">Fehlermeldung</text><text fill="#000000" font-family="sans-serif" font-size="13" lengthAdjust="spacing" textLength="3.38" x="350.7752" y="202.083">&#160;</text><text fill="#000000" font-family="sans-serif" font-size="13" lengthAdjust="spacing" textLength="26.208" x="354.1552" y="202.083">(400</text><text fill="#000000" font-family="sans-serif" font-size="13" lengthAdjust="spacing" textLength="3.38" x="380.3632" y="202.083">&#160;</text><text fill="#000000" font-family="sans-serif" font-size="13" lengthAdjust="spacing" textLength="23.738" x="383.7432" y="202.083">Bad</text><text fill="#000000" font-family="sans-serif" font-size="13" lengthAdjust="spacing" textLength="3.38" x="407.4812" y="202.083">&#160;</text><text fill="#000000" font-family="sans-serif" font-size="13" lengthAdjust="spacing" textLength="53.5991" x="410.8612" y="202.083">Request)</text><polygon fill="#181818" points="49.3089,235.598,39.3089,239.598,49.3089,243.598,45.3089,239.598" style="stroke:#181818;stroke-width:1;"/><line style="stroke:#181818;stroke-width:1;stroke-dasharray:2.0,2.0;" x1="43.3089" x2="239.7081" y1="239.598" y2="239.598"/><text fill="#000000" font-family="sans-serif" font-size="13" lengthAdjust="spacing" textLength="49.179" x="55.3089" y="233.789">Antwort</text><text fill="#000000" font-family="sans-serif" font-size="13" lengthAdjust="spacing" textLength="3.38" x="104.488" y="233.789">&#160;</text><text fill="#000000" font-family="sans-serif" font-size="13" lengthAdjust="spacing" textLength="26.208" x="107.868" y="233.789">(400</text><text fill="#000000" font-family="sans-serif" font-size="13" lengthAdjust="spacing" textLength="3.38" x="134.076" y="233.789">&#160;</text><text fill="#000000" font-family="sans-serif" font-size="13" lengthAdjust="spacing" textLength="23.738" x="137.456" y="233.789">Bad</text><text fill="#000000" font-family="sans-serif" font-size="13" lengthAdjust="spacing" textLength="3.38" x="161.194" y="233.789">&#160;</text><text fill="#000000" font-family="sans-serif" font-size="13" lengthAdjust="spacing" textLength="53.5991" x="164.5741" y="233.789">Request)</text><line style="stroke:#000000;stroke-width:1;stroke-dasharray:2.0,2.0;" x1="10" x2="768.6444" y1="248.598" y2="248.598"/><text fill="#000000" font-family="sans-serif" font-size="11" font-weight="bold" lengthAdjust="spacing" textLength="157.8048" x="15" y="260.3569">[Erfolgreiche Aktualisierung]</text><polygon fill="#181818" points="708.6205,284.2859,718.6205,288.2859,708.6205,292.2859,712.6205,288.2859" style="stroke:#181818;stroke-width:1;"/><line style="stroke:#181818;stroke-width:1;" x1="471.4603" x2="714.6205" y1="288.2859" y2="288.2859"/><text fill="#000000" font-family="sans-serif" font-size="13" lengthAdjust="spacing" textLength="60.125" x="478.4603" y="282.4769">Speichere</text><text fill="#000000" font-family="sans-serif" font-size="13" lengthAdjust="spacing" textLength="3.38" x="538.5853" y="282.4769">&#160;</text><text fill="#000000" font-family="sans-serif" font-size="13" lengthAdjust="spacing" textLength="75.2701" x="541.9653" y="282.4769">aktualisierte</text><text fill="#000000" font-family="sans-serif" font-size="13" lengthAdjust="spacing" textLength="3.38" x="617.2354" y="282.4769">&#160;</text><text fill="#000000" font-family="sans-serif" font-size="13" lengthAdjust="spacing" textLength="83.0051" x="620.6154" y="282.4769">Einstellungen</text><polygon fill="#181818" points="482.4603,315.9919,472.4603,319.9919,482.4603,323.9919,478.4603,319.9919" style="stroke:#181818;stroke-width:1;"/><line style="stroke:#181818;stroke-width:1;stroke-dasharray:2.0,2.0;" x1="476.4603" x2="719.6205" y1="319.9919" y2="319.9919"/><text fill="#000000" font-family="sans-serif" font-size="13" lengthAdjust="spacing" textLength="74.1001" x="488.4603" y="314.1829">Best&#228;tigung</text><polygon fill="#181818" points="251.7081,347.6979,241.7081,351.6979,251.7081,355.6979,247.7081,351.6979" style="stroke:#181818;stroke-width:1;"/><line style="stroke:#181818;stroke-width:1;stroke-dasharray:2.0,2.0;" x1="245.7081" x2="470.4603" y1="351.6979" y2="351.6979"/><text fill="#000000" font-family="sans-serif" font-size="13" lengthAdjust="spacing" textLength="36.283" x="257.7081" y="345.8889">Erfolg</text><polygon fill="#181818" points="49.3089,379.404,39.3089,383.404,49.3089,387.404,45.3089,383.404" style="stroke:#181818;stroke-width:1;"/><line style="stroke:#181818;stroke-width:1;stroke-dasharray:2.0,2.0;" x1="43.3089" x2="239.7081" y1="383.404" y2="383.404"/><text fill="#000000" font-family="sans-serif" font-size="13" lengthAdjust="spacing" textLength="49.179" x="55.3089" y="377.595">Antwort</text><text fill="#000000" font-family="sans-serif" font-size="13" lengthAdjust="spacing" textLength="3.38" x="104.488" y="377.595">&#160;</text><text fill="#000000" font-family="sans-serif" font-size="13" lengthAdjust="spacing" textLength="26.208" x="107.868" y="377.595">(200</text><text fill="#000000" font-family="sans-serif" font-size="13" lengthAdjust="spacing" textLength="3.38" x="134.076" y="377.595">&#160;</text><text fill="#000000" font-family="sans-serif" font-size="13" lengthAdjust="spacing" textLength="22.1" x="137.456" y="377.595">OK)</text><!--SRC=[ZP1DJiD038NtSmelOL4b_AoogDIM8YI4G0GEu2RkPDJ99CmuBU8y78DTBuORsf2MB9ZDIBRVy-SNLiRLwB64jC2ysXYdOOasa0fTfyJt1me1DQNcW-0gZfN2Z2iFhu6yaY4scQdHSLkOLOvzPUr0AoM_DXaTrM-GSO6oKEqcO3G-CKdWQV8okuC8QnEjBw96kY4An2oiGHqF7-JxHGbCLjoWDS6G9vWR5vYiRPmcfz0AbDFRByj6jqsD2wc3l9u7Z0QGRgcGloIRYnUSNSSnJ367PtfhAF1vvz4dszi8a-DDvNb0HX8ypFsoijgJoGhgyykclspZBhy4qhhLoA7ug-BJitSM1qq7rUKr5OxjfmGok6qWYH_QVnvyAGS_tikTBly6]--></g></svg>