<svg xmlns="http://www.w3.org/2000/svg" xmlns:xlink="http://www.w3.org/1999/xlink" contentStyleType="text/css" data-diagram-type="SEQUENCE" height="650px" preserveAspectRatio="none" style="width:788px;height:650px;background:#FFFFFF;" version="1.1" viewBox="0 0 788 650" width="788px" zoomAndPan="magnify"><defs/><g><rect fill="transparent" height="385.4541" style="stroke:#000000;stroke-width:1.5;" width="771.0509" x="10" y="164.4799"/><g><title>User</title><rect fill="transparent" height="482.8661" width="8" x="34.3089" y="84.0679"/><line style="stroke:#181818;stroke-width:0.5;stroke-dasharray:5.0,5.0;" x1="38" x2="38" y1="84.0679" y2="566.934"/></g><g><title>AppointmentController</title><rect fill="transparent" height="482.8661" width="8" x="261.8631" y="84.0679"/><line style="stroke:#181818;stroke-width:0.5;stroke-dasharray:5.0,5.0;" x1="265.4514" x2="265.4514" y1="84.0679" y2="566.934"/></g><g><title>AppointmentService</title><rect fill="transparent" height="482.8661" width="8" x="492.6153" y="84.0679"/><line style="stroke:#181818;stroke-width:0.5;stroke-dasharray:5.0,5.0;" x1="495.9406" x2="495.9406" y1="84.0679" y2="566.934"/></g><g><title>LogService</title><rect fill="transparent" height="482.8661" width="8" x="618.8499" y="84.0679"/><line style="stroke:#181818;stroke-width:0.5;stroke-dasharray:5.0,5.0;" x1="622.2901" x2="622.2901" y1="84.0679" y2="566.934"/></g><g><title>Database</title><rect fill="transparent" height="482.8661" width="8" x="729.027" y="84.0679"/><line style="stroke:#181818;stroke-width:0.5;stroke-dasharray:5.0,5.0;" x1="733.0031" x2="733.0031" y1="84.0679" y2="566.934"/></g><text fill="#000000" font-family="sans-serif" font-size="14" lengthAdjust="spacing" textLength="30.6179" x="20" y="79.9659">User</text><ellipse cx="38.3089" cy="13.5" fill="#E2E2F0" rx="8" ry="8" style="stroke:#181818;stroke-width:0.5;"/><path d="M38.3089,21.5 L38.3089,48.5 M25.3089,29.5 L51.3089,29.5 M38.3089,48.5 L25.3089,63.5 M38.3089,48.5 L51.3089,63.5 " fill="transparent" style="stroke:#181818;stroke-width:0.5;"/><text fill="#000000" font-family="sans-serif" font-size="14" lengthAdjust="spacing" textLength="30.6179" x="20" y="580.9">User</text><ellipse cx="38.3089" cy="593.502" fill="#E2E2F0" rx="8" ry="8" style="stroke:#181818;stroke-width:0.5;"/><path d="M38.3089,601.502 L38.3089,628.502 M25.3089,609.502 L51.3089,609.502 M38.3089,628.502 L25.3089,643.502 M38.3089,628.502 L51.3089,643.502 " fill="transparent" style="stroke:#181818;stroke-width:0.5;"/><rect fill="#E2E2F0" height="33.0679" rx="2.5" ry="2.5" style="stroke:#181818;stroke-width:0.5;" width="166.8234" x="182.4514" y="50"/><text fill="#000000" font-family="sans-serif" font-size="14" lengthAdjust="spacing" textLength="152.8234" x="189.4514" y="71.9659">AppointmentController</text><rect fill="#E2E2F0" height="33.0679" rx="2.5" ry="2.5" style="stroke:#181818;stroke-width:0.5;" width="166.8234" x="182.4514" y="565.934"/><text fill="#000000" font-family="sans-serif" font-size="14" lengthAdjust="spacing" textLength="152.8234" x="189.4514" y="587.9">AppointmentController</text><rect fill="#E2E2F0" height="33.0679" rx="2.5" ry="2.5" style="stroke:#181818;stroke-width:0.5;" width="147.3495" x="422.9406" y="50"/><text fill="#000000" font-family="sans-serif" font-size="14" lengthAdjust="spacing" textLength="133.3495" x="429.9406" y="71.9659">AppointmentService</text><rect fill="#E2E2F0" height="33.0679" rx="2.5" ry="2.5" style="stroke:#181818;stroke-width:0.5;" width="147.3495" x="422.9406" y="565.934"/><text fill="#000000" font-family="sans-serif" font-size="14" lengthAdjust="spacing" textLength="133.3495" x="429.9406" y="587.9">AppointmentService</text><rect fill="#E2E2F0" height="33.0679" rx="2.5" ry="2.5" style="stroke:#181818;stroke-width:0.5;" width="85.1197" x="580.2901" y="50"/><text fill="#000000" font-family="sans-serif" font-size="14" lengthAdjust="spacing" textLength="71.1197" x="587.2901" y="71.9659">LogService</text><rect fill="#E2E2F0" height="33.0679" rx="2.5" ry="2.5" style="stroke:#181818;stroke-width:0.5;" width="85.1197" x="580.2901" y="565.934"/><text fill="#000000" font-family="sans-serif" font-size="14" lengthAdjust="spacing" textLength="71.1197" x="587.2901" y="587.9">LogService</text><rect fill="#E2E2F0" height="33.0679" rx="2.5" ry="2.5" style="stroke:#181818;stroke-width:0.5;" width="76.0478" x="695.0031" y="50"/><text fill="#000000" font-family="sans-serif" font-size="14" lengthAdjust="spacing" textLength="62.0478" x="702.0031" y="71.9659">Database</text><rect fill="#E2E2F0" height="33.0679" rx="2.5" ry="2.5" style="stroke:#181818;stroke-width:0.5;" width="76.0478" x="695.0031" y="565.934"/><text fill="#000000" font-family="sans-serif" font-size="14" lengthAdjust="spacing" textLength="62.0478" x="702.0031" y="587.9">Database</text><polygon fill="#181818" points="253.8631,113.7739,263.8631,117.7739,253.8631,121.7739,257.8631,117.7739" style="stroke:#181818;stroke-width:1;"/><line style="stroke:#181818;stroke-width:1;" x1="38.3089" x2="259.8631" y1="117.7739" y2="117.7739"/><text fill="#000000" font-family="sans-serif" font-size="13" lengthAdjust="spacing" textLength="41.249" x="45.3089" y="111.9649">PATCH</text><text fill="#000000" font-family="sans-serif" font-size="13" lengthAdjust="spacing" textLength="3.38" x="86.558" y="111.9649">&#160;</text><text fill="#000000" font-family="sans-serif" font-size="13" lengthAdjust="spacing" textLength="158.9251" x="89.938" y="111.9649">/api/v1/appointments/{id}</text><polygon fill="#181818" points="484.6153,145.4799,494.6153,149.4799,484.6153,153.4799,488.6153,149.4799" style="stroke:#181818;stroke-width:1;"/><line style="stroke:#181818;stroke-width:1;" x1="265.8631" x2="490.6153" y1="149.4799" y2="149.4799"/><text fill="#000000" font-family="sans-serif" font-size="13" lengthAdjust="spacing" textLength="53.183" x="272.8631" y="143.6709">Validiere</text><text fill="#000000" font-family="sans-serif" font-size="13" lengthAdjust="spacing" textLength="3.38" x="326.0461" y="143.6709">&#160;</text><text fill="#000000" font-family="sans-serif" font-size="13" lengthAdjust="spacing" textLength="129.8961" x="329.4261" y="143.6709">Aktualisierungsdaten</text><path d="M10,164.4799 L72.303,164.4799 L72.303,174.186 L62.303,184.186 L10,184.186 L10,164.4799 " fill="#EEEEEE" style="stroke:#000000;stroke-width:1.5;"/><rect fill="transparent" height="385.4541" style="stroke:#000000;stroke-width:1.5;" width="771.0509" x="10" y="164.4799"/><text fill="#000000" font-family="sans-serif" font-size="13" font-weight="bold" lengthAdjust="spacing" textLength="17.303" x="25" y="179.377">alt</text><text fill="#000000" font-family="sans-serif" font-size="11" font-weight="bold" lengthAdjust="spacing" textLength="115.3782" x="87.303" y="178.2389">[Ung&#252;ltige Eingaben]</text><polygon fill="#181818" points="276.8631,203.892,266.8631,207.892,276.8631,211.892,272.8631,207.892" style="stroke:#181818;stroke-width:1;"/><line style="stroke:#181818;stroke-width:1;stroke-dasharray:2.0,2.0;" x1="270.8631" x2="495.6153" y1="207.892" y2="207.892"/><text fill="#000000" font-family="sans-serif" font-size="13" lengthAdjust="spacing" textLength="93.0671" x="282.8631" y="202.083">Fehlermeldung</text><text fill="#000000" font-family="sans-serif" font-size="13" lengthAdjust="spacing" textLength="3.38" x="375.9302" y="202.083">&#160;</text><text fill="#000000" font-family="sans-serif" font-size="13" lengthAdjust="spacing" textLength="26.208" x="379.3102" y="202.083">(400</text><text fill="#000000" font-family="sans-serif" font-size="13" lengthAdjust="spacing" textLength="3.38" x="405.5182" y="202.083">&#160;</text><text fill="#000000" font-family="sans-serif" font-size="13" lengthAdjust="spacing" textLength="23.738" x="408.8982" y="202.083">Bad</text><text fill="#000000" font-family="sans-serif" font-size="13" lengthAdjust="spacing" textLength="3.38" x="432.6363" y="202.083">&#160;</text><text fill="#000000" font-family="sans-serif" font-size="13" lengthAdjust="spacing" textLength="53.5991" x="436.0163" y="202.083">Request)</text><polygon fill="#181818" points="49.3089,235.598,39.3089,239.598,49.3089,243.598,45.3089,239.598" style="stroke:#181818;stroke-width:1;"/><line style="stroke:#181818;stroke-width:1;stroke-dasharray:2.0,2.0;" x1="43.3089" x2="264.8631" y1="239.598" y2="239.598"/><text fill="#000000" font-family="sans-serif" font-size="13" lengthAdjust="spacing" textLength="49.179" x="55.3089" y="233.789">Antwort</text><text fill="#000000" font-family="sans-serif" font-size="13" lengthAdjust="spacing" textLength="3.38" x="104.488" y="233.789">&#160;</text><text fill="#000000" font-family="sans-serif" font-size="13" lengthAdjust="spacing" textLength="26.208" x="107.868" y="233.789">(400</text><text fill="#000000" font-family="sans-serif" font-size="13" lengthAdjust="spacing" textLength="3.38" x="134.076" y="233.789">&#160;</text><text fill="#000000" font-family="sans-serif" font-size="13" lengthAdjust="spacing" textLength="23.738" x="137.456" y="233.789">Bad</text><text fill="#000000" font-family="sans-serif" font-size="13" lengthAdjust="spacing" textLength="3.38" x="161.194" y="233.789">&#160;</text><text fill="#000000" font-family="sans-serif" font-size="13" lengthAdjust="spacing" textLength="53.5991" x="164.5741" y="233.789">Request)</text><line style="stroke:#000000;stroke-width:1;stroke-dasharray:2.0,2.0;" x1="10" x2="781.0509" y1="248.598" y2="248.598"/><text fill="#000000" font-family="sans-serif" font-size="11" font-weight="bold" lengthAdjust="spacing" textLength="100.9243" x="15" y="260.3569">[G&#252;ltige Eingaben]</text><polygon fill="#181818" points="484.6153,284.2859,494.6153,288.2859,484.6153,292.2859,488.6153,288.2859" style="stroke:#181818;stroke-width:1;"/><line style="stroke:#181818;stroke-width:1;" x1="265.8631" x2="490.6153" y1="288.2859" y2="288.2859"/><text fill="#000000" font-family="sans-serif" font-size="13" lengthAdjust="spacing" textLength="71.591" x="272.8631" y="282.4769">Aktualisiere</text><text fill="#000000" font-family="sans-serif" font-size="13" lengthAdjust="spacing" textLength="3.38" x="344.4542" y="282.4769">&#160;</text><text fill="#000000" font-family="sans-serif" font-size="13" lengthAdjust="spacing" textLength="43.472" x="347.8342" y="282.4769">Termin</text><polygon fill="#181818" points="721.027,315.9919,731.027,319.9919,721.027,323.9919,725.027,319.9919" style="stroke:#181818;stroke-width:1;"/><line style="stroke:#181818;stroke-width:1;" x1="496.6153" x2="727.027" y1="319.9919" y2="319.9919"/><text fill="#000000" font-family="sans-serif" font-size="13" lengthAdjust="spacing" textLength="60.125" x="503.6153" y="314.1829">Speichere</text><text fill="#000000" font-family="sans-serif" font-size="13" lengthAdjust="spacing" textLength="3.38" x="563.7404" y="314.1829">&#160;</text><text fill="#000000" font-family="sans-serif" font-size="13" lengthAdjust="spacing" textLength="83.3041" x="567.1204" y="314.1829">aktualisierten</text><text fill="#000000" font-family="sans-serif" font-size="13" lengthAdjust="spacing" textLength="3.38" x="650.4244" y="314.1829">&#160;</text><text fill="#000000" font-family="sans-serif" font-size="13" lengthAdjust="spacing" textLength="43.472" x="653.8044" y="314.1829">Termin</text><polygon fill="#181818" points="507.6153,347.6979,497.6153,351.6979,507.6153,355.6979,503.6153,351.6979" style="stroke:#181818;stroke-width:1;"/><line style="stroke:#181818;stroke-width:1;stroke-dasharray:2.0,2.0;" x1="501.6153" x2="732.027" y1="351.6979" y2="351.6979"/><text fill="#000000" font-family="sans-serif" font-size="13" lengthAdjust="spacing" textLength="74.1001" x="513.6153" y="345.8889">Best&#228;tigung</text><polygon fill="#181818" points="276.8631,379.404,266.8631,383.404,276.8631,387.404,272.8631,383.404" style="stroke:#181818;stroke-width:1;"/><line style="stroke:#181818;stroke-width:1;stroke-dasharray:2.0,2.0;" x1="270.8631" x2="495.6153" y1="383.404" y2="383.404"/><text fill="#000000" font-family="sans-serif" font-size="13" lengthAdjust="spacing" textLength="36.283" x="282.8631" y="377.595">Erfolg</text><text fill="#000000" font-family="sans-serif" font-size="13" lengthAdjust="spacing" textLength="3.38" x="319.1461" y="377.595">&#160;</text><text fill="#000000" font-family="sans-serif" font-size="13" lengthAdjust="spacing" textLength="26.208" x="322.5262" y="377.595">(200</text><text fill="#000000" font-family="sans-serif" font-size="13" lengthAdjust="spacing" textLength="3.38" x="348.7342" y="377.595">&#160;</text><text fill="#000000" font-family="sans-serif" font-size="13" lengthAdjust="spacing" textLength="22.1" x="352.1142" y="377.595">OK)</text><polygon fill="#181818" points="610.8499,411.11,620.8499,415.11,610.8499,419.11,614.8499,415.11" style="stroke:#181818;stroke-width:1;"/><line style="stroke:#181818;stroke-width:1;" x1="265.8631" x2="616.8499" y1="415.11" y2="415.11"/><text fill="#000000" font-family="sans-serif" font-size="13" lengthAdjust="spacing" textLength="78.5591" x="272.8631" y="409.301">Protokolliere</text><text fill="#000000" font-family="sans-serif" font-size="13" lengthAdjust="spacing" textLength="3.38" x="351.4222" y="409.301">&#160;</text><text fill="#000000" font-family="sans-serif" font-size="13" lengthAdjust="spacing" textLength="39.195" x="354.8022" y="409.301">Aktion</text><polygon fill="#181818" points="721.027,442.816,731.027,446.816,721.027,450.816,725.027,446.816" style="stroke:#181818;stroke-width:1;"/><line style="stroke:#181818;stroke-width:1;" x1="622.8499" x2="727.027" y1="446.816" y2="446.816"/><text fill="#000000" font-family="sans-serif" font-size="13" lengthAdjust="spacing" textLength="60.125" x="629.8499" y="441.007">Speichere</text><text fill="#000000" font-family="sans-serif" font-size="13" lengthAdjust="spacing" textLength="3.38" x="689.975" y="441.007">&#160;</text><text fill="#000000" font-family="sans-serif" font-size="13" lengthAdjust="spacing" textLength="22.672" x="693.355" y="441.007">Log</text><polygon fill="#181818" points="633.8499,474.522,623.8499,478.522,633.8499,482.522,629.8499,478.522" style="stroke:#181818;stroke-width:1;"/><line style="stroke:#181818;stroke-width:1;stroke-dasharray:2.0,2.0;" x1="627.8499" x2="732.027" y1="478.522" y2="478.522"/><text fill="#000000" font-family="sans-serif" font-size="13" lengthAdjust="spacing" textLength="74.1001" x="639.8499" y="472.713">Best&#228;tigung</text><polygon fill="#181818" points="276.8631,506.228,266.8631,510.228,276.8631,514.228,272.8631,510.228" style="stroke:#181818;stroke-width:1;"/><line style="stroke:#181818;stroke-width:1;stroke-dasharray:2.0,2.0;" x1="270.8631" x2="621.8499" y1="510.228" y2="510.228"/><text fill="#000000" font-family="sans-serif" font-size="13" lengthAdjust="spacing" textLength="36.283" x="282.8631" y="504.419">Erfolg</text><polygon fill="#181818" points="49.3089,537.934,39.3089,541.934,49.3089,545.934,45.3089,541.934" style="stroke:#181818;stroke-width:1;"/><line style="stroke:#181818;stroke-width:1;stroke-dasharray:2.0,2.0;" x1="43.3089" x2="264.8631" y1="541.934" y2="541.934"/><text fill="#000000" font-family="sans-serif" font-size="13" lengthAdjust="spacing" textLength="49.179" x="55.3089" y="536.125">Antwort</text><text fill="#000000" font-family="sans-serif" font-size="13" lengthAdjust="spacing" textLength="3.38" x="104.488" y="536.125">&#160;</text><text fill="#000000" font-family="sans-serif" font-size="13" lengthAdjust="spacing" textLength="26.208" x="107.868" y="536.125">(200</text><text fill="#000000" font-family="sans-serif" font-size="13" lengthAdjust="spacing" textLength="3.38" x="134.076" y="536.125">&#160;</text><text fill="#000000" font-family="sans-serif" font-size="13" lengthAdjust="spacing" textLength="22.1" x="137.456" y="536.125">OK)</text><!--SRC=[dLBBJiCm4BpxA_P83rN3uvH3fRGKa021ICjzcsnJguuTRBT58Fw6p-3M7sChQ1hQX0fyiUmTpywCrysaBj1Y3l4KKxEKEeC9AaV2bPKSds_9ESmebYy4fq4W12RUM1Wvie91NYQoGEqXAWeZjSz9-xxHtXgbcX4nsOLCw4VvncHrr-VeSOoiIgnRGhjRtoc4-sZOlu8E5hApEEQj1BdEgqpVHEsp7Rvl0I4yefAf94iGpVoS3uuFSvsv53rfWSh3I6Uh3-LbHZ3Wx73Czy1hdmxQpQelQCfxJYfbTZWw2mBeOGeFz3GdvrkxZ5NbJBgE98H8-wMnlkOryNV2vI6PX-EeX40mPBsosMkt_B8Gue9aCbq_mYq31rZbsA1tKogRzzZAwfqTS4B_I7XW9qPnj2SSpjrrwtVpso7aWRB6cncNDdCWpPVYBQZ9BIFslLMvzpnLEGzv-TjGR7oJJZy1]--></g></svg>