<svg xmlns="http://www.w3.org/2000/svg" xmlns:xlink="http://www.w3.org/1999/xlink" contentStyleType="text/css" data-diagram-type="SEQUENCE" height="811px" preserveAspectRatio="none" style="width:854px;height:811px;background:#FFFFFF;" version="1.1" viewBox="0 0 854 811" width="854px" zoomAndPan="magnify"><defs/><g><rect fill="transparent" height="514.2963" style="stroke:#000000;stroke-width:1.5;" width="837.9094" x="10" y="196.186"/><rect fill="transparent" height="338.7662" style="stroke:#000000;stroke-width:1.5;" width="817.9094" x="20" y="364.716"/><g><title>User</title><rect fill="transparent" height="643.4143" width="8" x="44.3089" y="84.0679"/><line style="stroke:#181818;stroke-width:0.5;stroke-dasharray:5.0,5.0;" x1="48" x2="48" y1="84.0679" y2="727.4822"/></g><g><title>TransactionController</title><rect fill="transparent" height="643.4143" width="8" x="261.5151" y="84.0679"/><line style="stroke:#181818;stroke-width:0.5;stroke-dasharray:5.0,5.0;" x1="264.8564" x2="264.8564" y1="84.0679" y2="727.4822"/></g><g><title>TransactionService</title><rect fill="transparent" height="643.4143" width="8" x="492.2673" y="84.0679"/><line style="stroke:#181818;stroke-width:0.5;stroke-dasharray:5.0,5.0;" x1="495.3455" x2="495.3455" y1="84.0679" y2="727.4822"/></g><g><title>Database</title><rect fill="transparent" height="643.4143" width="8" x="671.1725" y="84.0679"/><line style="stroke:#181818;stroke-width:0.5;stroke-dasharray:5.0,5.0;" x1="675.1486" x2="675.1486" y1="84.0679" y2="727.4822"/></g><g><title>LogService</title><rect fill="transparent" height="643.4143" width="8" x="781.3495" y="84.0679"/><line style="stroke:#181818;stroke-width:0.5;stroke-dasharray:5.0,5.0;" x1="784.7897" x2="784.7897" y1="84.0679" y2="727.4822"/></g><text fill="#000000" font-family="sans-serif" font-size="14" lengthAdjust="spacing" textLength="30.6179" x="30" y="79.9659">User</text><ellipse cx="48.3089" cy="13.5" fill="#E2E2F0" rx="8" ry="8" style="stroke:#181818;stroke-width:0.5;"/><path d="M48.3089,21.5 L48.3089,48.5 M35.3089,29.5 L61.3089,29.5 M48.3089,48.5 L35.3089,63.5 M48.3089,48.5 L61.3089,63.5 " fill="transparent" style="stroke:#181818;stroke-width:0.5;"/><text fill="#000000" font-family="sans-serif" font-size="14" lengthAdjust="spacing" textLength="30.6179" x="30" y="741.4482">User</text><ellipse cx="48.3089" cy="754.0501" fill="#E2E2F0" rx="8" ry="8" style="stroke:#181818;stroke-width:0.5;"/><path d="M48.3089,762.0501 L48.3089,789.0501 M35.3089,770.0501 L61.3089,770.0501 M48.3089,789.0501 L35.3089,804.0501 M48.3089,789.0501 L61.3089,804.0501 " fill="transparent" style="stroke:#181818;stroke-width:0.5;"/><rect fill="#E2E2F0" height="33.0679" rx="2.5" ry="2.5" style="stroke:#181818;stroke-width:0.5;" width="157.3175" x="186.8564" y="50"/><text fill="#000000" font-family="sans-serif" font-size="14" lengthAdjust="spacing" textLength="143.3175" x="193.8564" y="71.9659">TransactionController</text><rect fill="#E2E2F0" height="33.0679" rx="2.5" ry="2.5" style="stroke:#181818;stroke-width:0.5;" width="157.3175" x="186.8564" y="726.4822"/><text fill="#000000" font-family="sans-serif" font-size="14" lengthAdjust="spacing" textLength="143.3175" x="193.8564" y="748.4482">TransactionController</text><rect fill="#E2E2F0" height="33.0679" rx="2.5" ry="2.5" style="stroke:#181818;stroke-width:0.5;" width="137.8435" x="427.3455" y="50"/><text fill="#000000" font-family="sans-serif" font-size="14" lengthAdjust="spacing" textLength="123.8435" x="434.3455" y="71.9659">TransactionService</text><rect fill="#E2E2F0" height="33.0679" rx="2.5" ry="2.5" style="stroke:#181818;stroke-width:0.5;" width="137.8435" x="427.3455" y="726.4822"/><text fill="#000000" font-family="sans-serif" font-size="14" lengthAdjust="spacing" textLength="123.8435" x="434.3455" y="748.4482">TransactionService</text><rect fill="#E2E2F0" height="33.0679" rx="2.5" ry="2.5" style="stroke:#181818;stroke-width:0.5;" width="76.0478" x="637.1486" y="50"/><text fill="#000000" font-family="sans-serif" font-size="14" lengthAdjust="spacing" textLength="62.0478" x="644.1486" y="71.9659">Database</text><rect fill="#E2E2F0" height="33.0679" rx="2.5" ry="2.5" style="stroke:#181818;stroke-width:0.5;" width="76.0478" x="637.1486" y="726.4822"/><text fill="#000000" font-family="sans-serif" font-size="14" lengthAdjust="spacing" textLength="62.0478" x="644.1486" y="748.4482">Database</text><rect fill="#E2E2F0" height="33.0679" rx="2.5" ry="2.5" style="stroke:#181818;stroke-width:0.5;" width="85.1197" x="742.7897" y="50"/><text fill="#000000" font-family="sans-serif" font-size="14" lengthAdjust="spacing" textLength="71.1197" x="749.7897" y="71.9659">LogService</text><rect fill="#E2E2F0" height="33.0679" rx="2.5" ry="2.5" style="stroke:#181818;stroke-width:0.5;" width="85.1197" x="742.7897" y="726.4822"/><text fill="#000000" font-family="sans-serif" font-size="14" lengthAdjust="spacing" textLength="71.1197" x="749.7897" y="748.4482">LogService</text><polygon fill="#181818" points="253.5151,113.7739,263.5151,117.7739,253.5151,121.7739,257.5151,117.7739" style="stroke:#181818;stroke-width:1;"/><line style="stroke:#181818;stroke-width:1;" x1="48.3089" x2="259.5151" y1="117.7739" y2="117.7739"/><text fill="#000000" font-family="sans-serif" font-size="13" lengthAdjust="spacing" textLength="41.249" x="55.3089" y="111.9649">PATCH</text><text fill="#000000" font-family="sans-serif" font-size="13" lengthAdjust="spacing" textLength="3.38" x="96.558" y="111.9649">&#160;</text><text fill="#000000" font-family="sans-serif" font-size="13" lengthAdjust="spacing" textLength="148.5771" x="99.938" y="111.9649">/api/v1/transactions/{id}</text><polygon fill="#181818" points="484.2673,145.4799,494.2673,149.4799,484.2673,153.4799,488.2673,149.4799" style="stroke:#181818;stroke-width:1;"/><line style="stroke:#181818;stroke-width:1;" x1="265.5151" x2="490.2673" y1="149.4799" y2="149.4799"/><text fill="#000000" font-family="sans-serif" font-size="13" lengthAdjust="spacing" textLength="71.591" x="272.5151" y="143.6709">Aktualisiere</text><text fill="#000000" font-family="sans-serif" font-size="13" lengthAdjust="spacing" textLength="3.38" x="344.1061" y="143.6709">&#160;</text><text fill="#000000" font-family="sans-serif" font-size="13" lengthAdjust="spacing" textLength="72.3321" x="347.4861" y="143.6709">Transaktion</text><polygon fill="#181818" points="663.1725,177.186,673.1725,181.186,663.1725,185.186,667.1725,181.186" style="stroke:#181818;stroke-width:1;"/><line style="stroke:#181818;stroke-width:1;" x1="496.2673" x2="669.1725" y1="181.186" y2="181.186"/><text fill="#000000" font-family="sans-serif" font-size="13" lengthAdjust="spacing" textLength="20.852" x="503.2673" y="175.377">Hol</text><text fill="#000000" font-family="sans-serif" font-size="13" lengthAdjust="spacing" textLength="3.38" x="524.1193" y="175.377">&#160;</text><text fill="#000000" font-family="sans-serif" font-size="13" lengthAdjust="spacing" textLength="72.3321" x="527.4993" y="175.377">Transaktion</text><text fill="#000000" font-family="sans-serif" font-size="13" lengthAdjust="spacing" textLength="3.38" x="599.8314" y="175.377">&#160;</text><text fill="#000000" font-family="sans-serif" font-size="13" lengthAdjust="spacing" textLength="29.601" x="603.2114" y="175.377">nach</text><text fill="#000000" font-family="sans-serif" font-size="13" lengthAdjust="spacing" textLength="3.38" x="632.8124" y="175.377">&#160;</text><text fill="#000000" font-family="sans-serif" font-size="13" lengthAdjust="spacing" textLength="13.897" x="636.1924" y="175.377">ID</text><path d="M10,196.186 L72.303,196.186 L72.303,205.892 L62.303,215.892 L10,215.892 L10,196.186 " fill="#EEEEEE" style="stroke:#000000;stroke-width:1.5;"/><rect fill="transparent" height="514.2963" style="stroke:#000000;stroke-width:1.5;" width="837.9094" x="10" y="196.186"/><text fill="#000000" font-family="sans-serif" font-size="13" font-weight="bold" lengthAdjust="spacing" textLength="17.303" x="25" y="211.083">alt</text><text fill="#000000" font-family="sans-serif" font-size="11" font-weight="bold" lengthAdjust="spacing" textLength="159.8069" x="87.303" y="209.9449">[Transaktion nicht gefunden]</text><polygon fill="#181818" points="507.2673,235.598,497.2673,239.598,507.2673,243.598,503.2673,239.598" style="stroke:#181818;stroke-width:1;"/><line style="stroke:#181818;stroke-width:1;stroke-dasharray:2.0,2.0;" x1="501.2673" x2="674.1725" y1="239.598" y2="239.598"/><text fill="#000000" font-family="sans-serif" font-size="13" lengthAdjust="spacing" textLength="24.622" x="513.2673" y="233.789">Null</text><polygon fill="#181818" points="276.5151,267.304,266.5151,271.304,276.5151,275.304,272.5151,271.304" style="stroke:#181818;stroke-width:1;"/><line style="stroke:#181818;stroke-width:1;stroke-dasharray:2.0,2.0;" x1="270.5151" x2="495.2673" y1="271.304" y2="271.304"/><text fill="#000000" font-family="sans-serif" font-size="13" lengthAdjust="spacing" textLength="93.0671" x="282.5151" y="265.495">Fehlermeldung</text><text fill="#000000" font-family="sans-serif" font-size="13" lengthAdjust="spacing" textLength="3.38" x="375.5822" y="265.495">&#160;</text><text fill="#000000" font-family="sans-serif" font-size="13" lengthAdjust="spacing" textLength="26.208" x="378.9622" y="265.495">(404</text><text fill="#000000" font-family="sans-serif" font-size="13" lengthAdjust="spacing" textLength="3.38" x="405.1702" y="265.495">&#160;</text><text fill="#000000" font-family="sans-serif" font-size="13" lengthAdjust="spacing" textLength="22.438" x="408.5502" y="265.495">Not</text><text fill="#000000" font-family="sans-serif" font-size="13" lengthAdjust="spacing" textLength="3.38" x="430.9882" y="265.495">&#160;</text><text fill="#000000" font-family="sans-serif" font-size="13" lengthAdjust="spacing" textLength="42.5751" x="434.3682" y="265.495">Found)</text><polygon fill="#181818" points="59.3089,299.01,49.3089,303.01,59.3089,307.01,55.3089,303.01" style="stroke:#181818;stroke-width:1;"/><line style="stroke:#181818;stroke-width:1;stroke-dasharray:2.0,2.0;" x1="53.3089" x2="264.5151" y1="303.01" y2="303.01"/><text fill="#000000" font-family="sans-serif" font-size="13" lengthAdjust="spacing" textLength="49.179" x="65.3089" y="297.201">Antwort</text><text fill="#000000" font-family="sans-serif" font-size="13" lengthAdjust="spacing" textLength="3.38" x="114.488" y="297.201">&#160;</text><text fill="#000000" font-family="sans-serif" font-size="13" lengthAdjust="spacing" textLength="26.208" x="117.868" y="297.201">(404</text><text fill="#000000" font-family="sans-serif" font-size="13" lengthAdjust="spacing" textLength="3.38" x="144.076" y="297.201">&#160;</text><text fill="#000000" font-family="sans-serif" font-size="13" lengthAdjust="spacing" textLength="22.438" x="147.456" y="297.201">Not</text><text fill="#000000" font-family="sans-serif" font-size="13" lengthAdjust="spacing" textLength="3.38" x="169.894" y="297.201">&#160;</text><text fill="#000000" font-family="sans-serif" font-size="13" lengthAdjust="spacing" textLength="42.5751" x="173.274" y="297.201">Found)</text><line style="stroke:#000000;stroke-width:1;stroke-dasharray:2.0,2.0;" x1="10" x2="847.9094" y1="312.01" y2="312.01"/><line style="stroke:#181818;stroke-width:1;" x1="496.2673" x2="538.2673" y1="336.716" y2="336.716"/><line style="stroke:#181818;stroke-width:1;" x1="538.2673" x2="538.2673" y1="336.716" y2="349.716"/><line style="stroke:#181818;stroke-width:1;" x1="497.2673" x2="538.2673" y1="349.716" y2="349.716"/><polygon fill="#181818" points="507.2673,345.716,497.2673,349.716,507.2673,353.716,503.2673,349.716" style="stroke:#181818;stroke-width:1;"/><text fill="#000000" font-family="sans-serif" font-size="13" lengthAdjust="spacing" textLength="63.401" x="503.2673" y="330.907">&#220;berpr&#252;fe</text><text fill="#000000" font-family="sans-serif" font-size="13" lengthAdjust="spacing" textLength="3.38" x="566.6684" y="330.907">&#160;</text><text fill="#000000" font-family="sans-serif" font-size="13" lengthAdjust="spacing" textLength="98.1241" x="570.0484" y="330.907">Status&#252;bergang</text><path d="M20,364.716 L82.303,364.716 L82.303,374.4221 L72.303,384.4221 L20,384.4221 L20,364.716 " fill="#EEEEEE" style="stroke:#000000;stroke-width:1.5;"/><rect fill="transparent" height="338.7662" style="stroke:#000000;stroke-width:1.5;" width="817.9094" x="20" y="364.716"/><text fill="#000000" font-family="sans-serif" font-size="13" font-weight="bold" lengthAdjust="spacing" textLength="17.303" x="35" y="379.6131">alt</text><text fill="#000000" font-family="sans-serif" font-size="11" font-weight="bold" lengthAdjust="spacing" textLength="157.5849" x="97.303" y="378.475">[Ung&#252;ltiger Status&#252;bergang]</text><polygon fill="#181818" points="276.5151,404.1281,266.5151,408.1281,276.5151,412.1281,272.5151,408.1281" style="stroke:#181818;stroke-width:1;"/><line style="stroke:#181818;stroke-width:1;stroke-dasharray:2.0,2.0;" x1="270.5151" x2="495.2673" y1="408.1281" y2="408.1281"/><text fill="#000000" font-family="sans-serif" font-size="13" lengthAdjust="spacing" textLength="93.0671" x="282.5151" y="402.3191">Fehlermeldung</text><text fill="#000000" font-family="sans-serif" font-size="13" lengthAdjust="spacing" textLength="3.38" x="375.5822" y="402.3191">&#160;</text><text fill="#000000" font-family="sans-serif" font-size="13" lengthAdjust="spacing" textLength="26.208" x="378.9622" y="402.3191">(400</text><text fill="#000000" font-family="sans-serif" font-size="13" lengthAdjust="spacing" textLength="3.38" x="405.1702" y="402.3191">&#160;</text><text fill="#000000" font-family="sans-serif" font-size="13" lengthAdjust="spacing" textLength="23.738" x="408.5502" y="402.3191">Bad</text><text fill="#000000" font-family="sans-serif" font-size="13" lengthAdjust="spacing" textLength="3.38" x="432.2882" y="402.3191">&#160;</text><text fill="#000000" font-family="sans-serif" font-size="13" lengthAdjust="spacing" textLength="53.5991" x="435.6682" y="402.3191">Request)</text><polygon fill="#181818" points="59.3089,435.8341,49.3089,439.8341,59.3089,443.8341,55.3089,439.8341" style="stroke:#181818;stroke-width:1;"/><line style="stroke:#181818;stroke-width:1;stroke-dasharray:2.0,2.0;" x1="53.3089" x2="264.5151" y1="439.8341" y2="439.8341"/><text fill="#000000" font-family="sans-serif" font-size="13" lengthAdjust="spacing" textLength="49.179" x="65.3089" y="434.0251">Antwort</text><text fill="#000000" font-family="sans-serif" font-size="13" lengthAdjust="spacing" textLength="3.38" x="114.488" y="434.0251">&#160;</text><text fill="#000000" font-family="sans-serif" font-size="13" lengthAdjust="spacing" textLength="26.208" x="117.868" y="434.0251">(400</text><text fill="#000000" font-family="sans-serif" font-size="13" lengthAdjust="spacing" textLength="3.38" x="144.076" y="434.0251">&#160;</text><text fill="#000000" font-family="sans-serif" font-size="13" lengthAdjust="spacing" textLength="23.738" x="147.456" y="434.0251">Bad</text><text fill="#000000" font-family="sans-serif" font-size="13" lengthAdjust="spacing" textLength="3.38" x="171.194" y="434.0251">&#160;</text><text fill="#000000" font-family="sans-serif" font-size="13" lengthAdjust="spacing" textLength="53.5991" x="174.5741" y="434.0251">Request)</text><line style="stroke:#000000;stroke-width:1;stroke-dasharray:2.0,2.0;" x1="20" x2="837.9094" y1="448.8341" y2="448.8341"/><polygon fill="#181818" points="663.1725,469.5401,673.1725,473.5401,663.1725,477.5401,667.1725,473.5401" style="stroke:#181818;stroke-width:1;"/><line style="stroke:#181818;stroke-width:1;" x1="496.2673" x2="669.1725" y1="473.5401" y2="473.5401"/><text fill="#000000" font-family="sans-serif" font-size="13" lengthAdjust="spacing" textLength="71.591" x="503.2673" y="467.7311">Aktualisiere</text><text fill="#000000" font-family="sans-serif" font-size="13" lengthAdjust="spacing" textLength="3.38" x="574.8584" y="467.7311">&#160;</text><text fill="#000000" font-family="sans-serif" font-size="13" lengthAdjust="spacing" textLength="72.3321" x="578.2384" y="467.7311">Transaktion</text><polygon fill="#181818" points="507.2673,501.2461,497.2673,505.2461,507.2673,509.2461,503.2673,505.2461" style="stroke:#181818;stroke-width:1;"/><line style="stroke:#181818;stroke-width:1;stroke-dasharray:2.0,2.0;" x1="501.2673" x2="674.1725" y1="505.2461" y2="505.2461"/><text fill="#000000" font-family="sans-serif" font-size="13" lengthAdjust="spacing" textLength="74.1001" x="513.2673" y="499.4371">Best&#228;tigung</text><polygon fill="#181818" points="276.5151,532.9521,266.5151,536.9521,276.5151,540.9521,272.5151,536.9521" style="stroke:#181818;stroke-width:1;"/><line style="stroke:#181818;stroke-width:1;stroke-dasharray:2.0,2.0;" x1="270.5151" x2="495.2673" y1="536.9521" y2="536.9521"/><text fill="#000000" font-family="sans-serif" font-size="13" lengthAdjust="spacing" textLength="36.283" x="282.5151" y="531.1431">Erfolg</text><text fill="#000000" font-family="sans-serif" font-size="13" lengthAdjust="spacing" textLength="3.38" x="318.7981" y="531.1431">&#160;</text><text fill="#000000" font-family="sans-serif" font-size="13" lengthAdjust="spacing" textLength="26.208" x="322.1781" y="531.1431">(200</text><text fill="#000000" font-family="sans-serif" font-size="13" lengthAdjust="spacing" textLength="3.38" x="348.3862" y="531.1431">&#160;</text><text fill="#000000" font-family="sans-serif" font-size="13" lengthAdjust="spacing" textLength="22.1" x="351.7662" y="531.1431">OK)</text><polygon fill="#181818" points="773.3495,564.6582,783.3495,568.6582,773.3495,572.6582,777.3495,568.6582" style="stroke:#181818;stroke-width:1;"/><line style="stroke:#181818;stroke-width:1;" x1="265.5151" x2="779.3495" y1="568.6582" y2="568.6582"/><text fill="#000000" font-family="sans-serif" font-size="13" lengthAdjust="spacing" textLength="78.5591" x="272.5151" y="562.8492">Protokolliere</text><text fill="#000000" font-family="sans-serif" font-size="13" lengthAdjust="spacing" textLength="3.38" x="351.0741" y="562.8492">&#160;</text><text fill="#000000" font-family="sans-serif" font-size="13" lengthAdjust="spacing" textLength="39.195" x="354.4541" y="562.8492">Aktion</text><polygon fill="#181818" points="686.1725,596.3642,676.1725,600.3642,686.1725,604.3642,682.1725,600.3642" style="stroke:#181818;stroke-width:1;"/><line style="stroke:#181818;stroke-width:1;" x1="680.1725" x2="784.3495" y1="600.3642" y2="600.3642"/><text fill="#000000" font-family="sans-serif" font-size="13" lengthAdjust="spacing" textLength="60.125" x="692.1725" y="594.5552">Speichere</text><text fill="#000000" font-family="sans-serif" font-size="13" lengthAdjust="spacing" textLength="3.38" x="752.2975" y="594.5552">&#160;</text><text fill="#000000" font-family="sans-serif" font-size="13" lengthAdjust="spacing" textLength="22.672" x="755.6775" y="594.5552">Log</text><polygon fill="#181818" points="773.3495,628.0702,783.3495,632.0702,773.3495,636.0702,777.3495,632.0702" style="stroke:#181818;stroke-width:1;"/><line style="stroke:#181818;stroke-width:1;stroke-dasharray:2.0,2.0;" x1="675.1725" x2="779.3495" y1="632.0702" y2="632.0702"/><text fill="#000000" font-family="sans-serif" font-size="13" lengthAdjust="spacing" textLength="74.1001" x="682.1725" y="626.2612">Best&#228;tigung</text><polygon fill="#181818" points="276.5151,659.7762,266.5151,663.7762,276.5151,667.7762,272.5151,663.7762" style="stroke:#181818;stroke-width:1;"/><line style="stroke:#181818;stroke-width:1;stroke-dasharray:2.0,2.0;" x1="270.5151" x2="784.3495" y1="663.7762" y2="663.7762"/><text fill="#000000" font-family="sans-serif" font-size="13" lengthAdjust="spacing" textLength="36.283" x="282.5151" y="657.9672">Erfolg</text><polygon fill="#181818" points="59.3089,691.4822,49.3089,695.4822,59.3089,699.4822,55.3089,695.4822" style="stroke:#181818;stroke-width:1;"/><line style="stroke:#181818;stroke-width:1;stroke-dasharray:2.0,2.0;" x1="53.3089" x2="264.5151" y1="695.4822" y2="695.4822"/><text fill="#000000" font-family="sans-serif" font-size="13" lengthAdjust="spacing" textLength="49.179" x="65.3089" y="689.6732">Antwort</text><text fill="#000000" font-family="sans-serif" font-size="13" lengthAdjust="spacing" textLength="3.38" x="114.488" y="689.6732">&#160;</text><text fill="#000000" font-family="sans-serif" font-size="13" lengthAdjust="spacing" textLength="26.208" x="117.868" y="689.6732">(200</text><text fill="#000000" font-family="sans-serif" font-size="13" lengthAdjust="spacing" textLength="3.38" x="144.076" y="689.6732">&#160;</text><text fill="#000000" font-family="sans-serif" font-size="13" lengthAdjust="spacing" textLength="22.1" x="147.456" y="689.6732">OK)</text><!--SRC=[hPDBJiCm48RtFiKiOO5Q7gikaCfB89uYS80XcQPMNJlO4q0WRiAIOtINYp6fA4t0KGKYaXN9y_kVcS_ZCD6sG8zJICQOkKTjSnYX2QJ2LsIAJ-SK0kQKw6U2xNvVAKpPURWDv9M8MAUwGCjmuz46YMbdzvrbxupfLYJa7tHAhV01CjvXQ6-UkNoXLNLAsDYDPnh0rV1c_nXwMEZUmsQFbwBGUz7PgueU- -RtcMi0mmcNQ7JGvEbJCAa5wgUujbZKFe1ZPvfwi9YEuUH0eU7slax733cDIfkHLI3VmWGsEegwA8sPAsD5T8Cveh7yfsIoKgvuRQU_0nUEuSX9wlNlVaqqObap5ngM7vtd7sUfdfQkWk8zL6ztv0jVpKO42IENePh9JeusdplLd6vjNiqCwroAY6d-0K4VzZ23QxelAV1wp7KLY8Z35uvk9Cj1wPomXS7ASTYJnDMxO2h_pENGZvmH85lIpkNfIWwxZVSe3yuxTXC9pLiOjgjV2jjj9mN9vDS7H17ljPaZscFJUrLllx_Q9WkocPBr0G00]--></g></svg>