<svg xmlns="http://www.w3.org/2000/svg" xmlns:xlink="http://www.w3.org/1999/xlink" contentStyleType="text/css" data-diagram-type="SEQUENCE" height="747px" preserveAspectRatio="none" style="width:786px;height:747px;background:#FFFFFF;" version="1.1" viewBox="0 0 786 747" width="786px" zoomAndPan="magnify"><defs/><g><rect fill="transparent" height="469.5902" style="stroke:#000000;stroke-width:1.5;" width="769.2519" x="10" y="177.4799"/><rect fill="transparent" height="338.7662" style="stroke:#000000;stroke-width:1.5;" width="749.2519" x="20" y="301.304"/><g><title>User</title><rect fill="transparent" height="580.0023" width="8" x="44.3089" y="84.0679"/><line style="stroke:#181818;stroke-width:0.5;stroke-dasharray:5.0,5.0;" x1="48" x2="48" y1="84.0679" y2="664.0702"/></g><g><title>CustomerController</title><rect fill="transparent" height="580.0023" width="8" x="279.9751" y="84.0679"/><line style="stroke:#181818;stroke-width:0.5;stroke-dasharray:5.0,5.0;" x1="283.6374" x2="283.6374" y1="84.0679" y2="664.0702"/></g><g><title>CustomerService</title><rect fill="transparent" height="580.0023" width="8" x="491.8903" y="84.0679"/><line style="stroke:#181818;stroke-width:0.5;stroke-dasharray:5.0,5.0;" x1="495.2895" x2="495.2895" y1="84.0679" y2="664.0702"/></g><g><title>LogService</title><rect fill="transparent" height="580.0023" width="8" x="607.0509" y="84.0679"/><line style="stroke:#181818;stroke-width:0.5;stroke-dasharray:5.0,5.0;" x1="610.4911" x2="610.4911" y1="84.0679" y2="664.0702"/></g><g><title>Database</title><rect fill="transparent" height="580.0023" width="8" x="717.228" y="84.0679"/><line style="stroke:#181818;stroke-width:0.5;stroke-dasharray:5.0,5.0;" x1="721.2041" x2="721.2041" y1="84.0679" y2="664.0702"/></g><text fill="#000000" font-family="sans-serif" font-size="14" lengthAdjust="spacing" textLength="30.6179" x="30" y="79.9659">User</text><ellipse cx="48.3089" cy="13.5" fill="#E2E2F0" rx="8" ry="8" style="stroke:#181818;stroke-width:0.5;"/><path d="M48.3089,21.5 L48.3089,48.5 M35.3089,29.5 L61.3089,29.5 M48.3089,48.5 L35.3089,63.5 M48.3089,48.5 L61.3089,63.5 " fill="transparent" style="stroke:#181818;stroke-width:0.5;"/><text fill="#000000" font-family="sans-serif" font-size="14" lengthAdjust="spacing" textLength="30.6179" x="30" y="678.0361">User</text><ellipse cx="48.3089" cy="690.6381" fill="#E2E2F0" rx="8" ry="8" style="stroke:#181818;stroke-width:0.5;"/><path d="M48.3089,698.6381 L48.3089,725.6381 M35.3089,706.6381 L61.3089,706.6381 M48.3089,725.6381 L35.3089,740.6381 M48.3089,725.6381 L61.3089,740.6381 " fill="transparent" style="stroke:#181818;stroke-width:0.5;"/><rect fill="#E2E2F0" height="33.0679" rx="2.5" ry="2.5" style="stroke:#181818;stroke-width:0.5;" width="144.6755" x="211.6374" y="50"/><text fill="#000000" font-family="sans-serif" font-size="14" lengthAdjust="spacing" textLength="130.6755" x="218.6374" y="71.9659">CustomerController</text><rect fill="#E2E2F0" height="33.0679" rx="2.5" ry="2.5" style="stroke:#181818;stroke-width:0.5;" width="144.6755" x="211.6374" y="663.0702"/><text fill="#000000" font-family="sans-serif" font-size="14" lengthAdjust="spacing" textLength="130.6755" x="218.6374" y="685.0361">CustomerController</text><rect fill="#E2E2F0" height="33.0679" rx="2.5" ry="2.5" style="stroke:#181818;stroke-width:0.5;" width="125.2016" x="433.2895" y="50"/><text fill="#000000" font-family="sans-serif" font-size="14" lengthAdjust="spacing" textLength="111.2016" x="440.2895" y="71.9659">CustomerService</text><rect fill="#E2E2F0" height="33.0679" rx="2.5" ry="2.5" style="stroke:#181818;stroke-width:0.5;" width="125.2016" x="433.2895" y="663.0702"/><text fill="#000000" font-family="sans-serif" font-size="14" lengthAdjust="spacing" textLength="111.2016" x="440.2895" y="685.0361">CustomerService</text><rect fill="#E2E2F0" height="33.0679" rx="2.5" ry="2.5" style="stroke:#181818;stroke-width:0.5;" width="85.1197" x="568.4911" y="50"/><text fill="#000000" font-family="sans-serif" font-size="14" lengthAdjust="spacing" textLength="71.1197" x="575.4911" y="71.9659">LogService</text><rect fill="#E2E2F0" height="33.0679" rx="2.5" ry="2.5" style="stroke:#181818;stroke-width:0.5;" width="85.1197" x="568.4911" y="663.0702"/><text fill="#000000" font-family="sans-serif" font-size="14" lengthAdjust="spacing" textLength="71.1197" x="575.4911" y="685.0361">LogService</text><rect fill="#E2E2F0" height="33.0679" rx="2.5" ry="2.5" style="stroke:#181818;stroke-width:0.5;" width="76.0478" x="683.2041" y="50"/><text fill="#000000" font-family="sans-serif" font-size="14" lengthAdjust="spacing" textLength="62.0478" x="690.2041" y="71.9659">Database</text><rect fill="#E2E2F0" height="33.0679" rx="2.5" ry="2.5" style="stroke:#181818;stroke-width:0.5;" width="76.0478" x="683.2041" y="663.0702"/><text fill="#000000" font-family="sans-serif" font-size="14" lengthAdjust="spacing" textLength="62.0478" x="690.2041" y="685.0361">Database</text><polygon fill="#181818" points="271.9751,113.7739,281.9751,117.7739,271.9751,121.7739,275.9751,117.7739" style="stroke:#181818;stroke-width:1;"/><line style="stroke:#181818;stroke-width:1;" x1="48.3089" x2="277.9751" y1="117.7739" y2="117.7739"/><text fill="#000000" font-family="sans-serif" font-size="13" lengthAdjust="spacing" textLength="41.249" x="55.3089" y="111.9649">PATCH</text><text fill="#000000" font-family="sans-serif" font-size="13" lengthAdjust="spacing" textLength="3.38" x="96.558" y="111.9649">&#160;</text><text fill="#000000" font-family="sans-serif" font-size="13" lengthAdjust="spacing" textLength="137.3971" x="99.938" y="111.9649">/api/v1/customers/{id}</text><line style="stroke:#181818;stroke-width:1;" x1="283.9751" x2="325.9751" y1="149.4799" y2="149.4799"/><line style="stroke:#181818;stroke-width:1;" x1="325.9751" x2="325.9751" y1="149.4799" y2="162.4799"/><line style="stroke:#181818;stroke-width:1;" x1="284.9751" x2="325.9751" y1="162.4799" y2="162.4799"/><polygon fill="#181818" points="294.9751,158.4799,284.9751,162.4799,294.9751,166.4799,290.9751,162.4799" style="stroke:#181818;stroke-width:1;"/><text fill="#000000" font-family="sans-serif" font-size="13" lengthAdjust="spacing" textLength="53.183" x="290.9751" y="143.6709">Validiere</text><text fill="#000000" font-family="sans-serif" font-size="13" lengthAdjust="spacing" textLength="3.38" x="344.1582" y="143.6709">&#160;</text><text fill="#000000" font-family="sans-serif" font-size="13" lengthAdjust="spacing" textLength="84.5781" x="347.5382" y="143.6709">Eingabedaten</text><path d="M10,177.4799 L72.303,177.4799 L72.303,187.186 L62.303,197.186 L10,197.186 L10,177.4799 " fill="#EEEEEE" style="stroke:#000000;stroke-width:1.5;"/><rect fill="transparent" height="469.5902" style="stroke:#000000;stroke-width:1.5;" width="769.2519" x="10" y="177.4799"/><text fill="#000000" font-family="sans-serif" font-size="13" font-weight="bold" lengthAdjust="spacing" textLength="17.303" x="25" y="192.377">alt</text><text fill="#000000" font-family="sans-serif" font-size="11" font-weight="bold" lengthAdjust="spacing" textLength="115.3782" x="87.303" y="191.2389">[Ung&#252;ltige Eingaben]</text><polygon fill="#181818" points="59.3089,216.892,49.3089,220.892,59.3089,224.892,55.3089,220.892" style="stroke:#181818;stroke-width:1;"/><line style="stroke:#181818;stroke-width:1;stroke-dasharray:2.0,2.0;" x1="53.3089" x2="282.9751" y1="220.892" y2="220.892"/><text fill="#000000" font-family="sans-serif" font-size="13" lengthAdjust="spacing" textLength="49.179" x="65.3089" y="215.083">Antwort</text><text fill="#000000" font-family="sans-serif" font-size="13" lengthAdjust="spacing" textLength="3.38" x="114.488" y="215.083">&#160;</text><text fill="#000000" font-family="sans-serif" font-size="13" lengthAdjust="spacing" textLength="26.208" x="117.868" y="215.083">(400</text><text fill="#000000" font-family="sans-serif" font-size="13" lengthAdjust="spacing" textLength="3.38" x="144.076" y="215.083">&#160;</text><text fill="#000000" font-family="sans-serif" font-size="13" lengthAdjust="spacing" textLength="23.738" x="147.456" y="215.083">Bad</text><text fill="#000000" font-family="sans-serif" font-size="13" lengthAdjust="spacing" textLength="3.38" x="171.194" y="215.083">&#160;</text><text fill="#000000" font-family="sans-serif" font-size="13" lengthAdjust="spacing" textLength="53.5991" x="174.5741" y="215.083">Request)</text><line style="stroke:#000000;stroke-width:1;stroke-dasharray:2.0,2.0;" x1="10" x2="779.2519" y1="229.892" y2="229.892"/><polygon fill="#181818" points="483.8903,250.598,493.8903,254.598,483.8903,258.598,487.8903,254.598" style="stroke:#181818;stroke-width:1;"/><line style="stroke:#181818;stroke-width:1;" x1="283.9751" x2="489.8903" y1="254.598" y2="254.598"/><text fill="#000000" font-family="sans-serif" font-size="13" lengthAdjust="spacing" textLength="71.591" x="290.9751" y="248.789">Aktualisiere</text><text fill="#000000" font-family="sans-serif" font-size="13" lengthAdjust="spacing" textLength="3.38" x="362.5662" y="248.789">&#160;</text><text fill="#000000" font-family="sans-serif" font-size="13" lengthAdjust="spacing" textLength="47.4761" x="365.9462" y="248.789">Kunden</text><text fill="#000000" font-family="sans-serif" font-size="13" lengthAdjust="spacing" textLength="3.38" x="413.4222" y="248.789">&#160;</text><text fill="#000000" font-family="sans-serif" font-size="13" lengthAdjust="spacing" textLength="20.202" x="416.8022" y="248.789">mit</text><text fill="#000000" font-family="sans-serif" font-size="13" lengthAdjust="spacing" textLength="3.38" x="437.0043" y="248.789">&#160;</text><text fill="#000000" font-family="sans-serif" font-size="13" lengthAdjust="spacing" textLength="13.897" x="440.3843" y="248.789">ID</text><text fill="#000000" font-family="sans-serif" font-size="13" lengthAdjust="spacing" textLength="3.38" x="454.2813" y="248.789">&#160;</text><text fill="#000000" font-family="sans-serif" font-size="13" lengthAdjust="spacing" textLength="21.229" x="457.6613" y="248.789">{id}</text><polygon fill="#181818" points="709.228,282.304,719.228,286.304,709.228,290.304,713.228,286.304" style="stroke:#181818;stroke-width:1;"/><line style="stroke:#181818;stroke-width:1;" x1="495.8903" x2="715.228" y1="286.304" y2="286.304"/><text fill="#000000" font-family="sans-serif" font-size="13" lengthAdjust="spacing" textLength="71.591" x="502.8903" y="280.495">Aktualisiere</text><text fill="#000000" font-family="sans-serif" font-size="13" lengthAdjust="spacing" textLength="3.38" x="574.4814" y="280.495">&#160;</text><text fill="#000000" font-family="sans-serif" font-size="13" lengthAdjust="spacing" textLength="47.4761" x="577.8614" y="280.495">Kunden</text><text fill="#000000" font-family="sans-serif" font-size="13" lengthAdjust="spacing" textLength="3.38" x="625.3374" y="280.495">&#160;</text><text fill="#000000" font-family="sans-serif" font-size="13" lengthAdjust="spacing" textLength="20.202" x="628.7174" y="280.495">mit</text><text fill="#000000" font-family="sans-serif" font-size="13" lengthAdjust="spacing" textLength="3.38" x="648.9194" y="280.495">&#160;</text><text fill="#000000" font-family="sans-serif" font-size="13" lengthAdjust="spacing" textLength="13.897" x="652.2995" y="280.495">ID</text><text fill="#000000" font-family="sans-serif" font-size="13" lengthAdjust="spacing" textLength="3.38" x="666.1965" y="280.495">&#160;</text><text fill="#000000" font-family="sans-serif" font-size="13" lengthAdjust="spacing" textLength="21.229" x="669.5765" y="280.495">{id}</text><path d="M20,301.304 L82.303,301.304 L82.303,311.01 L72.303,321.01 L20,321.01 L20,301.304 " fill="#EEEEEE" style="stroke:#000000;stroke-width:1.5;"/><rect fill="transparent" height="338.7662" style="stroke:#000000;stroke-width:1.5;" width="749.2519" x="20" y="301.304"/><text fill="#000000" font-family="sans-serif" font-size="13" font-weight="bold" lengthAdjust="spacing" textLength="17.303" x="35" y="316.201">alt</text><text fill="#000000" font-family="sans-serif" font-size="11" font-weight="bold" lengthAdjust="spacing" textLength="100.6603" x="97.303" y="315.0629">[Datenbankfehler]</text><polygon fill="#181818" points="506.8903,340.716,496.8903,344.716,506.8903,348.716,502.8903,344.716" style="stroke:#181818;stroke-width:1;"/><line style="stroke:#181818;stroke-width:1;stroke-dasharray:2.0,2.0;" x1="500.8903" x2="720.228" y1="344.716" y2="344.716"/><text fill="#000000" font-family="sans-serif" font-size="13" lengthAdjust="spacing" textLength="38.168" x="512.8903" y="338.907">Fehler</text><polygon fill="#181818" points="294.9751,372.4221,284.9751,376.4221,294.9751,380.4221,290.9751,376.4221" style="stroke:#181818;stroke-width:1;"/><line style="stroke:#181818;stroke-width:1;stroke-dasharray:2.0,2.0;" x1="288.9751" x2="494.8903" y1="376.4221" y2="376.4221"/><text fill="#000000" font-family="sans-serif" font-size="13" lengthAdjust="spacing" textLength="50.57" x="300.9751" y="370.6131">Interner</text><text fill="#000000" font-family="sans-serif" font-size="13" lengthAdjust="spacing" textLength="3.38" x="351.5452" y="370.6131">&#160;</text><text fill="#000000" font-family="sans-serif" font-size="13" lengthAdjust="spacing" textLength="75.036" x="354.9252" y="370.6131">Serverfehler</text><text fill="#000000" font-family="sans-serif" font-size="13" lengthAdjust="spacing" textLength="3.38" x="429.9612" y="370.6131">&#160;</text><text fill="#000000" font-family="sans-serif" font-size="13" lengthAdjust="spacing" textLength="30.108" x="433.3412" y="370.6131">(500)</text><polygon fill="#181818" points="59.3089,404.1281,49.3089,408.1281,59.3089,412.1281,55.3089,408.1281" style="stroke:#181818;stroke-width:1;"/><line style="stroke:#181818;stroke-width:1;stroke-dasharray:2.0,2.0;" x1="53.3089" x2="282.9751" y1="408.1281" y2="408.1281"/><text fill="#000000" font-family="sans-serif" font-size="13" lengthAdjust="spacing" textLength="49.179" x="65.3089" y="402.3191">Antwort</text><text fill="#000000" font-family="sans-serif" font-size="13" lengthAdjust="spacing" textLength="3.38" x="114.488" y="402.3191">&#160;</text><text fill="#000000" font-family="sans-serif" font-size="13" lengthAdjust="spacing" textLength="26.208" x="117.868" y="402.3191">(500</text><text fill="#000000" font-family="sans-serif" font-size="13" lengthAdjust="spacing" textLength="3.38" x="144.076" y="402.3191">&#160;</text><text fill="#000000" font-family="sans-serif" font-size="13" lengthAdjust="spacing" textLength="48.516" x="147.456" y="402.3191">Internal</text><text fill="#000000" font-family="sans-serif" font-size="13" lengthAdjust="spacing" textLength="3.38" x="195.9721" y="402.3191">&#160;</text><text fill="#000000" font-family="sans-serif" font-size="13" lengthAdjust="spacing" textLength="39.143" x="199.3521" y="402.3191">Server</text><text fill="#000000" font-family="sans-serif" font-size="13" lengthAdjust="spacing" textLength="3.38" x="238.4951" y="402.3191">&#160;</text><text fill="#000000" font-family="sans-serif" font-size="13" lengthAdjust="spacing" textLength="35.1" x="241.8751" y="402.3191">Error)</text><line style="stroke:#000000;stroke-width:1;stroke-dasharray:2.0,2.0;" x1="20" x2="769.2519" y1="417.1281" y2="417.1281"/><polygon fill="#181818" points="506.8903,437.8341,496.8903,441.8341,506.8903,445.8341,502.8903,441.8341" style="stroke:#181818;stroke-width:1;"/><line style="stroke:#181818;stroke-width:1;stroke-dasharray:2.0,2.0;" x1="500.8903" x2="720.228" y1="441.8341" y2="441.8341"/><text fill="#000000" font-family="sans-serif" font-size="13" lengthAdjust="spacing" textLength="74.1001" x="512.8903" y="436.0251">Best&#228;tigung</text><polygon fill="#181818" points="294.9751,469.5401,284.9751,473.5401,294.9751,477.5401,290.9751,473.5401" style="stroke:#181818;stroke-width:1;"/><line style="stroke:#181818;stroke-width:1;stroke-dasharray:2.0,2.0;" x1="288.9751" x2="494.8903" y1="473.5401" y2="473.5401"/><text fill="#000000" font-family="sans-serif" font-size="13" lengthAdjust="spacing" textLength="36.283" x="300.9751" y="467.7311">Erfolg</text><polygon fill="#181818" points="599.0509,501.2461,609.0509,505.2461,599.0509,509.2461,603.0509,505.2461" style="stroke:#181818;stroke-width:1;"/><line style="stroke:#181818;stroke-width:1;" x1="283.9751" x2="605.0509" y1="505.2461" y2="505.2461"/><text fill="#000000" font-family="sans-serif" font-size="13" lengthAdjust="spacing" textLength="78.5591" x="290.9751" y="499.4371">Protokolliere</text><text fill="#000000" font-family="sans-serif" font-size="13" lengthAdjust="spacing" textLength="3.38" x="369.5342" y="499.4371">&#160;</text><text fill="#000000" font-family="sans-serif" font-size="13" lengthAdjust="spacing" textLength="39.195" x="372.9142" y="499.4371">Aktion</text><polygon fill="#181818" points="709.228,532.9521,719.228,536.9521,709.228,540.9521,713.228,536.9521" style="stroke:#181818;stroke-width:1;"/><line style="stroke:#181818;stroke-width:1;" x1="611.0509" x2="715.228" y1="536.9521" y2="536.9521"/><text fill="#000000" font-family="sans-serif" font-size="13" lengthAdjust="spacing" textLength="60.125" x="618.0509" y="531.1431">Speichere</text><text fill="#000000" font-family="sans-serif" font-size="13" lengthAdjust="spacing" textLength="3.38" x="678.176" y="531.1431">&#160;</text><text fill="#000000" font-family="sans-serif" font-size="13" lengthAdjust="spacing" textLength="22.672" x="681.556" y="531.1431">Log</text><polygon fill="#181818" points="622.0509,564.6582,612.0509,568.6582,622.0509,572.6582,618.0509,568.6582" style="stroke:#181818;stroke-width:1;"/><line style="stroke:#181818;stroke-width:1;stroke-dasharray:2.0,2.0;" x1="616.0509" x2="720.228" y1="568.6582" y2="568.6582"/><text fill="#000000" font-family="sans-serif" font-size="13" lengthAdjust="spacing" textLength="74.1001" x="628.0509" y="562.8492">Best&#228;tigung</text><polygon fill="#181818" points="294.9751,596.3642,284.9751,600.3642,294.9751,604.3642,290.9751,600.3642" style="stroke:#181818;stroke-width:1;"/><line style="stroke:#181818;stroke-width:1;stroke-dasharray:2.0,2.0;" x1="288.9751" x2="610.0509" y1="600.3642" y2="600.3642"/><text fill="#000000" font-family="sans-serif" font-size="13" lengthAdjust="spacing" textLength="36.283" x="300.9751" y="594.5552">Erfolg</text><polygon fill="#181818" points="59.3089,628.0702,49.3089,632.0702,59.3089,636.0702,55.3089,632.0702" style="stroke:#181818;stroke-width:1;"/><line style="stroke:#181818;stroke-width:1;stroke-dasharray:2.0,2.0;" x1="53.3089" x2="282.9751" y1="632.0702" y2="632.0702"/><text fill="#000000" font-family="sans-serif" font-size="13" lengthAdjust="spacing" textLength="49.179" x="65.3089" y="626.2612">Antwort</text><text fill="#000000" font-family="sans-serif" font-size="13" lengthAdjust="spacing" textLength="3.38" x="114.488" y="626.2612">&#160;</text><text fill="#000000" font-family="sans-serif" font-size="13" lengthAdjust="spacing" textLength="26.208" x="117.868" y="626.2612">(200</text><text fill="#000000" font-family="sans-serif" font-size="13" lengthAdjust="spacing" textLength="3.38" x="144.076" y="626.2612">&#160;</text><text fill="#000000" font-family="sans-serif" font-size="13" lengthAdjust="spacing" textLength="22.1" x="147.456" y="626.2612">OK)</text><!--SRC=[dLBBJW914BpFL_GH3WHyNJYGoCD8q6XSyTxiDijabncScGMZyM_y36_yc3smhY0BFYQPotHNTLVLs4Ig6HgSGZ31I2-aYc6CgILXYyeKdwx9MemfaCy49uq6286XqmQ6bepWBYT3EKFbe9DPfwTaEbevezDqJpaWCvSXRTMkT5pst4M78xJ4C_qqgBLAXZJXzlo-SmbrdCdw_AWUvXss_YAZLx4Bs4VpWAcC91c27bk18uhGaHAOEXYgUFcUEXaNDIM0Jnavi_jbct2kt48R1vLJTgsD4TpHOqRMLGLva_VXMz-TOgR4PRoSNIqto5H42gRIGRyBAusRL3d8ytpQzpi2hxFh5OzG9MEQ-FmWFqKGjRBrBhQRTpRPutTVEJAA9Vj6CkkHK3bhDAexN8SDPaZEXcdE1ZrZj5aJ5NR_BAND-IpVEEXCnNyMr3DZdSO7TszjV7N-k4OxdN1fbGk79BKgu5-Dsra6CvBXn0EuerpMvenIHPlS_nUp6yGn1t4po5rNaU3x0G00]--></g></svg>