<?xml version="1.0" encoding="UTF-8" standalone="no"?>
<!DOCTYPE svg PUBLIC "-//W3C//DTD SVG 1.1//EN"
 "http://www.w3.org/Graphics/SVG/1.1/DTD/svg11.dtd">
<!-- Generated by graphviz version 12.2.1 (0)
 -->
<!-- Title: DataFlowDiagram Pages: 1 -->
<svg width="1398pt" height="417pt"
 viewBox="0.00 0.00 1398.25 417.05" xmlns="http://www.w3.org/2000/svg" xmlns:xlink="http://www.w3.org/1999/xlink">
<g id="graph0" class="graph" transform="scale(1 1) rotate(0) translate(4 413.05)">
<title>DataFlowDiagram</title>
<polygon fill="white" stroke="none" points="-4,4 -4,-413.05 1394.25,-413.05 1394.25,4 -4,4"/>
<g id="clust1" class="cluster">
<title>cluster_controllers</title>
<polygon fill="none" stroke="lightblue" points="419.75,-75.17 419.75,-365.17 571.75,-365.17 571.75,-75.17 419.75,-75.17"/>
<text text-anchor="middle" x="495.75" y="-349.77" font-family="Arial" font-size="12.00">Controllers</text>
</g>
<g id="clust2" class="cluster">
<title>cluster_services</title>
<polygon fill="none" stroke="lightblue" points="822,-74.17 822,-364.17 962,-364.17 962,-74.17 822,-74.17"/>
<text text-anchor="middle" x="892" y="-348.77" font-family="Arial" font-size="12.00">Services</text>
</g>
<g id="clust3" class="cluster">
<title>cluster_models</title>
<polygon fill="none" stroke="lightblue" points="1114.75,-49.17 1114.75,-339.17 1214.25,-339.17 1214.25,-49.17 1114.75,-49.17"/>
<text text-anchor="middle" x="1164.5" y="-323.77" font-family="Arial" font-size="12.00">Models</text>
</g>
<!-- Frontend -->
<g id="node1" class="node">
<title>Frontend</title>
<polygon fill="#e6ffe6" stroke="black" points="113.5,-227.42 0,-227.42 0,-190.92 113.5,-190.92 113.5,-227.42"/>
<text text-anchor="middle" x="56.75" y="-212.02" font-family="Arial" font-size="12.00">Frontend</text>
<text text-anchor="middle" x="56.75" y="-197.77" font-family="Arial" font-size="12.00">(Sendet Anfragen)</text>
</g>
<!-- UserController -->
<g id="node2" class="node">
<title>UserController</title>
<polygon fill="#f0f8ff" stroke="black" points="542.75,-173.17 448.75,-173.17 448.75,-137.17 542.75,-137.17 542.75,-173.17"/>
<text text-anchor="middle" x="495.75" y="-150.9" font-family="Arial" font-size="12.00">UserController</text>
</g>
<!-- Frontend&#45;&gt;UserController -->
<g id="edge1" class="edge">
<title>Frontend&#45;&gt;UserController</title>
<path fill="none" stroke="black" d="M62.74,-190.64C71.43,-162.58 92.25,-110.22 131.5,-88.17 158.46,-73.03 385.38,-69.15 409.75,-88.17 424.19,-99.45 407.46,-114.58 419.75,-128.17 424.86,-133.83 431.25,-138.3 438.12,-141.84"/>
<polygon fill="black" stroke="black" points="436.5,-144.95 447.07,-145.77 439.32,-138.54 436.5,-144.95"/>
<text text-anchor="middle" x="270.62" y="-90.67" font-family="Arial" font-size="10.00">Login/Registrierung/Benutzer abrufen</text>
</g>
<!-- Frontend&#45;&gt;UserController -->
<g id="edge6" class="edge">
<title>Frontend&#45;&gt;UserController</title>
<path fill="none" stroke="black" d="M84.08,-190.53C97.59,-182.04 114.71,-172.85 131.5,-168.17 236.23,-139.01 364.52,-143.21 437.22,-149.08"/>
<polygon fill="black" stroke="black" points="436.63,-152.54 446.89,-149.9 437.22,-145.57 436.63,-152.54"/>
<text text-anchor="middle" x="270.62" y="-170.67" font-family="Arial" font-size="10.00">Benutzerliste/Mitarbeiterliste/Einstellungen abrufen/aktualisieren</text>
</g>
<!-- Frontend&#45;&gt;UserController -->
<g id="edge7" class="edge">
<title>Frontend&#45;&gt;UserController</title>
<path fill="none" stroke="black" d="M68.26,-190.78C80.57,-171.3 102.95,-141.68 131.5,-129.17 232.16,-85.06 363.6,-112.84 437.61,-135.22"/>
<polygon fill="black" stroke="black" points="436.51,-138.54 447.1,-138.17 438.58,-131.86 436.51,-138.54"/>
<text text-anchor="middle" x="270.62" y="-131.67" font-family="Arial" font-size="10.00">Benutzertermine abrufen</text>
</g>
<!-- TransactionController -->
<g id="node3" class="node">
<title>TransactionController</title>
<polygon fill="#f0f8ff" stroke="black" points="561.12,-335.17 430.38,-335.17 430.38,-299.17 561.12,-299.17 561.12,-335.17"/>
<text text-anchor="middle" x="495.75" y="-312.9" font-family="Arial" font-size="12.00">TransactionController</text>
</g>
<!-- Frontend&#45;&gt;TransactionController -->
<g id="edge2" class="edge">
<title>Frontend&#45;&gt;TransactionController</title>
<path fill="none" stroke="black" d="M61.53,-227.89C68.88,-258.76 88.34,-319.48 131.5,-345.17 228.11,-402.68 365.69,-366.83 440.77,-339.54"/>
<polygon fill="black" stroke="black" points="441.81,-342.88 449.96,-336.11 439.37,-336.32 441.81,-342.88"/>
<text text-anchor="middle" x="270.62" y="-378.38" font-family="Arial" font-size="10.00">Transaktion erstellen/abrufen/aktualisieren</text>
</g>
<!-- Frontend&#45;&gt;TransactionController -->
<g id="edge9" class="edge">
<title>Frontend&#45;&gt;TransactionController</title>
<path fill="none" stroke="black" d="M65.1,-227.84C75.71,-251.88 97.79,-292.64 131.5,-310.17 179.59,-335.19 326.88,-329.77 418.47,-323.5"/>
<polygon fill="black" stroke="black" points="418.66,-327 428.39,-322.8 418.17,-320.02 418.66,-327"/>
<text text-anchor="middle" x="270.62" y="-331.26" font-family="Arial" font-size="10.00">Alle Transaktionen abrufen</text>
</g>
<!-- AppointmentController -->
<g id="node4" class="node">
<title>AppointmentController</title>
<polygon fill="#f0f8ff" stroke="black" points="563.75,-227.17 427.75,-227.17 427.75,-191.17 563.75,-191.17 563.75,-227.17"/>
<text text-anchor="middle" x="495.75" y="-204.9" font-family="Arial" font-size="12.00">AppointmentController</text>
</g>
<!-- Frontend&#45;&gt;AppointmentController -->
<g id="edge3" class="edge">
<title>Frontend&#45;&gt;AppointmentController</title>
<path fill="none" stroke="black" d="M113.92,-195.69C119.83,-194.66 125.77,-193.79 131.5,-193.17 254.46,-179.99 286.62,-181.68 409.75,-193.17 411.94,-193.38 414.15,-193.61 416.38,-193.87"/>
<polygon fill="black" stroke="black" points="415.76,-197.32 426.14,-195.15 416.68,-190.38 415.76,-197.32"/>
<text text-anchor="middle" x="270.62" y="-195.67" font-family="Arial" font-size="10.00">Termin erstellen/aktualisieren/löschen</text>
</g>
<!-- Frontend&#45;&gt;AppointmentController -->
<g id="edge10" class="edge">
<title>Frontend&#45;&gt;AppointmentController</title>
<path fill="none" stroke="black" d="M113.99,-209.17C190.76,-209.17 328.77,-209.17 415.86,-209.17"/>
<polygon fill="black" stroke="black" points="415.76,-212.67 425.76,-209.17 415.76,-205.67 415.76,-212.67"/>
<text text-anchor="middle" x="270.62" y="-211.67" font-family="Arial" font-size="10.00">Termine abrufen</text>
</g>
<!-- CustomerController -->
<g id="node5" class="node">
<title>CustomerController</title>
<polygon fill="#f0f8ff" stroke="black" points="555.88,-281.17 435.62,-281.17 435.62,-245.17 555.88,-245.17 555.88,-281.17"/>
<text text-anchor="middle" x="495.75" y="-258.9" font-family="Arial" font-size="12.00">CustomerController</text>
</g>
<!-- Frontend&#45;&gt;CustomerController -->
<g id="edge4" class="edge">
<title>Frontend&#45;&gt;CustomerController</title>
<path fill="none" stroke="black" d="M113.6,-221.96C119.62,-223.14 125.68,-224.24 131.5,-225.17 232.53,-241.37 350.52,-252.24 423.95,-258.07"/>
<polygon fill="black" stroke="black" points="423.59,-261.55 433.84,-258.85 424.14,-254.58 423.59,-261.55"/>
<text text-anchor="middle" x="270.62" y="-259.08" font-family="Arial" font-size="10.00">Kunde erstellen/abrufen/aktualisieren/löschen</text>
</g>
<!-- Frontend&#45;&gt;CustomerController -->
<g id="edge8" class="edge">
<title>Frontend&#45;&gt;CustomerController</title>
<path fill="none" stroke="black" d="M72.75,-227.83C86.27,-243.03 107.64,-263.37 131.5,-272.17 228.04,-307.79 349.04,-294.36 424.13,-279.93"/>
<polygon fill="black" stroke="black" points="424.71,-283.39 433.84,-278 423.35,-276.52 424.71,-283.39"/>
<text text-anchor="middle" x="270.62" y="-297.38" font-family="Arial" font-size="10.00">Kundentermine abrufen</text>
</g>
<!-- LogController -->
<g id="node6" class="node">
<title>LogController</title>
<polygon fill="#f0f8ff" stroke="black" points="540.12,-119.17 451.38,-119.17 451.38,-83.17 540.12,-83.17 540.12,-119.17"/>
<text text-anchor="middle" x="495.75" y="-96.9" font-family="Arial" font-size="12.00">LogController</text>
</g>
<!-- Frontend&#45;&gt;LogController -->
<g id="edge5" class="edge">
<title>Frontend&#45;&gt;LogController</title>
<path fill="none" stroke="black" d="M60.55,-190.48C66.65,-157.19 84.57,-88.39 131.5,-59.17 236.48,6.19 289.32,-31.04 409.75,-59.17 425.74,-62.91 442.18,-70.11 456.29,-77.51"/>
<polygon fill="black" stroke="black" points="454.33,-80.43 464.78,-82.16 457.69,-74.29 454.33,-80.43"/>
<text text-anchor="middle" x="270.62" y="-61.67" font-family="Arial" font-size="10.00">Logs abrufen</text>
</g>
<!-- UserService -->
<g id="node7" class="node">
<title>UserService</title>
<polygon fill="#f0f8ff" stroke="black" points="933,-172.17 851,-172.17 851,-136.17 933,-136.17 933,-172.17"/>
<text text-anchor="middle" x="892" y="-149.9" font-family="Arial" font-size="12.00">UserService</text>
</g>
<!-- UserController&#45;&gt;UserService -->
<g id="edge11" class="edge">
<title>UserController&#45;&gt;UserService</title>
<path fill="none" stroke="black" d="M543.13,-155.05C617.29,-154.87 762.03,-154.5 839.37,-154.3"/>
<polygon fill="black" stroke="black" points="839.22,-157.8 849.21,-154.28 839.2,-150.8 839.22,-157.8"/>
<text text-anchor="middle" x="696.88" y="-157.46" font-family="Arial" font-size="10.00">Benutzeroperationen ausführen</text>
</g>
<!-- UserController&#45;&gt;UserService -->
<g id="edge16" class="edge">
<title>UserController&#45;&gt;UserService</title>
<path fill="none" stroke="black" d="M542.82,-144.24C555.37,-141.73 569.02,-139.43 581.75,-138.17 683.59,-128.09 710.18,-127.97 812,-138.17 820.91,-139.07 830.3,-140.51 839.37,-142.18"/>
<polygon fill="black" stroke="black" points="838.67,-145.61 849.16,-144.09 840.01,-138.74 838.67,-145.61"/>
<text text-anchor="middle" x="696.88" y="-140.67" font-family="Arial" font-size="10.00">Benutzerliste/Mitarbeiterliste/Einstellungen verwalten</text>
</g>
<!-- UserController&#45;&gt;UserService -->
<g id="edge17" class="edge">
<title>UserController&#45;&gt;UserService</title>
<path fill="none" stroke="black" d="M543.02,-143.47C553.08,-139.61 563.25,-134.6 571.75,-128.17 577.85,-123.56 574.95,-117.67 581.75,-114.17 672.74,-67.35 720.19,-68.97 812,-114.17 818.54,-117.39 816.17,-122.8 822,-127.17 827.6,-131.38 833.95,-135.02 840.46,-138.14"/>
<polygon fill="black" stroke="black" points="838.8,-141.24 849.37,-142.02 841.6,-134.82 838.8,-141.24"/>
<text text-anchor="middle" x="696.88" y="-116.67" font-family="Arial" font-size="10.00">Benutzertermine abrufen</text>
</g>
<!-- TransactionService -->
<g id="node8" class="node">
<title>TransactionService</title>
<polygon fill="#f0f8ff" stroke="black" points="951.38,-334.17 832.62,-334.17 832.62,-298.17 951.38,-298.17 951.38,-334.17"/>
<text text-anchor="middle" x="892" y="-311.9" font-family="Arial" font-size="12.00">TransactionService</text>
</g>
<!-- TransactionController&#45;&gt;TransactionService -->
<g id="edge12" class="edge">
<title>TransactionController&#45;&gt;TransactionService</title>
<path fill="none" stroke="black" d="M543.74,-335.6C555.93,-339.56 569.17,-343.15 581.75,-345.17 682.79,-361.39 711.25,-363.08 812,-345.17 820.7,-343.63 829.7,-341.19 838.36,-338.38"/>
<polygon fill="black" stroke="black" points="839.39,-341.73 847.69,-335.14 837.1,-335.11 839.39,-341.73"/>
<text text-anchor="middle" x="696.88" y="-360.47" font-family="Arial" font-size="10.00">Transaktionsoperationen ausführen</text>
</g>
<!-- TransactionController&#45;&gt;TransactionService -->
<g id="edge19" class="edge">
<title>TransactionController&#45;&gt;TransactionService</title>
<path fill="none" stroke="black" d="M561.41,-317.01C632.85,-316.83 747.48,-316.54 820.99,-316.35"/>
<polygon fill="black" stroke="black" points="820.91,-319.85 830.91,-316.33 820.9,-312.85 820.91,-319.85"/>
<text text-anchor="middle" x="696.88" y="-319.46" font-family="Arial" font-size="10.00">Alle Transaktionen verwalten</text>
</g>
<!-- AppointmentService -->
<g id="node9" class="node">
<title>AppointmentService</title>
<polygon fill="#f0f8ff" stroke="black" points="954,-226.17 830,-226.17 830,-190.17 954,-190.17 954,-226.17"/>
<text text-anchor="middle" x="892" y="-203.9" font-family="Arial" font-size="12.00">AppointmentService</text>
</g>
<!-- AppointmentController&#45;&gt;AppointmentService -->
<g id="edge13" class="edge">
<title>AppointmentController&#45;&gt;AppointmentService</title>
<path fill="none" stroke="black" d="M563.86,-195.35C569.89,-194.47 575.92,-193.72 581.75,-193.17 683.64,-183.67 710.12,-183.59 812,-193.17 814.19,-193.38 816.41,-193.62 818.64,-193.88"/>
<polygon fill="black" stroke="black" points="818.04,-197.33 828.42,-195.2 818.98,-190.39 818.04,-197.33"/>
<text text-anchor="middle" x="696.88" y="-195.67" font-family="Arial" font-size="10.00">Terminkalenderoperationen ausführen</text>
</g>
<!-- AppointmentController&#45;&gt;AppointmentService -->
<g id="edge20" class="edge">
<title>AppointmentController&#45;&gt;AppointmentService</title>
<path fill="none" stroke="black" d="M564.08,-209C634.85,-208.82 745.79,-208.54 818.46,-208.36"/>
<polygon fill="black" stroke="black" points="818.28,-211.86 828.27,-208.33 818.26,-204.86 818.28,-211.86"/>
<text text-anchor="middle" x="696.88" y="-211.46" font-family="Arial" font-size="10.00">Termine verwalten</text>
</g>
<!-- CustomerService -->
<g id="node10" class="node">
<title>CustomerService</title>
<polygon fill="#f0f8ff" stroke="black" points="946.12,-280.17 837.88,-280.17 837.88,-244.17 946.12,-244.17 946.12,-280.17"/>
<text text-anchor="middle" x="892" y="-257.9" font-family="Arial" font-size="12.00">CustomerService</text>
</g>
<!-- CustomerController&#45;&gt;CustomerService -->
<g id="edge14" class="edge">
<title>CustomerController&#45;&gt;CustomerService</title>
<path fill="none" stroke="black" d="M556.2,-263.02C628.84,-262.84 751.28,-262.53 826.25,-262.34"/>
<polygon fill="black" stroke="black" points="825.9,-265.84 835.89,-262.31 825.88,-258.84 825.9,-265.84"/>
<text text-anchor="middle" x="696.88" y="-265.46" font-family="Arial" font-size="10.00">Kundenoperationen ausführen</text>
</g>
<!-- CustomerController&#45;&gt;CustomerService -->
<g id="edge18" class="edge">
<title>CustomerController&#45;&gt;CustomerService</title>
<path fill="none" stroke="black" d="M556.08,-272.63C564.67,-273.68 573.42,-274.59 581.75,-275.17 683.83,-282.34 710.01,-283.51 812,-275.17 816.68,-274.79 821.49,-274.28 826.33,-273.69"/>
<polygon fill="black" stroke="black" points="826.66,-277.18 836.1,-272.37 825.72,-270.24 826.66,-277.18"/>
<text text-anchor="middle" x="696.88" y="-283.5" font-family="Arial" font-size="10.00">Kundentermine verwalten</text>
</g>
<!-- LogService -->
<g id="node11" class="node">
<title>LogService</title>
<polygon fill="#f0f8ff" stroke="black" points="930.38,-118.17 853.62,-118.17 853.62,-82.17 930.38,-82.17 930.38,-118.17"/>
<text text-anchor="middle" x="892" y="-95.9" font-family="Arial" font-size="12.00">LogService</text>
</g>
<!-- LogController&#45;&gt;LogService -->
<g id="edge15" class="edge">
<title>LogController&#45;&gt;LogService</title>
<path fill="none" stroke="black" d="M521.3,-82.79C537.53,-71.83 559.79,-58.95 581.75,-53.17 680.72,-27.16 713.33,-26.04 812,-53.17 828.34,-57.67 844.73,-66.52 858.3,-75.35"/>
<polygon fill="black" stroke="black" points="856.16,-78.12 866.4,-80.85 860.1,-72.34 856.16,-78.12"/>
<text text-anchor="middle" x="696.88" y="-55.67" font-family="Arial" font-size="10.00">Logoperationen ausführen</text>
</g>
<!-- User -->
<g id="node12" class="node">
<title>User</title>
<polygon fill="#f0f8ff" stroke="black" points="1191.5,-255.17 1137.5,-255.17 1137.5,-219.17 1191.5,-219.17 1191.5,-255.17"/>
<text text-anchor="middle" x="1164.5" y="-232.9" font-family="Arial" font-size="12.00">User</text>
</g>
<!-- UserService&#45;&gt;User -->
<g id="edge21" class="edge">
<title>UserService&#45;&gt;User</title>
<path fill="none" stroke="black" d="M933.28,-143.73C980.16,-134.19 1057.21,-126.99 1104.75,-167.17 1119.73,-179.84 1102.93,-194.51 1114.75,-210.17 1118.23,-214.78 1122.74,-218.71 1127.61,-222.03"/>
<polygon fill="black" stroke="black" points="1125.54,-224.87 1135.94,-226.9 1129.07,-218.83 1125.54,-224.87"/>
<text text-anchor="middle" x="1038.38" y="-169.67" font-family="Arial" font-size="10.00">CRUD&#45;Vorgänge</text>
</g>
<!-- Appointment -->
<g id="node14" class="node">
<title>Appointment</title>
<polygon fill="#f0f8ff" stroke="black" points="1206.25,-147.17 1122.75,-147.17 1122.75,-111.17 1206.25,-111.17 1206.25,-147.17"/>
<text text-anchor="middle" x="1164.5" y="-124.9" font-family="Arial" font-size="12.00">Appointment</text>
</g>
<!-- UserService&#45;&gt;Appointment -->
<g id="edge26" class="edge">
<title>UserService&#45;&gt;Appointment</title>
<path fill="none" stroke="black" d="M933.4,-146.33C944.21,-142.32 954.85,-136.28 962,-127.17 982.76,-100.71 946.7,-74.32 972,-52.17 994.2,-32.74 1081.94,-33.47 1104.75,-52.17 1122.28,-66.54 1101.38,-83.88 1114.75,-102.17 1114.97,-102.48 1115.2,-102.78 1115.44,-103.09"/>
<polygon fill="black" stroke="black" points="1112.69,-105.28 1122.22,-109.92 1117.66,-100.35 1112.69,-105.28"/>
<text text-anchor="middle" x="1038.38" y="-54.67" font-family="Arial" font-size="10.00">Benutzertermine abrufen</text>
</g>
<!-- Customer -->
<g id="node15" class="node">
<title>Customer</title>
<polygon fill="#f0f8ff" stroke="black" points="1198.38,-201.17 1130.62,-201.17 1130.62,-165.17 1198.38,-165.17 1198.38,-201.17"/>
<text text-anchor="middle" x="1164.5" y="-178.9" font-family="Arial" font-size="12.00">Customer</text>
</g>
<!-- UserService&#45;&gt;Customer -->
<g id="edge27" class="edge">
<title>UserService&#45;&gt;Customer</title>
<path fill="none" stroke="black" d="M933.49,-145.53C944.03,-141.52 954.52,-135.67 962,-127.17 974.1,-113.41 957.56,-98.45 972,-87.17 995.25,-69.02 1082.44,-67.87 1104.75,-87.17 1128.18,-107.45 1097.14,-130.68 1114.75,-156.17 1116.61,-158.86 1118.82,-161.31 1121.26,-163.53"/>
<polygon fill="black" stroke="black" points="1118.96,-166.18 1129.07,-169.36 1123.15,-160.57 1118.96,-166.18"/>
<text text-anchor="middle" x="1038.38" y="-89.67" font-family="Arial" font-size="10.00">Kundeninformationen abrufen</text>
</g>
<!-- TransactionService&#45;&gt;User -->
<g id="edge30" class="edge">
<title>TransactionService&#45;&gt;User</title>
<path fill="none" stroke="black" d="M936.58,-334.59C947.91,-338.55 960.24,-342.15 972,-344.17 1030.15,-354.17 1060.52,-383.22 1104.75,-344.17 1118.18,-332.32 1104.71,-279.01 1114.75,-264.17 1118.02,-259.34 1122.46,-255.28 1127.33,-251.91"/>
<polygon fill="black" stroke="black" points="1128.87,-255.06 1135.73,-246.99 1125.33,-249.02 1128.87,-255.06"/>
<text text-anchor="middle" x="1038.38" y="-366.47" font-family="Arial" font-size="10.00">Benutzerinformationen abrufen</text>
</g>
<!-- Transaction -->
<g id="node13" class="node">
<title>Transaction</title>
<polygon fill="#f0f8ff" stroke="black" points="1203.62,-309.17 1125.38,-309.17 1125.38,-273.17 1203.62,-273.17 1203.62,-309.17"/>
<text text-anchor="middle" x="1164.5" y="-286.9" font-family="Arial" font-size="12.00">Transaction</text>
</g>
<!-- TransactionService&#45;&gt;Transaction -->
<g id="edge22" class="edge">
<title>TransactionService&#45;&gt;Transaction</title>
<path fill="none" stroke="black" d="M909.06,-334.56C923.7,-349.81 946.83,-370.37 972,-379.17 1027.69,-398.66 1052.72,-407 1104.75,-379.17 1128.09,-366.69 1143.77,-340.38 1153.02,-319.76"/>
<polygon fill="black" stroke="black" points="1156.18,-321.28 1156.8,-310.7 1149.72,-318.58 1156.18,-321.28"/>
<text text-anchor="middle" x="1038.38" y="-399.55" font-family="Arial" font-size="10.00">CRUD&#45;Vorgänge</text>
</g>
<!-- TransactionService&#45;&gt;Customer -->
<g id="edge31" class="edge">
<title>TransactionService&#45;&gt;Customer</title>
<path fill="none" stroke="black" d="M951.79,-320.69C1006.78,-323.51 1083.54,-323.43 1104.75,-303.17 1119.78,-288.82 1103.25,-227.49 1114.75,-210.17 1116.58,-207.41 1118.79,-204.91 1121.25,-202.64"/>
<polygon fill="black" stroke="black" points="1123.25,-205.52 1129.16,-196.73 1119.06,-199.92 1123.25,-205.52"/>
<text text-anchor="middle" x="1038.38" y="-324.5" font-family="Arial" font-size="10.00">Kundeninformationen abrufen</text>
</g>
<!-- AppointmentService&#45;&gt;User -->
<g id="edge28" class="edge">
<title>AppointmentService&#45;&gt;User</title>
<path fill="none" stroke="black" d="M954.3,-212.38C996.65,-215.61 1054.24,-220.62 1104.75,-227.17 1111.67,-228.07 1119.02,-229.19 1126.09,-230.35"/>
<polygon fill="black" stroke="black" points="1125.31,-233.77 1135.75,-231.99 1126.48,-226.87 1125.31,-233.77"/>
<text text-anchor="middle" x="1038.38" y="-229.67" font-family="Arial" font-size="10.00">Teilnehmer abrufen</text>
</g>
<!-- AppointmentService&#45;&gt;Appointment -->
<g id="edge23" class="edge">
<title>AppointmentService&#45;&gt;Appointment</title>
<path fill="none" stroke="black" d="M952.76,-189.9C956.19,-187.36 959.32,-184.47 962,-181.17 978.78,-160.54 951.68,-139.34 972,-122.17 1010.03,-90.05 1069.02,-97.87 1111.48,-109.91"/>
<polygon fill="black" stroke="black" points="1110.41,-113.24 1121,-112.78 1112.43,-106.54 1110.41,-113.24"/>
<text text-anchor="middle" x="1038.38" y="-124.67" font-family="Arial" font-size="10.00">CRUD&#45;Vorgänge</text>
</g>
<!-- AppointmentService&#45;&gt;Customer -->
<g id="edge29" class="edge">
<title>AppointmentService&#45;&gt;Customer</title>
<path fill="none" stroke="black" d="M954.09,-194.84C960.12,-193.81 966.17,-192.9 972,-192.17 1021.99,-185.97 1079.8,-183.96 1118.72,-183.35"/>
<polygon fill="black" stroke="black" points="1118.69,-186.85 1128.64,-183.22 1118.6,-179.85 1118.69,-186.85"/>
<text text-anchor="middle" x="1038.38" y="-194.67" font-family="Arial" font-size="10.00">Teilnehmer abrufen</text>
</g>
<!-- CustomerService&#45;&gt;User -->
<g id="edge32" class="edge">
<title>CustomerService&#45;&gt;User</title>
<path fill="none" stroke="black" d="M946.49,-277.71C990.65,-287.66 1054.06,-295.17 1104.75,-274.17 1110.56,-271.77 1109.73,-267.95 1114.75,-264.17 1118.73,-261.18 1123.07,-258.3 1127.48,-255.6"/>
<polygon fill="black" stroke="black" points="1128.89,-258.83 1135.8,-250.79 1125.39,-252.77 1128.89,-258.83"/>
<text text-anchor="middle" x="1038.38" y="-290.09" font-family="Arial" font-size="10.00">Manager zuweisen</text>
</g>
<!-- CustomerService&#45;&gt;Customer -->
<g id="edge24" class="edge">
<title>CustomerService&#45;&gt;Customer</title>
<path fill="none" stroke="black" d="M946.56,-259.32C1005.21,-255.74 1092.61,-248.86 1104.75,-239.17 1115.41,-230.67 1105.98,-220.61 1114.75,-210.17 1116.76,-207.78 1119.04,-205.55 1121.5,-203.5"/>
<polygon fill="black" stroke="black" points="1123.02,-206.72 1129.11,-198.04 1118.94,-201.03 1123.02,-206.72"/>
<text text-anchor="middle" x="1038.38" y="-260.03" font-family="Arial" font-size="10.00">CRUD&#45;Vorgänge</text>
</g>
<!-- Log -->
<g id="node16" class="node">
<title>Log</title>
<polygon fill="#f0f8ff" stroke="black" points="1191.5,-93.17 1137.5,-93.17 1137.5,-57.17 1191.5,-57.17 1191.5,-93.17"/>
<text text-anchor="middle" x="1164.5" y="-70.9" font-family="Arial" font-size="12.00">Log</text>
</g>
<!-- LogService&#45;&gt;Log -->
<g id="edge25" class="edge">
<title>LogService&#45;&gt;Log</title>
<path fill="none" stroke="black" d="M903.93,-81.8C917.15,-61.6 941.47,-30.26 972,-17.17 1026.23,6.08 1050.17,5.23 1104.75,-17.17 1120.28,-23.55 1133.9,-36.23 1144.11,-48.12"/>
<polygon fill="black" stroke="black" points="1141.26,-50.17 1150.27,-55.76 1146.71,-45.78 1141.26,-50.17"/>
<text text-anchor="middle" x="1038.38" y="-19.67" font-family="Arial" font-size="10.00">CRUD&#45;Vorgänge</text>
</g>
<!-- Database -->
<g id="node17" class="node">
<title>Database</title>
<polygon fill="#ffe6e6" stroke="black" points="1390.25,-201.17 1322.5,-201.17 1322.5,-165.17 1390.25,-165.17 1390.25,-201.17"/>
<text text-anchor="middle" x="1356.38" y="-178.9" font-family="Arial" font-size="12.00">Database</text>
</g>
<!-- User&#45;&gt;Database -->
<g id="edge33" class="edge">
<title>User&#45;&gt;Database</title>
<path fill="none" stroke="black" d="M1191.97,-230.25C1220,-222.86 1265.5,-210.63 1304.5,-199.17 1306.72,-198.52 1308.99,-197.84 1311.29,-197.15"/>
<polygon fill="black" stroke="black" points="1312.06,-200.57 1320.6,-194.3 1310.01,-193.88 1312.06,-200.57"/>
<text text-anchor="middle" x="1264.38" y="-223.8" font-family="Arial" font-size="10.00">Speichern/Abrufen</text>
</g>
<!-- Transaction&#45;&gt;Database -->
<g id="edge34" class="edge">
<title>Transaction&#45;&gt;Database</title>
<path fill="none" stroke="black" d="M1203.98,-281.26C1233.19,-272.59 1273.47,-258.07 1304.5,-237.17 1315.54,-229.73 1325.96,-219.5 1334.46,-209.94"/>
<polygon fill="black" stroke="black" points="1336.89,-212.48 1340.71,-202.6 1331.56,-207.95 1336.89,-212.48"/>
<text text-anchor="middle" x="1264.38" y="-277.16" font-family="Arial" font-size="10.00">Speichern/Abrufen</text>
</g>
<!-- Appointment&#45;&gt;Database -->
<g id="edge35" class="edge">
<title>Appointment&#45;&gt;Database</title>
<path fill="none" stroke="black" d="M1206.67,-139.99C1234.39,-147.38 1271.74,-157.55 1304.5,-167.17 1306.72,-167.83 1308.99,-168.5 1311.29,-169.19"/>
<polygon fill="black" stroke="black" points="1310.01,-172.46 1320.6,-172.05 1312.06,-165.77 1310.01,-172.46"/>
<text text-anchor="middle" x="1264.38" y="-169.67" font-family="Arial" font-size="10.00">Speichern/Abrufen</text>
</g>
<!-- Customer&#45;&gt;Database -->
<g id="edge36" class="edge">
<title>Customer&#45;&gt;Database</title>
<path fill="none" stroke="black" d="M1198.57,-183.17C1229.69,-183.17 1276.52,-183.17 1310.9,-183.17"/>
<polygon fill="black" stroke="black" points="1310.53,-186.67 1320.53,-183.17 1310.53,-179.67 1310.53,-186.67"/>
<text text-anchor="middle" x="1264.38" y="-185.67" font-family="Arial" font-size="10.00">Speichern/Abrufen</text>
</g>
<!-- Log&#45;&gt;Database -->
<g id="edge37" class="edge">
<title>Log&#45;&gt;Database</title>
<path fill="none" stroke="black" d="M1191.74,-81.6C1220.99,-89.58 1268.86,-105.16 1304.5,-129.17 1315.54,-136.61 1325.96,-146.85 1334.46,-156.41"/>
<polygon fill="black" stroke="black" points="1331.56,-158.4 1340.71,-163.74 1336.89,-153.86 1331.56,-158.4"/>
<text text-anchor="middle" x="1264.38" y="-131.67" font-family="Arial" font-size="10.00">Speichern/Abrufen</text>
</g>
</g>
</svg>
