<svg xmlns="http://www.w3.org/2000/svg" xmlns:xlink="http://www.w3.org/1999/xlink" contentStyleType="text/css" data-diagram-type="CLASS" height="608px" preserveAspectRatio="none" style="width:1295px;height:608px;background:#FFFFFF;" version="1.1" viewBox="0 0 1295 608" width="1295px" zoomAndPan="magnify"><defs/><g><!--class User--><g id="elem_User"><rect codeLine="1" fill="#F1F1F1" height="276.815" id="User" rx="2.5" ry="2.5" style="stroke:#181818;stroke-width:0.5;" width="1009.9723" x="278.63" y="7"/><ellipse cx="764.0572" cy="23" fill="#ADD1B2" rx="11" ry="11" style="stroke:#181818;stroke-width:1;"/><path d="M763.526,29.9219 Q761.776,29.9219 760.6353,29.1875 Q759.5103,28.4375 758.9478,27.0938 Q758.401,25.7344 758.401,23.9375 Q758.401,21.9063 759.0572,20.4531 Q759.7135,19 760.9947,18.2188 Q762.276,17.4375 764.151,17.4375 Q765.0416,17.4375 765.7135,17.625 Q766.3853,17.7969 767.0728,18.1406 L766.2603,20.1563 Q765.6353,19.8438 765.0885,19.7188 Q764.5572,19.5938 764.0728,19.5938 Q762.901,19.5938 762.1978,20.125 Q761.4947,20.6563 761.1978,21.6094 Q760.901,22.5625 760.901,23.8281 Q760.901,25.8438 761.6197,26.8125 Q762.3385,27.7656 763.9322,27.7656 Q764.526,27.7656 765.151,27.6094 Q765.776,27.4531 766.6041,27.0781 L766.6041,29.2969 Q765.8697,29.6094 765.0728,29.7656 Q764.2916,29.9219 763.526,29.9219 Z " fill="#000000"/><text fill="#000000" font-family="sans-serif" font-size="14" lengthAdjust="spacing" textLength="30.6179" x="784.5572" y="28.432">User</text><line style="stroke:#181818;stroke-width:0.5;" x1="279.63" x2="1287.6023" y1="39" y2="39"/><rect fill="transparent" height="6" style="stroke:#C82930;stroke-width:1;" width="6" x="286.63" y="51.034"/><text fill="#000000" font-family="sans-serif" font-size="14" lengthAdjust="spacing" textLength="51.2958" x="298.63" y="57.9659">UUID id</text><rect fill="transparent" height="6" style="stroke:#C82930;stroke-width:1;" width="6" x="286.63" y="70.1019"/><text fill="#000000" font-family="sans-serif" font-size="14" lengthAdjust="spacing" textLength="80.5277" x="298.63" y="77.0339">String name</text><rect fill="transparent" height="6" style="stroke:#C82930;stroke-width:1;" width="6" x="286.63" y="89.1698"/><text fill="#000000" font-family="sans-serif" font-size="14" lengthAdjust="spacing" textLength="101.6676" x="298.63" y="96.1018">String surname</text><rect fill="transparent" height="6" style="stroke:#C82930;stroke-width:1;" width="6" x="286.63" y="108.2377"/><text fill="#000000" font-family="sans-serif" font-size="14" lengthAdjust="spacing" textLength="79.0997" x="298.63" y="115.1697">String email</text><rect fill="transparent" height="6" style="stroke:#C82930;stroke-width:1;" width="6" x="286.63" y="127.3056"/><text fill="#000000" font-family="sans-serif" font-size="14" lengthAdjust="spacing" textLength="140.3635" x="298.63" y="134.2376">String passwordHash</text><rect fill="transparent" height="6" style="stroke:#C82930;stroke-width:1;" width="6" x="286.63" y="146.3735"/><text fill="#000000" font-family="sans-serif" font-size="14" lengthAdjust="spacing" textLength="58.0858" x="298.63" y="153.3055">Role role</text><rect fill="transparent" height="6" style="stroke:#C82930;stroke-width:1;" width="6" x="286.63" y="165.4415"/><text fill="#000000" font-family="sans-serif" font-size="14" lengthAdjust="spacing" textLength="125.0895" x="298.63" y="172.3734">Boolean darkMode</text><rect fill="transparent" height="6" style="stroke:#C82930;stroke-width:1;" width="6" x="286.63" y="184.5094"/><text fill="#000000" font-family="sans-serif" font-size="14" lengthAdjust="spacing" textLength="186.9413" x="298.63" y="191.4414">Boolean isLanguageGerman</text><line style="stroke:#181818;stroke-width:0.5;" x1="279.63" x2="1287.6023" y1="199.5433" y2="199.5433"/><ellipse cx="289.63" cy="214.5773" fill="#84BE84" rx="3" ry="3" style="stroke:#038048;stroke-width:1;"/><text fill="#000000" font-family="sans-serif" font-size="14" lengthAdjust="spacing" textLength="39.0179" x="298.63" y="218.5093">User()</text><ellipse cx="289.63" cy="233.6452" fill="#84BE84" rx="3" ry="3" style="stroke:#038048;stroke-width:1;"/><text fill="#000000" font-family="sans-serif" font-size="14" lengthAdjust="spacing" textLength="254.855" x="298.63" y="237.5772">User(String, String, String, String, Role)</text><ellipse cx="289.63" cy="252.7131" fill="#84BE84" rx="3" ry="3" style="stroke:#038048;stroke-width:1;"/><text fill="#000000" font-family="sans-serif" font-size="14" lengthAdjust="spacing" textLength="731.1472" x="298.63" y="256.6451">getId(), getName(), getSurname(), getEmail(), getPasswordHash(), getRole(), isDarkMode(), isLanguageGerman()</text><ellipse cx="289.63" cy="271.781" fill="#84BE84" rx="3" ry="3" style="stroke:#038048;stroke-width:1;"/><text fill="#000000" font-family="sans-serif" font-size="14" lengthAdjust="spacing" textLength="983.9723" x="298.63" y="275.713">setName(String), setSurname(String), setEmail(String), setPasswordHash(String), setRole(Role), setDarkMode(Boolean), setLanguageGerman(Boolean)</text></g><!--class UserDTO--><g id="elem_UserDTO"><rect codeLine="17" fill="#F1F1F1" height="238.6792" id="UserDTO" rx="2.5" ry="2.5" style="stroke:#181818;stroke-width:0.5;" width="555.24" x="7" y="362.81"/><ellipse cx="250.5921" cy="378.81" fill="#ADD1B2" rx="11" ry="11" style="stroke:#181818;stroke-width:1;"/><path d="M250.0609,385.7319 Q248.3109,385.7319 247.1702,384.9975 Q246.0452,384.2475 245.4827,382.9038 Q244.9359,381.5444 244.9359,379.7475 Q244.9359,377.7163 245.5921,376.2631 Q246.2484,374.81 247.5296,374.0288 Q248.8109,373.2475 250.6859,373.2475 Q251.5765,373.2475 252.2484,373.435 Q252.9202,373.6069 253.6077,373.9506 L252.7952,375.9663 Q252.1702,375.6538 251.6234,375.5288 Q251.0921,375.4038 250.6077,375.4038 Q249.4359,375.4038 248.7327,375.935 Q248.0296,376.4663 247.7327,377.4194 Q247.4359,378.3725 247.4359,379.6381 Q247.4359,381.6538 248.1546,382.6225 Q248.8734,383.5756 250.4671,383.5756 Q251.0609,383.5756 251.6859,383.4194 Q252.3109,383.2631 253.139,382.8881 L253.139,385.1069 Q252.4046,385.4194 251.6077,385.5756 Q250.8265,385.7319 250.0609,385.7319 Z " fill="#000000"/><text fill="#000000" font-family="sans-serif" font-size="14" lengthAdjust="spacing" textLength="59.5558" x="271.0921" y="384.242">UserDTO</text><line style="stroke:#181818;stroke-width:0.5;" x1="8" x2="561.24" y1="394.81" y2="394.81"/><rect fill="transparent" height="6" style="stroke:#C82930;stroke-width:1;" width="6" x="15" y="406.844"/><text fill="#000000" font-family="sans-serif" font-size="14" lengthAdjust="spacing" textLength="51.2958" x="27" y="413.7759">UUID id</text><rect fill="transparent" height="6" style="stroke:#C82930;stroke-width:1;" width="6" x="15" y="425.9119"/><text fill="#000000" font-family="sans-serif" font-size="14" lengthAdjust="spacing" textLength="80.5277" x="27" y="432.8439">String name</text><rect fill="transparent" height="6" style="stroke:#C82930;stroke-width:1;" width="6" x="15" y="444.9798"/><text fill="#000000" font-family="sans-serif" font-size="14" lengthAdjust="spacing" textLength="101.6676" x="27" y="451.9118">String surname</text><rect fill="transparent" height="6" style="stroke:#C82930;stroke-width:1;" width="6" x="15" y="464.0477"/><text fill="#000000" font-family="sans-serif" font-size="14" lengthAdjust="spacing" textLength="79.0997" x="27" y="470.9797">String email</text><rect fill="transparent" height="6" style="stroke:#C82930;stroke-width:1;" width="6" x="15" y="483.1156"/><text fill="#000000" font-family="sans-serif" font-size="14" lengthAdjust="spacing" textLength="58.0858" x="27" y="490.0476">Role role</text><line style="stroke:#181818;stroke-width:0.5;" x1="8" x2="561.24" y1="498.1496" y2="498.1496"/><ellipse cx="18" cy="513.1835" fill="#84BE84" rx="3" ry="3" style="stroke:#038048;stroke-width:1;"/><text fill="#000000" font-family="sans-serif" font-size="14" lengthAdjust="spacing" textLength="67.9557" x="27" y="517.1155">UserDTO()</text><ellipse cx="18" cy="532.2515" fill="#84BE84" rx="3" ry="3" style="stroke:#038048;stroke-width:1;"/><text fill="#000000" font-family="sans-serif" font-size="14" lengthAdjust="spacing" textLength="279.8309" x="27" y="536.1834">UserDTO(UUID, String, String, String, Role)</text><ellipse cx="18" cy="551.3194" fill="#84BE84" rx="3" ry="3" style="stroke:#038048;stroke-width:1;"/><text fill="#000000" font-family="sans-serif" font-size="14" lengthAdjust="spacing" textLength="98.5736" x="27" y="555.2514">UserDTO(User)</text><ellipse cx="18" cy="570.3873" fill="#84BE84" rx="3" ry="3" style="stroke:#038048;stroke-width:1;"/><text fill="#000000" font-family="sans-serif" font-size="14" lengthAdjust="spacing" textLength="356.4526" x="27" y="574.3193">getId(), getName(), getSurname(), getEmail(), getRole()</text><ellipse cx="18" cy="589.4552" fill="#84BE84" rx="3" ry="3" style="stroke:#038048;stroke-width:1;"/><text fill="#000000" font-family="sans-serif" font-size="14" lengthAdjust="spacing" textLength="529.24" x="27" y="593.3872">setId(UUID), setName(String), setSurname(String), setEmail(String), setRole(Role)</text></g><!--class SettingsDTO--><g id="elem_SettingsDTO"><rect codeLine="31" fill="#F1F1F1" height="162.4075" id="SettingsDTO" rx="2.5" ry="2.5" style="stroke:#181818;stroke-width:0.5;" width="372.0786" x="597.58" y="400.95"/><ellipse cx="738.2655" cy="416.95" fill="#ADD1B2" rx="11" ry="11" style="stroke:#181818;stroke-width:1;"/><path d="M737.7342,423.8719 Q735.9842,423.8719 734.8436,423.1375 Q733.7186,422.3875 733.1561,421.0438 Q732.6092,419.6844 732.6092,417.8875 Q732.6092,415.8563 733.2655,414.4031 Q733.9217,412.95 735.203,412.1688 Q736.4842,411.3875 738.3592,411.3875 Q739.2499,411.3875 739.9217,411.575 Q740.5936,411.7469 741.2811,412.0906 L740.4686,414.1063 Q739.8436,413.7938 739.2967,413.6688 Q738.7655,413.5438 738.2811,413.5438 Q737.1092,413.5438 736.4061,414.075 Q735.703,414.6063 735.4061,415.5594 Q735.1092,416.5125 735.1092,417.7781 Q735.1092,419.7938 735.828,420.7625 Q736.5467,421.7156 738.1405,421.7156 Q738.7342,421.7156 739.3592,421.5594 Q739.9842,421.4031 740.8124,421.0281 L740.8124,423.2469 Q740.078,423.5594 739.2811,423.7156 Q738.4999,423.8719 737.7342,423.8719 Z " fill="#000000"/><text fill="#000000" font-family="sans-serif" font-size="14" lengthAdjust="spacing" textLength="82.2077" x="758.7655" y="422.382">SettingsDTO</text><line style="stroke:#181818;stroke-width:0.5;" x1="598.58" x2="968.6586" y1="432.95" y2="432.95"/><rect fill="transparent" height="6" style="stroke:#C82930;stroke-width:1;" width="6" x="605.58" y="444.984"/><text fill="#000000" font-family="sans-serif" font-size="14" lengthAdjust="spacing" textLength="125.0895" x="617.58" y="451.9159">Boolean darkMode</text><rect fill="transparent" height="6" style="stroke:#C82930;stroke-width:1;" width="6" x="605.58" y="464.0519"/><text fill="#000000" font-family="sans-serif" font-size="14" lengthAdjust="spacing" textLength="186.9413" x="617.58" y="470.9839">Boolean isLanguageGerman</text><line style="stroke:#181818;stroke-width:0.5;" x1="598.58" x2="968.6586" y1="479.0858" y2="479.0858"/><ellipse cx="608.58" cy="494.1198" fill="#84BE84" rx="3" ry="3" style="stroke:#038048;stroke-width:1;"/><text fill="#000000" font-family="sans-serif" font-size="14" lengthAdjust="spacing" textLength="206.1072" x="617.58" y="498.0518">SettingsDTO(Boolean, Boolean)</text><ellipse cx="608.58" cy="513.1877" fill="#84BE84" rx="3" ry="3" style="stroke:#038048;stroke-width:1;"/><text fill="#000000" font-family="sans-serif" font-size="14" lengthAdjust="spacing" textLength="90.6077" x="617.58" y="517.1197">SettingsDTO()</text><ellipse cx="608.58" cy="532.2556" fill="#84BE84" rx="3" ry="3" style="stroke:#038048;stroke-width:1;"/><text fill="#000000" font-family="sans-serif" font-size="14" lengthAdjust="spacing" textLength="246.231" x="617.58" y="536.1876">isDarkMode(), setDarkMode(Boolean)</text><ellipse cx="608.58" cy="551.3235" fill="#84BE84" rx="3" ry="3" style="stroke:#038048;stroke-width:1;"/><text fill="#000000" font-family="sans-serif" font-size="14" lengthAdjust="spacing" textLength="346.0786" x="617.58" y="555.2555">isLanguageGerman(), setLanguageGerman(Boolean)</text></g><!--class Role--><g id="elem_Role"><rect codeLine="41" fill="#F1F1F1" height="124.2717" id="Role" rx="2.5" ry="2.5" style="stroke:#181818;stroke-width:0.5;" width="86.6757" x="1004.28" y="420.01"/><ellipse cx="1030.9754" cy="436.01" fill="#EB937F" rx="11" ry="11" style="stroke:#181818;stroke-width:1;"/><path d="M1027.3348,442.51 L1027.3348,430.3694 L1034.991,430.3694 L1034.991,432.4944 L1029.7098,432.4944 L1029.7098,435.1506 L1034.7254,435.1506 L1034.7254,437.2756 L1029.7098,437.2756 L1029.7098,440.385 L1034.991,440.385 L1034.991,442.51 L1027.3348,442.51 Z " fill="#000000"/><text fill="#000000" font-family="sans-serif" font-size="14" lengthAdjust="spacing" textLength="28.6859" x="1047.5744" y="441.442">Role</text><line style="stroke:#181818;stroke-width:0.5;" x1="1005.28" x2="1089.9557" y1="452.01" y2="452.01"/><text fill="#000000" font-family="sans-serif" font-size="14" lengthAdjust="spacing" textLength="27.5099" x="1010.28" y="470.9759">ANY</text><text fill="#000000" font-family="sans-serif" font-size="14" lengthAdjust="spacing" textLength="74.6757" x="1010.28" y="490.0439">CUSTOMER</text><text fill="#000000" font-family="sans-serif" font-size="14" lengthAdjust="spacing" textLength="70.7137" x="1010.28" y="509.1118">EMPLOYEE</text><text fill="#000000" font-family="sans-serif" font-size="14" lengthAdjust="spacing" textLength="47.2498" x="1010.28" y="528.1797">ADMIN</text><line style="stroke:#181818;stroke-width:0.5;" x1="1005.28" x2="1089.9557" y1="536.2817" y2="536.2817"/></g><!--link User to Role--><g id="link_User_Role"><path codeLine="48" d="M924.48,284.27 C946.89,309.36 968.84,336.09 987.62,362.81 C999.94,380.34 1011.22,400.75 1020.6,419.63 " fill="transparent" id="User-Role" style="stroke:#181818;stroke-width:1;"/><text fill="#000000" font-family="sans-serif" font-size="13" lengthAdjust="spacing" textLength="82.8231" x="964.44" y="328.707">hat eine Rolle</text><text fill="#000000" font-family="sans-serif" font-size="13" lengthAdjust="spacing" textLength="7.436" x="924.5741" y="305.7836">1</text><text fill="#000000" font-family="sans-serif" font-size="13" lengthAdjust="spacing" textLength="7.436" x="1010.0966" y="408.3566">1</text></g><!--link User to UserDTO--><g id="link_User_UserDTO"><path codeLine="49" d="M578.14,284.25 C539.45,310.2 499.31,337.13 461.59,362.43 " fill="transparent" id="User-UserDTO" style="stroke:#181818;stroke-width:1;"/><text fill="#000000" font-family="sans-serif" font-size="13" lengthAdjust="spacing" textLength="134.7061" x="520.16" y="328.707">wird abgebildet durch</text><text fill="#000000" font-family="sans-serif" font-size="13" lengthAdjust="spacing" textLength="7.436" x="560.3759" y="305.7626">1</text><text fill="#000000" font-family="sans-serif" font-size="13" lengthAdjust="spacing" textLength="21.567" x="451.2726" y="351.1356">0..*</text></g><!--link User to SettingsDTO--><g id="link_User_SettingsDTO"><path codeLine="50" d="M783.62,284.01 C783.62,323.68 783.62,365.66 783.62,400.63 " fill="transparent" id="User-SettingsDTO" style="stroke:#181818;stroke-width:1;"/><text fill="#000000" font-family="sans-serif" font-size="13" lengthAdjust="spacing" textLength="106.4051" x="784.62" y="328.707">hat Einstellungen</text><text fill="#000000" font-family="sans-serif" font-size="13" lengthAdjust="spacing" textLength="7.436" x="776.451" y="305.5102">1</text><text fill="#000000" font-family="sans-serif" font-size="13" lengthAdjust="spacing" textLength="21.567" x="761.6782" y="389.2605">0..*</text></g><!--SRC=[hLHDRy8m3BttLrYSO0EqNRbjQxKXKK2K7ZW6OfLeRJebhJXC- -_BLziKc3QXSI3sYvrd-razv4HAI2KA-0n0_IQGflCG67LUKWd6C-2am3uYQt49Oa5OteS-5C6f5FIDoAExsPGvWb1_pdykbKquK2BUuvAUmqmk2Czgak4hYeBmmDpVcwg78z-nb6FuwTJ4JKA6rPmEHsDjB5KZpaniMywBT3_ENdkDE4Y_fqqcGrUwzVhrjZLAnsJBKP6ou_Cno-eZFMx_mbHWsZ9kMuQRdKNFocdkWgyWEBJwXzlLlwz09xIdaYBggQPzJVWtsTeCTTuifTMjKqLbwmhij6wKg5EYcsk2LQK2f3_R6vVTUweHS0ojafSn3TPVpMihqWQUR-rlkuEyBgp4jhUdvSwSBscoNSNHnZXHl5wiTb5a8y9uljIfveCpU1p0P68EyyeCZgG2P1orhvQc5_KmdTuDsasTmOa92cIVuPxb52kWjJWShwNu8bYAY75POPxNF4F-3G00]--></g></svg>