<svg xmlns="http://www.w3.org/2000/svg" xmlns:xlink="http://www.w3.org/1999/xlink" contentStyleType="text/css" data-diagram-type="CLASS" height="126px" preserveAspectRatio="none" style="width:301px;height:126px;background:#FFFFFF;" version="1.1" viewBox="0 0 301 126" width="301px" zoomAndPan="magnify"><defs/><g><!--class AppointmentController--><g id="elem_AppointmentController"><rect codeLine="1" fill="#F1F1F1" height="105.2038" id="AppointmentController" rx="2.5" ry="2.5" style="stroke:#181818;stroke-width:0.5;" width="280.757" x="7" y="7"/><ellipse cx="66.7168" cy="23" fill="#ADD1B2" rx="11" ry="11" style="stroke:#181818;stroke-width:1;"/><path d="M66.1856,29.9219 Q64.4356,29.9219 63.2949,29.1875 Q62.1699,28.4375 61.6074,27.0938 Q61.0606,25.7344 61.0606,23.9375 Q61.0606,21.9063 61.7168,20.4531 Q62.3731,19 63.6543,18.2188 Q64.9356,17.4375 66.8106,17.4375 Q67.7012,17.4375 68.3731,17.625 Q69.0449,17.7969 69.7324,18.1406 L68.9199,20.1563 Q68.2949,19.8438 67.7481,19.7188 Q67.2168,19.5938 66.7324,19.5938 Q65.5606,19.5938 64.8574,20.125 Q64.1543,20.6563 63.8574,21.6094 Q63.5606,22.5625 63.5606,23.8281 Q63.5606,25.8438 64.2793,26.8125 Q64.9981,27.7656 66.5918,27.7656 Q67.1856,27.7656 67.8106,27.6094 Q68.4356,27.4531 69.2637,27.0781 L69.2637,29.2969 Q68.5293,29.6094 67.7324,29.7656 Q66.9512,29.9219 66.1856,29.9219 Z " fill="#000000"/><text fill="#000000" font-family="sans-serif" font-size="14" lengthAdjust="spacing" textLength="152.8234" x="87.2168" y="28.432">AppointmentController</text><line style="stroke:#181818;stroke-width:0.5;" x1="8" x2="286.757" y1="39" y2="39"/><line style="stroke:#181818;stroke-width:0.5;" x1="8" x2="286.757" y1="47" y2="47"/><ellipse cx="18" cy="62.034" fill="#84BE84" rx="3" ry="3" style="stroke:#038048;stroke-width:1;"/><text fill="#000000" font-family="sans-serif" font-size="14" lengthAdjust="spacing" textLength="249.2831" x="27" y="65.9659">createAppointment(Context ctx) : void</text><ellipse cx="18" cy="81.1019" fill="#84BE84" rx="3" ry="3" style="stroke:#038048;stroke-width:1;"/><text fill="#000000" font-family="sans-serif" font-size="14" lengthAdjust="spacing" textLength="254.757" x="27" y="85.0339">updateAppointment(Context ctx) : void</text><ellipse cx="18" cy="100.1698" fill="#84BE84" rx="3" ry="3" style="stroke:#038048;stroke-width:1;"/><text fill="#000000" font-family="sans-serif" font-size="14" lengthAdjust="spacing" textLength="249.045" x="27" y="104.1018">deleteAppointment(Context ctx) : void</text></g><!--SRC=[Iyv9B2vMS2meoC_CAybDpIjnpiyhAShFoKajKgZcKW02RONaejJ4abGaDHeWHQaL9Gh99HMQ2bOAPVcPAL2rfGKfHAjDISr99Qos5W00]--></g></svg>