<svg xmlns="http://www.w3.org/2000/svg" xmlns:xlink="http://www.w3.org/1999/xlink" contentStyleType="text/css" data-diagram-type="CLASS" height="183px" preserveAspectRatio="none" style="width:347px;height:183px;background:#FFFFFF;" version="1.1" viewBox="0 0 347 183" width="347px" zoomAndPan="magnify"><defs/><g><!--class CustomerController--><g id="elem_CustomerController"><rect codeLine="1" fill="#F1F1F1" height="162.4075" id="CustomerController" rx="2.5" ry="2.5" style="stroke:#181818;stroke-width:0.5;" width="326.8448" x="7" y="7"/><ellipse cx="100.8347" cy="23" fill="#ADD1B2" rx="11" ry="11" style="stroke:#181818;stroke-width:1;"/><path d="M100.3034,29.9219 Q98.5534,29.9219 97.4128,29.1875 Q96.2878,28.4375 95.7253,27.0938 Q95.1784,25.7344 95.1784,23.9375 Q95.1784,21.9063 95.8347,20.4531 Q96.4909,19 97.7722,18.2188 Q99.0534,17.4375 100.9284,17.4375 Q101.819,17.4375 102.4909,17.625 Q103.1628,17.7969 103.8503,18.1406 L103.0378,20.1563 Q102.4128,19.8438 101.8659,19.7188 Q101.3347,19.5938 100.8503,19.5938 Q99.6784,19.5938 98.9753,20.125 Q98.2722,20.6563 97.9753,21.6094 Q97.6784,22.5625 97.6784,23.8281 Q97.6784,25.8438 98.3972,26.8125 Q99.1159,27.7656 100.7097,27.7656 Q101.3034,27.7656 101.9284,27.6094 Q102.5534,27.4531 103.3815,27.0781 L103.3815,29.2969 Q102.6472,29.6094 101.8503,29.7656 Q101.069,29.9219 100.3034,29.9219 Z " fill="#000000"/><text fill="#000000" font-family="sans-serif" font-size="14" lengthAdjust="spacing" textLength="130.6755" x="121.3347" y="28.432">CustomerController</text><line style="stroke:#181818;stroke-width:0.5;" x1="8" x2="332.8448" y1="39" y2="39"/><line style="stroke:#181818;stroke-width:0.5;" x1="8" x2="332.8448" y1="47" y2="47"/><ellipse cx="18" cy="62.034" fill="#84BE84" rx="3" ry="3" style="stroke:#038048;stroke-width:1;"/><text fill="#000000" font-family="sans-serif" font-size="14" lengthAdjust="spacing" textLength="227.1351" x="27" y="65.9659">createCustomer(Context ctx) : void</text><ellipse cx="18" cy="81.1019" fill="#84BE84" rx="3" ry="3" style="stroke:#038048;stroke-width:1;"/><text fill="#000000" font-family="sans-serif" font-size="14" lengthAdjust="spacing" textLength="214.1992" x="27" y="85.0339">getCustomers(Context ctx) : void</text><ellipse cx="18" cy="100.1698" fill="#84BE84" rx="3" ry="3" style="stroke:#038048;stroke-width:1;"/><text fill="#000000" font-family="sans-serif" font-size="14" lengthAdjust="spacing" textLength="207.4932" x="27" y="104.1018">getCustomer(Context ctx) : void</text><ellipse cx="18" cy="119.2377" fill="#84BE84" rx="3" ry="3" style="stroke:#038048;stroke-width:1;"/><text fill="#000000" font-family="sans-serif" font-size="14" lengthAdjust="spacing" textLength="232.6091" x="27" y="123.1697">updateCustomer(Context ctx) : void</text><ellipse cx="18" cy="138.3056" fill="#84BE84" rx="3" ry="3" style="stroke:#038048;stroke-width:1;"/><text fill="#000000" font-family="sans-serif" font-size="14" lengthAdjust="spacing" textLength="226.8971" x="27" y="142.2376">deleteCustomer(Context ctx) : void</text><ellipse cx="18" cy="157.3735" fill="#84BE84" rx="3" ry="3" style="stroke:#038048;stroke-width:1;"/><text fill="#000000" font-family="sans-serif" font-size="14" lengthAdjust="spacing" textLength="300.8448" x="27" y="161.3055">getCustomerAppointments(Context ctx) : void</text></g><!--SRC=[bSun2e0m44JHtbDigNW3Eyb991b4s6H3ieeWtbq5xKJYr0_cMnvo9ZDd5Oza96WIPYJQAZhNaaqO50-eBu5LoUhQK4UBJEw68_HHkOnzg3cwibS7nj-yFaQPWde4VI_T3m00]--></g></svg>