<svg xmlns="http://www.w3.org/2000/svg" xmlns:xlink="http://www.w3.org/1999/xlink" contentStyleType="text/css" data-diagram-type="CLASS" height="183px" preserveAspectRatio="none" style="width:678px;height:183px;background:#FFFFFF;" version="1.1" viewBox="0 0 678 183" width="678px" zoomAndPan="magnify"><defs/><g><!--class TransactionController--><g id="elem_TransactionController"><rect codeLine="1" fill="#F1F1F1" height="162.4075" id="TransactionController" rx="2.5" ry="2.5" style="stroke:#181818;stroke-width:0.5;" width="657.6498" x="7" y="7"/><ellipse cx="259.9162" cy="23" fill="#ADD1B2" rx="11" ry="11" style="stroke:#181818;stroke-width:1;"/><path d="M259.3849,29.9219 Q257.6349,29.9219 256.4943,29.1875 Q255.3693,28.4375 254.8068,27.0938 Q254.2599,25.7344 254.2599,23.9375 Q254.2599,21.9063 254.9162,20.4531 Q255.5724,19 256.8537,18.2188 Q258.1349,17.4375 260.0099,17.4375 Q260.9005,17.4375 261.5724,17.625 Q262.2443,17.7969 262.9318,18.1406 L262.1193,20.1563 Q261.4943,19.8438 260.9474,19.7188 Q260.4162,19.5938 259.9318,19.5938 Q258.7599,19.5938 258.0568,20.125 Q257.3537,20.6563 257.0568,21.6094 Q256.7599,22.5625 256.7599,23.8281 Q256.7599,25.8438 257.4787,26.8125 Q258.1974,27.7656 259.7912,27.7656 Q260.3849,27.7656 261.0099,27.6094 Q261.6349,27.4531 262.463,27.0781 L262.463,29.2969 Q261.7287,29.6094 260.9318,29.7656 Q260.1505,29.9219 259.3849,29.9219 Z " fill="#000000"/><text fill="#000000" font-family="sans-serif" font-size="14" lengthAdjust="spacing" textLength="143.3175" x="280.4162" y="28.432">TransactionController</text><line style="stroke:#181818;stroke-width:0.5;" x1="8" x2="663.6498" y1="39" y2="39"/><line style="stroke:#181818;stroke-width:0.5;" x1="8" x2="663.6498" y1="47" y2="47"/><ellipse cx="18" cy="62.034" fill="#84BE84" rx="3" ry="3" style="stroke:#038048;stroke-width:1;"/><text fill="#000000" font-family="sans-serif" font-size="14" lengthAdjust="spacing" textLength="239.7771" x="27" y="65.9659">createTransaction(Context ctx) : void</text><ellipse cx="18" cy="81.1019" fill="#84BE84" rx="3" ry="3" style="stroke:#038048;stroke-width:1;"/><text fill="#000000" font-family="sans-serif" font-size="14" lengthAdjust="spacing" textLength="226.8411" x="27" y="85.0339">getTransactions(Context ctx) : void</text><ellipse cx="18" cy="100.1698" fill="#84BE84" rx="3" ry="3" style="stroke:#038048;stroke-width:1;"/><text fill="#000000" font-family="sans-serif" font-size="14" lengthAdjust="spacing" textLength="220.1352" x="27" y="104.1018">getTransaction(Context ctx) : void</text><rect fill="#F24D5C" height="6" style="stroke:#C82930;stroke-width:1;" width="6" x="15" y="116.2377"/><text fill="#000000" font-family="sans-serif" font-size="14" lengthAdjust="spacing" textLength="631.6498" x="27" y="123.1697">isValidStatusTransition(TransactionStatus currentStatus, TransactionStatus newStatus) : boolean</text><ellipse cx="18" cy="138.3056" fill="#84BE84" rx="3" ry="3" style="stroke:#038048;stroke-width:1;"/><text fill="#000000" font-family="sans-serif" font-size="14" lengthAdjust="spacing" textLength="245.2511" x="27" y="142.2376">updateTransaction(Context ctx) : void</text><ellipse cx="18" cy="157.3735" fill="#84BE84" rx="3" ry="3" style="stroke:#038048;stroke-width:1;"/><text fill="#000000" font-family="sans-serif" font-size="14" lengthAdjust="spacing" textLength="225.5951" x="27" y="161.3055">generateReport(Context ctx) : void</text></g><!--SRC=[bSz12W8n30NGlQV8Kb4luDORgBYFRP12IOOarG7nxivCPr5GGRDAoVka2HdDuAJ8Xi6Jy5xOLN8cXSS2Xbf3K4AdnYn7HBr3y7u5ExX9YhEzaZVGVfPVuHQIdJ6dU7JqObCaJOacNMSGYYgnrzS6tW7JlNRZYej89kJvEwMBVnp9f8C-K2Vg7-7p1G00]--></g></svg>