<svg xmlns="http://www.w3.org/2000/svg" xmlns:xlink="http://www.w3.org/1999/xlink" contentStyleType="text/css" data-diagram-type="CLASS" height="259px" preserveAspectRatio="none" style="width:283px;height:259px;background:#FFFFFF;" version="1.1" viewBox="0 0 283 259" width="283px" zoomAndPan="magnify"><defs/><g><!--class UserController--><g id="elem_UserController"><rect codeLine="1" fill="#F1F1F1" height="238.6792" id="UserController" rx="2.5" ry="2.5" style="stroke:#181818;stroke-width:0.5;" width="262.3471" x="7" y="7"/><ellipse cx="85.5257" cy="23" fill="#ADD1B2" rx="11" ry="11" style="stroke:#181818;stroke-width:1;"/><path d="M84.9945,29.9219 Q83.2445,29.9219 82.1039,29.1875 Q80.9789,28.4375 80.4164,27.0938 Q79.8695,25.7344 79.8695,23.9375 Q79.8695,21.9063 80.5257,20.4531 Q81.182,19 82.4632,18.2188 Q83.7445,17.4375 85.6195,17.4375 Q86.5101,17.4375 87.182,17.625 Q87.8539,17.7969 88.5414,18.1406 L87.7289,20.1563 Q87.1039,19.8438 86.557,19.7188 Q86.0257,19.5938 85.5414,19.5938 Q84.3695,19.5938 83.6664,20.125 Q82.9632,20.6563 82.6664,21.6094 Q82.3695,22.5625 82.3695,23.8281 Q82.3695,25.8438 83.0882,26.8125 Q83.807,27.7656 85.4007,27.7656 Q85.9945,27.7656 86.6195,27.6094 Q87.2445,27.4531 88.0726,27.0781 L88.0726,29.2969 Q87.3382,29.6094 86.5414,29.7656 Q85.7601,29.9219 84.9945,29.9219 Z " fill="#000000"/><text fill="#000000" font-family="sans-serif" font-size="14" lengthAdjust="spacing" textLength="96.7956" x="106.0257" y="28.432">UserController</text><line style="stroke:#181818;stroke-width:0.5;" x1="8" x2="268.3471" y1="39" y2="39"/><rect fill="transparent" height="6" style="stroke:#C82930;stroke-width:1;" width="6" x="15" y="51.034"/><text fill="#000000" font-family="sans-serif" font-size="14" lengthAdjust="spacing" textLength="99.4836" x="27" y="57.9659">Argon2 argon2</text><line style="stroke:#181818;stroke-width:0.5;" x1="8" x2="268.3471" y1="66.0679" y2="66.0679"/><ellipse cx="18" cy="81.1019" fill="#84BE84" rx="3" ry="3" style="stroke:#038048;stroke-width:1;"/><text fill="#000000" font-family="sans-serif" font-size="14" lengthAdjust="spacing" textLength="105.1956" x="27" y="85.0339">UserController()</text><ellipse cx="18" cy="100.1698" fill="#84BE84" rx="3" ry="3" style="stroke:#038048;stroke-width:1;"/><text fill="#000000" font-family="sans-serif" font-size="14" lengthAdjust="spacing" textLength="154.3914" x="27" y="104.1018">login(Context ctx) : void</text><ellipse cx="18" cy="119.2377" fill="#84BE84" rx="3" ry="3" style="stroke:#038048;stroke-width:1;"/><text fill="#000000" font-family="sans-serif" font-size="14" lengthAdjust="spacing" textLength="172.7733" x="27" y="123.1697">register(Context ctx) : void</text><ellipse cx="18" cy="138.3056" fill="#84BE84" rx="3" ry="3" style="stroke:#038048;stroke-width:1;"/><text fill="#000000" font-family="sans-serif" font-size="14" lengthAdjust="spacing" textLength="180.3193" x="27" y="142.2376">getUsers(Context ctx) : void</text><ellipse cx="18" cy="157.3735" fill="#84BE84" rx="3" ry="3" style="stroke:#038048;stroke-width:1;"/><text fill="#000000" font-family="sans-serif" font-size="14" lengthAdjust="spacing" textLength="173.6133" x="27" y="161.3055">getUser(Context ctx) : void</text><ellipse cx="18" cy="176.4415" fill="#84BE84" rx="3" ry="3" style="stroke:#038048;stroke-width:1;"/><text fill="#000000" font-family="sans-serif" font-size="14" lengthAdjust="spacing" textLength="214.1992" x="27" y="180.3734">getEmployees(Context ctx) : void</text><ellipse cx="18" cy="195.5094" fill="#84BE84" rx="3" ry="3" style="stroke:#038048;stroke-width:1;"/><text fill="#000000" font-family="sans-serif" font-size="14" lengthAdjust="spacing" textLength="236.3471" x="27" y="199.4414">getAppointments(Context ctx) : void</text><ellipse cx="18" cy="214.5773" fill="#84BE84" rx="3" ry="3" style="stroke:#038048;stroke-width:1;"/><text fill="#000000" font-family="sans-serif" font-size="14" lengthAdjust="spacing" textLength="196.2653" x="27" y="218.5093">getSettings(Context ctx) : void</text><ellipse cx="18" cy="233.6452" fill="#84BE84" rx="3" ry="3" style="stroke:#038048;stroke-width:1;"/><text fill="#000000" font-family="sans-serif" font-size="14" lengthAdjust="spacing" textLength="221.3812" x="27" y="237.5772">updateSettings(Context ctx) : void</text></g><!--SRC=[XSn12i9030NGVK-HPOkuSUckY2SG3p2qOGYaoJ29KX7lRbkw4fp99f3_yWSEPd0tp1SLpygC6TuDB7E4FaUL4uHjDTlny6FRRZ-pHf9s3N1s67pku0nFfN7FCqOoNnx-auY-bbkTbCLrIgmln4fHdvAI-8JY5Nb3Tv9OKeyq1iSY_7m1]--></g></svg>