<svg xmlns="http://www.w3.org/2000/svg" xmlns:xlink="http://www.w3.org/1999/xlink" contentStyleType="text/css" data-diagram-type="CLASS" height="164px" preserveAspectRatio="none" style="width:476px;height:164px;background:#FFFFFF;" version="1.1" viewBox="0 0 476 164" width="476px" zoomAndPan="magnify"><defs/><g><!--class AppointmentService--><g id="elem_AppointmentService"><rect codeLine="1" fill="#F1F1F1" height="143.3396" id="AppointmentService" rx="2.5" ry="2.5" style="stroke:#181818;stroke-width:0.5;" width="455.8405" x="7" y="7"/><ellipse cx="163.9955" cy="23" fill="#ADD1B2" rx="11" ry="11" style="stroke:#181818;stroke-width:1;"/><path d="M163.4642,29.9219 Q161.7142,29.9219 160.5736,29.1875 Q159.4486,28.4375 158.8861,27.0938 Q158.3392,25.7344 158.3392,23.9375 Q158.3392,21.9063 158.9955,20.4531 Q159.6517,19 160.933,18.2188 Q162.2142,17.4375 164.0892,17.4375 Q164.9799,17.4375 165.6517,17.625 Q166.3236,17.7969 167.0111,18.1406 L166.1986,20.1563 Q165.5736,19.8438 165.0267,19.7188 Q164.4955,19.5938 164.0111,19.5938 Q162.8392,19.5938 162.1361,20.125 Q161.433,20.6563 161.1361,21.6094 Q160.8392,22.5625 160.8392,23.8281 Q160.8392,25.8438 161.558,26.8125 Q162.2767,27.7656 163.8705,27.7656 Q164.4642,27.7656 165.0892,27.6094 Q165.7142,27.4531 166.5424,27.0781 L166.5424,29.2969 Q165.808,29.6094 165.0111,29.7656 Q164.2299,29.9219 163.4642,29.9219 Z " fill="#000000"/><text fill="#000000" font-family="sans-serif" font-size="14" lengthAdjust="spacing" textLength="133.3495" x="184.4955" y="28.432">AppointmentService</text><line style="stroke:#181818;stroke-width:0.5;" x1="8" x2="461.8405" y1="39" y2="39"/><line style="stroke:#181818;stroke-width:0.5;" x1="8" x2="461.8405" y1="47" y2="47"/><ellipse cx="18" cy="62.034" fill="#84BE84" rx="3" ry="3" style="stroke:#038048;stroke-width:1;"/><text fill="#000000" font-family="sans-serif" font-size="14" lengthAdjust="spacing" textLength="429.8405" x="27" y="65.9659">createAppointment(CreateAppointment appointment_data) : void</text><ellipse cx="18" cy="81.1019" fill="#84BE84" rx="3" ry="3" style="stroke:#038048;stroke-width:1;"/><text fill="#000000" font-family="sans-serif" font-size="14" lengthAdjust="spacing" textLength="370.5646" x="27" y="85.0339">getUserAppointments(UUID id) : List&lt;AppointmentDTO&gt;</text><ellipse cx="18" cy="100.1698" fill="#84BE84" rx="3" ry="3" style="stroke:#038048;stroke-width:1;"/><text fill="#000000" font-family="sans-serif" font-size="14" lengthAdjust="spacing" textLength="404.4445" x="27" y="104.1018">getCustomerAppointments(UUID id) : List&lt;AppointmentDTO&gt;</text><ellipse cx="18" cy="119.2377" fill="#84BE84" rx="3" ry="3" style="stroke:#038048;stroke-width:1;"/><text fill="#000000" font-family="sans-serif" font-size="14" lengthAdjust="spacing" textLength="265.579" x="27" y="123.1697">getAppointment(UUID id) : Appointment</text><ellipse cx="18" cy="138.3056" fill="#84BE84" rx="3" ry="3" style="stroke:#038048;stroke-width:1;"/><text fill="#000000" font-family="sans-serif" font-size="14" lengthAdjust="spacing" textLength="226.1411" x="27" y="142.2376">deleteAppointment(UUID id) : void</text></g><!--SRC=[Iyv9B2vMS2meoC_CAybDpIi9JYqgoqnELQZcKW02RONaejJ4abGa1HhEw28AYGXsV4fYIQAcWfL2MNvc2jI8zDIIqEBK8YGTnHgXePuk2faf89K-cSKbDaYIBY7-TWYTpgN59VcvvEf6TZUI9YHXgDgKr9nKL6yYAGVxfHO0]--></g></svg>