<svg xmlns="http://www.w3.org/2000/svg" xmlns:xlink="http://www.w3.org/1999/xlink" contentStyleType="text/css" data-diagram-type="CLASS" height="164px" preserveAspectRatio="none" style="width:409px;height:164px;background:#FFFFFF;" version="1.1" viewBox="0 0 409 164" width="409px" zoomAndPan="magnify"><defs/><g><!--class CustomerService--><g id="elem_CustomerService"><rect codeLine="1" fill="#F1F1F1" height="143.3396" id="CustomerService" rx="2.5" ry="2.5" style="stroke:#181818;stroke-width:0.5;" width="388.8647" x="7" y="7"/><ellipse cx="141.5816" cy="23" fill="#ADD1B2" rx="11" ry="11" style="stroke:#181818;stroke-width:1;"/><path d="M141.0503,29.9219 Q139.3003,29.9219 138.1597,29.1875 Q137.0347,28.4375 136.4722,27.0938 Q135.9253,25.7344 135.9253,23.9375 Q135.9253,21.9063 136.5816,20.4531 Q137.2378,19 138.5191,18.2188 Q139.8003,17.4375 141.6753,17.4375 Q142.5659,17.4375 143.2378,17.625 Q143.9097,17.7969 144.5972,18.1406 L143.7847,20.1563 Q143.1597,19.8438 142.6128,19.7188 Q142.0816,19.5938 141.5972,19.5938 Q140.4253,19.5938 139.7222,20.125 Q139.0191,20.6563 138.7222,21.6094 Q138.4253,22.5625 138.4253,23.8281 Q138.4253,25.8438 139.1441,26.8125 Q139.8628,27.7656 141.4566,27.7656 Q142.0503,27.7656 142.6753,27.6094 Q143.3003,27.4531 144.1284,27.0781 L144.1284,29.2969 Q143.3941,29.6094 142.5972,29.7656 Q141.8159,29.9219 141.0503,29.9219 Z " fill="#000000"/><text fill="#000000" font-family="sans-serif" font-size="14" lengthAdjust="spacing" textLength="111.2016" x="162.0816" y="28.432">CustomerService</text><line style="stroke:#181818;stroke-width:0.5;" x1="8" x2="394.8647" y1="39" y2="39"/><line style="stroke:#181818;stroke-width:0.5;" x1="8" x2="394.8647" y1="47" y2="47"/><ellipse cx="18" cy="62.034" fill="#84BE84" rx="3" ry="3" style="stroke:#038048;stroke-width:1;"/><text fill="#000000" font-family="sans-serif" font-size="14" lengthAdjust="spacing" textLength="283.4429" x="27" y="65.9659">createCustomer(Customer customer) : void</text><ellipse cx="18" cy="81.1019" fill="#84BE84" rx="3" ry="3" style="stroke:#038048;stroke-width:1;"/><text fill="#000000" font-family="sans-serif" font-size="14" lengthAdjust="spacing" textLength="215.4172" x="27" y="85.0339">getCustomers() : List&lt;Customer&gt;</text><ellipse cx="18" cy="100.1698" fill="#84BE84" rx="3" ry="3" style="stroke:#038048;stroke-width:1;"/><text fill="#000000" font-family="sans-serif" font-size="14" lengthAdjust="spacing" textLength="250.879" x="27" y="104.1018">getCustomerById(UUID id) : Customer</text><ellipse cx="18" cy="119.2377" fill="#84BE84" rx="3" ry="3" style="stroke:#038048;stroke-width:1;"/><text fill="#000000" font-family="sans-serif" font-size="14" lengthAdjust="spacing" textLength="362.8647" x="27" y="123.1697">updateCustomer(UUID id, UpdateCustomer data) : void</text><ellipse cx="18" cy="138.3056" fill="#84BE84" rx="3" ry="3" style="stroke:#038048;stroke-width:1;"/><text fill="#000000" font-family="sans-serif" font-size="14" lengthAdjust="spacing" textLength="203.9932" x="27" y="142.2376">deleteCustomer(UUID id) : void</text></g><!--SRC=[Iyv9B2vMS2ujBidFJIqAJYqgoqnELQZcKW02RONaejJ4abIOh0QCeP0CPMWgM2cKvMUcG9MdfvR0b1HhWEHyCejBR612TfYgd2ezKpH2GprT539JGEfXub2LfGKfoDP35UeeXAA8Am0vYMWkIKdDISNK2LTK2m00]--></g></svg>