<svg xmlns="http://www.w3.org/2000/svg" xmlns:xlink="http://www.w3.org/1999/xlink" contentStyleType="text/css" data-diagram-type="CLASS" height="107px" preserveAspectRatio="none" style="width:461px;height:107px;background:#FFFFFF;" version="1.1" viewBox="0 0 461 107" width="461px" zoomAndPan="magnify"><defs/><g><!--class LogService--><g id="elem_LogService"><rect codeLine="1" fill="#F1F1F1" height="86.1358" id="LogService" rx="2.5" ry="2.5" style="stroke:#181818;stroke-width:0.5;" width="440.1605" x="7" y="7"/><ellipse cx="187.2704" cy="23" fill="#ADD1B2" rx="11" ry="11" style="stroke:#181818;stroke-width:1;"/><path d="M186.7391,29.9219 Q184.9891,29.9219 183.8485,29.1875 Q182.7235,28.4375 182.161,27.0938 Q181.6141,25.7344 181.6141,23.9375 Q181.6141,21.9063 182.2704,20.4531 Q182.9266,19 184.2079,18.2188 Q185.4891,17.4375 187.3641,17.4375 Q188.2547,17.4375 188.9266,17.625 Q189.5985,17.7969 190.286,18.1406 L189.4735,20.1563 Q188.8485,19.8438 188.3016,19.7188 Q187.7704,19.5938 187.286,19.5938 Q186.1141,19.5938 185.411,20.125 Q184.7079,20.6563 184.411,21.6094 Q184.1141,22.5625 184.1141,23.8281 Q184.1141,25.8438 184.8329,26.8125 Q185.5516,27.7656 187.1454,27.7656 Q187.7391,27.7656 188.3641,27.6094 Q188.9891,27.4531 189.8172,27.0781 L189.8172,29.2969 Q189.0829,29.6094 188.286,29.7656 Q187.5047,29.9219 186.7391,29.9219 Z " fill="#000000"/><text fill="#000000" font-family="sans-serif" font-size="14" lengthAdjust="spacing" textLength="71.1197" x="207.7704" y="28.432">LogService</text><line style="stroke:#181818;stroke-width:0.5;" x1="8" x2="446.1605" y1="39" y2="39"/><line style="stroke:#181818;stroke-width:0.5;" x1="8" x2="446.1605" y1="47" y2="47"/><ellipse cx="18" cy="62.034" fill="#84BE84" rx="3" ry="3" style="stroke:#038048;stroke-width:1;"/><text fill="#000000" font-family="sans-serif" font-size="14" lengthAdjust="spacing" textLength="414.1605" x="27" y="65.9659">createEntry(String message, LogType type, UUID user_id) : void</text><ellipse cx="18" cy="81.1019" fill="#84BE84" rx="3" ry="3" style="stroke:#038048;stroke-width:1;"/><text fill="#000000" font-family="sans-serif" font-size="14" lengthAdjust="spacing" textLength="239.4691" x="27" y="85.0339">getLogs(GetLogs criteria) : List&lt;Log&gt;</text></g><!--SRC=[BOmn2i9G44Jxd6BAY3c1Y9KYGhgOMZu_msT14zbT0q6yknjqYXaO7Y_VandQgNJKMJBnhX3P8YkJypIwBdNdAcF1WsQfi5dnw_8aFAf1tr-EU1dr9iC6EyoJ37z9eGThzVct8HMdIbgnLiptyHwgpnS0]--></g></svg>